<?xml version="1.0" encoding="UTF-8" standalone="no"?>
<svg
   xmlns:dc="http://purl.org/dc/elements/1.1/"
   xmlns:cc="http://creativecommons.org/ns#"
   xmlns:rdf="http://www.w3.org/1999/02/22-rdf-syntax-ns#"
   xmlns:svg="http://www.w3.org/2000/svg"
   xmlns="http://www.w3.org/2000/svg"
   xmlns:sodipodi="http://sodipodi.sourceforge.net/DTD/sodipodi-0.dtd"
   xmlns:inkscape="http://www.inkscape.org/namespaces/inkscape"
   width="5.6521611in"
   height="6.3412886in"
   viewBox="0 0 143.56489 161.06873"
   version="1.1"
   id="svg8"
   inkscape:version="1.0 (4035a4f, 2020-05-01)"
   sodipodi:docname="bytecode-count1.svg">
  <defs
     id="defs2">
    <marker
       inkscape:stockid="Arrow2Lend"
       orient="auto"
       refY="0.0"
       refX="0.0"
       id="Arrow2Lend"
       style="overflow:visible;"
       inkscape:isstock="true">
      <path
         id="path2012"
         style="fill-rule:evenodd;stroke-width:0.625;stroke-linejoin:round;stroke:#000000;stroke-opacity:1;fill:#000000;fill-opacity:1"
         d="M 8.7185878,4.0337352 L -2.2072895,0.016013256 L 8.7185884,-4.0017078 C 6.9730900,-1.6296469 6.9831476,1.6157441 8.7185878,4.0337352 z "
         transform="scale(1.1) rotate(180) translate(1,0)" />
    </marker>
  </defs>
  <sodipodi:namedview
     id="base"
     pagecolor="#ffffff"
     bordercolor="#666666"
     borderopacity="1.0"
     inkscape:pageopacity="0.0"
     inkscape:pageshadow="2"
     inkscape:zoom="0.72453076"
     inkscape:cx="-136.28854"
     inkscape:cy="344.79998"
     inkscape:document-units="mm"
     inkscape:current-layer="layer1"
     inkscape:document-rotation="0"
     showgrid="false"
     inkscape:window-width="1440"
     inkscape:window-height="855"
     inkscape:window-x="0"
     inkscape:window-y="23"
     inkscape:window-maximized="0"
     units="in"
     fit-margin-top="0.1"
     fit-margin-left="0"
     fit-margin-right="0"
     fit-margin-bottom="0" />
  <metadata
     id="metadata5">
    <rdf:RDF>
      <cc:Work
         rdf:about="">
        <dc:format>image/svg+xml</dc:format>
        <dc:type
           rdf:resource="http://purl.org/dc/dcmitype/StillImage" />
        <dc:title />
      </cc:Work>
    </rdf:RDF>
  </metadata>
  <g
     inkscape:label="Layer 1"
     inkscape:groupmode="layer"
     id="layer1"
     transform="translate(-53.696422,-61.355374)"
     sodipodi:insensitive="true">
    <g
       id="g1650"
       transform="translate(-12.634002,7.9462926)">
      <g
         id="g1482">
        <path
           id="path873"
           style="font-style:normal;font-variant:normal;font-weight:normal;font-stretch:normal;font-size:10.5833px;line-height:2;font-family:Inconsolata;-inkscape-font-specification:Inconsolata;stroke-width:0.193894"
           d="m 77.518886,91.272324 q 0.713527,0 1.101313,0.659236 0.395542,0.659237 0.395542,1.81484 0,1.186626 -0.387786,1.830351 -0.387786,0.643725 -1.109069,0.643725 -0.721282,0 -1.109068,-0.643725 -0.387786,-0.643725 -0.387786,-1.830351 0,-1.155603 0.387786,-1.81484 0.395542,-0.659236 1.109068,-0.659236 z m 0,0.473099 q -0.442076,0 -0.690259,0.542901 -0.248183,0.535145 -0.248183,1.458076 0,0.504122 0.0698,0.891909 L 78.294458,92.51324 Q 78.178122,92.140965 77.976473,91.947072 77.78258,91.745423 77.518886,91.745423 Z m 0,4.001954 q 0.442077,0 0.69026,-0.519633 0.248183,-0.519634 0.248183,-1.481344 0,-0.449832 -0.05429,-0.775572 l -1.644215,2.094045 q 0.248184,0.682504 0.760061,0.682504 z" />
        <path
           id="path875"
           style="font-style:normal;font-variant:normal;font-weight:normal;font-stretch:normal;font-size:10.5833px;line-height:2;font-family:Inconsolata;-inkscape-font-specification:Inconsolata;stroke-width:0.193894"
           d="m 81.30368,93.7464 q -0.178382,0 -0.317985,-0.131847 -0.139603,-0.131848 -0.139603,-0.31023 0,-0.186137 0.131847,-0.317984 0.139604,-0.131847 0.325741,-0.131847 0.186137,0 0.32574,0.131847 0.139603,0.131847 0.139603,0.317984 0,0.178382 -0.139603,0.31023 -0.139603,0.131847 -0.32574,0.131847 z m 0,2.474076 q -0.193894,0 -0.325741,-0.124091 -0.131847,-0.131848 -0.131847,-0.317985 0,-0.186137 0.131847,-0.317984 0.139604,-0.131848 0.325741,-0.131848 0.186137,0 0.32574,0.131848 0.139603,0.131847 0.139603,0.317984 0,0.178382 -0.139603,0.310229 -0.131847,0.131847 -0.32574,0.131847 z" />
        <path
           id="path877"
           style="font-style:normal;font-variant:normal;font-weight:normal;font-stretch:normal;font-size:10.5833px;line-height:2;font-family:Inconsolata;-inkscape-font-specification:Inconsolata;stroke-width:0.193894"
           d="m 87.989116,95.685331 h 0.90742 v -2.644702 h -0.860885 v -0.449832 h 1.419298 v 3.094534 h 0.829862 v 0.449833 h -2.295695 z m 1.155604,-3.839084 q -0.162871,0 -0.279206,-0.116335 -0.116337,-0.116336 -0.116337,-0.279206 0,-0.170627 0.108581,-0.286962 0.116336,-0.116336 0.286962,-0.116336 0.16287,0 0.279205,0.124091 0.124092,0.116337 0.124092,0.279207 0,0.16287 -0.124092,0.279206 -0.116335,0.116335 -0.279205,0.116335 z" />
        <path
           id="path879"
           style="font-style:normal;font-variant:normal;font-weight:normal;font-stretch:normal;font-size:10.5833px;line-height:2;font-family:Inconsolata;-inkscape-font-specification:Inconsolata;stroke-width:0.193894"
           d="m 93.30179,96.220476 q -0.511878,0 -0.915175,-0.240427 -0.403298,-0.240427 -0.63597,-0.659237 -0.224916,-0.426564 -0.224916,-0.953954 0,-0.527389 0.224916,-0.946198 0.232672,-0.418809 0.63597,-0.659237 0.403297,-0.240428 0.90742,-0.240428 0.426564,0 0.775572,0.178382 0.349008,0.170626 0.566168,0.480855 l -0.349008,0.341252 -0.05429,0.05429 -0.03878,-0.03878 q 0,-0.0698 -0.03102,-0.124091 -0.02327,-0.06205 -0.116336,-0.139604 -0.16287,-0.147358 -0.356763,-0.209404 -0.193893,-0.0698 -0.457588,-0.0698 -0.302473,0 -0.566167,0.170626 -0.255939,0.16287 -0.411054,0.465344 -0.155115,0.302473 -0.155115,0.698015 0,0.395542 0.155115,0.713527 0.16287,0.317985 0.442076,0.496367 0.286962,0.178381 0.635969,0.178381 0.535146,0 0.922932,-0.434321 l 0.325741,0.380031 q -0.519635,0.558412 -1.279695,0.558412 z" />
        <path
           id="path881"
           style="font-style:normal;font-variant:normal;font-weight:normal;font-stretch:normal;font-size:10.5833px;line-height:2;font-family:Inconsolata;-inkscape-font-specification:Inconsolata;stroke-width:0.193894"
           d="m 96.908202,96.197209 q -0.473099,0 -0.845374,-0.232672 -0.372275,-0.232671 -0.58168,-0.65148 -0.209404,-0.418809 -0.209404,-0.953955 0,-0.535144 0.209404,-0.953954 0.209405,-0.418809 0.58168,-0.651481 0.372275,-0.240427 0.845374,-0.240427 0.473099,0 0.845374,0.240427 0.372275,0.232672 0.58168,0.651481 0.209404,0.41881 0.209404,0.953954 0,0.535146 -0.209404,0.953955 -0.209405,0.418809 -0.58168,0.65148 -0.372275,0.232672 -0.845374,0.232672 z m 0,-0.465343 q 0.302473,0 0.535145,-0.178382 0.240427,-0.178382 0.372275,-0.488611 0.139603,-0.317984 0.139603,-0.713526 0,-0.604947 -0.294717,-0.984977 -0.294718,-0.387787 -0.752306,-0.387787 -0.457588,0 -0.752306,0.387787 -0.294717,0.38003 -0.294717,0.984977 0,0.395542 0.131847,0.713526 0.139603,0.310229 0.372275,0.488611 0.240428,0.178382 0.542901,0.178382 z" />
        <path
           id="path883"
           style="font-style:normal;font-variant:normal;font-weight:normal;font-stretch:normal;font-size:10.5833px;line-height:2;font-family:Inconsolata;-inkscape-font-specification:Inconsolata;stroke-width:0.193894"
           d="m 99.405545,92.590797 h 0.5429 v 0.628214 q 0.209405,-0.32574 0.527395,-0.519634 0.31798,-0.193893 0.67474,-0.193893 0.4731,0 0.75231,0.364519 0.28696,0.356763 0.28696,1.116825 v 2.148336 h -0.5429 v -2.132825 q 0,-0.527389 -0.17838,-0.767817 -0.17839,-0.240428 -0.4731,-0.240428 -0.24043,0 -0.48861,0.139604 -0.24043,0.139603 -0.4033,0.395542 -0.155115,0.248183 -0.155115,0.566168 v 2.039756 h -0.5429 z" />
        <path
           id="path885"
           style="font-style:normal;font-variant:normal;font-weight:normal;font-stretch:normal;font-size:10.5833px;line-height:2;font-family:Inconsolata;-inkscape-font-specification:Inconsolata;stroke-width:0.193894"
           d="m 104.67168,96.212721 q -0.89966,0 -1.50461,-0.558413 l 0.31023,-0.527389 0.0465,-0.0698 0.0465,0.03102 q 0,0.01551 0.008,0.0698 0.0155,0.05429 0.0465,0.10858 0.031,0.05429 0.0853,0.10858 0.17838,0.178382 0.40329,0.279206 0.23268,0.09307 0.57393,0.09307 0.4188,0 0.65924,-0.147359 0.24042,-0.155114 0.24042,-0.418809 0,-0.224916 -0.19389,-0.372274 -0.1939,-0.147359 -0.69802,-0.310229 -1.33398,-0.380031 -1.33398,-1.101314 0,-0.411053 0.33349,-0.651481 0.34126,-0.240427 0.96947,-0.240427 0.48086,0 0.8066,0.139603 0.33349,0.131847 0.60495,0.418809 l -0.31799,0.387786 -0.0543,0.06205 -0.0388,-0.03878 q -0.008,-0.08531 -0.0388,-0.139603 -0.0233,-0.05429 -0.10858,-0.124092 -0.17839,-0.139603 -0.4033,-0.209405 -0.21716,-0.07756 -0.43432,-0.07756 -0.3335,0 -0.55066,0.116336 -0.2094,0.116336 -0.2094,0.325741 0,0.193892 0.21716,0.356763 0.21716,0.16287 0.78333,0.32574 0.66699,0.201649 0.93844,0.442076 0.2792,0.232672 0.2792,0.612703 0,0.480855 -0.38003,0.79884 -0.37227,0.310229 -1.0858,0.310229 z" />
        <path
           id="path887"
           style="font-style:normal;font-variant:normal;font-weight:normal;font-stretch:normal;font-size:10.5833px;line-height:2;font-family:Inconsolata;-inkscape-font-specification:Inconsolata;stroke-width:0.193894"
           d="m 110.0464,95.809423 q -0.51188,0.380031 -1.12458,0.380031 -0.58943,0 -0.83762,-0.356764 -0.24043,-0.356763 -0.24043,-1.163359 0,-0.131847 0.0155,-0.457588 l 0.0698,-1.163358 h -0.78333 v -0.457588 h 0.81436 l 0.0543,-0.946199 0.62045,-0.100824 0.0776,-0.0078 0.008,0.04653 q -0.0543,0.07756 -0.0853,0.131847 -0.0233,0.05429 -0.031,0.170627 l -0.0853,0.70577 h 1.17887 v 0.457588 h -1.2099 l -0.0698,1.202137 q -0.0155,0.31023 -0.0155,0.411054 0,0.620458 0.1396,0.845374 0.14736,0.21716 0.46534,0.21716 0.23267,0 0.42656,-0.08531 0.1939,-0.08531 0.44208,-0.271451 z" />
        <path
           id="path889"
           style="font-style:normal;font-variant:normal;font-weight:normal;font-stretch:normal;font-size:10.5833px;line-height:2;font-family:Inconsolata;-inkscape-font-specification:Inconsolata;stroke-width:0.193894"
           d="m 110.75217,96.282522 h 3.34272 v 0.4731 h -3.34272 z" />
        <path
           id="path891"
           style="font-style:normal;font-variant:normal;font-weight:normal;font-stretch:normal;font-size:10.5833px;line-height:2;font-family:Inconsolata;-inkscape-font-specification:Inconsolata;stroke-width:0.193894"
           d="m 116.29751,91.272324 q 0.71353,0 1.10131,0.659236 0.39555,0.659237 0.39555,1.81484 0,1.186626 -0.38779,1.830351 -0.38779,0.643725 -1.10907,0.643725 -0.72128,0 -1.10907,-0.643725 -0.38778,-0.643725 -0.38778,-1.830351 0,-1.155603 0.38778,-1.81484 0.39555,-0.659236 1.10907,-0.659236 z m 0,0.473099 q -0.44208,0 -0.69026,0.542901 -0.24818,0.535145 -0.24818,1.458076 0,0.504122 0.0698,0.891909 l 1.64422,-2.125069 q -0.11634,-0.372275 -0.31798,-0.566168 -0.1939,-0.201649 -0.4576,-0.201649 z m 0,4.001954 q 0.44208,0 0.69026,-0.519633 0.24818,-0.519634 0.24818,-1.481344 0,-0.449832 -0.0543,-0.775572 l -1.64421,2.094045 q 0.24818,0.682504 0.76006,0.682504 z" />
      </g>
      <g
         id="g1494">
        <path
           id="path893"
           style="font-style:normal;font-variant:normal;font-weight:normal;font-stretch:normal;font-size:10.5833px;line-height:2;font-family:Inconsolata;-inkscape-font-specification:Inconsolata;stroke-width:0.193894"
           d="m 77.363772,107.48179 -0.977221,0.28696 -0.124092,-0.30247 1.264183,-0.65924 h 0.38003 v 4.83957 h -0.5429 z" />
        <path
           id="path895"
           style="font-style:normal;font-variant:normal;font-weight:normal;font-stretch:normal;font-size:10.5833px;line-height:2;font-family:Inconsolata;-inkscape-font-specification:Inconsolata;stroke-width:0.193894"
           d="m 81.30368,109.25785 q -0.178382,0 -0.317985,-0.13185 -0.139603,-0.13184 -0.139603,-0.31023 0,-0.18613 0.131847,-0.31798 0.139604,-0.13185 0.325741,-0.13185 0.186137,0 0.32574,0.13185 0.139603,0.13185 0.139603,0.31798 0,0.17839 -0.139603,0.31023 -0.139603,0.13185 -0.32574,0.13185 z m 0,2.47408 q -0.193894,0 -0.325741,-0.12409 -0.131847,-0.13185 -0.131847,-0.31799 0,-0.18614 0.131847,-0.31798 0.139604,-0.13185 0.325741,-0.13185 0.186137,0 0.32574,0.13185 0.139603,0.13184 0.139603,0.31798 0,0.17838 -0.139603,0.31023 -0.131847,0.13185 -0.32574,0.13185 z" />
        <path
           id="path897"
           style="font-style:normal;font-variant:normal;font-weight:normal;font-stretch:normal;font-size:10.5833px;line-height:2;font-family:Inconsolata;-inkscape-font-specification:Inconsolata;stroke-width:0.193894"
           d="m 87.989116,111.19678 h 0.90742 v -2.6447 h -0.860885 v -0.44983 h 1.419298 v 3.09453 h 0.829862 v 0.44983 h -2.295695 z m 1.155604,-3.83908 q -0.162871,0 -0.279206,-0.11634 -0.116337,-0.11633 -0.116337,-0.2792 0,-0.17063 0.108581,-0.28697 0.116336,-0.11633 0.286962,-0.11633 0.16287,0 0.279205,0.12409 0.124092,0.11634 0.124092,0.27921 0,0.16287 -0.124092,0.2792 -0.116335,0.11634 -0.279205,0.11634 z" />
        <path
           id="path899"
           style="font-style:normal;font-variant:normal;font-weight:normal;font-stretch:normal;font-size:10.5833px;line-height:2;font-family:Inconsolata;-inkscape-font-specification:Inconsolata;stroke-width:0.193894"
           d="m 93.038096,111.72417 q -0.899664,0 -1.504611,-0.55841 l 0.310229,-0.52739 0.04653,-0.0698 0.04653,0.031 q 0,0.0155 0.0078,0.0698 0.01551,0.0543 0.04653,0.10858 0.03102,0.0543 0.08531,0.10858 0.178381,0.17838 0.403297,0.27921 0.232672,0.0931 0.573923,0.0931 0.41881,0 0.659237,-0.14736 0.240428,-0.15512 0.240428,-0.41881 0,-0.22492 -0.193893,-0.37228 -0.193894,-0.14736 -0.698015,-0.31023 -1.333985,-0.38003 -1.333985,-1.10131 0,-0.41105 0.333496,-0.65148 0.341252,-0.24043 0.969466,-0.24043 0.480854,0 0.806595,0.13961 0.333496,0.13184 0.604947,0.4188 l -0.317985,0.38779 -0.05429,0.062 -0.03878,-0.0388 q -0.0078,-0.0853 -0.03878,-0.1396 -0.02327,-0.0543 -0.10858,-0.1241 -0.178382,-0.1396 -0.403298,-0.2094 -0.21716,-0.0776 -0.434321,-0.0776 -0.333496,0 -0.550656,0.11634 -0.209405,0.11633 -0.209405,0.32574 0,0.19389 0.21716,0.35676 0.217161,0.16287 0.783328,0.32574 0.666993,0.20165 0.938444,0.44208 0.279206,0.23267 0.279206,0.6127 0,0.48086 -0.380031,0.79884 -0.372275,0.31023 -1.085802,0.31023 z" />
        <path
           id="path901"
           style="font-style:normal;font-variant:normal;font-weight:normal;font-stretch:normal;font-size:10.5833px;line-height:2;font-family:Inconsolata;-inkscape-font-specification:Inconsolata;stroke-width:0.193894"
           d="m 98.412813,111.32087 q -0.511878,0.38003 -1.124581,0.38003 -0.589435,0 -0.837618,-0.35676 -0.240428,-0.35676 -0.240428,-1.16336 0,-0.13185 0.01551,-0.45759 l 0.0698,-1.16335 h -0.783328 v -0.45759 h 0.814351 l 0.05429,-0.9462 0.620458,-0.10082 0.07756,-0.008 0.0078,0.0465 q -0.05429,0.0776 -0.08531,0.13184 -0.02327,0.0543 -0.03102,0.17063 l -0.08531,0.70577 h 1.17887 v 0.45759 h -1.209893 l -0.0698,1.20214 q -0.01551,0.31022 -0.01551,0.41105 0,0.62046 0.139603,0.84537 0.147359,0.21716 0.465343,0.21716 0.232672,0 0.426566,-0.0853 0.193892,-0.0853 0.442076,-0.27145 z" />
        <path
           id="path903"
           style="font-style:normal;font-variant:normal;font-weight:normal;font-stretch:normal;font-size:10.5833px;line-height:2;font-family:Inconsolata;-inkscape-font-specification:Inconsolata;stroke-width:0.193894"
           d="m 100.78607,111.70866 q -0.4731,0 -0.845378,-0.23267 -0.372276,-0.23267 -0.581682,-0.65148 -0.209404,-0.41881 -0.209404,-0.95396 0,-0.53514 0.209404,-0.95395 0.209406,-0.41881 0.581682,-0.65148 0.372278,-0.24043 0.845378,-0.24043 0.47309,0 0.84537,0.24043 0.37228,0.23267 0.58167,0.65148 0.20941,0.41881 0.20941,0.95395 0,0.53515 -0.20941,0.95396 -0.20939,0.41881 -0.58167,0.65148 -0.37228,0.23267 -0.84537,0.23267 z m 0,-0.46534 q 0.30247,0 0.53514,-0.17838 0.24043,-0.17839 0.37227,-0.48862 0.1396,-0.31798 0.1396,-0.71352 0,-0.60495 -0.29471,-0.98498 -0.29472,-0.38779 -0.7523,-0.38779 -0.4576,0 -0.75231,0.38779 -0.29472,0.38003 -0.29472,0.98498 0,0.39554 0.13185,0.71352 0.1396,0.31023 0.37228,0.48862 0.24042,0.17838 0.5429,0.17838 z" />
        <path
           id="path905"
           style="font-style:normal;font-variant:normal;font-weight:normal;font-stretch:normal;font-size:10.5833px;line-height:2;font-family:Inconsolata;-inkscape-font-specification:Inconsolata;stroke-width:0.193894"
           d="m 105.33867,108.01693 q 0.56617,0 0.93845,0.38779 l -0.24818,0.43432 -0.031,0.0698 -0.0543,-0.031 q -0.0233,-0.0853 -0.0543,-0.13184 -0.031,-0.0543 -0.13185,-0.11634 -0.20164,-0.13185 -0.45758,-0.13185 -0.27921,0 -0.5274,0.13961 -0.24817,0.1396 -0.40329,0.42656 -0.15512,0.27921 -0.15512,0.70577 v 1.88464 h -0.56617 v -3.55212 h 0.58168 l -0.0155,0.65148 q 0.14736,-0.34901 0.44984,-0.5429 0.31022,-0.19389 0.67474,-0.19389 z" />
        <path
           id="path907"
           style="font-style:normal;font-variant:normal;font-weight:normal;font-stretch:normal;font-size:10.5833px;line-height:2;font-family:Inconsolata;-inkscape-font-specification:Inconsolata;stroke-width:0.193894"
           d="m 108.71242,111.72417 q -0.79109,0 -1.26419,-0.48085 -0.46534,-0.48086 -0.46534,-1.35726 0,-0.58167 0.21715,-1.00048 0.21717,-0.42657 0.58169,-0.64373 0.37227,-0.22492 0.82986,-0.22492 0.64373,0 1.03927,0.42657 0.4033,0.42656 0.4033,1.25643 0,0.0853 -0.0155,0.25594 h -2.52061 q 0.031,0.65148 0.36452,0.98497 0.3335,0.3335 0.84537,0.3335 0.55841,0 0.91518,-0.39554 l 0.31023,0.30247 q -0.44984,0.5429 -1.24092,0.5429 z m 0.77557,-2.20262 q 0,-0.49637 -0.25594,-0.78333 -0.24819,-0.29472 -0.65924,-0.29472 -0.38779,0 -0.67475,0.27145 -0.28696,0.27145 -0.35676,0.8066 z" />
        <path
           id="path909"
           style="font-style:normal;font-variant:normal;font-weight:normal;font-stretch:normal;font-size:10.5833px;line-height:2;font-family:Inconsolata;-inkscape-font-specification:Inconsolata;stroke-width:0.193894"
           d="m 110.75217,111.79397 h 3.34272 v 0.4731 h -3.34272 z" />
        <path
           id="path911"
           style="font-style:normal;font-variant:normal;font-weight:normal;font-stretch:normal;font-size:10.5833px;line-height:2;font-family:Inconsolata;-inkscape-font-specification:Inconsolata;stroke-width:0.193894"
           d="m 114.92475,111.21229 0.62822,-0.63597 q 0.6282,-0.62821 0.93844,-0.98497 0.31798,-0.35677 0.50412,-0.70577 0.18614,-0.35677 0.18614,-0.7368 0,-0.4731 -0.22492,-0.6825 -0.22492,-0.20941 -0.59719,-0.20941 -0.58168,0 -0.96947,0.48861 -0.10083,0.1241 -0.10083,0.21716 0,0.0465 0.008,0.0698 l -0.031,0.0388 -0.0621,-0.0388 -0.39554,-0.31023 q 0.23267,-0.44983 0.63597,-0.69026 0.4033,-0.24818 0.90742,-0.24818 0.62046,0 1.00049,0.37227 0.38779,0.37227 0.38779,1.00824 0,0.41881 -0.20166,0.81436 -0.20165,0.39554 -0.51963,0.7523 -0.31023,0.35676 -0.86864,0.90742 l -0.52739,0.53515 h 1.79933 q 0.12409,0 0.17838,-0.0155 0.0621,-0.0155 0.10858,-0.062 h 0.0543 v 0.55066 h -2.8386 z" />
      </g>
      <g
         id="g1505">
        <path
           id="path913"
           style="font-style:normal;font-variant:normal;font-weight:normal;font-stretch:normal;font-size:10.5833px;line-height:2;font-family:Inconsolata;-inkscape-font-specification:Inconsolata;stroke-width:0.193894"
           d="m 76.146123,126.72374 0.628214,-0.63596 q 0.628214,-0.62822 0.938443,-0.98498 0.317984,-0.35676 0.504121,-0.70577 0.186138,-0.35677 0.186138,-0.73679 0,-0.4731 -0.224916,-0.68251 -0.224916,-0.2094 -0.597191,-0.2094 -0.581679,0 -0.969466,0.48861 -0.100823,0.12409 -0.100823,0.21716 0,0.0465 0.0078,0.0698 l -0.03102,0.0388 -0.06205,-0.0388 -0.395542,-0.31023 q 0.232672,-0.44983 0.63597,-0.69026 0.403297,-0.24818 0.90742,-0.24818 0.620458,0 1.000488,0.37227 0.387786,0.37228 0.387786,1.00825 0,0.41881 -0.201649,0.81435 -0.201648,0.39554 -0.519634,0.7523 -0.310229,0.35677 -0.86864,0.90743 l -0.52739,0.53514 h 1.799328 q 0.124092,0 0.178382,-0.0155 0.06205,-0.0155 0.10858,-0.0621 h 0.05429 v 0.55066 h -2.838596 z" />
        <path
           id="path915"
           style="font-style:normal;font-variant:normal;font-weight:normal;font-stretch:normal;font-size:10.5833px;line-height:2;font-family:Inconsolata;-inkscape-font-specification:Inconsolata;stroke-width:0.193894"
           d="m 81.30368,124.7693 q -0.178382,0 -0.317985,-0.13185 -0.139603,-0.13184 -0.139603,-0.31023 0,-0.18613 0.131847,-0.31798 0.139604,-0.13185 0.325741,-0.13185 0.186137,0 0.32574,0.13185 0.139603,0.13185 0.139603,0.31798 0,0.17839 -0.139603,0.31023 -0.139603,0.13185 -0.32574,0.13185 z m 0,2.47408 q -0.193894,0 -0.325741,-0.12409 -0.131847,-0.13185 -0.131847,-0.31799 0,-0.18614 0.131847,-0.31798 0.139604,-0.13185 0.325741,-0.13185 0.186137,0 0.32574,0.13185 0.139603,0.13184 0.139603,0.31798 0,0.17838 -0.139603,0.31023 -0.131847,0.13185 -0.32574,0.13185 z" />
        <path
           id="path917"
           style="font-style:normal;font-variant:normal;font-weight:normal;font-stretch:normal;font-size:10.5833px;line-height:2;font-family:Inconsolata;-inkscape-font-specification:Inconsolata;stroke-width:0.193894"
           d="m 87.989116,126.70823 h 0.90742 v -2.6447 h -0.860885 v -0.44983 h 1.419298 v 3.09453 h 0.829862 v 0.44984 h -2.295695 z m 1.155604,-3.83908 q -0.162871,0 -0.279206,-0.11634 -0.116337,-0.11633 -0.116337,-0.2792 0,-0.17063 0.108581,-0.28697 0.116336,-0.11633 0.286962,-0.11633 0.16287,0 0.279205,0.12409 0.124092,0.11633 0.124092,0.27921 0,0.16287 -0.124092,0.2792 -0.116335,0.11634 -0.279205,0.11634 z" />
        <path
           id="path919"
           style="font-style:normal;font-variant:normal;font-weight:normal;font-stretch:normal;font-size:10.5833px;line-height:2;font-family:Inconsolata;-inkscape-font-specification:Inconsolata;stroke-width:0.193894"
           d="m 91.704111,126.70823 h 1.047023 v -4.25789 h -1.000489 v -0.44983 h 1.566657 v 4.70772 h 1.039267 v 0.44984 h -2.652458 z" />
        <path
           id="path921"
           style="font-style:normal;font-variant:normal;font-weight:normal;font-stretch:normal;font-size:10.5833px;line-height:2;font-family:Inconsolata;-inkscape-font-specification:Inconsolata;stroke-width:0.193894"
           d="m 96.908202,127.22011 q -0.473099,0 -0.845374,-0.23267 -0.372275,-0.23268 -0.58168,-0.65148 -0.209404,-0.41881 -0.209404,-0.95396 0,-0.53514 0.209404,-0.95395 0.209405,-0.41881 0.58168,-0.65148 0.372275,-0.24043 0.845374,-0.24043 0.473099,0 0.845374,0.24043 0.372275,0.23267 0.58168,0.65148 0.209404,0.41881 0.209404,0.95395 0,0.53515 -0.209404,0.95396 -0.209405,0.4188 -0.58168,0.65148 -0.372275,0.23267 -0.845374,0.23267 z m 0,-0.46535 q 0.302473,0 0.535145,-0.17837 0.240427,-0.17839 0.372275,-0.48861 0.139603,-0.31799 0.139603,-0.71353 0,-0.60495 -0.294717,-0.98498 -0.294718,-0.38779 -0.752306,-0.38779 -0.457588,0 -0.752306,0.38779 -0.294717,0.38003 -0.294717,0.98498 0,0.39554 0.131847,0.71353 0.139603,0.31022 0.372275,0.48861 0.240428,0.17837 0.542901,0.17837 z" />
        <path
           id="path923"
           style="font-style:normal;font-variant:normal;font-weight:normal;font-stretch:normal;font-size:10.5833px;line-height:2;font-family:Inconsolata;-inkscape-font-specification:Inconsolata;stroke-width:0.193894"
           d="m 100.73953,123.53614 q 0.76006,0 1.1556,0.39554 0.4033,0.39554 0.4033,1.34174 v 1.88465 h -0.60495 v -0.54291 q -0.32574,0.62822 -1.20989,0.62822 -0.589433,0 -0.922928,-0.2637 -0.333499,-0.27145 -0.333499,-0.71352 0,-0.37228 0.240427,-0.65148 0.240429,-0.27921 0.64373,-0.42657 0.41105,-0.15511 0.89966,-0.15511 0.44208,0 0.79884,0.0465 -0.0465,-0.59719 -0.31798,-0.83762 -0.2637,-0.24818 -0.79109,-0.24818 -0.26369,0 -0.51188,0.10082 -0.240425,0.10082 -0.44207,0.29472 l -0.271453,-0.35676 q 0.496365,-0.49637 1.264183,-0.49637 z m -0.20165,3.28067 q 0.57393,0 0.90742,-0.33349 0.3335,-0.34126 0.36452,-0.97723 -0.34901,-0.0543 -0.75231,-0.0543 -0.58943,0 -0.93068,0.19389 -0.341256,0.19389 -0.341256,0.58944 0,0.58168 0.752306,0.58168 z" />
        <path
           id="path925"
           style="font-style:normal;font-variant:normal;font-weight:normal;font-stretch:normal;font-size:10.5833px;line-height:2;font-family:Inconsolata;-inkscape-font-specification:Inconsolata;stroke-width:0.193894"
           d="m 104.53983,127.23562 q -0.38003,0 -0.71352,-0.2094 -0.3335,-0.21716 -0.5429,-0.64372 -0.20941,-0.42658 -0.20941,-1.03152 0,-0.6127 0.21716,-1.02376 0.21716,-0.41105 0.55842,-0.60494 0.34124,-0.20165 0.72128,-0.20165 0.35676,0 0.62045,0.16287 0.27146,0.16287 0.41106,0.44983 v -2.13282 h 0.58944 v 0.0543 q -0.0465,0.0465 -0.0621,0.10083 -0.008,0.0543 -0.008,0.18614 l 0.008,4.26564 q 0,0.18614 0.008,0.31023 0.0155,0.11634 0.0698,0.24043 h -0.55065 q -0.0543,-0.12409 -0.0698,-0.24043 -0.008,-0.12409 -0.008,-0.31023 -0.17063,0.29472 -0.44208,0.46535 -0.26369,0.16287 -0.59719,0.16287 z m 0.0853,-0.48861 q 0.48085,0 0.70577,-0.38003 0.22492,-0.38003 0.22492,-1.00049 0,-0.62821 -0.24819,-1.00824 -0.24042,-0.38003 -0.72904,-0.38003 -0.46534,0 -0.71352,0.349 -0.24819,0.34126 -0.24819,0.93845 0,0.6825 0.25594,1.0858 0.2637,0.39554 0.75231,0.39554 z" />
        <path
           id="path927"
           style="font-style:normal;font-variant:normal;font-weight:normal;font-stretch:normal;font-size:10.5833px;line-height:2;font-family:Inconsolata;-inkscape-font-specification:Inconsolata;stroke-width:0.193894"
           d="m 106.87431,127.30543 h 3.34272 v 0.47309 h -3.34272 z" />
        <path
           id="path929"
           style="font-style:normal;font-variant:normal;font-weight:normal;font-stretch:normal;font-size:10.5833px;line-height:2;font-family:Inconsolata;-inkscape-font-specification:Inconsolata;stroke-width:0.193894"
           d="m 111.04689,126.72374 0.62821,-0.63596 q 0.62821,-0.62822 0.93845,-0.98498 0.31798,-0.35676 0.50411,-0.70577 0.18614,-0.35677 0.18614,-0.73679 0,-0.4731 -0.22492,-0.68251 -0.22491,-0.2094 -0.59718,-0.2094 -0.58169,0 -0.96947,0.48861 -0.10083,0.12409 -0.10083,0.21716 0,0.0465 0.008,0.0698 l -0.031,0.0388 -0.0621,-0.0388 -0.39554,-0.31023 q 0.23267,-0.44983 0.63597,-0.69026 0.40329,-0.24818 0.90742,-0.24818 0.62045,0 1.00048,0.37227 0.38779,0.37228 0.38779,1.00825 0,0.41881 -0.20165,0.81435 -0.20164,0.39554 -0.51963,0.7523 -0.31023,0.35677 -0.86864,0.90743 l -0.52739,0.53514 h 1.79933 q 0.12409,0 0.17838,-0.0155 0.0621,-0.0155 0.10858,-0.0621 h 0.0543 v 0.55066 h -2.8386 z" />
      </g>
      <g
         id="g1516">
        <path
           id="path931"
           style="font-style:normal;font-variant:normal;font-weight:normal;font-stretch:normal;font-size:10.5833px;line-height:2;font-family:Inconsolata;-inkscape-font-specification:Inconsolata;stroke-width:0.193894"
           d="m 77.44133,142.75483 q -0.387787,0 -0.736795,-0.13961 -0.341252,-0.1396 -0.589435,-0.41105 l 0.356764,-0.42656 0.05429,-0.0621 0.03878,0.0388 q 0.0078,0.0776 0.03102,0.13959 0.02327,0.0543 0.10858,0.13185 0.147359,0.12409 0.310229,0.19389 0.170626,0.0698 0.403298,0.0698 0.449832,0 0.682504,-0.26369 0.232671,-0.26369 0.232671,-0.70577 0,-0.48085 -0.294717,-0.72129 -0.286962,-0.24042 -0.814351,-0.24042 -0.07756,0 -0.248183,0.0155 v -0.43432 q 0.690259,0 0.938442,-0.25594 0.255939,-0.25593 0.255939,-0.69801 0,-0.32574 -0.193893,-0.51963 -0.186137,-0.1939 -0.496366,-0.1939 -0.504122,0 -0.884153,0.35677 L 76.270213,138.303 q 0.4731,-0.49637 1.202138,-0.49637 0.581679,0 0.915175,0.3335 0.341252,0.32574 0.341252,0.86864 0,0.39554 -0.193893,0.69025 -0.193893,0.29473 -0.566168,0.41106 0.426565,0.13961 0.674748,0.44983 0.248184,0.31023 0.248184,0.78333 0,0.38779 -0.170626,0.71352 -0.170627,0.31799 -0.496367,0.51188 -0.32574,0.18614 -0.783328,0.18614 z" />
        <path
           id="path933"
           style="font-style:normal;font-variant:normal;font-weight:normal;font-stretch:normal;font-size:10.5833px;line-height:2;font-family:Inconsolata;-inkscape-font-specification:Inconsolata;stroke-width:0.193894"
           d="m 81.30368,140.28075 q -0.178382,0 -0.317985,-0.13185 -0.139603,-0.13184 -0.139603,-0.31022 0,-0.18614 0.131847,-0.31799 0.139604,-0.13185 0.325741,-0.13185 0.186137,0 0.32574,0.13185 0.139603,0.13185 0.139603,0.31799 0,0.17838 -0.139603,0.31022 -0.139603,0.13185 -0.32574,0.13185 z m 0,2.47408 q -0.193894,0 -0.325741,-0.12409 -0.131847,-0.13185 -0.131847,-0.31799 0,-0.18614 0.131847,-0.31798 0.139604,-0.13185 0.325741,-0.13185 0.186137,0 0.32574,0.13185 0.139603,0.13184 0.139603,0.31798 0,0.17839 -0.139603,0.31023 -0.131847,0.13185 -0.32574,0.13185 z" />
        <path
           id="path935"
           style="font-style:normal;font-variant:normal;font-weight:normal;font-stretch:normal;font-size:10.5833px;line-height:2;font-family:Inconsolata;-inkscape-font-specification:Inconsolata;stroke-width:0.193894"
           d="m 87.989116,142.21968 h 0.90742 v -2.6447 h -0.860885 v -0.44983 h 1.419298 v 3.09453 h 0.829862 v 0.44983 h -2.295695 z m 1.155604,-3.83908 q -0.162871,0 -0.279206,-0.11634 -0.116337,-0.11633 -0.116337,-0.2792 0,-0.17063 0.108581,-0.28696 0.116336,-0.11634 0.286962,-0.11634 0.16287,0 0.279205,0.12409 0.124092,0.11634 0.124092,0.27921 0,0.16287 -0.124092,0.2792 -0.116335,0.11634 -0.279205,0.11634 z" />
        <path
           id="path937"
           style="font-style:normal;font-variant:normal;font-weight:normal;font-stretch:normal;font-size:10.5833px;line-height:2;font-family:Inconsolata;-inkscape-font-specification:Inconsolata;stroke-width:0.193894"
           d="m 91.704111,142.21968 h 1.047023 v -4.25789 h -1.000489 v -0.44983 h 1.566657 v 4.70772 h 1.039267 v 0.44983 h -2.652458 z" />
        <path
           id="path939"
           style="font-style:normal;font-variant:normal;font-weight:normal;font-stretch:normal;font-size:10.5833px;line-height:2;font-family:Inconsolata;-inkscape-font-specification:Inconsolata;stroke-width:0.193894"
           d="m 96.908202,142.73156 q -0.473099,0 -0.845374,-0.23267 -0.372275,-0.23267 -0.58168,-0.65148 -0.209404,-0.41881 -0.209404,-0.95395 0,-0.53515 0.209404,-0.95396 0.209405,-0.41881 0.58168,-0.65148 0.372275,-0.24043 0.845374,-0.24043 0.473099,0 0.845374,0.24043 0.372275,0.23267 0.58168,0.65148 0.209404,0.41881 0.209404,0.95396 0,0.53514 -0.209404,0.95395 -0.209405,0.41881 -0.58168,0.65148 -0.372275,0.23267 -0.845374,0.23267 z m 0,-0.46534 q 0.302473,0 0.535145,-0.17838 0.240427,-0.17839 0.372275,-0.48861 0.139603,-0.31799 0.139603,-0.71353 0,-0.60495 -0.294717,-0.98498 -0.294718,-0.38779 -0.752306,-0.38779 -0.457588,0 -0.752306,0.38779 -0.294717,0.38003 -0.294717,0.98498 0,0.39554 0.131847,0.71353 0.139603,0.31022 0.372275,0.48861 0.240428,0.17838 0.542901,0.17838 z" />
        <path
           id="path941"
           style="font-style:normal;font-variant:normal;font-weight:normal;font-stretch:normal;font-size:10.5833px;line-height:2;font-family:Inconsolata;-inkscape-font-specification:Inconsolata;stroke-width:0.193894"
           d="m 100.73953,139.04759 q 0.76006,0 1.1556,0.39554 0.4033,0.39555 0.4033,1.34174 v 1.88464 h -0.60495 v -0.5429 q -0.32574,0.62822 -1.20989,0.62822 -0.589433,0 -0.922928,-0.26369 -0.333499,-0.27146 -0.333499,-0.71353 0,-0.37227 0.240427,-0.65148 0.240429,-0.27921 0.64373,-0.42657 0.41105,-0.15511 0.89966,-0.15511 0.44208,0 0.79884,0.0465 -0.0465,-0.59719 -0.31798,-0.83762 -0.2637,-0.24818 -0.79109,-0.24818 -0.26369,0 -0.51188,0.10082 -0.240425,0.10083 -0.44207,0.29472 l -0.271453,-0.35676 q 0.496365,-0.49637 1.264183,-0.49637 z m -0.20165,3.28067 q 0.57393,0 0.90742,-0.33349 0.3335,-0.34126 0.36452,-0.97722 -0.34901,-0.0543 -0.75231,-0.0543 -0.58943,0 -0.93068,0.19389 -0.341256,0.1939 -0.341256,0.58944 0,0.58168 0.752306,0.58168 z" />
        <path
           id="path943"
           style="font-style:normal;font-variant:normal;font-weight:normal;font-stretch:normal;font-size:10.5833px;line-height:2;font-family:Inconsolata;-inkscape-font-specification:Inconsolata;stroke-width:0.193894"
           d="m 104.53983,142.74707 q -0.38003,0 -0.71352,-0.2094 -0.3335,-0.21716 -0.5429,-0.64373 -0.20941,-0.42656 -0.20941,-1.03151 0,-0.6127 0.21716,-1.02375 0.21716,-0.41105 0.55842,-0.60495 0.34124,-0.20165 0.72128,-0.20165 0.35676,0 0.62045,0.16287 0.27146,0.16287 0.41106,0.44983 v -2.13282 h 0.58944 v 0.0543 q -0.0465,0.0465 -0.0621,0.10083 -0.008,0.0543 -0.008,0.18614 l 0.008,4.26564 q 0,0.18614 0.008,0.31023 0.0155,0.11634 0.0698,0.24043 h -0.55065 q -0.0543,-0.12409 -0.0698,-0.24043 -0.008,-0.12409 -0.008,-0.31023 -0.17063,0.29472 -0.44208,0.46535 -0.26369,0.16287 -0.59719,0.16287 z m 0.0853,-0.48861 q 0.48085,0 0.70577,-0.38003 0.22492,-0.38003 0.22492,-1.00049 0,-0.62821 -0.24819,-1.00824 -0.24042,-0.38003 -0.72904,-0.38003 -0.46534,0 -0.71352,0.34901 -0.24819,0.34125 -0.24819,0.93844 0,0.6825 0.25594,1.0858 0.2637,0.39554 0.75231,0.39554 z" />
        <path
           id="path945"
           style="font-style:normal;font-variant:normal;font-weight:normal;font-stretch:normal;font-size:10.5833px;line-height:2;font-family:Inconsolata;-inkscape-font-specification:Inconsolata;stroke-width:0.193894"
           d="m 106.87431,142.81688 h 3.34272 v 0.47309 h -3.34272 z" />
        <path
           id="path947"
           style="font-style:normal;font-variant:normal;font-weight:normal;font-stretch:normal;font-size:10.5833px;line-height:2;font-family:Inconsolata;-inkscape-font-specification:Inconsolata;stroke-width:0.193894"
           d="m 112.26454,138.50469 -0.97723,0.28696 -0.12409,-0.30247 1.26419,-0.65923 h 0.38003 v 4.83956 h -0.5429 z" />
      </g>
      <g
         id="g1531">
        <path
           id="path949"
           style="font-style:normal;font-variant:normal;font-weight:normal;font-stretch:normal;font-size:10.5833px;line-height:2;font-family:Inconsolata;-inkscape-font-specification:Inconsolata;stroke-width:0.193894"
           d="M 78.046276,156.99434 H 75.95223 v -0.39554 l 2.210381,-3.25741 h 0.457588 v 3.20312 h 0.620458 v 0.45758 h -0.620458 v 1.17887 h -0.573923 z m 0,-0.45759 v -2.21814 l -1.465832,2.21814 z" />
        <path
           id="path951"
           style="font-style:normal;font-variant:normal;font-weight:normal;font-stretch:normal;font-size:10.5833px;line-height:2;font-family:Inconsolata;-inkscape-font-specification:Inconsolata;stroke-width:0.193894"
           d="m 81.30368,155.79221 q -0.178382,0 -0.317985,-0.13186 -0.139603,-0.13184 -0.139603,-0.31022 0,-0.18614 0.131847,-0.31799 0.139604,-0.13184 0.325741,-0.13184 0.186137,0 0.32574,0.13184 0.139603,0.13185 0.139603,0.31799 0,0.17838 -0.139603,0.31022 -0.139603,0.13186 -0.32574,0.13186 z m 0,2.47407 q -0.193894,0 -0.325741,-0.12409 -0.131847,-0.13185 -0.131847,-0.31799 0,-0.18614 0.131847,-0.31798 0.139604,-0.13185 0.325741,-0.13185 0.186137,0 0.32574,0.13185 0.139603,0.13184 0.139603,0.31798 0,0.17839 -0.139603,0.31023 -0.131847,0.13185 -0.32574,0.13185 z" />
        <path
           id="path953"
           style="font-style:normal;font-variant:normal;font-weight:normal;font-stretch:normal;font-size:10.5833px;line-height:2;font-family:Inconsolata;-inkscape-font-specification:Inconsolata;stroke-width:0.193894"
           d="m 87.989116,157.73113 h 0.90742 v -2.6447 h -0.860885 v -0.44983 h 1.419298 v 3.09453 h 0.829862 v 0.44983 h -2.295695 z m 1.155604,-3.83908 q -0.162871,0 -0.279206,-0.11634 -0.116337,-0.11633 -0.116337,-0.2792 0,-0.17063 0.108581,-0.28696 0.116336,-0.11634 0.286962,-0.11634 0.16287,0 0.279205,0.12409 0.124092,0.11634 0.124092,0.27921 0,0.16287 -0.124092,0.2792 -0.116335,0.11634 -0.279205,0.11634 z" />
        <path
           id="path955"
           style="font-style:normal;font-variant:normal;font-weight:normal;font-stretch:normal;font-size:10.5833px;line-height:2;font-family:Inconsolata;-inkscape-font-specification:Inconsolata;stroke-width:0.193894"
           d="M 92.347836,155.07867 H 91.58002 v -0.44207 h 0.767816 v -0.29472 q 0,-0.6825 0.349008,-1.02375 0.356763,-0.34125 0.953954,-0.34125 0.341252,0 0.628214,0.12408 0.294717,0.1241 0.480855,0.36453 l -0.294718,0.41105 -0.04653,0.0621 -0.04654,-0.031 q 0,-0.0155 -0.01551,-0.0621 -0.0078,-0.0543 -0.03878,-0.10858 -0.03102,-0.0543 -0.09307,-0.10858 -0.116336,-0.10858 -0.240428,-0.15512 -0.124091,-0.0465 -0.317985,-0.0465 -0.364519,0 -0.573923,0.21716 -0.209405,0.21716 -0.209405,0.69801 v 0.29473 h 1.163359 v 0.44207 h -1.163359 v 3.10229 h -0.535145 z" />
        <path
           id="path957"
           style="font-style:normal;font-variant:normal;font-weight:normal;font-stretch:normal;font-size:10.5833px;line-height:2;font-family:Inconsolata;-inkscape-font-specification:Inconsolata;stroke-width:0.193894"
           d="m 95.240721,158.32833 h 3.342718 v 0.4731 h -3.342718 z" />
        <path
           id="path959"
           style="font-style:normal;font-variant:normal;font-weight:normal;font-stretch:normal;font-size:10.5833px;line-height:2;font-family:Inconsolata;-inkscape-font-specification:Inconsolata;stroke-width:0.193894"
           d="m 99.622704,157.73113 h 0.907426 v -2.6447 h -0.860892 v -0.44983 h 1.419302 v 3.09453 h 0.82986 v 0.44983 h -2.295696 z m 1.155606,-3.83908 q -0.16288,0 -0.2792,-0.11634 -0.11634,-0.11633 -0.11634,-0.2792 0,-0.17063 0.10858,-0.28696 0.11633,-0.11634 0.28696,-0.11634 0.16287,0 0.2792,0.12409 0.1241,0.11634 0.1241,0.27921 0,0.16287 -0.1241,0.2792 -0.11633,0.11634 -0.2792,0.11634 z" />
        <path
           id="path961"
           style="font-style:normal;font-variant:normal;font-weight:normal;font-stretch:normal;font-size:10.5833px;line-height:2;font-family:Inconsolata;-inkscape-font-specification:Inconsolata;stroke-width:0.193894"
           d="m 104.93538,158.26628 q -0.51188,0 -0.91518,-0.24043 -0.4033,-0.24042 -0.63597,-0.65923 -0.22491,-0.42657 -0.22491,-0.95396 0,-0.52739 0.22491,-0.9462 0.23267,-0.41881 0.63597,-0.65923 0.4033,-0.24043 0.90742,-0.24043 0.42657,0 0.77557,0.17838 0.34901,0.17062 0.56617,0.48086 l -0.34901,0.34125 -0.0543,0.0543 -0.0388,-0.0388 q 0,-0.0698 -0.031,-0.12409 -0.0233,-0.0621 -0.11634,-0.1396 -0.16287,-0.14737 -0.35676,-0.20941 -0.1939,-0.0698 -0.45759,-0.0698 -0.30248,0 -0.56617,0.17062 -0.25594,0.16287 -0.41105,0.46535 -0.15512,0.30247 -0.15512,0.69801 0,0.39554 0.15512,0.71353 0.16287,0.31798 0.44207,0.49636 0.28697,0.17839 0.63597,0.17839 0.53514,0 0.92293,-0.43433 l 0.32575,0.38003 q -0.51964,0.55842 -1.2797,0.55842 z" />
        <path
           id="path963"
           style="font-style:normal;font-variant:normal;font-weight:normal;font-stretch:normal;font-size:10.5833px;line-height:2;font-family:Inconsolata;-inkscape-font-specification:Inconsolata;stroke-width:0.193894"
           d="m 106.89758,154.6366 h 0.51187 v 0.349 q 0.1241,-0.19389 0.31799,-0.31022 0.19389,-0.12409 0.40329,-0.12409 0.23268,0 0.4033,0.14735 0.17839,0.14737 0.22492,0.37228 0.10082,-0.23267 0.31798,-0.37228 0.21717,-0.14735 0.48086,-0.14735 0.34901,0 0.51963,0.25594 0.17838,0.24818 0.16287,0.65148 v 2.72225 h -0.51188 v -2.51285 q 0,-0.44207 -0.0853,-0.57392 -0.0853,-0.13185 -0.24818,-0.13185 -0.1396,0 -0.27145,0.13185 -0.13185,0.13185 -0.21716,0.34125 -0.0776,0.20165 -0.0776,0.4033 v 2.34222 h -0.51963 v -2.46632 q 0,-0.43431 -0.0853,-0.58167 -0.0776,-0.15512 -0.30247,-0.15512 -0.11634,0 -0.24043,0.10858 -0.11633,0.10083 -0.19389,0.29472 -0.0776,0.18614 -0.0776,0.43432 v 2.36549 h -0.51187 z" />
        <path
           id="path965"
           style="font-style:normal;font-variant:normal;font-weight:normal;font-stretch:normal;font-size:10.5833px;line-height:2;font-family:Inconsolata;-inkscape-font-specification:Inconsolata;stroke-width:0.193894"
           d="m 110.94606,154.6366 h 0.56617 v 0.69801 q 0.11634,-0.38778 0.4033,-0.58167 0.28696,-0.1939 0.67475,-0.1939 0.4033,0 0.73679,0.20941 0.34126,0.20165 0.5429,0.6127 0.20165,0.41106 0.20165,1.00049 0,0.59719 -0.2094,1.03151 -0.20941,0.42657 -0.55842,0.64372 -0.34125,0.21716 -0.72904,0.21716 -0.31798,0 -0.59718,-0.14735 -0.27921,-0.14736 -0.45759,-0.41105 v 1.76054 h -0.57393 z m 1.53564,3.14107 q 0.42656,0 0.71352,-0.31798 0.29472,-0.32575 0.29472,-1.05478 0,-0.65924 -0.25594,-1.00825 -0.25594,-0.35676 -0.72904,-0.35676 -0.44207,0 -0.72128,0.37228 -0.27145,0.36451 -0.27145,1.11682 0.0155,0.6127 0.27145,0.93069 0.25594,0.31798 0.69802,0.31798 z" />
        <path
           id="path967"
           style="font-style:normal;font-variant:normal;font-weight:normal;font-stretch:normal;font-size:10.5833px;line-height:2;font-family:Inconsolata;-inkscape-font-specification:Inconsolata;stroke-width:0.193894"
           d="m 118.04255,155.00112 q -0.0698,-0.008 -0.20165,-0.008 -0.37227,0 -0.62045,0.16287 0.13184,0.26369 0.13184,0.58168 0,0.349 -0.15511,0.63597 -0.14736,0.2792 -0.43432,0.44207 -0.27921,0.16287 -0.65149,0.16287 -0.29471,0 -0.55065,-0.10857 -0.1396,0.17062 -0.1396,0.32573 0,0.18614 0.23267,0.27146 0.24042,0.0776 0.85313,0.0776 0.7523,0 1.02375,0.23267 0.27921,0.22492 0.27921,0.667 0,0.45758 -0.37227,0.76006 -0.37228,0.31023 -1.16337,0.31023 -0.76006,0 -1.19438,-0.23268 -0.42656,-0.23267 -0.42656,-0.6825 0,-0.27921 0.15511,-0.48085 0.15512,-0.20165 0.39555,-0.31799 -0.25594,-0.17062 -0.25594,-0.4731 0,-0.31023 0.31798,-0.65148 -0.19389,-0.17063 -0.29472,-0.41105 -0.10082,-0.24043 -0.10082,-0.52739 0,-0.34125 0.14736,-0.62046 0.15511,-0.28696 0.43432,-0.44983 0.28696,-0.16287 0.65923,-0.16287 0.56617,0 0.90742,0.36451 0.18614,-0.17062 0.38003,-0.24818 0.20166,-0.0853 0.44208,-0.0853 l 0.13185,0.008 z m -1.93118,1.51236 q 0.3335,0 0.55066,-0.22491 0.22491,-0.22492 0.22491,-0.55066 0,-0.32573 -0.22491,-0.55065 -0.21716,-0.22492 -0.55066,-0.22492 -0.33349,0 -0.5584,0.22492 -0.21717,0.22492 -0.21717,0.55065 0,0.32574 0.21717,0.55066 0.22491,0.22491 0.5584,0.22491 z m 1.18663,2.01649 q 0,-0.18614 -0.0698,-0.29471 -0.0621,-0.10083 -0.25594,-0.14737 -0.19389,-0.0543 -0.58168,-0.0543 -0.55842,0 -0.89191,-0.10082 -0.18614,0.12409 -0.2637,0.25594 -0.0698,0.13184 -0.0698,0.34901 0,0.26369 0.29472,0.41105 0.29471,0.14736 0.8221,0.14736 0.51188,0 0.76006,-0.15511 0.25594,-0.14737 0.25594,-0.41106 z" />
        <path
           id="path969"
           style="font-style:normal;font-variant:normal;font-weight:normal;font-stretch:normal;font-size:10.5833px;line-height:2;font-family:Inconsolata;-inkscape-font-specification:Inconsolata;stroke-width:0.193894"
           d="m 120.346,158.25853 q -0.79108,0 -1.26418,-0.48086 -0.46535,-0.48085 -0.46535,-1.35726 0,-0.58167 0.21716,-1.00048 0.21716,-0.42656 0.58168,-0.64372 0.37228,-0.22492 0.82986,-0.22492 0.64373,0 1.03927,0.42656 0.4033,0.42657 0.4033,1.25643 0,0.0853 -0.0155,0.25594 h -2.52061 q 0.031,0.65148 0.36451,0.98497 0.3335,0.33351 0.84538,0.33351 0.55841,0 0.91517,-0.39555 l 0.31023,0.30248 q -0.44983,0.5429 -1.24092,0.5429 z m 0.77557,-2.20263 q 0,-0.49637 -0.25593,-0.78333 -0.24819,-0.29472 -0.65925,-0.29472 -0.38778,0 -0.67474,0.27145 -0.28696,0.27145 -0.35676,0.8066 z" />
        <path
           id="path971"
           style="font-style:normal;font-variant:normal;font-weight:normal;font-stretch:normal;font-size:10.5833px;line-height:2;font-family:Inconsolata;-inkscape-font-specification:Inconsolata;stroke-width:0.193894"
           d="m 143.28744,154.01614 -0.97722,0.28696 -0.12409,-0.30247 1.26418,-0.65924 h 0.38004 v 4.83957 h -0.54291 z" />
        <path
           id="path973"
           style="font-style:normal;font-variant:normal;font-weight:normal;font-stretch:normal;font-size:10.5833px;line-height:2;font-family:Inconsolata;-inkscape-font-specification:Inconsolata;stroke-width:0.193894"
           d="m 147.24286,158.26628 q -0.38779,0 -0.7368,-0.1396 -0.34125,-0.13961 -0.58944,-0.41105 l 0.35677,-0.42657 0.0543,-0.0621 0.0388,0.0388 q 0.008,0.0776 0.031,0.1396 0.0233,0.0543 0.10858,0.13185 0.14736,0.12409 0.31023,0.1939 0.17063,0.0698 0.4033,0.0698 0.44983,0 0.6825,-0.26369 0.23267,-0.26369 0.23267,-0.70577 0,-0.48085 -0.29472,-0.72129 -0.28696,-0.24042 -0.81434,-0.24042 -0.0776,0 -0.24819,0.0155 v -0.43432 q 0.69026,0 0.93844,-0.25594 0.25594,-0.25594 0.25594,-0.69801 0,-0.32574 -0.19389,-0.51963 -0.18614,-0.1939 -0.49637,-0.1939 -0.50412,0 -0.88415,0.35676 l -0.32574,-0.32574 q 0.4731,-0.49636 1.20214,-0.49636 0.58168,0 0.91517,0.33349 0.34126,0.32575 0.34126,0.86865 0,0.39553 -0.1939,0.69025 -0.19389,0.29472 -0.56617,0.41106 0.42657,0.1396 0.67475,0.44983 0.24819,0.31023 0.24819,0.78333 0,0.38778 -0.17063,0.71352 -0.17063,0.31799 -0.49637,0.51188 -0.32574,0.18614 -0.78332,0.18614 z" />
      </g>
      <g
         id="g1542">
        <path
           id="path975"
           style="font-style:normal;font-variant:normal;font-weight:normal;font-stretch:normal;font-size:10.5833px;line-height:2;font-family:Inconsolata;-inkscape-font-specification:Inconsolata;stroke-width:0.193894"
           d="m 76.782093,173.69242 q 0.674748,-2.21039 1.473587,-4.31994 h -2.063023 v -0.51188 h 2.737771 v 0.30248 q -0.953954,2.40427 -1.535633,4.52934 z" />
        <path
           id="path977"
           style="font-style:normal;font-variant:normal;font-weight:normal;font-stretch:normal;font-size:10.5833px;line-height:2;font-family:Inconsolata;-inkscape-font-specification:Inconsolata;stroke-width:0.193894"
           d="m 81.30368,171.30366 q -0.178382,0 -0.317985,-0.13185 -0.139603,-0.13185 -0.139603,-0.31023 0,-0.18614 0.131847,-0.31799 0.139604,-0.13184 0.325741,-0.13184 0.186137,0 0.32574,0.13184 0.139603,0.13185 0.139603,0.31799 0,0.17838 -0.139603,0.31023 -0.139603,0.13185 -0.32574,0.13185 z m 0,2.47407 q -0.193894,0 -0.325741,-0.12409 -0.131847,-0.13185 -0.131847,-0.31799 0,-0.18613 0.131847,-0.31798 0.139604,-0.13185 0.325741,-0.13185 0.186137,0 0.32574,0.13185 0.139603,0.13185 0.139603,0.31798 0,0.17839 -0.139603,0.31023 -0.131847,0.13185 -0.32574,0.13185 z" />
        <path
           id="path979"
           style="font-style:normal;font-variant:normal;font-weight:normal;font-stretch:normal;font-size:10.5833px;line-height:2;font-family:Inconsolata;-inkscape-font-specification:Inconsolata;stroke-width:0.193894"
           d="m 87.989116,173.24258 h 0.90742 v -2.64469 h -0.860885 v -0.44984 h 1.419298 v 3.09453 h 0.829862 v 0.44984 h -2.295695 z m 1.155604,-3.83908 q -0.162871,0 -0.279206,-0.11633 -0.116337,-0.11634 -0.116337,-0.27921 0,-0.17062 0.108581,-0.28696 0.116336,-0.11634 0.286962,-0.11634 0.16287,0 0.279205,0.12409 0.124092,0.11634 0.124092,0.27921 0,0.16287 -0.124092,0.27921 -0.116335,0.11633 -0.279205,0.11633 z" />
        <path
           id="path981"
           style="font-style:normal;font-variant:normal;font-weight:normal;font-stretch:normal;font-size:10.5833px;line-height:2;font-family:Inconsolata;-inkscape-font-specification:Inconsolata;stroke-width:0.193894"
           d="m 91.866982,173.24258 h 0.907419 v -2.64469 h -0.860886 v -0.44984 h 1.419298 v 3.09453 h 0.829863 v 0.44984 h -2.295694 z m 1.155602,-3.83908 q -0.16287,0 -0.279206,-0.11633 -0.116336,-0.11634 -0.116336,-0.27921 0,-0.17062 0.10858,-0.28696 0.116337,-0.11634 0.286962,-0.11634 0.162871,0 0.279206,0.12409 0.124092,0.11634 0.124092,0.27921 0,0.16287 -0.124092,0.27921 -0.116335,0.11633 -0.279206,0.11633 z" />
        <path
           id="path983"
           style="font-style:normal;font-variant:normal;font-weight:normal;font-stretch:normal;font-size:10.5833px;line-height:2;font-family:Inconsolata;-inkscape-font-specification:Inconsolata;stroke-width:0.193894"
           d="m 95.527683,170.14805 h 0.542901 v 0.62821 q 0.209404,-0.32574 0.527389,-0.51963 0.317985,-0.19389 0.674748,-0.19389 0.4731,0 0.752306,0.36451 0.286962,0.35677 0.286962,1.11683 v 2.14834 h -0.542901 v -2.13282 q 0,-0.5274 -0.178382,-0.76782 -0.178382,-0.24043 -0.473099,-0.24043 -0.240428,0 -0.488611,0.1396 -0.240428,0.13961 -0.403298,0.39554 -0.155114,0.24819 -0.155114,0.56618 v 2.03975 h -0.542901 z" />
        <path
           id="path985"
           style="font-style:normal;font-variant:normal;font-weight:normal;font-stretch:normal;font-size:10.5833px;line-height:2;font-family:Inconsolata;-inkscape-font-specification:Inconsolata;stroke-width:0.193894"
           d="m 101.05751,173.77773 q -0.51187,0 -0.91517,-0.24042 -0.4033,-0.24044 -0.635971,-0.65924 -0.224916,-0.42657 -0.224916,-0.95396 0,-0.52738 0.224916,-0.9462 0.232671,-0.41881 0.635971,-0.65923 0.4033,-0.24043 0.90742,-0.24043 0.42656,0 0.77557,0.17838 0.34901,0.17062 0.56617,0.48086 l -0.34901,0.34125 -0.0543,0.0543 -0.0388,-0.0388 q 0,-0.0698 -0.031,-0.12409 -0.0233,-0.0621 -0.11633,-0.1396 -0.16287,-0.14736 -0.35677,-0.20941 -0.19389,-0.0698 -0.45759,-0.0698 -0.30247,0 -0.56616,0.17062 -0.25594,0.16287 -0.41105,0.46535 -0.155122,0.30247 -0.155122,0.69801 0,0.39554 0.155122,0.71353 0.16287,0.31798 0.44207,0.49637 0.28696,0.17837 0.63597,0.17837 0.53514,0 0.92293,-0.43431 l 0.32574,0.38003 q -0.51963,0.55841 -1.2797,0.55841 z" />
        <path
           id="path987"
           style="font-style:normal;font-variant:normal;font-weight:normal;font-stretch:normal;font-size:10.5833px;line-height:2;font-family:Inconsolata;-inkscape-font-specification:Inconsolata;stroke-width:0.193894"
           d="m 142.0698,173.2581 0.62821,-0.63597 q 0.62821,-0.62822 0.93844,-0.98498 0.31799,-0.35676 0.50412,-0.70577 0.18614,-0.35676 0.18614,-0.73679 0,-0.47311 -0.22492,-0.68251 -0.22492,-0.2094 -0.59718,-0.2094 -0.58169,0 -0.96948,0.48861 -0.10082,0.12409 -0.10082,0.21716 0,0.0465 0.008,0.0698 l -0.031,0.0388 -0.0621,-0.0388 -0.39553,-0.31024 q 0.23267,-0.44983 0.63596,-0.69026 0.4033,-0.24818 0.90742,-0.24818 0.62046,0 1.00049,0.37227 0.38778,0.37228 0.38778,1.00825 0,0.41881 -0.20164,0.81435 -0.20165,0.39555 -0.51963,0.75231 -0.31024,0.35676 -0.86865,0.90741 l -0.52739,0.53515 h 1.79933 q 0.12409,0 0.17838,-0.0155 0.0621,-0.0155 0.10858,-0.0621 h 0.0543 v 0.55066 h -2.83859 z" />
        <path
           id="path989"
           style="font-style:normal;font-variant:normal;font-weight:normal;font-stretch:normal;font-size:10.5833px;line-height:2;font-family:Inconsolata;-inkscape-font-specification:Inconsolata;stroke-width:0.193894"
           d="m 146.66118,174.76271 q 0.21715,-0.20165 0.35676,-0.43433 0.14736,-0.23267 0.14736,-0.38003 0,-0.0698 -0.0388,-0.11633 -0.0388,-0.0465 -0.13961,-0.1396 -0.10858,-0.10083 -0.16287,-0.17063 -0.0543,-0.0698 -0.0543,-0.17062 0,-0.19389 0.12409,-0.32574 0.13185,-0.13185 0.33349,-0.13185 0.20941,0 0.36453,0.18613 0.16287,0.17839 0.16287,0.4576 0,0.60494 -0.82987,1.45807 z" />
        <path
           id="path991"
           style="font-style:normal;font-variant:normal;font-weight:normal;font-stretch:normal;font-size:10.5833px;line-height:2;font-family:Inconsolata;-inkscape-font-specification:Inconsolata;stroke-width:0.193894"
           d="m 154.92102,169.52759 -0.97722,0.28696 -0.12409,-0.30247 1.26418,-0.65924 h 0.38003 v 4.83958 h -0.5429 z" />
      </g>
      <g
         id="g1552">
        <path
           id="path993"
           style="font-style:normal;font-variant:normal;font-weight:normal;font-stretch:normal;font-size:10.5833px;line-height:2;font-family:Inconsolata;-inkscape-font-specification:Inconsolata;stroke-width:0.193894"
           d="m 73.48591,185.03904 -0.977221,0.28696 -0.124092,-0.30247 1.264183,-0.65924 h 0.380031 v 4.83958 H 73.48591 Z" />
        <path
           id="path995"
           style="font-style:normal;font-variant:normal;font-weight:normal;font-stretch:normal;font-size:10.5833px;line-height:2;font-family:Inconsolata;-inkscape-font-specification:Inconsolata;stroke-width:0.193894"
           d="m 77.518886,184.34103 q 0.713527,0 1.101313,0.65923 0.395542,0.65924 0.395542,1.81485 0,1.18662 -0.387786,1.83034 -0.387786,0.64373 -1.109069,0.64373 -0.721282,0 -1.109068,-0.64373 -0.387786,-0.64372 -0.387786,-1.83034 0,-1.15561 0.387786,-1.81485 0.395542,-0.65923 1.109068,-0.65923 z m 0,0.47309 q -0.442076,0 -0.690259,0.54291 -0.248183,0.53514 -0.248183,1.45808 0,0.50412 0.0698,0.89191 l 1.644214,-2.12508 q -0.116336,-0.37227 -0.317985,-0.56616 -0.193893,-0.20166 -0.457587,-0.20166 z m 0,4.00196 q 0.442077,0 0.69026,-0.51963 0.248183,-0.51963 0.248183,-1.48134 0,-0.44984 -0.05429,-0.77557 l -1.644215,2.09404 q 0.248184,0.6825 0.760061,0.6825 z" />
        <path
           id="path997"
           style="font-style:normal;font-variant:normal;font-weight:normal;font-stretch:normal;font-size:10.5833px;line-height:2;font-family:Inconsolata;-inkscape-font-specification:Inconsolata;stroke-width:0.193894"
           d="m 81.30368,186.81511 q -0.178382,0 -0.317985,-0.13185 -0.139603,-0.13185 -0.139603,-0.31023 0,-0.18614 0.131847,-0.31799 0.139604,-0.13184 0.325741,-0.13184 0.186137,0 0.32574,0.13184 0.139603,0.13185 0.139603,0.31799 0,0.17838 -0.139603,0.31023 -0.139603,0.13185 -0.32574,0.13185 z m 0,2.47407 q -0.193894,0 -0.325741,-0.12409 -0.131847,-0.13185 -0.131847,-0.31799 0,-0.18613 0.131847,-0.31798 0.139604,-0.13185 0.325741,-0.13185 0.186137,0 0.32574,0.13185 0.139603,0.13185 0.139603,0.31798 0,0.17839 -0.139603,0.31023 -0.131847,0.13185 -0.32574,0.13185 z" />
        <path
           id="path999"
           style="font-style:normal;font-variant:normal;font-weight:normal;font-stretch:normal;font-size:10.5833px;line-height:2;font-family:Inconsolata;-inkscape-font-specification:Inconsolata;stroke-width:0.193894"
           d="m 90.897513,186.02402 q -0.0698,-0.008 -0.201648,-0.008 -0.372275,0 -0.620458,0.16287 0.131847,0.2637 0.131847,0.58168 0,0.34901 -0.155114,0.63597 -0.147359,0.2792 -0.434321,0.44207 -0.279206,0.16288 -0.651481,0.16288 -0.294718,0 -0.550657,-0.10859 -0.139603,0.17063 -0.139603,0.32574 0,0.18614 0.232672,0.27146 0.240427,0.0776 0.85313,0.0776 0.752305,0 1.023756,0.23268 0.279205,0.22491 0.279205,0.66698 0,0.4576 -0.372274,0.76007 -0.372275,0.31023 -1.163359,0.31023 -0.760061,0 -1.194382,-0.23267 -0.426565,-0.23268 -0.426565,-0.68251 0,-0.2792 0.155115,-0.48085 0.155114,-0.20165 0.395542,-0.31799 -0.255939,-0.17062 -0.255939,-0.4731 0,-0.31022 0.317985,-0.65148 -0.193893,-0.17062 -0.294718,-0.41105 -0.100824,-0.24042 -0.100824,-0.52739 0,-0.34125 0.147358,-0.62046 0.155115,-0.28696 0.434321,-0.44983 0.286962,-0.16287 0.659237,-0.16287 0.566168,0 0.90742,0.36452 0.186137,-0.17063 0.38003,-0.24818 0.201649,-0.0853 0.442077,-0.0853 l 0.131847,0.008 z m -1.931175,1.51237 q 0.333496,0 0.550656,-0.22492 0.224917,-0.22492 0.224917,-0.55066 0,-0.32574 -0.224917,-0.55065 -0.21716,-0.22492 -0.550656,-0.22492 -0.333496,0 -0.558412,0.22492 -0.217161,0.22491 -0.217161,0.55065 0,0.32574 0.217161,0.55066 0.224916,0.22492 0.558412,0.22492 z m 1.186626,2.01649 q 0,-0.18614 -0.0698,-0.29472 -0.06205,-0.10083 -0.255939,-0.14736 -0.193893,-0.0543 -0.581679,-0.0543 -0.558412,0 -0.891908,-0.10083 -0.186138,0.12409 -0.263695,0.25594 -0.0698,0.13185 -0.0698,0.349 0,0.2637 0.294718,0.41106 0.294718,0.14736 0.822107,0.14736 0.511878,0 0.760061,-0.15511 0.255939,-0.14737 0.255939,-0.41106 z" />
        <path
           id="path1001"
           style="font-style:normal;font-variant:normal;font-weight:normal;font-stretch:normal;font-size:10.5833px;line-height:2;font-family:Inconsolata;-inkscape-font-specification:Inconsolata;stroke-width:0.193894"
           d="m 93.03034,189.26591 q -0.473099,0 -0.845374,-0.23267 -0.372274,-0.23267 -0.58168,-0.65148 -0.209404,-0.41881 -0.209404,-0.95395 0,-0.53515 0.209404,-0.95396 0.209406,-0.41881 0.58168,-0.65148 0.372275,-0.24043 0.845374,-0.24043 0.473099,0 0.845374,0.24043 0.372275,0.23267 0.58168,0.65148 0.209404,0.41881 0.209404,0.95396 0,0.53514 -0.209404,0.95395 -0.209405,0.41881 -0.58168,0.65148 -0.372275,0.23267 -0.845374,0.23267 z m 0,-0.46534 q 0.302473,0 0.535145,-0.17838 0.240428,-0.17838 0.372275,-0.48861 0.139603,-0.31799 0.139603,-0.71353 0,-0.60494 -0.294717,-0.98498 -0.294718,-0.38778 -0.752306,-0.38778 -0.457588,0 -0.752305,0.38778 -0.294718,0.38004 -0.294718,0.98498 0,0.39554 0.131847,0.71353 0.139604,0.31023 0.372276,0.48861 0.240427,0.17838 0.5429,0.17838 z" />
        <path
           id="path1003"
           style="font-style:normal;font-variant:normal;font-weight:normal;font-stretch:normal;font-size:10.5833px;line-height:2;font-family:Inconsolata;-inkscape-font-specification:Inconsolata;stroke-width:0.193894"
           d="m 98.412813,188.87813 q -0.511878,0.38003 -1.124581,0.38003 -0.589435,0 -0.837618,-0.35677 -0.240428,-0.35676 -0.240428,-1.16335 0,-0.13185 0.01551,-0.45759 l 0.0698,-1.16336 h -0.783328 v -0.45759 h 0.814351 l 0.05429,-0.9462 0.620458,-0.10082 0.07756,-0.008 0.0078,0.0465 q -0.05429,0.0776 -0.08531,0.13184 -0.02327,0.0543 -0.03102,0.17062 l -0.08531,0.70577 h 1.17887 v 0.4576 h -1.209893 l -0.0698,1.20213 q -0.01551,0.31023 -0.01551,0.41106 0,0.62045 0.139603,0.84537 0.147359,0.21716 0.465343,0.21716 0.232672,0 0.426566,-0.0853 0.193892,-0.0853 0.442076,-0.27145 z" />
        <path
           id="path1005"
           style="font-style:normal;font-variant:normal;font-weight:normal;font-stretch:normal;font-size:10.5833px;line-height:2;font-family:Inconsolata;-inkscape-font-specification:Inconsolata;stroke-width:0.193894"
           d="m 100.78607,189.26591 q -0.4731,0 -0.845378,-0.23267 -0.372276,-0.23267 -0.581682,-0.65148 -0.209404,-0.41881 -0.209404,-0.95395 0,-0.53515 0.209404,-0.95396 0.209406,-0.41881 0.581682,-0.65148 0.372278,-0.24043 0.845378,-0.24043 0.47309,0 0.84537,0.24043 0.37228,0.23267 0.58167,0.65148 0.20941,0.41881 0.20941,0.95396 0,0.53514 -0.20941,0.95395 -0.20939,0.41881 -0.58167,0.65148 -0.37228,0.23267 -0.84537,0.23267 z m 0,-0.46534 q 0.30247,0 0.53514,-0.17838 0.24043,-0.17838 0.37227,-0.48861 0.1396,-0.31799 0.1396,-0.71353 0,-0.60494 -0.29471,-0.98498 -0.29472,-0.38778 -0.7523,-0.38778 -0.4576,0 -0.75231,0.38778 -0.29472,0.38004 -0.29472,0.98498 0,0.39554 0.13185,0.71353 0.1396,0.31023 0.37228,0.48861 0.24042,0.17838 0.5429,0.17838 z" />
        <path
           id="path1007"
           style="font-style:normal;font-variant:normal;font-weight:normal;font-stretch:normal;font-size:10.5833px;line-height:2;font-family:Inconsolata;-inkscape-font-specification:Inconsolata;stroke-width:0.193894"
           d="m 142.0698,188.76955 0.62821,-0.63597 q 0.62821,-0.62822 0.93844,-0.98498 0.31799,-0.35676 0.50412,-0.70577 0.18614,-0.35676 0.18614,-0.7368 0,-0.4731 -0.22492,-0.6825 -0.22492,-0.20941 -0.59718,-0.20941 -0.58169,0 -0.96948,0.48862 -0.10082,0.12409 -0.10082,0.21716 0,0.0465 0.008,0.0698 l -0.031,0.0388 -0.0621,-0.0388 -0.39553,-0.31023 q 0.23267,-0.44983 0.63596,-0.69026 0.4033,-0.24818 0.90742,-0.24818 0.62046,0 1.00049,0.37227 0.38778,0.37228 0.38778,1.00825 0,0.41881 -0.20164,0.81435 -0.20165,0.39554 -0.51963,0.75231 -0.31024,0.35676 -0.86865,0.90741 l -0.52739,0.53515 h 1.79933 q 0.12409,0 0.17838,-0.0155 0.0621,-0.0155 0.10858,-0.0621 h 0.0543 v 0.55066 h -2.83859 z" />
      </g>
      <g
         id="g1563">
        <path
           id="path1009"
           style="font-style:normal;font-variant:normal;font-weight:normal;font-stretch:normal;font-size:10.5833px;line-height:2;font-family:Inconsolata;-inkscape-font-specification:Inconsolata;stroke-width:0.193894"
           d="m 73.48591,200.55049 -0.977221,0.28697 -0.124092,-0.30248 1.264183,-0.65924 h 0.380031 v 4.83958 H 73.48591 Z" />
        <path
           id="path1011"
           style="font-style:normal;font-variant:normal;font-weight:normal;font-stretch:normal;font-size:10.5833px;line-height:2;font-family:Inconsolata;-inkscape-font-specification:Inconsolata;stroke-width:0.193894"
           d="m 77.44133,204.80063 q -0.387787,0 -0.736795,-0.1396 -0.341252,-0.1396 -0.589435,-0.41106 l 0.356764,-0.42656 0.05429,-0.0621 0.03878,0.0388 q 0.0078,0.0776 0.03102,0.1396 0.02327,0.0543 0.10858,0.13185 0.147359,0.12409 0.310229,0.19389 0.170626,0.0698 0.403298,0.0698 0.449832,0 0.682504,-0.2637 0.232671,-0.26369 0.232671,-0.70577 0,-0.48086 -0.294717,-0.72128 -0.286962,-0.24043 -0.814351,-0.24043 -0.07756,0 -0.248183,0.0155 v -0.43433 q 0.690259,0 0.938442,-0.25594 0.255939,-0.25594 0.255939,-0.69801 0,-0.32574 -0.193893,-0.51964 -0.186137,-0.19389 -0.496366,-0.19389 -0.504122,0 -0.884153,0.35676 l -0.325741,-0.32574 q 0.4731,-0.49636 1.202138,-0.49636 0.581679,0 0.915175,0.33349 0.341252,0.32574 0.341252,0.86864 0,0.39555 -0.193893,0.69027 -0.193893,0.29471 -0.566168,0.41105 0.426565,0.1396 0.674748,0.44983 0.248184,0.31023 0.248184,0.78333 0,0.38778 -0.170626,0.71352 -0.170627,0.31799 -0.496367,0.51188 -0.32574,0.18614 -0.783328,0.18614 z" />
        <path
           id="path1013"
           style="font-style:normal;font-variant:normal;font-weight:normal;font-stretch:normal;font-size:10.5833px;line-height:2;font-family:Inconsolata;-inkscape-font-specification:Inconsolata;stroke-width:0.193894"
           d="m 81.30368,202.32656 q -0.178382,0 -0.317985,-0.13185 -0.139603,-0.13185 -0.139603,-0.31023 0,-0.18614 0.131847,-0.31799 0.139604,-0.13184 0.325741,-0.13184 0.186137,0 0.32574,0.13184 0.139603,0.13185 0.139603,0.31799 0,0.17838 -0.139603,0.31023 -0.139603,0.13185 -0.32574,0.13185 z m 0,2.47407 q -0.193894,0 -0.325741,-0.12409 -0.131847,-0.13185 -0.131847,-0.31798 0,-0.18614 0.131847,-0.31799 0.139604,-0.13185 0.325741,-0.13185 0.186137,0 0.32574,0.13185 0.139603,0.13185 0.139603,0.31799 0,0.17838 -0.139603,0.31022 -0.131847,0.13185 -0.32574,0.13185 z" />
        <path
           id="path1015"
           style="font-style:normal;font-variant:normal;font-weight:normal;font-stretch:normal;font-size:10.5833px;line-height:2;font-family:Inconsolata;-inkscape-font-specification:Inconsolata;stroke-width:0.193894"
           d="m 89.827223,201.08564 q 0.566168,0 0.938443,0.38778 l -0.248183,0.43433 -0.03102,0.0698 -0.05429,-0.031 q -0.02327,-0.0853 -0.05429,-0.13185 -0.03102,-0.0543 -0.131847,-0.11633 -0.201649,-0.13185 -0.457588,-0.13185 -0.279206,0 -0.527389,0.1396 -0.248183,0.1396 -0.403298,0.42656 -0.155114,0.27921 -0.155114,0.70577 v 1.88465 h -0.566168 v -3.55213 h 0.581679 l -0.01551,0.65149 q 0.147358,-0.34901 0.449832,-0.5429 0.310229,-0.1939 0.674748,-0.1939 z" />
        <path
           id="path1017"
           style="font-style:normal;font-variant:normal;font-weight:normal;font-stretch:normal;font-size:10.5833px;line-height:2;font-family:Inconsolata;-inkscape-font-specification:Inconsolata;stroke-width:0.193894"
           d="m 93.200966,204.79287 q -0.791084,0 -1.264183,-0.48085 -0.465344,-0.48085 -0.465344,-1.35725 0,-0.58168 0.217161,-1.00049 0.21716,-0.42656 0.581679,-0.64373 0.372275,-0.22491 0.829862,-0.22491 0.643726,0 1.039267,0.42657 0.403298,0.42656 0.403298,1.25642 0,0.0853 -0.01551,0.25594 h -2.520611 q 0.03102,0.65148 0.364519,0.98498 0.333496,0.33349 0.845374,0.33349 0.558412,0 0.915176,-0.39553 l 0.310229,0.30246 q -0.449832,0.5429 -1.240916,0.5429 z m 0.775572,-2.20262 q 0,-0.49636 -0.255939,-0.78333 -0.248182,-0.29471 -0.659236,-0.29471 -0.387786,0 -0.674748,0.27144 -0.286962,0.27146 -0.356763,0.8066 z" />
        <path
           id="path1019"
           style="font-style:normal;font-variant:normal;font-weight:normal;font-stretch:normal;font-size:10.5833px;line-height:2;font-family:Inconsolata;-inkscape-font-specification:Inconsolata;stroke-width:0.193894"
           d="m 98.412813,204.38958 q -0.511878,0.38003 -1.124581,0.38003 -0.589435,0 -0.837618,-0.35677 -0.240428,-0.35676 -0.240428,-1.16335 0,-0.13185 0.01551,-0.45759 l 0.0698,-1.16336 h -0.783328 v -0.45759 h 0.814351 l 0.05429,-0.9462 0.620458,-0.10082 0.07756,-0.008 0.0078,0.0465 q -0.05429,0.0776 -0.08531,0.13185 -0.02327,0.0543 -0.03102,0.17062 l -0.08531,0.70577 h 1.17887 v 0.45759 h -1.209893 l -0.0698,1.20214 q -0.01551,0.31023 -0.01551,0.41105 0,0.62046 0.139603,0.84537 0.147359,0.21717 0.465343,0.21717 0.232672,0 0.426566,-0.0853 0.193892,-0.0853 0.442076,-0.27144 z" />
        <path
           id="path1021"
           style="font-style:normal;font-variant:normal;font-weight:normal;font-stretch:normal;font-size:10.5833px;line-height:2;font-family:Inconsolata;-inkscape-font-specification:Inconsolata;stroke-width:0.193894"
           d="m 100.56115,204.80063 q -0.55842,0 -0.891912,-0.41105 -0.333495,-0.41881 -0.325739,-1.24091 l 0.0078,-1.97772 h 0.542904 v 1.97772 q 0,0.63597 0.217167,0.92293 0.22491,0.2792 0.58943,0.2792 0.4033,0 0.67475,-0.31023 0.27921,-0.31798 0.27921,-0.91517 v -1.95445 h 0.5429 v 2.99371 q 0,0.18614 0.008,0.31023 0.0155,0.11634 0.0698,0.24043 h -0.53515 q -0.0543,-0.11634 -0.0698,-0.24043 -0.008,-0.12409 -0.008,-0.30247 -0.17063,0.29472 -0.46535,0.46534 -0.28696,0.16287 -0.63597,0.16287 z" />
        <path
           id="path1023"
           style="font-style:normal;font-variant:normal;font-weight:normal;font-stretch:normal;font-size:10.5833px;line-height:2;font-family:Inconsolata;-inkscape-font-specification:Inconsolata;stroke-width:0.193894"
           d="m 105.33867,201.08564 q 0.56617,0 0.93845,0.38778 l -0.24818,0.43433 -0.031,0.0698 -0.0543,-0.031 q -0.0233,-0.0853 -0.0543,-0.13185 -0.031,-0.0543 -0.13185,-0.11633 -0.20164,-0.13185 -0.45758,-0.13185 -0.27921,0 -0.5274,0.1396 -0.24817,0.1396 -0.40329,0.42656 -0.15512,0.27921 -0.15512,0.70577 v 1.88465 h -0.56617 v -3.55213 h 0.58168 l -0.0155,0.65149 q 0.14736,-0.34901 0.44984,-0.5429 0.31022,-0.1939 0.67474,-0.1939 z" />
        <path
           id="path1025"
           style="font-style:normal;font-variant:normal;font-weight:normal;font-stretch:normal;font-size:10.5833px;line-height:2;font-family:Inconsolata;-inkscape-font-specification:Inconsolata;stroke-width:0.193894"
           d="m 107.16127,201.17095 h 0.5429 v 0.62822 q 0.20941,-0.32575 0.52739,-0.51964 0.31798,-0.19389 0.67475,-0.19389 0.4731,0 0.7523,0.36452 0.28696,0.35676 0.28696,1.11682 v 2.14834 h -0.5429 v -2.13283 q 0,-0.52738 -0.17837,-0.76781 -0.17839,-0.24043 -0.47311,-0.24043 -0.24043,0 -0.48861,0.1396 -0.24043,0.1396 -0.4033,0.39554 -0.15511,0.24819 -0.15511,0.56617 v 2.03976 h -0.5429 z" />
      </g>
    </g>
  </g>
</svg>
