<?xml version="1.0" encoding="UTF-8" standalone="no"?>
<svg
   xmlns:osb="http://www.openswatchbook.org/uri/2009/osb"
   xmlns:dc="http://purl.org/dc/elements/1.1/"
   xmlns:cc="http://creativecommons.org/ns#"
   xmlns:rdf="http://www.w3.org/1999/02/22-rdf-syntax-ns#"
   xmlns:svg="http://www.w3.org/2000/svg"
   xmlns="http://www.w3.org/2000/svg"
   xmlns:xlink="http://www.w3.org/1999/xlink"
   xmlns:sodipodi="http://sodipodi.sourceforge.net/DTD/sodipodi-0.dtd"
   xmlns:inkscape="http://www.inkscape.org/namespaces/inkscape"
   inkscape:version="1.0 (4035a4f, 2020-05-01)"
   sodipodi:docname="native.svg"
   id="svg5436"
   version="1.1"
   viewBox="0 0 72.564767 106.21045"
   height="106.21046mm"
   width="72.564766mm">
  <defs
     id="defs5430">
    <linearGradient
       id="linearGradient7090"
       osb:paint="solid">
      <stop
         style="stop-color:#71f79f;stop-opacity:1;"
         offset="0"
         id="stop7088" />
    </linearGradient>
    <linearGradient
       id="linearGradient5165"
       osb:paint="solid">
      <stop
         style="stop-color:#71f79f;stop-opacity:1;"
         offset="0"
         id="stop5163" />
    </linearGradient>
    <linearGradient
       osb:paint="solid"
       id="linearGradient6470">
      <stop
         id="stop6468"
         offset="0"
         style="stop-color:#000000;stop-opacity:1;" />
    </linearGradient>
    <linearGradient
       osb:paint="solid"
       id="linearGradient6438">
      <stop
         id="stop6436"
         offset="0"
         style="stop-color:#000000;stop-opacity:1;" />
    </linearGradient>
    <linearGradient
       id="linearGradient889"
       osb:paint="solid"
       gradientTransform="matrix(0.00221797,0,0,0.04692603,90.516844,145.99082)">
      <stop
         style="stop-color:#513c2c;stop-opacity:1;"
         offset="0"
         id="stop887" />
    </linearGradient>
    <linearGradient
       id="linearGradient895"
       osb:paint="solid"
       gradientTransform="matrix(0.00129642,0,0,0.00140445,-73.124209,-158.31404)">
      <stop
         style="stop-color:#3dd6d0;stop-opacity:1;"
         offset="0"
         id="stop893" />
    </linearGradient>
    <linearGradient
       id="linearGradient4511"
       osb:paint="solid">
      <stop
         style="stop-color:#000000;stop-opacity:1;"
         offset="0"
         id="stop4509" />
    </linearGradient>
    <linearGradient
       inkscape:collect="always"
       xlink:href="#linearGradient933"
       id="linearGradient935"
       x1="18.704445"
       y1="268.51642"
       x2="190.90982"
       y2="268.51642"
       gradientUnits="userSpaceOnUse"
       gradientTransform="translate(0.19286897)" />
    <linearGradient
       id="linearGradient933"
       osb:paint="solid">
      <stop
         style="stop-color:#15b097;stop-opacity:1;"
         offset="0"
         id="stop931" />
    </linearGradient>
    <linearGradient
       gradientTransform="matrix(0.46992593,0,0,0.45463718,55.36802,40.952869)"
       gradientUnits="userSpaceOnUse"
       y2="137.68002"
       x2="116.87724"
       y1="137.68002"
       x1="94.355965"
       id="linearGradient6440"
       xlink:href="#linearGradient889"
       inkscape:collect="always" />
    <linearGradient
       gradientUnits="userSpaceOnUse"
       y2="118.91597"
       x2="110.63436"
       y1="118.91597"
       x1="86.110275"
       id="linearGradient6472"
       xlink:href="#linearGradient889"
       inkscape:collect="always"
       gradientTransform="matrix(1,0,0,1.1580799,6.6276865,-13.686307)" />
    <linearGradient
       inkscape:collect="always"
       xlink:href="#linearGradient4511"
       id="linearGradient4431"
       gradientUnits="userSpaceOnUse"
       gradientTransform="translate(2.770219e-6)"
       x1="86.459778"
       y1="-11.452677"
       x2="132.20464"
       y2="-11.452677" />
    <linearGradient
       inkscape:collect="always"
       xlink:href="#linearGradient7090"
       id="linearGradient7092"
       x1="23.329525"
       y1="-11.452677"
       x2="195.3349"
       y2="-11.452677"
       gradientUnits="userSpaceOnUse"
       gradientTransform="translate(-4.332209,76.485774)" />
    <linearGradient
       inkscape:collect="always"
       xlink:href="#linearGradient889"
       id="linearGradient8240"
       gradientUnits="userSpaceOnUse"
       gradientTransform="matrix(0.46992593,0,0,0.45463718,55.36802,40.952869)"
       x1="94.355965"
       y1="137.68002"
       x2="116.87724"
       y2="137.68002" />
    <linearGradient
       inkscape:collect="always"
       xlink:href="#linearGradient889"
       id="linearGradient8242"
       gradientUnits="userSpaceOnUse"
       gradientTransform="matrix(1,0,0,1.1580799,6.6276865,-13.686307)"
       x1="86.110275"
       y1="118.91597"
       x2="110.63436"
       y2="118.91597" />
    <linearGradient
       inkscape:collect="always"
       xlink:href="#linearGradient4511"
       id="linearGradient8814"
       gradientUnits="userSpaceOnUse"
       gradientTransform="matrix(0.00887188,0,0,0.18770412,47.067372,-58.98811)" />
  </defs>
  <sodipodi:namedview
     inkscape:showpageshadow="false"
     showborder="true"
     inkscape:window-maximized="1"
     inkscape:window-y="23"
     inkscape:window-x="0"
     inkscape:window-height="855"
     inkscape:window-width="1440"
     showgrid="true"
     inkscape:document-rotation="0"
     inkscape:current-layer="g4831"
     inkscape:document-units="mm"
     inkscape:cy="192.23373"
     inkscape:cx="66.630268"
     inkscape:zoom="1"
     inkscape:pageshadow="2"
     inkscape:pageopacity="0.0"
     borderopacity="1.0"
     bordercolor="#666666"
     pagecolor="#ffffff"
     id="base">
    <inkscape:grid
       originy="70.82589"
       originx="14.781716"
       id="grid6442"
       type="xygrid" />
  </sodipodi:namedview>
  <metadata
     id="metadata5433">
    <rdf:RDF>
      <cc:Work
         rdf:about="">
        <dc:format>image/svg+xml</dc:format>
        <dc:type
           rdf:resource="http://purl.org/dc/dcmitype/StillImage" />
        <dc:title />
      </cc:Work>
    </rdf:RDF>
  </metadata>
  <g
     transform="translate(-36.289046,56.912086)"
     id="layer1"
     inkscape:groupmode="layer"
     inkscape:label="Layer 1">
    <g
       style="display:inline;mix-blend-mode:normal"
       id="g5082"
       transform="matrix(0.25,0,0,0.25,46.321428,3.11714)">
      <g
         transform="matrix(3,0,0,3,-210,-239.75072)"
         id="g6935">
        <g
           id="g4831">
          <g
             id="g8484"
             transform="matrix(0.5625,0,0,0.5625,45.9375,30.924647)">
            <g
               id="g4263"
               transform="translate(1.3214521e-7,-188.88355)">
              <g
                 id="g1257"
                 transform="translate(1.4147298e-6,70.066882)"
                 style="display:inline;mix-blend-mode:normal">
                <rect
                   ry="31.75"
                   rx="24.946424"
                   y="246.67009"
                   x="18.997314"
                   height="43.692684"
                   width="172.00537"
                   id="rect835"
                   style="fill:url(#linearGradient935);fill-opacity:1;stroke:none;stroke-width:0.2;stroke-linejoin:round" />
                <g
                   style="font-size:10.5833px;line-height:1.25;font-family:Ree;-inkscape-font-specification:Ree;fill:url(#linearGradient8814);fill-opacity:1;stroke-width:0.264583"
                   id="text839"
                   aria-label="OS / CPU">
                  <path
                     id="path1292"
                     style="fill:url(#linearGradient8814);fill-opacity:1;stroke-width:0.264583"
                     d="m 85.69208,264.94561 q -1.136878,0 -1.80867,0.84749 -0.666624,0.84749 -0.666624,2.30993 0,1.45727 0.666624,2.30476 0.671792,0.84749 1.80867,0.84749 1.136878,0 1.798334,-0.84749 0.666624,-0.84749 0.666624,-2.30476 0,-1.46244 -0.666624,-2.30993 -0.661456,-0.84749 -1.798334,-0.84749 z m 0,-0.84749 q 1.622634,0 2.594148,1.09037 0.971514,1.0852 0.971514,2.91454 0,1.82417 -0.971514,2.91454 -0.971514,1.0852 -2.594148,1.0852 -1.627803,0 -2.604484,-1.0852 -0.971514,-1.0852 -0.971514,-2.91454 0,-1.82934 0.971514,-2.91454 0.976681,-1.09037 2.604484,-1.09037 z" />
                  <path
                     id="path1294"
                     style="fill:url(#linearGradient8814);fill-opacity:1;stroke-width:0.264583"
                     d="m 95.515738,264.49086 v 1.01802 q -0.594277,-0.28422 -1.121375,-0.42374 -0.527098,-0.13953 -1.018022,-0.13953 -0.852659,0 -1.317745,0.33073 -0.459919,0.33073 -0.459919,0.94051 0,0.51159 0.30489,0.77514 0.310058,0.25838 1.167884,0.41858 l 0.63045,0.12919 q 1.167884,0.22221 1.72082,0.78548 0.558104,0.5581 0.558104,1.49861 0,1.12137 -0.754474,1.70015 -0.749306,0.57877 -2.201409,0.57877 -0.547768,0 -1.167884,-0.12402 -0.614947,-0.12402 -1.276403,-0.3669 v -1.07487 q 0.635618,0.35657 1.245398,0.53743 0.60978,0.18087 1.198889,0.18087 0.894,0 1.379756,-0.3514 0.485757,-0.3514 0.485757,-1.00252 0,-0.56844 -0.351398,-0.88883 -0.346231,-0.32039 -1.142046,-0.48059 l -0.635618,-0.12402 q -1.167883,-0.23254 -1.689814,-0.72864 -0.52193,-0.49609 -0.52193,-1.37975 0,-1.02319 0.7183,-1.6123 0.723468,-0.58911 1.989536,-0.58911 0.542601,0 1.105872,0.0982 0.563272,0.0982 1.152381,0.29456 z" />
                  <path
                     id="path1296"
                     style="fill:url(#linearGradient8814);fill-opacity:1;stroke-width:0.264583"
                     d="m 102.62639,264.23764 h 0.8785 l -2.68717,8.69712 h -0.878494 z" />
                  <path
                     id="path1298"
                     style="fill:url(#linearGradient8814);fill-opacity:1;stroke-width:0.264583"
                     d="m 113.70062,264.83192 v 1.10071 q -0.5271,-0.49093 -1.12655,-0.73381 -0.59427,-0.24288 -1.26606,-0.24288 -1.32292,0 -2.02571,0.81132 -0.7028,0.80615 -0.7028,2.33577 0,1.52445 0.7028,2.33577 0.70279,0.80615 2.02571,0.80615 0.67179,0 1.26606,-0.24288 0.59945,-0.24288 1.12655,-0.7338 v 1.09036 q -0.54777,0.37207 -1.16272,0.55811 -0.60978,0.18603 -1.29191,0.18603 -1.75182,0 -2.75951,-1.0697 -1.00769,-1.07486 -1.00769,-2.93004 0,-1.86035 1.00769,-2.93004 1.00769,-1.07487 2.75951,-1.07487 0.69247,0 1.30225,0.18603 0.61494,0.18087 1.15238,0.54777 z" />
                  <path
                     id="path1300"
                     style="fill:url(#linearGradient8814);fill-opacity:1;stroke-width:0.264583"
                     d="m 116.36711,265.09547 v 2.89904 h 1.31258 q 0.72863,0 1.12654,-0.37724 0.39791,-0.37723 0.39791,-1.07486 0,-0.69247 -0.39791,-1.0697 -0.39791,-0.37724 -1.12654,-0.37724 z m -1.04386,-0.85783 h 2.35644 q 1.29707,0 1.95853,0.58911 0.66662,0.58395 0.66662,1.71566 0,1.14204 -0.66662,1.72598 -0.66146,0.58395 -1.95853,0.58395 h -1.31258 v 3.10057 h -1.04386 z" />
                  <path
                     id="path1302"
                     style="fill:url(#linearGradient8814);fill-opacity:1;stroke-width:0.264583"
                     d="m 121.59158,264.23764 h 1.04903 v 4.68704 q 0,1.24023 0.44958,1.788 0.44959,0.5426 1.45728,0.5426 1.00251,0 1.4521,-0.5426 0.44958,-0.54777 0.44958,-1.788 v -4.68704 h 1.04903 v 4.81623 q 0,1.50895 -0.74931,2.27893 -0.74413,0.76997 -2.2014,0.76997 -1.46244,0 -2.21175,-0.76997 -0.74414,-0.76998 -0.74414,-2.27893 z" />
                </g>
              </g>
              <g
                 style="display:inline;mix-blend-mode:normal"
                 id="g3711"
                 transform="matrix(0.52941172,0,0,0.52941172,12.9176,170.49916)">
                <rect
                   ry="27.998409"
                   y="327.88498"
                   x="51.595005"
                   height="55.996819"
                   width="68.815361"
                   id="rect3690"
                   style="font-variation-settings:normal;opacity:1;vector-effect:none;fill:#ffffff;fill-opacity:1;stroke:none;stroke-width:20;stroke-linecap:butt;stroke-linejoin:miter;stroke-miterlimit:4;stroke-dasharray:none;stroke-dashoffset:0;stroke-opacity:1;stop-color:#000000;stop-opacity:1" />
                <g
                   transform="matrix(0.07294078,0,0,0.07164395,62.752166,334.84684)"
                   id="g3688"
                   style="overflow:visible">
                  <g
                     id="g3"
                     transform="matrix(0.9945619,0,0,0.9945619,-1.4495115e-4,-2.6616885e-4)">
                    <path
                       clip-rule="evenodd"
                       d="m 543.168,88.286 10.211,-71.471 c 0,0 -85.691,-31.725 -213.316,-8.021 C 213.528,31.038 118.356,106.518 77.516,146.629 37.77,186.375 -7.082,258.94 0.94,355.936 c 7.295,98.086 68.553,166.641 133.824,200.188 65.273,33.547 176.854,48.867 276.768,16.414 29.535,-10.211 153.148,-45.945 206.387,-164.461 45.945,-100.273 9.117,-184.871 9.117,-184.871 0,0 -39.746,-123.616 -191.075,-140.024 v 58.344 c 0,0 88.973,1.822 138.93,65.27 48.133,61.26 52.145,120.695 18.598,187.789 -13.492,23.703 -82.773,149.141 -285.152,158.625 -14.221,0 -153.15,5.836 -233.736,-87.883 C 8.235,386.569 22.456,323.116 26.467,300.874 28.655,293.581 34.488,276.079 38.863,266.964 54.908,229.403 97.937,163.038 173.416,124.021 286.092,66.773 363.398,45.259 467.687,59.845 c 11.302,1.822 55.06,10.21 75.481,28.441 z m -98.82,29.537 c 0,-10.211 9.117,-19.326 19.328,-19.326 11.301,0 20.418,9.115 20.418,19.326 0,11.303 -9.117,20.42 -20.418,20.42 -10.211,0 -19.328,-9.118 -19.328,-20.42 z"
                       id="path5"
                       style="fill:#007dc5;fill-rule:evenodd" />
                    <path
                       clip-rule="evenodd"
                       d="m 463.676,254.93 c 0,0 0,-1.096 0,-2.189 1.094,-1.094 2.914,-2.918 6.195,-4.01 6.93,-1.094 14.223,-2.189 23.34,4.01 0,0 0,0 1.094,0 0,0 0,1.094 1.094,1.094 1.094,1.096 1.094,2.918 0,6.199 0,5.834 -4.012,167.371 -4.012,167.371 v 0 1.094 c -1.094,1.094 -2.188,1.094 -4.375,1.828 -2.918,1.086 -12.035,-0.734 -14.223,-1.828 v 0 c -1.094,-1.094 -1.094,-1.094 -1.094,-1.094 -0.727,-1.094 -1.824,-2.188 -1.824,-2.914 v -22.609 c 0,0 0,0 0,-1.094 v -1.094 c -1.094,-0.734 -3.281,-0.734 -5.102,2.188 0,0 -2.188,4.008 -5.105,8.023 -3.281,5.102 -6.199,10.211 -8.387,12.398 0,0 -8.023,7.289 -16.043,2.914 0,0 0,0 -2.191,-0.727 -1.094,0 -2.188,-2.188 -4.008,-4.375 -3.285,-4.016 -7.293,-10.945 -8.387,-23.336 -2.918,-24.438 1.094,-60.172 15.313,-73.664 0,0 1.094,-0.727 2.188,-1.82 1.094,-1.093 2.918,-3.281 6.199,-5.109 4.012,-4.008 11.305,-8.383 20.422,-9.477 0,0 1.094,0 1.094,-0.734 l -2.188,-50.316 c 0,0 0,0 0,-0.729 z m 1.094,77.67 c -1.094,-1.094 -2.188,-1.094 -4.012,1.82 -1.094,0 -14.586,13.492 -15.316,48.133 0,1.094 0,2.922 0,6.203 0,2.914 0,6.922 0.73,8.023 1.094,0 4.375,0 9.48,-5.109 0.73,-2.188 2.918,-2.914 4.012,-4.008 1.094,-2.188 1.824,-3.289 2.918,-5.109 2.188,-3.281 3.281,-7.289 3.281,-12.398 v -34.641 c 0,0 0,0 0,-1.094 10e-4,0 10e-4,-1.093 -1.093,-1.82 z"
                       id="path7"
                       style="fill:#007dc5;fill-rule:evenodd" />
                    <path
                       clip-rule="evenodd"
                       d="m 532.227,339.53 c -2.188,1.094 -3.281,2.18 -3.281,4.008 0,2.188 0,6.195 0,9.484 0,4.008 0,8.016 1.094,10.203 0,0 0,0 0,0.734 1.094,1.094 1.094,1.094 2.188,2.188 1.824,1.094 4.012,2.188 8.023,0 0,0 0,0 1.094,-1.094 1.094,-1.094 2.918,-1.828 4.012,-2.922 2.918,-2.188 6.199,-6.195 8.023,-10.211 0,-1.094 6.195,-9.109 16.406,-2.188 0,0 0,0 1.094,1.094 1.098,0 1.098,1.094 2.188,2.195 0.73,1.82 1.824,5.102 0,10.938 -1.09,2.188 -2.188,3.281 -3.281,4.375 -1.094,1.82 -1.094,2.914 -1.82,4.008 -2.191,4.016 -5.105,6.93 -8.391,10.211 -6.195,5.109 -15.313,9.117 -29.535,6.93 -1.094,0 -2.188,0 -5.105,-0.727 -2.188,-1.094 -6.195,-3.281 -9.113,-7.297 -7.293,-7.289 -14.223,-19.328 -13.492,-43.023 0,0 4.375,-44.855 22.605,-57.982 0,-1.094 1.094,-1.094 2.188,-3.281 1.824,-1.094 4.012,-1.824 6.93,-4.012 6.199,-2.188 14.223,-2.918 23.703,1.094 18.23,8.021 10.938,30.635 8.02,38.65 -2.914,8.391 -12.395,24.797 -26.617,26.625 h -5.105 c 0,0 0,0 -1.094,0 z m 19.328,-37.93 c 1.094,-2.914 1.094,-6.926 -2.188,-9.113 0,0 -6.199,-1.822 -13.129,12.402 -7.293,15.313 -4.012,23.336 -4.012,23.336 0.73,0 0.73,0 0.73,0 0,0 12.398,-4.016 17.504,-19.328 10e-4,0 1.095,-2.922 1.095,-7.297 z"
                       id="path9"
                       style="fill:#007dc5;fill-rule:evenodd" />
                    <path
                       clip-rule="evenodd"
                       d="m 411.532,331.506 c 0,1.094 0,1.094 0,1.094 1.094,0.727 1.094,0.727 1.094,1.82 0,2.188 -2.188,96.992 -2.188,96.992 0,0 0,6.203 -2.918,7.297 -4.012,1.094 -15.316,1.094 -18.598,-2.188 v 0 c -0.73,0 -0.73,-1.094 -1.824,-1.094 0,-0.727 -1.094,-2.914 -1.094,-4.016 l -2.918,-105.016 h 16.047 z"
                       id="path11"
                       style="fill:#007dc5;fill-rule:evenodd" />
                    <path
                       clip-rule="evenodd"
                       d="m 371.786,336.608 c 0,-1.094 0,0 0,0 0,1.094 0,1.094 0,1.828 0,2.188 0,3.273 -2.188,5.102 0,0 -1.824,2.188 -4.012,5.102 -2.188,2.188 -4.012,5.109 -6.199,9.484 -5.105,5.836 -10.211,12.031 -13.129,15.313 v 0 c -1.094,0 -1.094,0.734 -1.094,0.734 0,1.094 -1.094,2.188 -1.094,4.375 0,1.82 1.094,4.008 3.281,5.102 5.105,1.828 19.328,12.031 26.254,25.523 0,0 0,0.734 0,1.828 1.098,1.094 1.098,3.281 2.191,6.195 0,4.016 0,11.305 -4.012,17.508 -3.281,5.828 -9.117,14.219 -14.223,21.148 -4.375,6.195 -8.387,11.305 -8.387,11.305 -1.094,1.094 -10.211,8.383 -17.137,3.281 0,0 -1.094,-1.094 -2.188,-2.188 -1.098,0 -2.918,-2.188 -4.012,-2.922 -2.189,-3.281 -4.012,-7.289 -1.096,-11.305 l 22.607,-32.813 c 0,0 0.73,-1.094 1.824,-2.922 1.094,-2.188 1.094,-5.102 -1.824,-8.383 -5.102,-4.016 -27.713,-27.352 -27.713,-29.539 v 0 c 0,-1.094 -1.092,-1.094 -1.092,-1.82 -1.096,-1.094 -1.096,-2.188 -1.824,-4.375 -1.094,-4.016 -2.188,-8.023 0.729,-13.133 5.105,-6.195 10.213,-14.219 15.314,-21.508 6.199,-6.93 13.492,-14.227 20.422,-16.414 0,0 1.094,-0.727 3.281,-0.727 1.824,-1.094 5.105,-1.094 6.199,0 4.016,0.729 6.934,8.026 9.122,14.221 z"
                       id="path13"
                       style="fill:#007dc5;fill-rule:evenodd" />
                    <path
                       clip-rule="evenodd"
                       d="m 264.579,386.569 v 0 l 0.73,1.094 c 1.092,1.094 2.188,0 3.281,-1.094 h 1.094 v -1.094 c 0,0 0,-1.102 0,-1.828 0,-2.188 0.729,-4.375 1.824,-6.195 2.188,-5.109 5.105,-10.211 11.303,-12.398 0,0 17.504,-5.109 23.703,8.383 0,0 0.729,0.734 0.729,2.922 1.094,2.914 3.281,7.289 4.375,13.125 1.824,13.492 5.105,39.016 2.918,79.859 0,0 0,8.016 -5.105,11.305 0,0 0,0 -1.094,0 0,0 -1.094,1.094 -2.918,1.094 -2.188,0 -5.104,-1.094 -9.115,-3.281 h -1.094 c 0,-1.102 -1.094,-1.102 -1.094,-1.102 -1.094,-0.727 -2.918,-2.914 -2.918,-6.195 0,0 -7.293,-63.086 -8.387,-69.281 0,-4.008 -1.824,-6.203 -4.012,-7.297 -1.094,-0.727 -2.916,-0.727 -5.104,2.195 0,0 -3.283,5.102 -7.295,13.125 -2.916,7.289 -6.926,17.5 -6.926,27.711 0.729,20.422 1.822,32.82 1.822,32.82 0,0 0,0 0,0.727 v 1.094 c 0,1.094 -1.094,3.281 -1.822,4.375 -3.283,1.828 -12.398,5.109 -18.598,1.828 0,-1.102 0,-1.102 -1.094,-1.102 0,0 -0.73,0 -0.73,-0.727 -1.094,-1.094 -2.188,-2.188 -2.188,-5.469 l -4.01,-111.219 h 31.723 v 26.625 z"
                       id="path15"
                       style="fill:#007dc5;fill-rule:evenodd" />
                    <path
                       clip-rule="evenodd"
                       d="m 210.247,379.272 c -1.094,0 -1.822,0 -4.012,0 -2.916,-1.82 -14.221,-10.938 -14.221,-10.938 0,0 0,0 -1.092,0 0,0 0,-1.094 -1.096,-1.094 0,-1.094 -1.094,-3.281 1.096,-5.109 2.916,-4.008 9.115,-13.492 10.209,-14.219 1.094,-1.094 2.188,-2.188 4.012,0 3.281,0.727 17.502,10.211 17.502,10.211 0,0 0,0.727 1.094,1.82 0,1.094 0,2.188 0,3.281 -2.188,2.922 -12.398,15.32 -12.398,15.32 v 0 z"
                       id="path17"
                       style="fill:#007dc5;fill-rule:evenodd" />
                    <path
                       clip-rule="evenodd"
                       d="m 218.633,391.67 c 0,0 0,0 0.73,0 0,1.094 0,2.188 0,2.188 0,1.82 -0.73,95.898 -0.73,95.898 0,0 0,6.203 -4.375,7.297 -4.012,0.727 -14.221,1.82 -18.232,-1.094 v -1.094 c -1.094,0 -1.094,-1.094 -2.188,-1.094 -0.73,-1.094 -1.824,-2.922 -1.824,-4.016 l -2.188,-103.188 h 16.408 z"
                       id="path19"
                       style="fill:#007dc5;fill-rule:evenodd" />
                    <path
                       clip-rule="evenodd"
                       d="m 465.864,120.01 c 2.914,-1.094 5.832,-2.188 5.832,-6.199 0,-5.104 -4.008,-6.199 -8.02,-6.199 h -6.199 v 20.42 h 2.188 v -8.021 h 4.012 l 5.102,8.021 h 4.012 z m -6.199,-2.187 V 109.8 h 2.918 c 4.008,0 6.195,1.096 6.195,4.012 0,2.918 -2.188,4.012 -5.102,4.012 h -4.011 z"
                       id="path21"
                       style="fill:#007dc5;fill-rule:evenodd" />
                    <path
                       clip-rule="evenodd"
                       d="m 302.137,233.415 c -0.729,0 -1.822,1.094 -1.822,2.918 0,3.281 -1.096,6.199 -1.096,10.209 0,3.281 0,7.293 1.096,9.117 0,0 0,1.094 1.094,1.094 0,1.094 0.729,2.188 0.729,2.188 2.188,1.094 5.105,1.824 8.387,1.094 0,0 1.094,-1.094 1.824,-2.188 1.094,0 2.188,-1.094 3.281,-2.188 2.918,-2.918 6.199,-5.836 8.021,-10.939 0,0 6.201,-9.482 16.412,-1.094 0,0 0,0 1.09,0 1.098,1.094 1.824,1.822 1.824,2.916 2.188,2.189 2.188,5.105 0,10.211 -0.727,2.188 -1.824,3.281 -1.824,5.105 -1.09,1.094 -2.188,2.188 -3.281,4.01 -1.82,3.283 -4.012,6.199 -8.02,9.48 -6.201,5.105 -15.316,9.117 -29.537,8.023 0,0 -2.188,-1.096 -5.105,-2.188 -2.188,-0.73 -6.199,-2.918 -9.117,-6.93 -7.293,-6.199 -14.584,-19.324 -12.396,-41.934 0,0 2.918,-45.945 21.514,-59.072 0,0 1.094,-1.094 2.918,-2.188 1.092,-1.094 4.01,-2.918 6.197,-4.012 6.199,-3.281 14.223,-4.012 23.34,0 18.594,9.115 11.301,31.725 8.387,39.746 -3.285,8.021 -12.4,23.338 -26.621,25.525 l -5.105,1.094 v 0 c -1.096,-1.091 -1.096,-1.091 -2.19,0.003 z m 20.42,-37.924 c 0,-2.916 0,-8.021 -1.822,-10.209 -1.096,0 -7.293,-1.822 -13.492,12.398 -6.928,15.316 -4.012,23.336 -4.012,23.336 0,0 0,1.094 1.094,0 0,0 11.305,-4.012 16.41,-19.326 0,0 1.094,-2.916 1.822,-6.199 z"
                       id="path23"
                       style="fill:#007dc5;fill-rule:evenodd" />
                    <path
                       clip-rule="evenodd"
                       d="m 230.667,137.149 c 0,-0.73 0,-0.73 0,-1.824 1.094,-1.094 2.189,-2.188 5.105,-1.094 l 21.514,-1.094 c 0,0 6.199,0 6.199,7.293 0,6.93 0,16.408 0,16.408 0,0 0,0 0,1.096 0,0 0,0 0,0.729 1.094,1.094 1.824,1.094 4.012,0 2.916,-0.729 16.408,-5.834 16.408,-5.834 h 1.094 c 1.094,0 1.094,-1.094 1.824,-1.094 1.094,0 3.281,0 5.105,1.822 3.281,3.281 2.188,9.48 2.188,9.48 0,0 0,2.918 -2.918,5.105 -2.188,0.729 -27.713,10.939 -27.713,10.939 -1.092,0 -1.092,0 -1.092,1.094 l -2.189,129.814 c 0,0 0,0 0,1.094 0,0 0,0 0,1.094 0,0.727 0,1.82 -1.822,1.82 0,0 -1.096,1.094 -2.189,1.094 -1.094,1.094 -2.916,2.188 -5.105,2.922 -4.01,1.094 -9.117,1.094 -13.127,-2.922 0,0 -4.01,-2.914 -4.01,-7.289 l -2.189,-113.404 c 0,-0.73 -1.094,-0.73 -1.094,-0.73 l -26.619,10.939 c -1.822,-1.824 -17.137,-10.939 -17.137,-19.326 v -1.094 -0.729 c 0,0 0,-1.096 1.094,-1.096 0.729,0 12.033,-3.281 22.242,-6.199 10.211,-4.01 20.42,-7.293 20.42,-7.293 0,0 1.094,0 1.094,-0.729 z"
                       id="path25"
                       style="fill:#007dc5;fill-rule:evenodd" />
                    <path
                       clip-rule="evenodd"
                       d="m 168.313,238.52 v 0 1.094 c 1.094,0 1.094,0 3.281,-1.094 0,-1.094 0,-2.188 0,-3.283 1.096,-1.822 1.822,-4.01 2.918,-5.834 2.188,-5.104 5.104,-10.209 12.398,-12.398 0,0 1.094,0 1.822,-1.092 2.189,0 5.105,0 7.293,0 5.105,0 9.117,2.188 12.398,7.293 0.729,0 1.822,4.012 4.01,6.928 2.918,9.48 8.023,32.818 6.199,88.975 0,0 0,2.188 -1.094,5.102 -1.094,3.281 -2.188,5.109 -5.105,7.297 1.094,0 0,0 0,0 0,0 0,0 -1.094,0 0,0 -1.094,1.094 -2.916,1.094 -2.189,0 -6.199,0 -10.211,-3.281 0,0 -4.375,-1.828 -5.105,-6.93 0,0 -6.197,-62.355 -8.385,-68.555 -1.096,-6.197 -5.107,-9.115 -6.93,-5.104 0,0 -4.377,5.104 -7.293,13.127 -4.01,7.293 -8.021,17.502 -7.293,27.711 1.094,20.422 1.094,31.727 1.094,31.727 0,0 1.094,1.094 0,1.82 0,1.094 0,3.281 -1.822,4.375 -3.283,1.828 -12.398,5.109 -19.691,1.828 0,0 0,-1.094 -0.73,-1.094 0,0 -1.094,0 -1.094,-0.734 -1.092,-1.094 -3.281,-3.281 -2.188,-5.102 l -2.916,-110.488 31.723,-1.096 z"
                       id="path27"
                       style="fill:#007dc5;fill-rule:evenodd" />
                    <path
                       clip-rule="evenodd"
                       d="m 123.461,262.952 c 0,0 0,0 0,1.094 1.094,0 1.094,1.094 1.094,1.094 0,1.824 -2.188,92.984 -2.188,92.984 0,0 0,0.727 -0.729,2.914 0,1.094 -1.096,2.922 -2.188,2.922 -4.012,1.094 -15.316,2.188 -18.598,-0.734 v 0 c 0,0 0,0 -0.729,-1.094 0,0 0,0 -1.096,0 0,-1.094 -1.092,-2.188 -1.092,-4.008 l -2.915,-99.184 16.043,-1.094 z"
                       id="path29"
                       style="fill:#007dc5;fill-rule:evenodd" />
                    <path
                       clip-rule="evenodd"
                       d="m 109.241,246.542 v 0 c 0,1.096 0,1.096 -1.094,1.096 -1.094,0 -2.189,0 -2.918,-1.096 -2.188,-1.822 -13.492,-14.221 -15.314,-16.408 v -0.73 c 0,-1.094 0,-2.186 0.729,-2.186 1.094,-1.096 13.492,-12.4 13.492,-12.4 1.094,0 1.094,0 1.094,0 0,0 0,-0.729 0.729,-0.729 1.096,0 2.189,0 4.377,0.729 0.729,2.188 2.918,4.377 5.834,6.199 2.188,2.189 5.471,5.105 7.293,8.387 0,0.73 0,0.73 1.094,1.824 0,0 0,1.094 -1.094,2.188 -1.094,0 -4.01,4.012 -7.293,6.928 -4.011,3.281 -6.929,6.198 -6.929,6.198 z"
                       id="path31"
                       style="fill:#007dc5;fill-rule:evenodd" />
                    <path
                       clip-rule="evenodd"
                       d="m 394.028,287.383 h 1.094 c 0,0 0,0 1.094,0 1.094,-1.096 2.188,-1.096 4.012,1.092 1.094,0 2.188,1.094 3.281,2.189 0.73,0.729 2.918,1.822 4.012,2.916 2.918,2.189 6.199,4.012 8.02,7.293 v 0.727 c 0,0 1.098,0 1.098,1.094 0,0 0,1.094 -1.098,2.195 -1.09,0 -4.008,4.008 -6.926,8.016 -2.188,3.281 -5.105,6.203 -5.105,6.203 0,1.094 -3.281,2.188 -5.105,0 -2.188,-1.828 -14.586,-11.305 -15.316,-12.398 -1.09,0 -1.09,-0.734 -1.09,-1.82 0,0 0,-1.102 1.09,-2.195 0.73,0 4.012,-4.008 5.836,-8.02 3.279,-3.282 5.103,-6.2 5.103,-7.292 z"
                       id="path33"
                       style="fill:#007dc5;fill-rule:evenodd" />
                    <path
                       clip-rule="evenodd"
                       d="m 344.071,97.403 c 0,-4.012 0,-6.199 5.105,-6.928 4.012,-2.189 18.598,-2.189 28.809,0.729 0,0 2.914,2.188 2.914,8.387 0,6.928 -1.094,168.465 -1.094,168.465 0,0 -1.82,7.293 -5.102,8.023 -1.824,2.188 -11.305,3.281 -14.223,1.094 0,0 -5.105,-1.094 -5.105,-8.021 0,-6.2 -11.304,-171.749 -11.304,-171.749 z"
                       id="path35"
                       style="fill:#007dc5;fill-rule:evenodd" />
                  </g>
                </g>
              </g>
              <g
                 id="g3877"
                 transform="matrix(0.73118279,0,0,0.73118279,43.539991,71.504763)"
                 style="display:inline;mix-blend-mode:normal">
                <rect
                   ry="15.497347"
                   y="377.56885"
                   x="120.47955"
                   height="30.994694"
                   width="62.74342"
                   id="rect3872"
                   style="font-variation-settings:normal;display:inline;opacity:1;mix-blend-mode:normal;vector-effect:none;fill:#ffffff;fill-opacity:1;stroke:none;stroke-width:14.208;stroke-linecap:butt;stroke-linejoin:miter;stroke-miterlimit:4;stroke-dasharray:none;stroke-dashoffset:0;stroke-opacity:1;stop-color:#000000;stop-opacity:1" />
                <path
                   style="stroke-width:0.176187"
                   fill="#0091bd"
                   d="m 140.4167,387.0494 h 2.80137 v 11.99836 h -2.80137 v -1.25093 c -1.23332,1.42712 -2.73091,1.62092 -3.59423,1.62092 -3.69993,0 -5.81418,-3.08328 -5.81418,-6.37798 0,-3.91136 2.67804,-6.30751 5.84942,-6.30751 0.88094,0 2.43138,0.22904 3.55899,1.70902 z m -6.53655,6.06085 c 0,2.06139 1.30378,3.82326 3.32993,3.82326 1.76188,0 3.40042,-1.28617 3.40042,-3.78802 0,-2.6252 -1.62092,-3.87613 -3.40042,-3.87613 -2.02615,-0.0177 -3.32993,1.70902 -3.32993,3.84089 z m 12.66787,-6.06085 h 2.80138 v 1.07474 c 0.31713,-0.36999 0.77522,-0.77523 1.16283,-1.00426 0.54618,-0.31714 1.07475,-0.40524 1.70902,-0.40524 0.68714,0 1.42712,0.10571 2.20234,0.5638 l -1.14521,2.5371 c -0.63428,-0.40523 -1.14522,-0.42285 -1.42712,-0.42285 -0.59904,0 -1.19808,0.0881 -1.74426,0.6519 -0.77522,0.82807 -0.77522,1.97329 -0.77522,2.76614 v 6.23703 h -2.80138 z m 9.67268,0 h 2.80139 v 1.10998 c 0.93379,-1.14522 2.04377,-1.42712 2.95995,-1.42712 1.25093,0 2.43138,0.59904 3.10089,1.76188 1.00427,-1.42712 2.50187,-1.76188 3.55899,-1.76188 1.46235,0 2.7309,0.68713 3.41803,1.8852 0.22905,0.40524 0.63428,1.28617 0.63428,3.03043 v 7.41749 h -2.80138 v -6.58941 c 0,-1.33902 -0.14095,-1.8852 -0.26429,-2.13187 -0.17618,-0.45809 -0.59903,-1.05712 -1.6033,-1.05712 -0.68713,0 -1.28616,0.37 -1.65616,0.88094 -0.49332,0.68713 -0.54618,1.70902 -0.54618,2.7309 v 6.18418 h -2.80138 v -6.60703 c 0,-1.33902 -0.14095,-1.8852 -0.26428,-2.13187 -0.17619,-0.45809 -0.59904,-1.05712 -1.6033,-1.05712 -0.68714,0 -1.28617,0.37 -1.65617,0.88094 -0.49332,0.68713 -0.54618,1.70902 -0.54618,2.7309 v 6.18418 h -2.73091 z"
                   id="path3761" />
              </g>
              <g
                 transform="matrix(0.61866039,0,0,0.61866039,27.574107,134.00507)"
                 id="g4157">
                <rect
                   style="font-variation-settings:normal;opacity:1;vector-effect:none;fill:#ffffff;fill-opacity:1;stroke:none;stroke-width:20;stroke-linecap:butt;stroke-linejoin:miter;stroke-miterlimit:4;stroke-dasharray:none;stroke-dashoffset:0;stroke-opacity:1;stop-color:#000000;stop-opacity:1"
                   id="rect4103"
                   width="37.152893"
                   height="51.486"
                   x="109.01474"
                   y="354.94449"
                   ry="18.576447" />
                <g
                   style="display:inline;mix-blend-mode:normal"
                   transform="matrix(0.26457784,0,0,0.26457784,113.20411,361.62003)"
                   id="g4049">
                  <path
                     fill="#d70751"
                     d="m 60.969,47.645 c -1.494,0.02 0.281,0.768 2.232,1.069 0.541,-0.422 1.027,-0.846 1.463,-1.26 -1.213,0.297 -2.449,0.304 -3.695,0.191"
                     id="path3984" />
                  <path
                     fill="#d70751"
                     d="m 68.986,45.646 c 0.893,-1.229 1.541,-2.573 1.77,-3.963 -0.201,0.99 -0.736,1.845 -1.244,2.749 -2.793,1.759 -0.264,-1.044 -0.002,-2.111 -3.002,3.783 -0.414,2.268 -0.524,3.325"
                     id="path3986" />
                  <path
                     fill="#d70751"
                     d="m 71.949,37.942 c 0.182,-2.691 -0.529,-1.839 -0.768,-0.814 0.278,0.146 0.499,1.898 0.768,0.814"
                     id="path3988" />
                  <path
                     fill="#d70751"
                     d="m 55.301,1.163 c 0.798,0.142 1.724,0.252 1.591,0.443 0.876,-0.193 1.073,-0.367 -1.591,-0.443"
                     id="path3990" />
                  <path
                     fill="#d70751"
                     d="M 56.893,1.606 56.332,1.723 56.855,1.675 56.893,1.606"
                     id="path3992" />
                  <path
                     fill="#d70751"
                     d="m 81.762,38.962 c 0.09,2.416 -0.705,3.59 -1.424,5.666 l -1.293,0.643 c -1.057,2.054 0.105,1.304 -0.652,2.937 -1.652,1.467 -5.006,4.589 -6.08,4.875 -0.785,-0.017 0.531,-0.926 0.703,-1.281 -2.209,1.516 -1.773,2.276 -5.152,3.199 L 67.766,54.78 c -8.33,3.92 -19.902,-3.847 -19.75,-14.443 -0.088,0.672 -0.253,0.504 -0.437,0.774 -0.43,-5.451 2.518,-10.926 7.49,-13.165 4.863,-2.406 10.564,-1.42 14.045,1.829 -1.912,-2.506 -5.721,-5.163 -10.232,-4.917 -4.421,0.072 -8.558,2.881 -9.938,5.932 -2.264,1.425 -2.528,5.496 -3.514,6.242 -1.329,9.76 2.497,13.975 8.97,18.936 1.016,0.686 0.286,0.791 0.422,1.313 -2.15,-1.006 -4.118,-2.526 -5.738,-4.387 0.86,1.257 1.787,2.479 2.986,3.439 -2.029,-0.685 -4.738,-4.913 -5.527,-5.085 3.495,6.258 14.178,10.975 19.775,8.634 -2.59,0.096 -5.879,0.053 -8.787,-1.022 -1.225,-0.629 -2.884,-1.93 -2.587,-2.173 7.636,2.851 15.522,2.158 22.128,-3.137 1.682,-1.31 3.518,-3.537 4.049,-3.567 -0.799,1.202 0.137,0.578 -0.477,1.639 1.672,-2.701 -0.729,-1.1 1.73,-4.664 l 0.908,1.25 c -0.34,-2.244 2.785,-4.966 2.467,-8.512 0.717,-1.084 0.799,1.168 0.039,3.662 1.055,-2.767 0.279,-3.212 0.549,-5.496 0.291,0.768 0.678,1.583 0.875,2.394 -0.688,-2.675 0.703,-4.503 1.049,-6.058 -0.342,-0.15 -1.061,1.182 -1.227,-1.976 0.025,-1.372 0.383,-0.719 0.52,-1.057 -0.268,-0.155 -0.975,-1.207 -1.404,-3.224 0.309,-0.475 0.832,1.229 1.256,1.298 -0.273,-1.603 -0.742,-2.826 -0.762,-4.057 -1.24,-2.59 -0.439,0.346 -1.443,-1.112 -1.32,-4.114 1.094,-0.955 1.258,-2.823 1.998,2.895 3.137,7.385 3.662,9.244 -0.4,-2.267 -1.045,-4.464 -1.834,-6.589 0.609,0.257 -0.979,-4.663 0.791,-1.405 C 87.189,15.552 81,9.062 75.305,6.018 76,6.655 76.879,7.455 76.565,7.581 73.731,5.896 74.229,5.763 73.823,5.051 71.518,4.112 71.364,5.128 69.839,5.053 65.489,2.745 64.651,2.99 60.648,1.546 L 60.83,2.398 C 57.949,1.438 57.473,2.76 54.36,2.4 54.171,2.253 55.358,1.864 56.336,1.723 53.55,2.091 53.68,1.173 50.954,1.824 51.625,1.353 52.337,1.04 53.053,0.64 50.782,0.778 47.629,1.962 48.602,0.884 44.897,2.538 38.316,4.859 34.623,8.322 L 34.507,7.546 c -1.692,2.031 -7.379,6.066 -7.832,8.699 l -0.453,0.105 c -0.879,1.491 -1.45,3.18 -2.148,4.713 -1.151,1.963 -1.688,0.756 -1.524,1.064 -2.265,4.592 -3.392,8.45 -4.363,11.616 0.692,1.035 0.017,6.232 0.278,10.391 -1.136,20.544 14.418,40.489 31.42,45.093 2.492,0.893 6.197,0.861 9.349,0.949 -3.718,-1.064 -4.198,-0.563 -7.822,-1.826 -2.613,-1.232 -3.185,-2.637 -5.037,-4.244 l 0.733,1.295 c -3.63,-1.285 -2.111,-1.59 -5.065,-2.525 l 0.783,-1.021 c -1.177,-0.09 -3.117,-1.982 -3.647,-3.033 l -1.288,0.051 c -1.546,-1.906 -2.371,-3.283 -2.31,-4.35 l -0.416,0.742 c -0.471,-0.809 -5.691,-7.158 -2.983,-5.68 -0.503,-0.458 -1.172,-0.747 -1.897,-2.066 l 0.551,-0.629 c -1.301,-1.677 -2.398,-3.826 -2.314,-4.542 0.695,0.938 1.177,1.114 1.655,1.275 -3.291,-8.164 -3.476,-0.449 -5.967,-8.31 l 0.526,-0.042 c -0.403,-0.611 -0.65,-1.27 -0.974,-1.919 l 0.23,-2.285 c -2.368,-2.736 -0.662,-11.645 -0.319,-16.53 0.235,-1.986 1.977,-4.101 3.3,-7.418 l -0.806,-0.138 c 1.542,-2.688 8.802,-10.799 12.166,-10.383 1.629,-2.046 -0.324,-0.008 -0.643,-0.522 3.579,-3.703 4.704,-2.616 7.119,-3.283 2.603,-1.545 -2.235,0.604 -1.001,-0.589 4.503,-1.149 3.19,-2.614 9.063,-3.197 0.62,0.352 -1.437,0.544 -1.953,1.001 3.75,-1.836 11.869,-1.417 17.145,1.018 6.117,2.861 12.994,11.314 13.266,19.267 l 0.309,0.083 c -0.156,3.162 0.484,6.819 -0.627,10.177 l 0.751,-1.591"
                     id="path3994" />
                  <path
                     fill="#d70751"
                     d="m 44.658,49.695 -0.211,1.047 c 0.983,1.335 1.763,2.781 3.016,3.821 -0.902,-1.759 -1.571,-2.486 -2.805,-4.868"
                     id="path3996" />
                  <path
                     fill="#d70751"
                     d="m 46.979,49.605 c -0.52,-0.576 -0.826,-1.268 -1.172,-1.956 0.33,1.211 1.006,2.252 1.633,3.312 l -0.461,-1.356"
                     id="path3998" />
                  <path
                     fill="#d70751"
                     d="m 88.063,40.675 -0.219,0.552 c -0.402,2.858 -1.273,5.686 -2.605,8.309 1.472,-2.767 2.421,-5.794 2.824,-8.861"
                     id="path4000" />
                  <path
                     fill="#d70751"
                     d="M 55.598,0.446 C 56.607,0.077 58.08,0.243 59.154,0 57.756,0.117 56.365,0.187 54.992,0.362 l 0.606,0.084"
                     id="path4002" />
                  <path
                     fill="#d70751"
                     d="m 20.127,19.308 c 0.233,2.154 -1.62,2.991 0.41,1.569 1.09,-2.454 -0.424,-0.677 -0.41,-1.569"
                     id="path4004" />
                  <path
                     fill="#d70751"
                     d="m 17.739,29.282 c 0.469,-1.437 0.553,-2.299 0.732,-3.132 -1.293,1.654 -0.596,2.007 -0.732,3.132"
                     id="path4006" />
                  <path
                     d="m 13.437,125.51 c -0.045,0.047 -0.045,7.506 -0.138,9.453 -0.092,1.574 -0.232,4.957 -3.568,4.957 -3.429,0 -4.263,-3.939 -4.541,-5.652 -0.324,-1.9 -0.324,-3.477 -0.324,-4.17 0,-2.225 0.139,-8.436 5.375,-8.436 1.576,0 2.456,0.465 3.151,0.834 l 0.045,3.02 z M 0,130.98 c 0,13.066 6.951,13.066 7.97,13.066 2.873,0 4.727,-1.576 5.514,-4.309 l 0.093,4.123 c 0.881,-0.047 1.761,-0.139 3.197,-0.139 0.51,0 0.926,0 1.298,0.047 0.371,0 0.741,0.045 1.158,0.092 -0.741,-1.482 -1.297,-4.818 -1.297,-12.049 0,-7.043 0,-18.951 0.602,-22.566 -1.667,0.789 -3.105,1.299 -6.256,1.576 1.251,1.344 1.251,2.039 1.251,8.154 -0.879,-0.277 -1.992,-0.602 -3.892,-0.602 -8.294,0 -9.638,7.23 -9.638,12.61"
                     id="path4008" />
                  <path
                     d="m 25.13,128.61 c 0.047,-3.846 0.835,-7.275 4.124,-7.275 3.615,0 3.891,3.984 3.799,7.275 z m 12.51,0.46 c 0,-5.422 -1.065,-10.752 -7.923,-10.752 -9.452,0 -9.452,10.475 -9.452,12.697 0,9.406 4.216,13.113 11.306,13.113 3.149,0 4.68,-0.461 5.514,-0.695 -0.046,-1.668 0.185,-2.734 0.465,-4.17 -0.975,0.604 -2.226,1.391 -5.006,1.391 -7.229,0 -7.322,-6.582 -7.322,-8.852 H 37.55 l 0.09,-2.74"
                     id="path4010" />
                  <path
                     d="m 52.715,131.07 c 0,4.309 -0.787,10.102 -6.162,10.102 -0.742,0 -1.668,-0.141 -2.27,-0.279 -0.093,-1.668 -0.093,-4.541 -0.093,-7.877 0,-3.986 0.416,-6.068 0.742,-7.09 0.972,-3.289 3.15,-3.334 3.566,-3.334 3.522,0 4.217,4.86 4.217,8.48 z m -13.298,5.05 c 0,3.43 0,5.375 -0.556,6.857 1.9,0.742 4.262,1.158 7.09,1.158 1.807,0 7.043,0 9.869,-5.791 1.344,-2.688 1.807,-6.303 1.807,-9.037 0,-1.668 -0.186,-5.328 -1.529,-7.646 -1.296,-2.176 -3.382,-3.289 -5.605,-3.289 -4.449,0 -5.746,3.707 -6.44,5.607 0,-2.363 0.045,-10.611 0.415,-14.828 -3.011,1.391 -4.866,1.621 -6.857,1.807 1.807,0.74 1.807,3.801 1.807,13.764 v 11.397"
                     id="path4012" />
                  <path
                     d="m 66.535,143.86 c -0.928,-0.139 -1.578,-0.232 -2.922,-0.232 -1.48,0 -2.502,0.094 -3.566,0.232 0.463,-0.881 0.648,-1.299 0.787,-4.309 0.186,-4.125 0.232,-15.154 -0.092,-17.471 -0.232,-1.762 -0.648,-2.039 -1.297,-2.502 3.799,-0.371 4.865,-0.648 6.625,-1.482 -0.369,2.037 -0.418,3.059 -0.418,6.162 -0.091,15.98 -0.138,17.7 0.883,19.6"
                     id="path4014" />
                  <path
                     d="m 81.373,130.74 c -0.092,2.92 -0.139,4.959 -0.928,6.58 -0.973,2.086 -2.594,2.688 -3.799,2.688 -2.783,0 -3.383,-2.316 -3.383,-4.586 0,-4.355 3.893,-4.682 5.652,-4.682 z m -12.744,5.7 c 0,2.92 0.881,5.838 3.477,7.09 1.158,0.51 2.316,0.51 2.688,0.51 4.264,0 5.699,-3.152 6.58,-5.098 -0.047,2.039 0,3.289 0.139,4.912 0.834,-0.047 1.668,-0.139 3.059,-0.139 0.787,0 1.529,0.092 2.316,0.139 -0.51,-0.787 -0.787,-1.252 -0.928,-3.059 -0.092,-1.76 -0.092,-3.521 -0.092,-5.977 l 0.047,-9.453 c 0,-3.523 -0.928,-6.998 -7.879,-6.998 -4.586,0 -7.273,1.391 -8.617,2.086 0.557,1.02 1.02,1.898 1.436,3.893 1.809,-1.576 4.172,-2.41 6.58,-2.41 3.848,0 3.848,2.549 3.848,6.162 -0.881,-0.045 -1.623,-0.137 -2.875,-0.137 -5.887,0.01 -9.779,2.28 -9.779,8.49"
                     id="path4016" />
                  <path
                     d="m 108.06,139.27 c 0.047,1.576 0.047,3.244 0.695,4.588 -1.021,-0.092 -1.623,-0.232 -3.521,-0.232 -1.113,0 -1.715,0.094 -2.596,0.232 0.184,-0.602 0.279,-0.834 0.371,-1.623 0.139,-1.064 0.232,-4.633 0.232,-5.885 v -5.004 c 0,-2.178 0,-5.33 -0.141,-6.441 -0.092,-0.787 -0.322,-2.918 -3.012,-2.918 -2.641,0 -3.521,1.945 -3.846,3.521 -0.369,1.621 -0.369,3.383 -0.369,10.24 0.045,5.932 0.045,6.486 0.508,8.109 -0.787,-0.092 -1.76,-0.184 -3.15,-0.184 -1.113,0 -1.854,0.045 -2.779,0.184 0.324,-0.742 0.51,-1.113 0.602,-3.707 0.094,-2.549 0.279,-15.061 -0.141,-18.025 -0.23,-1.809 -0.695,-2.225 -1.203,-2.688 3.754,-0.186 4.957,-0.789 6.117,-1.389 v 4.91 c 0.555,-1.438 1.713,-4.635 6.348,-4.635 5.793,0 5.838,4.217 5.885,6.996 v 13.928"
                     id="path4018" />
                  <path
                     fill="#d70751"
                     d="m 66.926,111.53 -3.838,3.836 -3.836,-3.836 3.836,-3.836 3.838,3.84"
                     id="path4020" />
                </g>
              </g>
            </g>
            <g
               id="g8395">
              <g
                 id="g8347">
                <g
                   transform="translate(-1.453125e-6,-83.988165)"
                   id="g8238">
                  <g
                     id="g8234">
                    <rect
                       y="86.578423"
                       x="99.708336"
                       height="33.937813"
                       width="10.583334"
                       id="rect8232"
                       style="fill:url(#linearGradient8240);fill-opacity:1;stroke:none;stroke-width:29.6406;stop-color:#000000" />
                  </g>
                  <path
                     style="fill:url(#linearGradient8242);fill-opacity:1;stroke:none;stroke-width:1.13891px;stroke-linecap:butt;stroke-linejoin:miter;stroke-opacity:1"
                     d="M 94.416666,119.67055 H 115.58334 L 105,128.24999 Z"
                     id="path8236" />
                </g>
                <g
                   id="g8319">
                  <g
                     transform="translate(134.363,59.27081)"
                     style="fill:url(#linearGradient5165)"
                     id="g8206">
                    <rect
                       style="fill:url(#linearGradient5165);fill-opacity:1;stroke:none;stroke-width:0.533545;stroke-miterlimit:4;stroke-dasharray:none;stroke-opacity:1"
                       id="rect8162"
                       width="93.916939"
                       height="63.5"
                       x="-76.321465"
                       y="-114.46496" />
                    <g
                       style="fill:url(#linearGradient5165)"
                       id="g8179">
                      <circle
                         r="3.5549467"
                         cy="-109.32919"
                         cx="-70.746056"
                         id="path8164"
                         style="fill:url(#linearGradient5165);fill-opacity:1;stroke:#000000;stroke-width:0.533333;stroke-miterlimit:4;stroke-dasharray:none;stroke-opacity:1" />
                      <circle
                         style="fill:url(#linearGradient5165);fill-opacity:1;stroke:#000000;stroke-width:0.533333;stroke-miterlimit:4;stroke-dasharray:none;stroke-opacity:1"
                         id="circle8166"
                         cx="-70.746056"
                         cy="-96.161079"
                         r="3.5549467" />
                      <circle
                         r="3.5549467"
                         cy="-82.992966"
                         cx="-70.746056"
                         id="circle8168"
                         style="fill:url(#linearGradient5165);fill-opacity:1;stroke:#000000;stroke-width:0.533333;stroke-miterlimit:4;stroke-dasharray:none;stroke-opacity:1" />
                      <circle
                         style="fill:url(#linearGradient5165);fill-opacity:1;stroke:#000000;stroke-width:0.533333;stroke-miterlimit:4;stroke-dasharray:none;stroke-opacity:1"
                         id="circle8170"
                         cx="-70.746056"
                         cy="-56.656742"
                         r="3.5549467" />
                      <circle
                         r="3.5549467"
                         cy="-69.824852"
                         cx="-70.746056"
                         id="circle8172"
                         style="fill:url(#linearGradient5165);fill-opacity:1;stroke:#000000;stroke-width:0.533333;stroke-miterlimit:4;stroke-dasharray:none;stroke-opacity:1" />
                    </g>
                    <g
                       style="fill:url(#linearGradient5165)"
                       id="g8191"
                       transform="translate(82.754391)">
                      <circle
                         style="fill:url(#linearGradient5165);fill-opacity:1;stroke:#000000;stroke-width:0.533333;stroke-miterlimit:4;stroke-dasharray:none;stroke-opacity:1"
                         id="circle8181"
                         cx="-70.746056"
                         cy="-109.32919"
                         r="3.5549467" />
                      <circle
                         r="3.5549467"
                         cy="-96.161079"
                         cx="-70.746056"
                         id="circle8183"
                         style="fill:url(#linearGradient5165);fill-opacity:1;stroke:#000000;stroke-width:0.533333;stroke-miterlimit:4;stroke-dasharray:none;stroke-opacity:1" />
                      <circle
                         style="fill:url(#linearGradient5165);fill-opacity:1;stroke:#000000;stroke-width:0.533333;stroke-miterlimit:4;stroke-dasharray:none;stroke-opacity:1"
                         id="circle8185"
                         cx="-70.746056"
                         cy="-82.992966"
                         r="3.5549467" />
                      <circle
                         r="3.5549467"
                         cy="-56.656742"
                         cx="-70.746056"
                         id="circle8187"
                         style="fill:url(#linearGradient5165);fill-opacity:1;stroke:#000000;stroke-width:0.533333;stroke-miterlimit:4;stroke-dasharray:none;stroke-opacity:1" />
                      <circle
                         style="fill:url(#linearGradient5165);fill-opacity:1;stroke:#000000;stroke-width:0.533333;stroke-miterlimit:4;stroke-dasharray:none;stroke-opacity:1"
                         id="circle8189"
                         cx="-70.746056"
                         cy="-69.824852"
                         r="3.5549467" />
                    </g>
                  </g>
                  <g
                     aria-label="source"
                     id="text8210"
                     style="font-size:14.1111px;line-height:1.25;font-family:sans-serif;word-spacing:0px;stroke:none;stroke-width:0.352778"
                     transform="matrix(0.80664853,0,0,0.80664853,20.301907,-4.5329587)">
                    <path
                       d="m 87.812432,-27.082167 v 1.198892 q -0.537434,-0.275607 -1.11621,-0.413411 -0.578775,-0.137803 -1.198892,-0.137803 -0.943955,0 -1.419378,0.289387 -0.468533,0.289388 -0.468533,0.868164 0,0.440972 0.337619,0.695909 0.337619,0.248046 1.357367,0.475422 l 0.434082,0.09646 q 1.350476,0.289388 1.915471,0.819932 0.571886,0.523654 0.571886,1.46761 0,1.074869 -0.854383,1.701875 -0.847493,0.627007 -2.335773,0.627007 -0.620117,0 -1.295355,-0.124023 -0.668348,-0.117133 -1.412488,-0.35829 v -1.309135 q 0.702799,0.36518 1.384927,0.551215 0.682128,0.179145 1.350476,0.179145 0.895724,0 1.378037,-0.303168 0.482313,-0.310059 0.482313,-0.868164 0,-0.516764 -0.351399,-0.792371 -0.344509,-0.275608 -1.522731,-0.530544 l -0.440972,-0.103353 q -1.178222,-0.248047 -1.701876,-0.757921 -0.523654,-0.516764 -0.523654,-1.412488 0,-1.088649 0.771701,-1.681205 0.771701,-0.592556 2.191079,-0.592556 0.702799,0 1.322916,0.103353 0.620116,0.103353 1.14377,0.310058 z"
                       style="stroke:none;stroke-width:0.352778"
                       id="path8285" />
                    <path
                       d="m 93.235009,-26.420709 q -1.019748,0 -1.612304,0.799262 -0.592556,0.792371 -0.592556,2.177298 0,1.384928 0.585666,2.184189 0.592556,0.792371 1.619194,0.792371 1.012857,0 1.605413,-0.799261 0.592556,-0.799262 0.592556,-2.177299 0,-1.371147 -0.592556,-2.170408 -0.592556,-0.806152 -1.605413,-0.806152 z m 0,-1.074869 q 1.653644,0 2.5976,1.074869 0.943955,1.074869 0.943955,2.97656 0,1.894801 -0.943955,2.97656 -0.943956,1.074869 -2.5976,1.074869 -1.660535,0 -2.604491,-1.074869 -0.937065,-1.081759 -0.937065,-2.97656 0,-1.901691 0.937065,-2.97656 0.943956,-1.074869 2.604491,-1.074869 z"
                       style="stroke:none;stroke-width:0.352778"
                       id="path8287" />
                    <path
                       d="m 98.747158,-22.637997 v -4.671546 h 1.267792 v 4.623315 q 0,1.095539 0.42719,1.646754 0.42719,0.544325 1.28158,0.544325 1.02664,0 1.61919,-0.654568 0.59945,-0.654568 0.59945,-1.784558 v -4.375268 h 1.26779 v 7.717008 h -1.26779 v -1.185112 q -0.46164,0.702799 -1.07487,1.047308 -0.60634,0.337619 -1.41249,0.337619 -1.32981,0 -2.018824,-0.826822 -0.689018,-0.826822 -0.689018,-2.418455 z m 3.190152,-4.857581 z"
                       style="stroke:none;stroke-width:0.352778"
                       id="path8289" />
                    <path
                       d="m 112.29326,-26.124431 q -0.21359,-0.124023 -0.46853,-0.179145 -0.24805,-0.06201 -0.55122,-0.06201 -1.07486,0 -1.65364,0.702799 -0.57189,0.695909 -0.57189,2.005044 v 4.06521 h -1.27468 v -7.717008 h 1.27468 v 1.198892 q 0.39964,-0.702799 1.04042,-1.040418 0.64079,-0.344509 1.55718,-0.344509 0.13092,0 0.28939,0.02067 0.15848,0.01378 0.3514,0.04823 z"
                       style="stroke:none;stroke-width:0.352778"
                       id="path8291" />
                    <path
                       d="m 118.8665,-27.013265 v 1.185112 q -0.53744,-0.296278 -1.08176,-0.440972 -0.53743,-0.151584 -1.08865,-0.151584 -1.23334,0 -1.91547,0.785481 -0.68213,0.778591 -0.68213,2.191079 0,1.412488 0.68213,2.197969 0.68213,0.778591 1.91547,0.778591 0.55122,0 1.08865,-0.144693 0.54432,-0.151585 1.08176,-0.447863 v 1.171332 q -0.53054,0.248047 -1.10243,0.37207 -0.565,0.124023 -1.20578,0.124023 -1.74322,0 -2.76986,-1.095539 -1.02664,-1.09554 -1.02664,-2.95589 0,-1.887911 1.03353,-2.96967 1.04042,-1.081759 2.84565,-1.081759 0.58567,0 1.14377,0.124023 0.55811,0.117134 1.08176,0.35829 z"
                       style="stroke:none;stroke-width:0.352778"
                       id="path8293" />
                    <path
                       d="m 127.67216,-23.767988 v 0.620117 h -5.8291 q 0.0827,1.309135 0.78548,1.998154 0.70969,0.682128 1.9706,0.682128 0.73035,0 1.41248,-0.179144 0.68902,-0.179145 1.36426,-0.537435 v 1.198892 q -0.68213,0.289388 -1.39871,0.440972 -0.71658,0.151584 -1.45383,0.151584 -1.84657,0 -2.92833,-1.074869 -1.07486,-1.074869 -1.07486,-2.907658 0,-1.894801 1.01974,-3.004121 1.02664,-1.11621 2.76297,-1.11621 1.55718,0 2.45979,1.005967 0.90951,0.999077 0.90951,2.721623 z m -1.2678,-0.37207 q -0.0138,-1.040418 -0.58566,-1.660534 -0.565,-0.620117 -1.50206,-0.620117 -1.06109,0 -1.70188,0.599446 -0.6339,0.599446 -0.73036,1.688096 z"
                       style="stroke:none;stroke-width:0.352778"
                       id="path8295" />
                  </g>
                </g>
              </g>
              <g
                 id="g8357">
                <g
                   id="g8267">
                  <rect
                     style="fill:url(#linearGradient7092);fill-opacity:1;stroke:none;stroke-width:0.2;stroke-linejoin:round"
                     id="rect1214"
                     width="172.00537"
                     height="43.692684"
                     x="18.997316"
                     y="43.186756"
                     rx="24.946424"
                     ry="31.75" />
                  <g
                     style="font-size:10.5833px;line-height:1.25;font-family:Ree;-inkscape-font-specification:Ree;fill:#000000;fill-opacity:1;stroke:none;stroke-width:0.264583"
                     id="text1220"
                     aria-label="compiler">
                    <path
                       id="path1305"
                       style="fill:#000000;fill-opacity:1;stroke:none;stroke-width:0.264583"
                       d="m 86.838378,62.387271 v 0.888831 q -0.403075,-0.222208 -0.811318,-0.330728 -0.403075,-0.113688 -0.816485,-0.113688 -0.925005,0 -1.4366,0.58911 -0.511595,0.583942 -0.511595,1.643305 0,1.059364 0.511595,1.648473 0.511595,0.583942 1.4366,0.583942 0.41341,0 0.816485,-0.10852 0.408243,-0.113688 0.811318,-0.335896 v 0.878497 q -0.397908,0.186034 -0.826821,0.279051 -0.423745,0.09302 -0.904334,0.09302 -1.30741,0 -2.077386,-0.821653 -0.769977,-0.821653 -0.769977,-2.216912 0,-1.41593 0.775144,-2.227247 0.780312,-0.811317 2.13423,-0.811317 0.439249,0 0.857826,0.09302 0.418578,0.08785 0.811318,0.268717 z" />
                    <path
                       id="path1307"
                       style="fill:#000000;fill-opacity:1;stroke:none;stroke-width:0.264583"
                       d="m 90.745104,62.831686 q -0.764809,0 -1.209225,0.599445 -0.444416,0.594277 -0.444416,1.63297 0,1.038693 0.439248,1.638138 0.444416,0.594277 1.214393,0.594277 0.759641,0 1.204057,-0.599445 0.444415,-0.599444 0.444415,-1.63297 0,-1.028358 -0.444415,-1.627802 -0.444416,-0.604613 -1.204057,-0.604613 z m 0,-0.806149 q 1.24023,0 1.948195,0.806149 0.707965,0.80615 0.707965,2.232415 0,1.421098 -0.707965,2.232415 -0.707965,0.80615 -1.948195,0.80615 -1.245399,0 -1.953363,-0.80615 -0.702798,-0.811317 -0.702798,-2.232415 0,-1.426265 0.702798,-2.232415 0.707964,-0.806149 1.953363,-0.806149 z" />
                    <path
                       id="path1309"
                       style="fill:#000000;fill-opacity:1;stroke:none;stroke-width:0.264583"
                       d="m 99.478393,63.276102 q 0.356566,-0.640785 0.852657,-0.945675 0.49609,-0.30489 1.16789,-0.30489 0.90433,0 1.39525,0.635618 0.49093,0.63045 0.49093,1.798334 v 3.493316 h -0.95601 v -3.46231 q 0,-0.831988 -0.29456,-1.235063 -0.29455,-0.403075 -0.89916,-0.403075 -0.73897,0 -1.16789,0.490924 -0.42891,0.490925 -0.42891,1.338416 v 3.271108 h -0.956011 v -3.46231 q 0,-0.837156 -0.294555,-1.235063 -0.294555,-0.403075 -0.909502,-0.403075 -0.728636,0 -1.157549,0.496092 -0.428913,0.490925 -0.428913,1.333248 v 3.271108 h -0.956011 v -5.787742 h 0.956011 v 0.899167 q 0.325561,-0.532266 0.780312,-0.78548 0.454751,-0.253213 1.080034,-0.253213 0.63045,0 1.069699,0.320393 0.444416,0.320392 0.656288,0.930172 z" />
                    <path
                       id="path1311"
                       style="fill:#000000;fill-opacity:1;stroke:none;stroke-width:0.264583"
                       d="m 106.20664,67.084643 v 3.069571 h -0.95601 v -7.989151 h 0.95601 v 0.878496 q 0.29973,-0.516763 0.75448,-0.764809 0.45992,-0.253213 1.09553,-0.253213 1.0542,0 1.71049,0.837155 0.66145,0.837156 0.66145,2.201409 0,1.364254 -0.66145,2.201409 -0.65629,0.837156 -1.71049,0.837156 -0.63561,0 -1.09553,-0.248046 -0.45475,-0.253214 -0.75448,-0.769977 z m 3.23494,-2.020542 q 0,-1.049028 -0.43408,-1.643305 -0.42892,-0.599445 -1.18339,-0.599445 -0.75447,0 -1.18855,0.599445 -0.42892,0.594277 -0.42892,1.643305 0,1.049028 0.42892,1.648473 0.43408,0.594277 1.18855,0.594277 0.75447,0 1.18339,-0.594277 0.43408,-0.599445 0.43408,-1.648473 z" />
                    <path
                       id="path1313"
                       style="fill:#000000;fill-opacity:1;stroke:none;stroke-width:0.264583"
                       d="m 112.00472,62.165063 h 0.95084 v 5.787742 h -0.95084 z m 0,-2.253086 h 0.95084 v 1.204057 h -0.95084 z" />
                    <path
                       id="path1315"
                       style="fill:#000000;fill-opacity:1;stroke:none;stroke-width:0.264583"
                       d="m 114.93993,59.911977 h 0.95085 v 8.040828 h -0.95085 z" />
                    <path
                       id="path1317"
                       style="fill:#000000;fill-opacity:1;stroke:none;stroke-width:0.264583"
                       d="m 122.82573,64.821223 v 0.465086 h -4.37181 q 0.062,0.981849 0.58911,1.498612 0.53226,0.511595 1.47794,0.511595 0.54777,0 1.05936,-0.134358 0.51677,-0.134359 1.02319,-0.403075 v 0.899167 q -0.51159,0.21704 -1.04903,0.330728 -0.53743,0.113688 -1.09036,0.113688 -1.38493,0 -2.19625,-0.80615 -0.80615,-0.80615 -0.80615,-2.180739 0,-1.421097 0.76481,-2.253085 0.76998,-0.837155 2.07222,-0.837155 1.16788,0 1.84484,0.754473 0.68213,0.749306 0.68213,2.041213 z m -0.95084,-0.279052 q -0.0103,-0.780312 -0.43925,-1.245398 -0.42375,-0.465087 -1.12654,-0.465087 -0.79582,0 -1.27641,0.449584 -0.47542,0.449583 -0.54777,1.266069 z" />
                    <path
                       id="path1319"
                       style="fill:#000000;fill-opacity:1;stroke:none;stroke-width:0.264583"
                       d="m 127.74014,63.053894 q -0.16019,-0.09302 -0.3514,-0.134358 -0.18603,-0.04651 -0.41341,-0.04651 -0.80615,0 -1.24023,0.527098 -0.42891,0.521931 -0.42891,1.50378 v 3.0489 h -0.95601 v -5.787742 h 0.95601 v 0.899167 q 0.29972,-0.527098 0.78031,-0.780312 0.48059,-0.258381 1.16788,-0.258381 0.0982,0 0.21705,0.0155 0.11885,0.01033 0.26354,0.03617 z" />
                  </g>
                </g>
                <g
                   id="g4771">
                  <g
                     id="g4766">
                    <rect
                       style="fill:url(#linearGradient6440);fill-opacity:1;stroke:none;stroke-width:29.6406;stop-color:#000000"
                       id="rect6434"
                       width="10.583334"
                       height="33.937813"
                       x="99.708336"
                       y="86.578423" />
                  </g>
                  <path
                     id="path6466"
                     d="M 94.416666,119.67055 H 115.58334 L 105,128.24999 Z"
                     style="fill:url(#linearGradient6472);fill-opacity:1;stroke:none;stroke-width:1.13891px;stroke-linecap:butt;stroke-linejoin:miter;stroke-opacity:1" />
                </g>
              </g>
            </g>
          </g>
        </g>
      </g>
    </g>
  </g>
</svg>
