<?xml version="1.0" encoding="UTF-8" standalone="no"?>
<svg
   xmlns:dc="http://purl.org/dc/elements/1.1/"
   xmlns:cc="http://creativecommons.org/ns#"
   xmlns:rdf="http://www.w3.org/1999/02/22-rdf-syntax-ns#"
   xmlns:svg="http://www.w3.org/2000/svg"
   xmlns="http://www.w3.org/2000/svg"
   xmlns:xlink="http://www.w3.org/1999/xlink"
   xmlns:sodipodi="http://sodipodi.sourceforge.net/DTD/sodipodi-0.dtd"
   xmlns:inkscape="http://www.inkscape.org/namespaces/inkscape"
   sodipodi:docname="sourcecode.svg"
   inkscape:version="1.0 (4035a4f, 2020-05-01)"
   id="svg8"
   version="1.1"
   viewBox="0 0 760.51853 217.13656"
   height="72.378853mm"
   width="253.50618mm">
  <defs
     id="defs2">
    <linearGradient
       id="linearGradient948"
       inkscape:collect="always">
      <stop
         id="stop944"
         offset="0"
         style="stop-color:#000000;stop-opacity:1;" />
      <stop
         id="stop946"
         offset="1"
         style="stop-color:#000000;stop-opacity:0;" />
    </linearGradient>
    <marker
       inkscape:isstock="true"
       style="overflow:visible"
       id="marker7776"
       refX="0"
       refY="0"
       orient="auto"
       inkscape:stockid="TriangleOutL">
      <path
         transform="scale(0.8)"
         style="fill:#000000;fill-opacity:1;fill-rule:evenodd;stroke:#000000;stroke-width:1pt;stroke-opacity:1"
         d="M 5.77,0 -2.88,5 V -5 Z"
         id="path7774" />
    </marker>
    <marker
       inkscape:stockid="Arrow1Lend"
       orient="auto"
       refY="0.0"
       refX="0.0"
       id="Arrow1Lend"
       style="overflow:visible;"
       inkscape:isstock="true">
      <path
         id="path7418"
         d="M 0.0,0.0 L 5.0,-5.0 L -12.5,0.0 L 5.0,5.0 L 0.0,0.0 z "
         style="fill-rule:evenodd;stroke:#000000;stroke-width:1pt;stroke-opacity:1;fill:none;fill-opacity:1"
         transform="scale(0.8) rotate(180) translate(12.5,0)" />
    </marker>
    <marker
       inkscape:stockid="Arrow1Lstart"
       orient="auto"
       refY="0.0"
       refX="0.0"
       id="Arrow1Lstart"
       style="overflow:visible"
       inkscape:isstock="true">
      <path
         id="path7415"
         d="M 0.0,0.0 L 5.0,-5.0 L -12.5,0.0 L 5.0,5.0 L 0.0,0.0 z "
         style="fill-rule:evenodd;stroke:#000000;stroke-width:1.0pt"
         transform="scale(0.8) translate(12.5,0)" />
    </marker>
    <marker
       inkscape:stockid="TriangleOutL"
       orient="auto"
       refY="0"
       refX="0"
       id="marker6899"
       style="overflow:visible"
       inkscape:isstock="true">
      <path
         id="path6897"
         d="M 5.77,0 -2.88,5 V -5 Z"
         style="fill:#000000;fill-opacity:1;fill-rule:evenodd;stroke:#000000;stroke-width:1pt;stroke-opacity:1"
         transform="scale(0.8)" />
    </marker>
    <marker
       inkscape:isstock="true"
       style="overflow:visible"
       id="marker2474"
       refX="0"
       refY="0"
       orient="auto"
       inkscape:stockid="TriangleOutL">
      <path
         transform="scale(0.8)"
         style="fill:#000000;fill-opacity:1;fill-rule:evenodd;stroke:#000000;stroke-width:1pt;stroke-opacity:1"
         d="M 5.77,0 -2.88,5 V -5 Z"
         id="path2472" />
    </marker>
    <marker
       inkscape:stockid="TriangleOutL"
       orient="auto"
       refY="0"
       refX="0"
       id="marker2380"
       style="overflow:visible"
       inkscape:isstock="true"
       inkscape:collect="always">
      <path
         id="path2378"
         d="M 5.77,0 -2.88,5 V -5 Z"
         style="fill:#000000;fill-opacity:1;fill-rule:evenodd;stroke:#000000;stroke-width:1pt;stroke-opacity:1"
         transform="scale(0.8)" />
    </marker>
    <linearGradient
       gradientTransform="matrix(1.015488,0,0,1.0485502,-8.3149077,-5.1274862)"
       gradientUnits="userSpaceOnUse"
       y2="101.54211"
       x2="649.50214"
       y1="100.83792"
       x1="534.01599"
       id="linearGradient950"
       xlink:href="#linearGradient948"
       inkscape:collect="always" />
  </defs>
  <sodipodi:namedview
     inkscape:window-maximized="0"
     inkscape:window-y="23"
     inkscape:window-x="0"
     inkscape:window-height="855"
     inkscape:window-width="1440"
     showgrid="true"
     inkscape:document-rotation="0"
     inkscape:current-layer="layer2"
     inkscape:document-units="mm"
     inkscape:cy="115.49239"
     inkscape:cx="862.98713"
     inkscape:zoom="128"
     inkscape:pageshadow="2"
     inkscape:pageopacity="1"
     borderopacity="1.0"
     bordercolor="#666666"
     pagecolor="#ffffff"
     id="base"
     fit-margin-top="0"
     fit-margin-left="0"
     fit-margin-right="0"
     fit-margin-bottom="0"
     lock-margins="false"
     scale-x="3"
     inkscape:pagecheckerboard="true">
    <inkscape:grid
       type="xygrid"
       id="grid6847" />
  </sodipodi:namedview>
  <metadata
     id="metadata5">
    <rdf:RDF>
      <cc:Work
         rdf:about="">
        <dc:format>image/svg+xml</dc:format>
        <dc:type
           rdf:resource="http://purl.org/dc/dcmitype/StillImage" />
        <dc:title />
      </cc:Work>
    </rdf:RDF>
  </metadata>
  <g
     sodipodi:insensitive="true"
     inkscape:groupmode="layer"
     id="layer4"
     inkscape:label="bg"
     style="display:inline">
    <rect
       transform="translate(100.65014,18.645361)"
       ry="43.728893"
       rx="30.576122"
       y="-18.645361"
       x="-100.65014"
       height="217.13657"
       width="760.51855"
       id="rect4999"
       style="display:inline;fill:#ffffff;fill-opacity:1;stroke:none;stroke-width:3.34412;stroke-linecap:round;stroke-linejoin:round;stroke-miterlimit:4;stroke-dasharray:none;stroke-opacity:1;paint-order:normal" />
  </g>
  <g
     transform="translate(100.65014,18.645361)"
     id="layer1"
     inkscape:groupmode="layer"
     inkscape:label="Layer 1"
     style="display:none">
    <g
       id="g1729"
       transform="matrix(1.5,0,0,1.5,-56.226394,89.388072)">
      <g
         id="g3000">
        <g
           id="g3482">
          <g
             transform="translate(-30.50806,116.49051)"
             id="g2905"
             style="fill:#ffffff;fill-opacity:1">
            <rect
               style="opacity:1;fill:#ffffff;fill-opacity:1;stroke:#000000;stroke-width:1;stroke-linecap:round;stroke-linejoin:round;stroke-opacity:1"
               id="rect2861"
               width="153.97037"
               height="83.897156"
               x="43.563381"
               y="-158.08252" />
            <g
               id="g2878"
               style="fill:#ffffff;fill-opacity:1">
              <circle
                 r="3.6943352"
                 cy="-151.05136"
                 cx="50.832878"
                 id="path2863"
                 style="opacity:0.8;fill:#ffffff;fill-opacity:1;stroke:#000000;stroke-width:1;stroke-linecap:round;stroke-linejoin:round;stroke-opacity:1" />
              <circle
                 style="opacity:0.8;fill:#ffffff;fill-opacity:1;stroke:#000000;stroke-width:1;stroke-linecap:round;stroke-linejoin:round;stroke-opacity:1"
                 id="circle2865"
                 cx="50.832878"
                 cy="-82.408234"
                 r="3.6943352" />
              <circle
                 r="3.6943352"
                 cy="-99.569008"
                 cx="50.832878"
                 id="circle2867"
                 style="opacity:0.8;fill:#ffffff;fill-opacity:1;stroke:#000000;stroke-width:1;stroke-linecap:round;stroke-linejoin:round;stroke-opacity:1" />
              <circle
                 style="opacity:0.8;fill:#ffffff;fill-opacity:1;stroke:#000000;stroke-width:1;stroke-linecap:round;stroke-linejoin:round;stroke-opacity:1"
                 id="circle2869"
                 cx="50.832878"
                 cy="-116.7298"
                 r="3.6943352" />
              <circle
                 r="3.6943352"
                 cy="-133.89058"
                 cx="50.832878"
                 id="circle2871"
                 style="opacity:0.8;fill:#ffffff;fill-opacity:1;stroke:#000000;stroke-width:1;stroke-linecap:round;stroke-linejoin:round;stroke-opacity:1" />
            </g>
            <g
               id="g2890"
               transform="translate(138.47799)"
               style="fill:#ffffff;fill-opacity:1">
              <circle
                 style="opacity:0.8;fill:#ffffff;fill-opacity:1;stroke:#000000;stroke-width:1;stroke-linecap:round;stroke-linejoin:round;stroke-opacity:1"
                 id="circle2880"
                 cx="50.832878"
                 cy="-151.05136"
                 r="3.6943352" />
              <circle
                 r="3.6943352"
                 cy="-82.408234"
                 cx="50.832878"
                 id="circle2882"
                 style="opacity:0.8;fill:#ffffff;fill-opacity:1;stroke:#000000;stroke-width:1;stroke-linecap:round;stroke-linejoin:round;stroke-opacity:1" />
              <circle
                 style="opacity:0.8;fill:#ffffff;fill-opacity:1;stroke:#000000;stroke-width:1;stroke-linecap:round;stroke-linejoin:round;stroke-opacity:1"
                 id="circle2884"
                 cx="50.832878"
                 cy="-99.569008"
                 r="3.6943352" />
              <circle
                 r="3.6943352"
                 cy="-116.7298"
                 cx="50.832878"
                 id="circle2886"
                 style="opacity:0.8;fill:#ffffff;fill-opacity:1;stroke:#000000;stroke-width:1;stroke-linecap:round;stroke-linejoin:round;stroke-opacity:1" />
              <circle
                 style="opacity:0.8;fill:#ffffff;fill-opacity:1;stroke:#000000;stroke-width:1;stroke-linecap:round;stroke-linejoin:round;stroke-opacity:1"
                 id="circle2888"
                 cx="50.832878"
                 cy="-133.89058"
                 r="3.6943352" />
            </g>
          </g>
          <text
             transform="scale(0.97816318,1.0223243)"
             id="text2909"
             y="3.163183"
             x="37.581043"
             style="font-style:normal;font-variant:normal;font-weight:normal;font-stretch:normal;font-size:9.59849px;line-height:1.25;font-family:'Courier New';-inkscape-font-specification:'Courier New, Normal';font-variant-ligatures:normal;font-variant-caps:normal;font-variant-numeric:normal;font-variant-east-asian:normal;fill:#000000;fill-opacity:1;stroke:none;stroke-width:0.239963"
             xml:space="preserve"><tspan
               style="stroke-width:0.239963"
               y="3.163183"
               x="37.581043"
               id="tspan2907"
               sodipodi:role="line">PRINT &quot;HELLO WORLD&quot;</tspan></text>
        </g>
      </g>
    </g>
    <g
       id="g1758"
       transform="matrix(1.5,0,0,1.5,145.21127,266.3522)">
      <rect
         y="-134.66005"
         x="95.827332"
         height="34.081059"
         width="70.011383"
         id="rect1749"
         style="opacity:1;fill:#ffffff;fill-opacity:1;stroke:#000000;stroke-width:0.807196;stroke-linecap:round;stroke-linejoin:round;stroke-miterlimit:4;stroke-dasharray:none;stroke-dashoffset:0;stroke-opacity:1" />
      <text
         id="text1753"
         y="-114.69981"
         x="106.71829"
         style="font-style:normal;font-weight:normal;font-size:10.5833px;line-height:1.25;font-family:sans-serif;fill:#000000;fill-opacity:1;stroke:none;stroke-width:0.264583"
         xml:space="preserve"><tspan
           style="stroke-width:0.264583"
           y="-114.69981"
           x="106.71829"
           id="tspan1751"
           sodipodi:role="line">Compiler</tspan></text>
    </g>
    <path
       style="fill:none;stroke:#000000;stroke-width:1.5;stroke-linecap:butt;stroke-linejoin:round;stroke-miterlimit:4;stroke-dasharray:none;stroke-dashoffset:0;stroke-opacity:1;marker-end:url(#marker7776);paint-order:normal"
       d="m 212.43728,90.342896 47.75248,-0.457534"
       id="path2074" />
  </g>
  <g
     inkscape:groupmode="layer"
     id="layer2"
     inkscape:label="arches"
     style="display:inline"
     transform="translate(77.215616,6.550123)">
    <g
       style="display:inline"
       id="g4937"
       transform="translate(39.481533,22.313493)">
      <path
         id="path1922"
         d="m 507.85717,10.054069 h 6.31031 v 27.02718 h -6.31031 v -2.81781 c -2.77812,3.21468 -6.15156,3.651255 -8.09625,3.651255 -8.33437,0 -13.09687,-6.945315 -13.09687,-14.36688 0,-8.810625 6.0325,-14.2081203 13.17625,-14.2081203 1.98437,0 5.47688,0.515925 8.01687,3.8496753 z m -14.72406,13.65249 c 0,4.643445 2.93687,8.61219 7.50093,8.61219 3.96876,0 7.65969,-2.89719 7.65969,-8.53281 0,-5.913435 -3.65125,-8.731245 -7.65969,-8.731245 -4.56406,-0.03975 -7.50093,3.849675 -7.50093,8.651865 z m 28.53531,-13.65249 h 6.31031 v 2.420925 c 0.71437,-0.83343 1.74625,-1.74624 2.61937,-2.26218 1.23032,-0.7143753 2.42094,-0.9128103 3.84969,-0.9128103 1.54782,0 3.2147,0.238125 4.96094,1.2699903 l -2.57969,5.715 c -1.42875,-0.91281 -2.57968,-0.9525 -3.21468,-0.9525 -1.34938,0 -2.69875,0.19845 -3.92907,1.46844 -1.74624,1.86531 -1.74624,4.44501 -1.74624,6.23094 v 14.049375 h -6.31032 z m 21.78843,0 h 6.31032 v 2.500305 c 2.10344,-2.5796853 4.60376,-3.2146803 6.6675,-3.2146803 2.81781,0 5.47688,1.3493703 6.98501,3.9687453 2.26218,-3.214695 5.63562,-3.9687453 8.01687,-3.9687453 3.29406,0 6.15156,1.5478053 7.69938,4.2465603 0.51592,0.91281 1.42875,2.89719 1.42875,6.826245 v 16.70844 h -6.31032 v -14.84313 c 0,-3.016245 -0.31751,-4.24656 -0.59531,-4.80219 -0.39688,-1.031865 -1.34938,-2.38125 -3.61156,-2.38125 -1.54782,0 -2.89719,0.833445 -3.73064,1.98438 -1.11124,1.54782 -1.2303,3.84969 -1.2303,6.15156 v 13.93032 h -6.31032 v -14.88282 c 0,-3.016245 -0.3175,-4.24656 -0.5953,-4.80219 -0.39689,-1.031865 -1.34939,-2.38125 -3.61157,-2.38125 -1.54782,0 -2.89719,0.833445 -3.73063,1.98438 -1.11125,1.54782 -1.2303,3.84969 -1.2303,6.15156 v 13.93032 h -6.15158 z"
         fill="#0091bd"
         style="stroke-width:0.396874" />
      <g
         id="g1990"
         transform="matrix(0.11737578,0,0,0.1499706,486.66405,121.49464)">
        <path
           id="path1968"
           d="M 187.888,178.122 H 143.52 L 129.947,145.384 H 56.003 L 43.637,178.122 H 0 L 66.667,12.776 h 47.761 z M 91.155,52.286 66.912,116.53 h 50.913 z" />
        <path
           id="path1970"
           d="m 349.056,12.776 h 35.88 V 178.122 H 343.717 V 74.842 l -44.608,51.877 h -6.301 L 248.203,74.842 V 178.12 H 206.984 V 12.776 h 35.88 l 53.092,61.336 z" />
        <path
           id="path1972"
           d="m 489.375,12.776 c 60.364,0 91.391,37.573 91.391,82.909 0,47.517 -30.058,82.437 -96,82.437 H 416.397 V 12.776 Z m -31.762,135.041 h 26.906 c 41.457,0 53.823,-28.129 53.823,-52.377 0,-28.368 -15.276,-52.363 -54.308,-52.363 h -26.422 v 104.74 z" />
        <polygon
           id="polygon1974"
           points="748.028,137.235 748.028,51.981 662.769,51.981 610.797,0 800,0 800,189.21 " />
        <polygon
           id="polygon1976"
           points="737.594,137.296 662.708,137.296 662.708,62.397 609.2,115.903 609.2,190.802 684.089,190.802 " />
      </g>
    </g>
    <g
       style="display:inline"
       id="g4880"
       transform="translate(39.481533,17.329103)">
      <path
         id="path2376"
         d="M 397.65691,84.689059 446.48814,55.367005"
         style="fill:none;stroke:#000000;stroke-width:1.5;stroke-linecap:butt;stroke-linejoin:miter;stroke-miterlimit:4;stroke-dasharray:none;stroke-dashoffset:0;stroke-opacity:1;marker-end:url(#marker2380)" />
      <path
         style="fill:none;stroke:#000000;stroke-width:1.5;stroke-linecap:butt;stroke-linejoin:miter;stroke-miterlimit:4;stroke-dasharray:none;stroke-dashoffset:0;stroke-opacity:1;marker-end:url(#marker2474)"
         d="m 397.65691,84.689059 48.83123,29.322051"
         id="path2470" />
    </g>
    <rect
       style="fill:#ffffff;fill-opacity:1;stroke:#000000;stroke-width:0.725976;stroke-linejoin:round;stroke-miterlimit:4;stroke-dasharray:none;stroke-opacity:1"
       id="rect965"
       width="7.9375076"
       height="7.9375048"
       x="601.44061"
       y="80.762375" />
    <rect
       y="84.731125"
       x="533.97186"
       height="31.749998"
       width="79.375015"
       id="rect934"
       style="fill:url(#linearGradient950);fill-opacity:1;stroke-width:9.287;stroke-linejoin:round" />
    <rect
       y="80.762375"
       x="601.44061"
       height="7.9375048"
       width="7.9375076"
       id="rect1012"
       style="fill:#ffffff;fill-opacity:1;stroke:#000000;stroke-width:0.725976;stroke-linejoin:round;stroke-miterlimit:4;stroke-dasharray:none;stroke-opacity:1" />
    <rect
       style="fill:#ffffff;fill-opacity:1;stroke:#000000;stroke-width:0.725976;stroke-linejoin:round;stroke-miterlimit:4;stroke-dasharray:none;stroke-opacity:1"
       id="rect1014"
       width="7.9375076"
       height="7.9375048"
       x="601.44061"
       y="80.762375" />
    <rect
       y="80.762375"
       x="601.44061"
       height="7.9375048"
       width="7.9375076"
       id="rect1016"
       style="fill:#ffffff;fill-opacity:1;stroke:#000000;stroke-width:0.725976;stroke-linejoin:round;stroke-miterlimit:4;stroke-dasharray:none;stroke-opacity:1" />
  </g>
  <g
     inkscape:groupmode="layer"
     id="layer3"
     inkscape:label="bytecode"
     style="display:none">
    <g
       id="g6881"
       transform="translate(17.969859,1.6953824)">
      <path
         transform="scale(0.79375)"
         d="m 732.28125,110 v 4.71875 h -8.17383 v 49.55859 H 879.20703 V 114.71875 H 870 V 110 h -42.71875 v 4.71875 H 775 V 110 Z"
         style="opacity:1;fill:#ffffff;fill-opacity:1;stroke:#000000;stroke-width:1.88976;stroke-linecap:round;stroke-linejoin:round;stroke-miterlimit:4;stroke-dasharray:none;stroke-opacity:1;paint-order:normal"
         id="rect6835" />
      <text
         id="text6873"
         y="113.52537"
         x="593.46954"
         style="font-style:normal;font-weight:normal;font-size:16.9333px;line-height:1.25;font-family:sans-serif;display:inline;fill:#000000;fill-opacity:1;stroke:none;stroke-width:0.79375"
         xml:space="preserve"><tspan
           style="font-size:16.9333px;stroke-width:0.79375"
           y="113.52537"
           x="593.46954"
           id="tspan6871"
           sodipodi:role="line">byte code</tspan></text>
    </g>
    <path
       style="display:inline;fill:none;stroke:#000000;stroke-width:1.69621;stroke-linecap:butt;stroke-linejoin:miter;stroke-miterlimit:4;stroke-dasharray:none;stroke-dashoffset:0;stroke-opacity:1;marker-end:url(#marker6899)"
       d="M 495.21438,111.53743 568.04639,111.125"
       id="path6895" />
    <use
       transform="translate(81.321532,18.645359)"
       style="display:inline"
       x="0"
       y="0"
       xlink:href="#g1729"
       id="use7376"
       width="100%"
       height="100%" />
    <use
       transform="translate(81.321532,18.645359)"
       style="display:inline"
       x="0"
       y="0"
       xlink:href="#g1758"
       id="use7391"
       width="100%"
       height="100%" />
    <use
       transform="translate(81.321532,18.645359)"
       style="display:inline"
       x="0"
       y="0"
       xlink:href="#path2074"
       id="use7958"
       width="100%"
       height="100%" />
  </g>
</svg>
