<?xml version="1.0" encoding="UTF-8" standalone="no"?>
<svg
   xmlns:osb="http://www.openswatchbook.org/uri/2009/osb"
   xmlns:dc="http://purl.org/dc/elements/1.1/"
   xmlns:cc="http://creativecommons.org/ns#"
   xmlns:rdf="http://www.w3.org/1999/02/22-rdf-syntax-ns#"
   xmlns:svg="http://www.w3.org/2000/svg"
   xmlns="http://www.w3.org/2000/svg"
   xmlns:sodipodi="http://sodipodi.sourceforge.net/DTD/sodipodi-0.dtd"
   xmlns:inkscape="http://www.inkscape.org/namespaces/inkscape"
   width="5.3927078in"
   height="3.1874263in"
   viewBox="0 0 136.97479 80.960627"
   version="1.1"
   id="svg8"
   inkscape:version="1.0 (4035a4f, 2020-05-01)"
   sodipodi:docname="stack.svg">
  <defs
     id="defs2">
    <marker
       inkscape:isstock="true"
       style="overflow:visible"
       id="marker2179"
       refX="0"
       refY="0"
       orient="auto"
       inkscape:stockid="Arrow2Lstart">
      <path
         transform="matrix(1.1,0,0,1.1,1.1,0)"
         d="M 8.7185878,4.0337352 -2.2072895,0.01601326 8.7185884,-4.0017078 c -1.7454984,2.3720609 -1.7354408,5.6174519 -6e-7,8.035443 z"
         style="fill:#000000;fill-opacity:1;fill-rule:evenodd;stroke:#000000;stroke-width:0.625;stroke-linejoin:round;stroke-opacity:1"
         id="path2177" />
    </marker>
    <marker
       inkscape:isstock="true"
       style="overflow:visible"
       id="marker1956"
       refX="0"
       refY="0"
       orient="auto"
       inkscape:stockid="Arrow2Lstart">
      <path
         transform="matrix(1.1,0,0,1.1,1.1,0)"
         d="M 8.7185878,4.0337352 -2.2072895,0.01601326 8.7185884,-4.0017078 c -1.7454984,2.3720609 -1.7354408,5.6174519 -6e-7,8.035443 z"
         style="fill:#000000;fill-opacity:1;fill-rule:evenodd;stroke:#000000;stroke-width:0.625;stroke-linejoin:round;stroke-opacity:1"
         id="path1954" />
    </marker>
    <marker
       inkscape:stockid="Arrow2Lstart"
       orient="auto"
       refY="0"
       refX="0"
       id="Arrow2Lstart"
       style="overflow:visible"
       inkscape:isstock="true"
       inkscape:collect="always">
      <path
         id="path1535"
         style="fill:#000000;fill-opacity:1;fill-rule:evenodd;stroke:#000000;stroke-width:0.625;stroke-linejoin:round;stroke-opacity:1"
         d="M 8.7185878,4.0337352 -2.2072895,0.01601326 8.7185884,-4.0017078 c -1.7454984,2.3720609 -1.7354408,5.6174519 -6e-7,8.035443 z"
         transform="matrix(1.1,0,0,1.1,1.1,0)" />
    </marker>
    <marker
       inkscape:stockid="Arrow1Lend"
       orient="auto"
       refY="0"
       refX="0"
       id="marker1795"
       style="overflow:visible"
       inkscape:isstock="true">
      <path
         id="path1793"
         d="M 0,0 5,-5 -12.5,0 5,5 Z"
         style="fill-rule:evenodd;stroke:#000000;stroke-width:1pt"
         transform="matrix(-0.8,0,0,-0.8,-10,0)" />
    </marker>
    <marker
       inkscape:stockid="Arrow1Lend"
       orient="auto"
       refY="0"
       refX="0"
       id="Arrow1Lend"
       style="overflow:visible"
       inkscape:isstock="true">
      <path
         id="path1520"
         d="M 0,0 5,-5 -12.5,0 5,5 Z"
         style="fill-rule:evenodd;stroke:#000000;stroke-width:1pt"
         transform="matrix(-0.8,0,0,-0.8,-10,0)" />
    </marker>
    <linearGradient
       osb:paint="gradient"
       id="linearGradient3204">
      <stop
         id="stop3200"
         offset="0"
         style="stop-color:#000000;stop-opacity:1;" />
      <stop
         id="stop3202"
         offset="1"
         style="stop-color:#000000;stop-opacity:0;" />
    </linearGradient>
    <linearGradient
       osb:paint="solid"
       id="linearGradient1260"
       gradientTransform="matrix(0.03343973,0,0,0.5197056,160.03044,773.74908)">
      <stop
         id="stop1258"
         offset="0"
         style="stop-color:#000000;stop-opacity:1;" />
    </linearGradient>
    <linearGradient
       osb:paint="solid"
       id="linearGradient1254"
       gradientTransform="matrix(0.27182636,0,0,0.45301816,75.554143,199.52638)">
      <stop
         id="stop1252"
         offset="0"
         style="stop-color:#513c2c;stop-opacity:1;" />
    </linearGradient>
    <linearGradient
       osb:paint="solid"
       id="linearGradient1248">
      <stop
         id="stop1246"
         offset="0"
         style="stop-color:#71f79f;stop-opacity:1;" />
    </linearGradient>
    <linearGradient
       osb:paint="solid"
       id="linearGradient1242"
       gradientTransform="matrix(0.22417511,0,0,0.45301816,84.877629,149.52625)">
      <stop
         id="stop1240"
         offset="0"
         style="stop-color:#15b097;stop-opacity:1;" />
    </linearGradient>
    <linearGradient
       osb:paint="solid"
       id="linearGradient1236"
       gradientTransform="matrix(0.0323914,0,0,0.23543607,169.92703,468.82744)">
      <stop
         id="stop1234"
         offset="0"
         style="stop-color:#ffffff;stop-opacity:1;" />
    </linearGradient>
    <linearGradient
       osb:paint="solid"
       id="linearGradient1224">
      <stop
         id="stop1222"
         offset="0"
         style="stop-color:#ffffff;stop-opacity:1;" />
    </linearGradient>
    <linearGradient
       osb:paint="solid"
       id="linearGradient1212"
       gradientTransform="matrix(1.5753427,0,0,1,-53.754937,165.51972)">
      <stop
         id="stop1210"
         offset="0"
         style="stop-color:#3dd6d0;stop-opacity:1;" />
    </linearGradient>
  </defs>
  <sodipodi:namedview
     id="base"
     pagecolor="#ffffff"
     bordercolor="#666666"
     borderopacity="1.0"
     inkscape:pageopacity="0.0"
     inkscape:pageshadow="2"
     inkscape:zoom="0.69231277"
     inkscape:cx="424.30508"
     inkscape:cy="-64.458708"
     inkscape:document-units="mm"
     inkscape:current-layer="g1213"
     inkscape:document-rotation="0"
     showgrid="false"
     inkscape:window-width="1440"
     inkscape:window-height="855"
     inkscape:window-x="0"
     inkscape:window-y="23"
     inkscape:window-maximized="0"
     units="in"
     objecttolerance="20"
     gridtolerance="10000"
     guidetolerance="10000"
     showborder="false"
     showguides="true"
     inkscape:guide-bbox="true">
    <inkscape:grid
       type="xygrid"
       id="grid1511"
       dotted="false"
       visible="true"
       snapvisiblegridlinesonly="true"
       originx="-9.060428"
       originy="-141.95687" />
  </sodipodi:namedview>
  <metadata
     id="metadata5">
    <rdf:RDF>
      <cc:Work
         rdf:about="">
        <dc:format>image/svg+xml</dc:format>
        <dc:type
           rdf:resource="http://purl.org/dc/dcmitype/StillImage" />
        <dc:title></dc:title>
      </cc:Work>
    </rdf:RDF>
  </metadata>
  <g
     inkscape:label="Layer 1"
     inkscape:groupmode="layer"
     id="layer1"
     transform="translate(-61.512184,-219.09087)">
    <g
       id="g1213"
       transform="matrix(0.58401251,0,0,0.58404576,47.485534,58.497319)"
       style="stroke-width:1.71224">
      <g
         id="g1916">
        <rect
           y="45.500198"
           x="92.316757"
           height="47.56691"
           width="106.46533"
           id="rect1509"
           style="fill:url(#linearGradient1236);stroke:url(#linearGradient1260);stroke-width:0.684897;stroke-miterlimit:4;stroke-dasharray:none;stroke-dashoffset:0;stop-color:#000000" />
        <g
           id="g1881">
          <path
             style="fill:none;stroke:#000000;stroke-width:0.453031;stroke-linecap:butt;stroke-linejoin:miter;stroke-miterlimit:4;stroke-dasharray:0.906062, 0.453031;stroke-dashoffset:0;stroke-opacity:1;marker-start:url(#Arrow2Lstart)"
             d="m 92.316762,93.067108 c 0,24.916002 0,24.916002 0,24.916002"
             id="path1515" />
          <g
             style="font-size:9.66466px;line-height:1.25;font-family:Ree;-inkscape-font-specification:Ree;stroke-width:0.775698"
             id="text1855"
             transform="scale(1.0000285,0.99997151)"
             aria-label="stack pointer">
            <path
               id="path1411"
               style="font-size:9.66466px;stroke-width:0.775698"
               d="m 64.050703,123.31521 v 0.82112 q -0.368088,-0.18877 -0.76449,-0.28315 -0.396402,-0.0944 -0.821119,-0.0944 -0.646513,0 -0.972129,0.1982 -0.320896,0.1982 -0.320896,0.5946 0,0.30203 0.231234,0.47663 0.231235,0.16989 0.929657,0.32562 l 0.297302,0.0661 q 0.924938,0.19821 1.311902,0.56157 0.391683,0.35865 0.391683,1.00517 0,0.73617 -0.585165,1.16561 -0.580446,0.42943 -1.599765,0.42943 -0.424717,0 -0.887186,-0.0849 -0.45775,-0.0802 -0.96741,-0.24539 v -0.89663 q 0.481345,0.25011 0.948534,0.37753 0.467188,0.1227 0.924938,0.1227 0.613479,0 0.943814,-0.20764 0.330335,-0.21236 0.330335,-0.59461 0,-0.35393 -0.240672,-0.54269 -0.235954,-0.18876 -1.042915,-0.36337 l -0.302021,-0.0708 q -0.806961,-0.16989 -1.165611,-0.5191 -0.358649,-0.35393 -0.358649,-0.96741 0,-0.74562 0.528536,-1.15146 0.528536,-0.40584 1.500665,-0.40584 0.481345,0 0.906062,0.0708 0.424716,0.0708 0.783366,0.21236 z" />
            <path
               id="path1413"
               style="font-size:9.66466px;stroke-width:0.775698"
               d="m 66.580126,121.65881 v 1.50067 h 1.788528 v 0.67483 h -1.788528 v 2.86919 q 0,0.64651 0.174605,0.83056 0.179325,0.18404 0.722018,0.18404 h 0.891905 v 0.72674 h -0.891905 q -1.005162,0 -1.387407,-0.37281 -0.382245,-0.37752 -0.382245,-1.36853 v -2.86919 h -0.637075 v -0.67483 h 0.637075 v -1.50067 z" />
            <path
               id="path1415"
               style="font-size:9.66466px;stroke-width:0.775698"
               d="m 71.917396,125.788 q -1.052353,0 -1.458193,0.24067 -0.40584,0.24068 -0.40584,0.82112 0,0.46247 0.30202,0.73618 0.30674,0.26899 0.830557,0.26899 0.722018,0 1.156173,-0.50966 0.438874,-0.51438 0.438874,-1.36382 V 125.788 Z m 1.7319,-0.35865 v 3.01549 h -0.868309 v -0.80224 q -0.297302,0.48134 -0.740895,0.71258 -0.443592,0.22651 -1.085386,0.22651 -0.811681,0 -1.293026,-0.45303 -0.476627,-0.45775 -0.476627,-1.22224 0,-0.8919 0.594604,-1.34493 0.599322,-0.45303 1.783809,-0.45303 h 1.217521 v -0.0849 q 0,-0.59932 -0.396402,-0.92494 -0.391683,-0.33033 -1.104263,-0.33033 -0.453031,0 -0.882467,0.10854 -0.429435,0.10854 -0.825838,0.32561 v -0.80224 q 0.476627,-0.18404 0.924939,-0.27371 0.448312,-0.0944 0.873028,-0.0944 1.146735,0 1.713023,0.59461 0.566289,0.5946 0.566289,1.80268 z" />
            <path
               id="path1417"
               style="font-size:9.66466px;stroke-width:0.775698"
               d="m 79.246116,123.3624 v 0.81168 q -0.368087,-0.20292 -0.740894,-0.30202 -0.368088,-0.10382 -0.745613,-0.10382 -0.844714,0 -1.311902,0.53797 -0.467189,0.53326 -0.467189,1.50067 0,0.96741 0.467189,1.50538 0.467188,0.53326 1.311902,0.53326 0.377525,0 0.745613,-0.0991 0.372807,-0.10382 0.740894,-0.30674 v 0.80224 q -0.363368,0.16989 -0.755051,0.25483 -0.386964,0.0849 -0.825838,0.0849 -1.193925,0 -1.897067,-0.75033 -0.703142,-0.75033 -0.703142,-2.02448 0,-1.29303 0.707861,-2.03392 0.71258,-0.7409 1.948977,-0.7409 0.401121,0 0.783366,0.0849 0.382245,0.0802 0.740894,0.24539 z" />
            <path
               id="path1419"
               style="font-size:9.66466px;stroke-width:0.775698"
               d="m 80.732625,121.10196 h 0.873028 v 4.33683 l 2.590771,-2.27931 h 1.108982 l -2.803129,2.47279 2.921106,2.81257 h -1.132577 l -2.685153,-2.58133 v 2.58133 h -0.873028 z" />
            <path
               id="path1421"
               style="font-size:9.66466px;stroke-width:0.775698"
               d="m 90.288745,127.65204 v 2.80312 h -0.873028 v -7.29568 h 0.873028 v 0.80224 q 0.273707,-0.47191 0.688985,-0.69842 0.419998,-0.23124 1.000443,-0.23124 0.962691,0 1.562013,0.76449 0.604042,0.76449 0.604042,2.01033 0,1.24583 -0.604042,2.01032 -0.599322,0.76449 -1.562013,0.76449 -0.580445,0 -1.000443,-0.22651 -0.415278,-0.23124 -0.688985,-0.70314 z m 2.95414,-1.84516 q 0,-0.95797 -0.396402,-1.50067 -0.391683,-0.54741 -1.080668,-0.54741 -0.688984,0 -1.085387,0.54741 -0.391683,0.5427 -0.391683,1.50067 0,0.95797 0.391683,1.50538 0.396403,0.5427 1.085387,0.5427 0.688985,0 1.080668,-0.5427 0.396402,-0.54741 0.396402,-1.50538 z" />
            <path
               id="path1423"
               style="font-size:9.66466px;stroke-width:0.775698"
               d="m 97.631622,123.76824 q -0.698422,0 -1.104263,0.54741 -0.40584,0.54269 -0.40584,1.49123 0,0.94853 0.401121,1.49594 0.40584,0.5427 1.108982,0.5427 0.693704,0 1.099544,-0.54742 0.40584,-0.54741 0.40584,-1.49122 0,-0.9391 -0.40584,-1.48651 -0.40584,-0.55213 -1.099544,-0.55213 z m 0,-0.73618 q 1.132578,0 1.779091,0.73618 0.646517,0.73617 0.646517,2.03864 0,1.29774 -0.646517,2.03864 -0.646513,0.73617 -1.779091,0.73617 -1.137296,0 -1.783809,-0.73617 -0.641794,-0.7409 -0.641794,-2.03864 0,-1.30247 0.641794,-2.03864 0.646513,-0.73618 1.783809,-0.73618 z" />
            <path
               id="path1425"
               style="font-size:9.66466px;stroke-width:0.775698"
               d="m 101.49182,123.15948 h 0.86831 v 5.28536 h -0.86831 z m 0,-2.05752 h 0.86831 v 1.09955 h -0.86831 z" />
            <path
               id="path1427"
               style="font-size:9.66466px;stroke-width:0.775698"
               d="m 108.56571,125.25475 v 3.19009 h -0.86831 v -3.16178 q 0,-0.75033 -0.29258,-1.12314 -0.29258,-0.37281 -0.87775,-0.37281 -0.70314,0 -1.10898,0.44832 -0.40584,0.44831 -0.40584,1.22224 v 2.98717 h -0.87303 v -5.28536 h 0.87303 v 0.82112 q 0.31146,-0.47663 0.73146,-0.71258 0.42471,-0.23596 0.97684,-0.23596 0.91079,0 1.37797,0.56629 0.46719,0.56157 0.46719,1.6564 z" />
            <path
               id="path1429"
               style="font-size:9.66466px;stroke-width:0.775698"
               d="m 111.16592,121.65881 v 1.50067 h 1.78853 v 0.67483 h -1.78853 v 2.86919 q 0,0.64651 0.17461,0.83056 0.17932,0.18404 0.72202,0.18404 h 0.8919 v 0.72674 h -0.8919 q -1.00517,0 -1.38741,-0.37281 -0.38225,-0.37752 -0.38225,-1.36853 v -2.86919 h -0.63707 v -0.67483 h 0.63707 v -1.50067 z" />
            <path
               id="path1431"
               style="font-size:9.66466px;stroke-width:0.775698"
               d="m 118.62206,125.58508 v 0.42472 h -3.99234 q 0.0566,0.89662 0.53797,1.36853 0.48607,0.46719 1.34966,0.46719 0.50022,0 0.96741,-0.1227 0.47191,-0.12269 0.93438,-0.36809 v 0.82112 q -0.46719,0.1982 -0.95798,0.30202 -0.49078,0.10382 -0.99572,0.10382 -1.26471,0 -2.00561,-0.73617 -0.73617,-0.73618 -0.73617,-1.99145 0,-1.29775 0.69842,-2.05752 0.70314,-0.76449 1.89235,-0.76449 1.06651,0 1.68471,0.68899 0.62292,0.68426 0.62292,1.86403 z m -0.86831,-0.25483 q -0.009,-0.71258 -0.40113,-1.13729 -0.38696,-0.42472 -1.02875,-0.42472 -0.72674,0 -1.16561,0.41056 -0.43416,0.41056 -0.50023,1.15617 z" />
            <path
               id="path1433"
               style="font-size:9.66466px;stroke-width:0.775698"
               d="m 123.1099,123.97116 q -0.1463,-0.0849 -0.3209,-0.1227 -0.16989,-0.0425 -0.37753,-0.0425 -0.73617,0 -1.13257,0.48135 -0.39169,0.47662 -0.39169,1.37325 v 2.78425 h -0.87303 v -5.28536 h 0.87303 v 0.82112 q 0.27371,-0.48135 0.71258,-0.71258 0.43888,-0.23596 1.06651,-0.23596 0.0897,0 0.1982,0.0142 0.10854,0.009 0.24068,0.033 z" />
          </g>
        </g>
        <g
           id="g1870">
          <rect
             style="fill:url(#linearGradient1242);stroke:url(#linearGradient1260);stroke-width:0.684897;stroke-miterlimit:4;stroke-dasharray:none;stroke-dashoffset:0;stop-color:#000000"
             id="rect1513"
             width="67.956589"
             height="47.566906"
             x="24.36017"
             y="45.500202" />
          <g
             style="font-size:8.45658px;line-height:1.25;font-family:Ree;-inkscape-font-specification:Ree;stroke-width:0.775698"
             id="text1865"
             transform="scale(1.0000285,0.99997151)"
             aria-label="used">
            <path
               id="path1436"
               style="font-size:8.45658px;stroke-width:0.775698"
               d="m 48.905735,70.613161 v -2.79959 h 0.759771 v 2.770686 q 0,0.656541 0.256009,0.986876 0.25601,0.326206 0.76803,0.326206 0.615249,0 0.970359,-0.392273 0.35924,-0.392273 0.35924,-1.06946 v -2.622035 h 0.759771 v 4.624692 h -0.759771 v -0.710221 q -0.276656,0.421178 -0.644154,0.627637 -0.363369,0.20233 -0.846484,0.20233 -0.796933,0 -1.209852,-0.495502 -0.412919,-0.495503 -0.412919,-1.449346 z m 1.911815,-2.911078 z" />
            <path
               id="path1438"
               style="font-size:8.45658px;stroke-width:0.775698"
               d="m 57.300377,67.949834 v 0.718479 q -0.322076,-0.165168 -0.668928,-0.247751 -0.346852,-0.08258 -0.718479,-0.08258 -0.565699,0 -0.850613,0.173426 -0.280785,0.173426 -0.280785,0.520278 0,0.264268 0.20233,0.417048 0.20233,0.148651 0.81345,0.284914 l 0.260139,0.05781 q 0.809321,0.173426 1.147915,0.491374 0.342723,0.313818 0.342723,0.879517 0,0.644154 -0.51202,1.01991 -0.50789,0.375756 -1.399795,0.375756 -0.371627,0 -0.776288,-0.07433 -0.400531,-0.0702 -0.846483,-0.214718 V 71.48442 q 0.421177,0.218847 0.829967,0.330335 0.408789,0.107359 0.809321,0.107359 0.536794,0 0.825838,-0.181684 0.289043,-0.185814 0.289043,-0.520278 0,-0.309689 -0.210589,-0.474857 -0.206459,-0.165167 -0.912551,-0.317947 l -0.264268,-0.06194 q -0.706091,-0.148651 -1.01991,-0.454211 -0.313818,-0.309689 -0.313818,-0.846484 0,-0.652412 0.462469,-1.007522 0.462469,-0.35511 1.313083,-0.35511 0.421177,0 0.792804,0.06194 0.371627,0.06194 0.685445,0.185813 z" />
            <path
               id="path1440"
               style="font-size:8.45658px;stroke-width:0.775698"
               d="m 62.717875,69.935974 v 0.371627 H 59.22458 q 0.04955,0.784546 0.470728,1.197465 0.425306,0.40879 1.180948,0.40879 0.437694,0 0.846484,-0.107359 0.412919,-0.107359 0.81758,-0.322077 v 0.718479 q -0.40879,0.173426 -0.838226,0.264268 -0.429436,0.09084 -0.871259,0.09084 -1.106623,0 -1.754905,-0.644153 -0.644154,-0.644154 -0.644154,-1.742518 0,-1.135527 0.61112,-1.800327 0.615249,-0.668928 1.655805,-0.668928 0.933197,0 1.474121,0.602861 0.545053,0.598733 0.545053,1.63103 z m -0.759771,-0.222976 q -0.0083,-0.623508 -0.350981,-0.995135 -0.338594,-0.371627 -0.900164,-0.371627 -0.635895,0 -1.019909,0.35924 -0.379886,0.359239 -0.437695,1.011651 z" />
            <path
               id="path1442"
               style="font-size:8.45658px;stroke-width:0.775698"
               d="m 67.008102,68.515533 v -2.502289 h 0.759771 v 6.425019 h -0.759771 v -0.693704 q -0.239493,0.412919 -0.606991,0.615249 -0.363369,0.198201 -0.875388,0.198201 -0.838226,0 -1.366762,-0.668928 -0.524407,-0.668929 -0.524407,-1.759035 0,-1.090106 0.524407,-1.759035 0.528536,-0.668928 1.366762,-0.668928 0.512019,0 0.875388,0.20233 0.367498,0.198201 0.606991,0.61112 z M 64.4191,70.130046 q 0,0.838225 0.342723,1.317211 0.346851,0.474857 0.949713,0.474857 0.602862,0 0.949714,-0.474857 0.346852,-0.478986 0.346852,-1.317211 0,-0.838225 -0.346852,-1.313082 -0.346852,-0.478986 -0.949714,-0.478986 -0.602862,0 -0.949713,0.478986 -0.342723,0.474857 -0.342723,1.313082 z" />
          </g>
        </g>
        <g
           style="font-size:8.45658px;line-height:1.25;font-family:Ree;-inkscape-font-specification:Ree;stroke-width:0.775698"
           id="text1897"
           transform="scale(1.0000285,0.99997151)"
           aria-label="free">
          <path
             id="path1445"
             style="font-size:8.45658px;stroke-width:0.775698"
             d="m 140.47051,66.013244 v 0.631766 h -0.72674 q -0.40879,0 -0.56983,0.165168 -0.15691,0.165167 -0.15691,0.594603 v 0.40879 h 1.25114 v 0.590474 h -1.25114 v 4.034218 h -0.7639 v -4.034218 h -0.72674 v -0.590474 h 0.72674 v -0.322077 q 0,-0.772159 0.35924,-1.12314 0.35924,-0.35511 1.13966,-0.35511 z" />
          <path
             id="path1447"
             style="font-size:8.45658px;stroke-width:0.775698"
             d="m 143.78212,68.523791 q -0.12801,-0.07433 -0.28079,-0.107359 -0.14865,-0.03716 -0.33033,-0.03716 -0.64416,0 -0.99101,0.421177 -0.34272,0.417048 -0.34272,1.201594 v 2.436222 h -0.7639 v -4.624692 h 0.7639 v 0.718479 q 0.23949,-0.421178 0.6235,-0.623508 0.38402,-0.206459 0.9332,-0.206459 0.0785,0 0.17343,0.01239 0.095,0.0083 0.21059,0.0289 z" />
          <path
             id="path1449"
             style="font-size:8.45658px;stroke-width:0.775698"
             d="m 148.36139,69.935974 v 0.371627 h -3.4933 q 0.0496,0.784546 0.47073,1.197465 0.42531,0.40879 1.18095,0.40879 0.43769,0 0.84648,-0.107359 0.41292,-0.107359 0.81758,-0.322077 v 0.718479 q -0.40879,0.173426 -0.83822,0.264268 -0.42944,0.09084 -0.87126,0.09084 -1.10663,0 -1.75491,-0.644153 -0.64415,-0.644154 -0.64415,-1.742518 0,-1.135527 0.61112,-1.800327 0.61525,-0.668928 1.6558,-0.668928 0.9332,0 1.47412,0.602861 0.54506,0.598733 0.54506,1.63103 z m -0.75977,-0.222976 q -0.008,-0.623508 -0.35099,-0.995135 -0.33859,-0.371627 -0.90016,-0.371627 -0.63589,0 -1.01991,0.35924 -0.37988,0.359239 -0.43769,1.011651 z" />
          <path
             id="path1451"
             style="font-size:8.45658px;stroke-width:0.775698"
             d="m 153.56417,69.935974 v 0.371627 h -3.4933 q 0.0495,0.784546 0.47073,1.197465 0.42531,0.40879 1.18095,0.40879 0.43769,0 0.84648,-0.107359 0.41292,-0.107359 0.81758,-0.322077 v 0.718479 q -0.40879,0.173426 -0.83823,0.264268 -0.42943,0.09084 -0.87125,0.09084 -1.10663,0 -1.75491,-0.644153 -0.64415,-0.644154 -0.64415,-1.742518 0,-1.135527 0.61112,-1.800327 0.61525,-0.668928 1.6558,-0.668928 0.9332,0 1.47412,0.602861 0.54506,0.598733 0.54506,1.63103 z m -0.75978,-0.222976 q -0.008,-0.623508 -0.35098,-0.995135 -0.33859,-0.371627 -0.90016,-0.371627 -0.6359,0 -1.01991,0.35924 -0.37989,0.359239 -0.43769,1.011651 z" />
        </g>
      </g>
      <g
         style="font-size:18.1212px;line-height:1.25;font-family:Ree;-inkscape-font-specification:Ree;stroke-width:0.775698"
         id="text2068"
         transform="scale(1.0000285,0.99997154)" />
      <rect
         y="187.06837"
         x="145.28964"
         height="47.56691"
         width="53.492447"
         id="rect1930"
         style="fill:url(#linearGradient1236);stroke:url(#linearGradient1260);stroke-width:0.684897;stroke-miterlimit:4;stroke-dasharray:none;stroke-dashoffset:0;stop-color:#000000" />
      <g
         id="g1938"
         transform="translate(52.972879,141.56817)">
        <path
           style="fill:none;stroke:#000000;stroke-width:0.453031;stroke-linecap:butt;stroke-linejoin:miter;stroke-miterlimit:4;stroke-dasharray:0.906062, 0.453031;stroke-dashoffset:0;stroke-opacity:1;marker-start:url(#marker1956)"
           d="m 92.316762,93.067108 c 0,24.916002 0,24.916002 0,24.916002"
           id="path1932" />
        <g
           style="font-size:9.66466px;line-height:1.25;font-family:Ree;-inkscape-font-specification:Ree;stroke-width:0.775698"
           id="text1936"
           transform="scale(1.0000285,0.99997151)"
           aria-label="stack pointer">
          <path
             id="path1455"
             style="font-size:9.66466px;stroke-width:0.775698"
             d="m 64.050703,123.31521 v 0.82112 q -0.368088,-0.18877 -0.76449,-0.28315 -0.396402,-0.0944 -0.821119,-0.0944 -0.646513,0 -0.972129,0.1982 -0.320896,0.1982 -0.320896,0.5946 0,0.30203 0.231234,0.47663 0.231235,0.16989 0.929657,0.32562 l 0.297302,0.0661 q 0.924938,0.19821 1.311902,0.56157 0.391683,0.35865 0.391683,1.00517 0,0.73617 -0.585165,1.16561 -0.580446,0.42943 -1.599765,0.42943 -0.424717,0 -0.887186,-0.0849 -0.45775,-0.0802 -0.96741,-0.24539 v -0.89663 q 0.481345,0.25011 0.948534,0.37753 0.467188,0.1227 0.924938,0.1227 0.613479,0 0.943814,-0.20764 0.330335,-0.21236 0.330335,-0.59461 0,-0.35393 -0.240672,-0.54269 -0.235954,-0.18876 -1.042915,-0.36337 l -0.302021,-0.0708 q -0.806961,-0.16989 -1.165611,-0.5191 -0.358649,-0.35393 -0.358649,-0.96741 0,-0.74562 0.528536,-1.15146 0.528536,-0.40584 1.500665,-0.40584 0.481345,0 0.906062,0.0708 0.424716,0.0708 0.783366,0.21236 z" />
          <path
             id="path1457"
             style="font-size:9.66466px;stroke-width:0.775698"
             d="m 66.580126,121.65881 v 1.50067 h 1.788528 v 0.67483 h -1.788528 v 2.86919 q 0,0.64651 0.174605,0.83056 0.179325,0.18404 0.722018,0.18404 h 0.891905 v 0.72674 h -0.891905 q -1.005162,0 -1.387407,-0.37281 -0.382245,-0.37752 -0.382245,-1.36853 v -2.86919 h -0.637075 v -0.67483 h 0.637075 v -1.50067 z" />
          <path
             id="path1459"
             style="font-size:9.66466px;stroke-width:0.775698"
             d="m 71.917396,125.788 q -1.052353,0 -1.458193,0.24067 -0.40584,0.24068 -0.40584,0.82112 0,0.46247 0.30202,0.73618 0.30674,0.26899 0.830557,0.26899 0.722018,0 1.156173,-0.50966 0.438874,-0.51438 0.438874,-1.36382 V 125.788 Z m 1.7319,-0.35865 v 3.01549 h -0.868309 v -0.80224 q -0.297302,0.48134 -0.740895,0.71258 -0.443592,0.22651 -1.085386,0.22651 -0.811681,0 -1.293026,-0.45303 -0.476627,-0.45775 -0.476627,-1.22224 0,-0.8919 0.594604,-1.34493 0.599322,-0.45303 1.783809,-0.45303 h 1.217521 v -0.0849 q 0,-0.59932 -0.396402,-0.92494 -0.391683,-0.33033 -1.104263,-0.33033 -0.453031,0 -0.882467,0.10854 -0.429435,0.10854 -0.825838,0.32561 v -0.80224 q 0.476627,-0.18404 0.924939,-0.27371 0.448312,-0.0944 0.873028,-0.0944 1.146735,0 1.713023,0.59461 0.566289,0.5946 0.566289,1.80268 z" />
          <path
             id="path1461"
             style="font-size:9.66466px;stroke-width:0.775698"
             d="m 79.246116,123.3624 v 0.81168 q -0.368087,-0.20292 -0.740894,-0.30202 -0.368088,-0.10382 -0.745613,-0.10382 -0.844714,0 -1.311902,0.53797 -0.467189,0.53326 -0.467189,1.50067 0,0.96741 0.467189,1.50538 0.467188,0.53326 1.311902,0.53326 0.377525,0 0.745613,-0.0991 0.372807,-0.10382 0.740894,-0.30674 v 0.80224 q -0.363368,0.16989 -0.755051,0.25483 -0.386964,0.0849 -0.825838,0.0849 -1.193925,0 -1.897067,-0.75033 -0.703142,-0.75033 -0.703142,-2.02448 0,-1.29303 0.707861,-2.03392 0.71258,-0.7409 1.948977,-0.7409 0.401121,0 0.783366,0.0849 0.382245,0.0802 0.740894,0.24539 z" />
          <path
             id="path1463"
             style="font-size:9.66466px;stroke-width:0.775698"
             d="m 80.732625,121.10196 h 0.873028 v 4.33683 l 2.590771,-2.27931 h 1.108982 l -2.803129,2.47279 2.921106,2.81257 h -1.132577 l -2.685153,-2.58133 v 2.58133 h -0.873028 z" />
          <path
             id="path1465"
             style="font-size:9.66466px;stroke-width:0.775698"
             d="m 90.288745,127.65204 v 2.80312 h -0.873028 v -7.29568 h 0.873028 v 0.80224 q 0.273707,-0.47191 0.688985,-0.69842 0.419998,-0.23124 1.000443,-0.23124 0.962691,0 1.562013,0.76449 0.604042,0.76449 0.604042,2.01033 0,1.24583 -0.604042,2.01032 -0.599322,0.76449 -1.562013,0.76449 -0.580445,0 -1.000443,-0.22651 -0.415278,-0.23124 -0.688985,-0.70314 z m 2.95414,-1.84516 q 0,-0.95797 -0.396402,-1.50067 -0.391683,-0.54741 -1.080668,-0.54741 -0.688984,0 -1.085387,0.54741 -0.391683,0.5427 -0.391683,1.50067 0,0.95797 0.391683,1.50538 0.396403,0.5427 1.085387,0.5427 0.688985,0 1.080668,-0.5427 0.396402,-0.54741 0.396402,-1.50538 z" />
          <path
             id="path1467"
             style="font-size:9.66466px;stroke-width:0.775698"
             d="m 97.631622,123.76824 q -0.698422,0 -1.104263,0.54741 -0.40584,0.54269 -0.40584,1.49123 0,0.94853 0.401121,1.49594 0.40584,0.5427 1.108982,0.5427 0.693704,0 1.099544,-0.54742 0.40584,-0.54741 0.40584,-1.49122 0,-0.9391 -0.40584,-1.48651 -0.40584,-0.55213 -1.099544,-0.55213 z m 0,-0.73618 q 1.132578,0 1.779091,0.73618 0.646517,0.73617 0.646517,2.03864 0,1.29774 -0.646517,2.03864 -0.646513,0.73617 -1.779091,0.73617 -1.137296,0 -1.783809,-0.73617 -0.641794,-0.7409 -0.641794,-2.03864 0,-1.30247 0.641794,-2.03864 0.646513,-0.73618 1.783809,-0.73618 z" />
          <path
             id="path1469"
             style="font-size:9.66466px;stroke-width:0.775698"
             d="m 101.49182,123.15948 h 0.86831 v 5.28536 h -0.86831 z m 0,-2.05752 h 0.86831 v 1.09955 h -0.86831 z" />
          <path
             id="path1471"
             style="font-size:9.66466px;stroke-width:0.775698"
             d="m 108.56571,125.25475 v 3.19009 h -0.86831 v -3.16178 q 0,-0.75033 -0.29258,-1.12314 -0.29258,-0.37281 -0.87775,-0.37281 -0.70314,0 -1.10898,0.44832 -0.40584,0.44831 -0.40584,1.22224 v 2.98717 h -0.87303 v -5.28536 h 0.87303 v 0.82112 q 0.31146,-0.47663 0.73146,-0.71258 0.42471,-0.23596 0.97684,-0.23596 0.91079,0 1.37797,0.56629 0.46719,0.56157 0.46719,1.6564 z" />
          <path
             id="path1473"
             style="font-size:9.66466px;stroke-width:0.775698"
             d="m 111.16592,121.65881 v 1.50067 h 1.78853 v 0.67483 h -1.78853 v 2.86919 q 0,0.64651 0.17461,0.83056 0.17932,0.18404 0.72202,0.18404 h 0.8919 v 0.72674 h -0.8919 q -1.00517,0 -1.38741,-0.37281 -0.38225,-0.37752 -0.38225,-1.36853 v -2.86919 h -0.63707 v -0.67483 h 0.63707 v -1.50067 z" />
          <path
             id="path1475"
             style="font-size:9.66466px;stroke-width:0.775698"
             d="m 118.62206,125.58508 v 0.42472 h -3.99234 q 0.0566,0.89662 0.53797,1.36853 0.48607,0.46719 1.34966,0.46719 0.50022,0 0.96741,-0.1227 0.47191,-0.12269 0.93438,-0.36809 v 0.82112 q -0.46719,0.1982 -0.95798,0.30202 -0.49078,0.10382 -0.99572,0.10382 -1.26471,0 -2.00561,-0.73617 -0.73617,-0.73618 -0.73617,-1.99145 0,-1.29775 0.69842,-2.05752 0.70314,-0.76449 1.89235,-0.76449 1.06651,0 1.68471,0.68899 0.62292,0.68426 0.62292,1.86403 z m -0.86831,-0.25483 q -0.009,-0.71258 -0.40113,-1.13729 -0.38696,-0.42472 -1.02875,-0.42472 -0.72674,0 -1.16561,0.41056 -0.43416,0.41056 -0.50023,1.15617 z" />
          <path
             id="path1477"
             style="font-size:9.66466px;stroke-width:0.775698"
             d="m 123.1099,123.97116 q -0.1463,-0.0849 -0.3209,-0.1227 -0.16989,-0.0425 -0.37753,-0.0425 -0.73617,0 -1.13257,0.48135 -0.39169,0.47662 -0.39169,1.37325 v 2.78425 h -0.87303 v -5.28536 h 0.87303 v 0.82112 q 0.27371,-0.48135 0.71258,-0.71258 0.43888,-0.23596 1.06651,-0.23596 0.0897,0 0.1982,0.0142 0.10854,0.009 0.24068,0.033 z" />
        </g>
      </g>
      <g
         id="g1946"
         transform="translate(1.66e-6,141.56817)">
        <rect
           style="fill:url(#linearGradient1242);stroke:url(#linearGradient1260);stroke-width:0.684897;stroke-miterlimit:4;stroke-dasharray:none;stroke-dashoffset:0;stop-color:#000000"
           id="rect1940"
           width="67.956589"
           height="47.566906"
           x="24.36017"
           y="45.500202" />
        <g
           style="font-size:8.45658px;line-height:1.25;font-family:Ree;-inkscape-font-specification:Ree;stroke-width:0.775698"
           id="text1944"
           transform="scale(1.0000285,0.99997151)"
           aria-label="used">
          <path
             id="path1480"
             style="font-size:8.45658px;stroke-width:0.775698"
             d="m 48.905735,70.613161 v -2.79959 h 0.759771 v 2.770686 q 0,0.656541 0.256009,0.986876 0.25601,0.326206 0.76803,0.326206 0.615249,0 0.970359,-0.392273 0.35924,-0.392273 0.35924,-1.06946 v -2.622035 h 0.759771 v 4.624692 h -0.759771 v -0.710221 q -0.276656,0.421178 -0.644154,0.627637 -0.363369,0.20233 -0.846484,0.20233 -0.796933,0 -1.209852,-0.495502 -0.412919,-0.495503 -0.412919,-1.449346 z m 1.911815,-2.911078 z" />
          <path
             id="path1482"
             style="font-size:8.45658px;stroke-width:0.775698"
             d="m 57.300377,67.949834 v 0.718479 q -0.322076,-0.165168 -0.668928,-0.247751 -0.346852,-0.08258 -0.718479,-0.08258 -0.565699,0 -0.850613,0.173426 -0.280785,0.173426 -0.280785,0.520278 0,0.264268 0.20233,0.417048 0.20233,0.148651 0.81345,0.284914 l 0.260139,0.05781 q 0.809321,0.173426 1.147915,0.491374 0.342723,0.313818 0.342723,0.879517 0,0.644154 -0.51202,1.01991 -0.50789,0.375756 -1.399795,0.375756 -0.371627,0 -0.776288,-0.07433 -0.400531,-0.0702 -0.846483,-0.214718 V 71.48442 q 0.421177,0.218847 0.829967,0.330335 0.408789,0.107359 0.809321,0.107359 0.536794,0 0.825838,-0.181684 0.289043,-0.185814 0.289043,-0.520278 0,-0.309689 -0.210589,-0.474857 -0.206459,-0.165167 -0.912551,-0.317947 l -0.264268,-0.06194 q -0.706091,-0.148651 -1.01991,-0.454211 -0.313818,-0.309689 -0.313818,-0.846484 0,-0.652412 0.462469,-1.007522 0.462469,-0.35511 1.313083,-0.35511 0.421177,0 0.792804,0.06194 0.371627,0.06194 0.685445,0.185813 z" />
          <path
             id="path1484"
             style="font-size:8.45658px;stroke-width:0.775698"
             d="m 62.717875,69.935974 v 0.371627 H 59.22458 q 0.04955,0.784546 0.470728,1.197465 0.425306,0.40879 1.180948,0.40879 0.437694,0 0.846484,-0.107359 0.412919,-0.107359 0.81758,-0.322077 v 0.718479 q -0.40879,0.173426 -0.838226,0.264268 -0.429436,0.09084 -0.871259,0.09084 -1.106623,0 -1.754905,-0.644153 -0.644154,-0.644154 -0.644154,-1.742518 0,-1.135527 0.61112,-1.800327 0.615249,-0.668928 1.655805,-0.668928 0.933197,0 1.474121,0.602861 0.545053,0.598733 0.545053,1.63103 z m -0.759771,-0.222976 q -0.0083,-0.623508 -0.350981,-0.995135 -0.338594,-0.371627 -0.900164,-0.371627 -0.635895,0 -1.019909,0.35924 -0.379886,0.359239 -0.437695,1.011651 z" />
          <path
             id="path1486"
             style="font-size:8.45658px;stroke-width:0.775698"
             d="m 67.008102,68.515533 v -2.502289 h 0.759771 v 6.425019 h -0.759771 v -0.693704 q -0.239493,0.412919 -0.606991,0.615249 -0.363369,0.198201 -0.875388,0.198201 -0.838226,0 -1.366762,-0.668928 -0.524407,-0.668929 -0.524407,-1.759035 0,-1.090106 0.524407,-1.759035 0.528536,-0.668928 1.366762,-0.668928 0.512019,0 0.875388,0.20233 0.367498,0.198201 0.606991,0.61112 z M 64.4191,70.130046 q 0,0.838225 0.342723,1.317211 0.346851,0.474857 0.949713,0.474857 0.602862,0 0.949714,-0.474857 0.346852,-0.478986 0.346852,-1.317211 0,-0.838225 -0.346852,-1.313082 -0.346852,-0.478986 -0.949714,-0.478986 -0.602862,0 -0.949713,0.478986 -0.342723,0.474857 -0.342723,1.313082 z" />
        </g>
      </g>
      <g
         style="font-size:8.45658px;line-height:1.25;font-family:Ree;-inkscape-font-specification:Ree;stroke-width:0.775698"
         id="text1950"
         transform="scale(1.0000285,0.99997151)"
         aria-label="free">
        <path
           id="path1489"
           style="font-size:8.45658px;stroke-width:0.775698"
           d="m 166.95619,207.58545 v 0.63176 h -0.72673 q -0.40879,0 -0.56983,0.16517 -0.15691,0.16517 -0.15691,0.59461 v 0.40879 h 1.25114 v 0.59047 h -1.25114 v 4.03422 h -0.7639 v -4.03422 h -0.72674 v -0.59047 h 0.72674 v -0.32208 q 0,-0.77216 0.35924,-1.12314 0.35924,-0.35511 1.13965,-0.35511 z" />
        <path
           id="path1491"
           style="font-size:8.45658px;stroke-width:0.775698"
           d="m 170.2678,210.096 q -0.128,-0.0743 -0.28078,-0.10736 -0.14865,-0.0372 -0.33034,-0.0372 -0.64415,0 -0.991,0.42118 -0.34273,0.41705 -0.34273,1.2016 v 2.43622 h -0.7639 v -4.62469 h 0.7639 v 0.71847 q 0.2395,-0.42117 0.62351,-0.6235 0.38402,-0.20646 0.9332,-0.20646 0.0785,0 0.17342,0.0124 0.095,0.008 0.21059,0.0289 z" />
        <path
           id="path1493"
           style="font-size:8.45658px;stroke-width:0.775698"
           d="m 174.84707,211.50818 v 0.37163 h -3.49329 q 0.0496,0.78454 0.47073,1.19746 0.4253,0.40879 1.18095,0.40879 0.43769,0 0.84648,-0.10736 0.41292,-0.10736 0.81758,-0.32208 v 0.71848 q -0.40879,0.17343 -0.83823,0.26427 -0.42943,0.0908 -0.87126,0.0908 -1.10662,0 -1.7549,-0.64415 -0.64416,-0.64415 -0.64416,-1.74252 0,-1.13552 0.61113,-1.80032 0.61524,-0.66893 1.6558,-0.66893 0.9332,0 1.47412,0.60286 0.54505,0.59873 0.54505,1.63103 z m -0.75977,-0.22298 q -0.008,-0.62351 -0.35098,-0.99513 -0.33859,-0.37163 -0.90016,-0.37163 -0.6359,0 -1.01991,0.35924 -0.37989,0.35924 -0.4377,1.01165 z" />
        <path
           id="path1495"
           style="font-size:8.45658px;stroke-width:0.775698"
           d="m 180.04985,211.50818 v 0.37163 h -3.49329 q 0.0496,0.78454 0.47073,1.19746 0.4253,0.40879 1.18094,0.40879 0.4377,0 0.84649,-0.10736 0.41292,-0.10736 0.81758,-0.32208 v 0.71848 q -0.40879,0.17343 -0.83823,0.26427 -0.42943,0.0908 -0.87126,0.0908 -1.10662,0 -1.7549,-0.64415 -0.64416,-0.64415 -0.64416,-1.74252 0,-1.13552 0.61112,-1.80032 0.61525,-0.66893 1.65581,-0.66893 0.9332,0 1.47412,0.60286 0.54505,0.59873 0.54505,1.63103 z m -0.75977,-0.22298 q -0.008,-0.62351 -0.35098,-0.99513 -0.33859,-0.37163 -0.90016,-0.37163 -0.6359,0 -1.01991,0.35924 -0.37989,0.35924 -0.4377,1.01165 z" />
      </g>
      <rect
         style="fill:url(#linearGradient1212);stroke:url(#linearGradient1260);stroke-width:0.684897;stroke-miterlimit:4;stroke-dasharray:none;stroke-dashoffset:0;stop-color:#000000"
         id="rect2043"
         width="52.972893"
         height="47.566906"
         x="92.31675"
         y="187.06837" />
      <g
         style="font-size:8.45658px;line-height:1.25;font-family:Ree;-inkscape-font-specification:Ree;white-space:pre;inline-size:28.7986;stroke-width:0.775698"
         id="text2072"
         transform="matrix(1.0000285,0,0,0.99997154,-7.3270243,23.363316)"
         aria-label="local vars">
        <path
           id="path1498"
           style="font-size:8.45658px;stroke-width:0.775698"
           d="m 116.94537,178.9361 h 0.75977 v 6.42501 h -0.75977 z" />
        <path
           id="path1500"
           style="font-size:8.45658px;stroke-width:0.775698"
           d="m 121.08282,181.26909 q -0.61112,0 -0.96623,0.47898 -0.35511,0.47486 -0.35511,1.30483 0,0.82996 0.35098,1.30895 0.35511,0.47486 0.97036,0.47486 0.60699,0 0.9621,-0.47899 0.35511,-0.47898 0.35511,-1.30482 0,-0.82171 -0.35511,-1.3007 -0.35511,-0.48311 -0.9621,-0.48311 z m 0,-0.64416 q 0.991,0 1.5567,0.64416 0.5657,0.64415 0.5657,1.78381 0,1.13552 -0.5657,1.78381 -0.5657,0.64415 -1.5567,0.64415 -0.99514,0 -1.56083,-0.64415 -0.56157,-0.64829 -0.56157,-1.78381 0,-1.13966 0.56157,-1.78381 0.56569,-0.64416 1.56083,-0.64416 z" />
        <path
           id="path1502"
           style="font-size:8.45658px;stroke-width:0.775698"
           d="m 127.78862,180.91398 v 0.71022 q -0.32207,-0.17756 -0.64828,-0.26427 -0.32208,-0.0908 -0.65241,-0.0908 -0.73913,0 -1.14792,0.47073 -0.40879,0.46659 -0.40879,1.31308 0,0.84648 0.40879,1.31721 0.40879,0.4666 1.14792,0.4666 0.33033,0 0.65241,-0.0867 0.32621,-0.0908 0.64828,-0.26839 v 0.70196 q -0.31794,0.14865 -0.66067,0.22298 -0.33859,0.0743 -0.72261,0.0743 -1.04468,0 -1.65993,-0.65654 -0.61525,-0.65654 -0.61525,-1.77142 0,-1.1314 0.61938,-1.77968 0.62351,-0.64829 1.70535,-0.64829 0.35099,0 0.68545,0.0743 0.33446,0.0702 0.64828,0.21472 z" />
        <path
           id="path1504"
           style="font-size:8.45658px;stroke-width:0.775698"
           d="m 131.21998,183.03638 q -0.92081,0 -1.27592,0.21059 -0.35511,0.21059 -0.35511,0.71848 0,0.40466 0.26427,0.64415 0.26839,0.23537 0.72673,0.23537 0.63177,0 1.01166,-0.44596 0.38401,-0.45008 0.38401,-1.19333 v -0.1693 z m 1.51541,-0.31382 v 2.63855 h -0.75977 v -0.70196 q -0.26014,0.42118 -0.64828,0.62351 -0.38815,0.1982 -0.94972,0.1982 -0.71022,0 -1.13139,-0.3964 -0.41705,-0.40053 -0.41705,-1.06946 0,-0.78042 0.52028,-1.17682 0.5244,-0.3964 1.56083,-0.3964 h 1.06533 v -0.0743 q 0,-0.5244 -0.34685,-0.80932 -0.34272,-0.28904 -0.96623,-0.28904 -0.3964,0 -0.77216,0.095 -0.37576,0.095 -0.72261,0.28491 v -0.70196 q 0.41705,-0.16104 0.80932,-0.23949 0.39228,-0.0826 0.7639,-0.0826 1.0034,0 1.4989,0.52028 0.4955,0.52028 0.4955,1.57735 z" />
        <path
           id="path1506"
           style="font-size:8.45658px;stroke-width:0.775698"
           d="m 134.30448,178.9361 h 0.75978 v 6.42501 h -0.75978 z" />
        <path
           id="path1508"
           style="font-size:8.45658px;stroke-width:0.775698"
           d="m 116.40032,191.30715 h 0.80519 l 1.44522,3.88144 1.44521,-3.88144 h 0.80519 l -1.73425,4.62469 h -1.0323 z" />
        <path
           id="path1510"
           style="font-size:8.45658px;stroke-width:0.775698"
           d="m 124.05171,193.60711 q -0.92081,0 -1.27592,0.21059 -0.35511,0.21059 -0.35511,0.71848 0,0.40466 0.26426,0.64415 0.2684,0.23537 0.72674,0.23537 0.63177,0 1.01165,-0.44596 0.38402,-0.45008 0.38402,-1.19333 v -0.1693 z m 1.51541,-0.31382 v 2.63855 h -0.75977 v -0.70196 q -0.26014,0.42118 -0.64828,0.62351 -0.38815,0.1982 -0.94972,0.1982 -0.71022,0 -1.1314,-0.3964 -0.41704,-0.40053 -0.41704,-1.06946 0,-0.78042 0.52027,-1.17682 0.52441,-0.3964 1.56084,-0.3964 h 1.06533 v -0.0743 q 0,-0.52441 -0.34685,-0.80932 -0.34273,-0.28904 -0.96623,-0.28904 -0.39641,0 -0.77216,0.095 -0.37576,0.095 -0.72261,0.28491 v -0.70196 q 0.41705,-0.16104 0.80932,-0.23949 0.39227,-0.0826 0.7639,-0.0826 1.00339,0 1.4989,0.52028 0.4955,0.52028 0.4955,1.57735 z" />
        <path
           id="path1512"
           style="font-size:8.45658px;stroke-width:0.775698"
           d="m 129.81605,192.01737 q -0.128,-0.0743 -0.28078,-0.10736 -0.14865,-0.0372 -0.33034,-0.0372 -0.64415,0 -0.991,0.42118 -0.34272,0.41705 -0.34272,1.20159 v 2.43622 h -0.7639 v -4.62469 h 0.7639 v 0.71848 q 0.23949,-0.42118 0.6235,-0.62351 0.38402,-0.20646 0.9332,-0.20646 0.0785,0 0.17343,0.0124 0.095,0.008 0.21059,0.0289 z" />
        <path
           id="path1514"
           style="font-size:8.45658px;stroke-width:0.775698"
           d="m 133.56949,191.44342 v 0.71847 q -0.32208,-0.16516 -0.66893,-0.24775 -0.34685,-0.0826 -0.71848,-0.0826 -0.5657,0 -0.85061,0.17342 -0.28079,0.17343 -0.28079,0.52028 0,0.26427 0.20233,0.41705 0.20233,0.14865 0.81345,0.28492 l 0.26014,0.0578 q 0.80932,0.17343 1.14792,0.49138 0.34272,0.31382 0.34272,0.87951 0,0.64416 -0.51202,1.01991 -0.50789,0.37576 -1.3998,0.37576 -0.37162,0 -0.77628,-0.0743 -0.40053,-0.0702 -0.84649,-0.21472 V 194.978 q 0.42118,0.21885 0.82997,0.33034 0.40879,0.10736 0.80932,0.10736 0.5368,0 0.82584,-0.18169 0.28904,-0.18581 0.28904,-0.52028 0,-0.30969 -0.21059,-0.47485 -0.20646,-0.16517 -0.91255,-0.31795 l -0.26427,-0.0619 q -0.70609,-0.14865 -1.0199,-0.45421 -0.31382,-0.30969 -0.31382,-0.84648 0,-0.65242 0.46247,-1.00753 0.46247,-0.35511 1.31308,-0.35511 0.42118,0 0.7928,0.0619 0.37163,0.0619 0.68545,0.18582 z" />
      </g>
      <g
         id="g2248"
         transform="translate(4.5807441,25.961446)">
        <path
           d="m 159.82031,104.39256 v 36.24145 h -5.43653 l 13.59132,13.59055 13.59132,-13.59055 h -5.43653 v -36.24145 z"
           style="fill:url(#linearGradient1254);stroke:url(#linearGradient1260);stroke-width:0.453029;stroke-miterlimit:4;stroke-dasharray:none;stroke-dashoffset:0;stop-color:#000000"
           id="rect2109" />
        <g
           style="font-size:8.45658px;line-height:1.25;font-family:Ree;-inkscape-font-specification:Ree;stroke-width:0.775698"
           id="text2139"
           transform="scale(1.0000285,0.99997152)"
           aria-label="new scope">
          <path
             id="path1517"
             style="font-size:8.45658px;stroke-width:0.775698"
             d="m 183.28298,124.91013 v 2.79133 h -0.75977 v -2.76656 q 0,-0.65654 -0.25601,-0.98274 -0.25601,-0.32621 -0.76803,-0.32621 -0.61525,0 -0.97036,0.39227 -0.35511,0.39228 -0.35511,1.06946 v 2.61378 h -0.7639 v -4.62469 h 0.7639 v 0.71848 q 0.27253,-0.41705 0.64002,-0.62351 0.37163,-0.20646 0.85475,-0.20646 0.79693,0 1.20572,0.4955 0.40879,0.49138 0.40879,1.44935 z" />
          <path
             id="path1519"
             style="font-size:8.45658px;stroke-width:0.775698"
             d="m 188.76241,125.19917 v 0.37163 h -3.49329 q 0.0496,0.78455 0.47073,1.19746 0.4253,0.40879 1.18094,0.40879 0.4377,0 0.84649,-0.10735 0.41292,-0.10736 0.81758,-0.32208 v 0.71848 q -0.40879,0.17342 -0.83823,0.26427 -0.42943,0.0908 -0.87126,0.0908 -1.10662,0 -1.7549,-0.64416 -0.64416,-0.64415 -0.64416,-1.74251 0,-1.13553 0.61112,-1.80033 0.61525,-0.66893 1.65581,-0.66893 0.9332,0 1.47412,0.60286 0.54505,0.59874 0.54505,1.63103 z m -0.75977,-0.22297 q -0.008,-0.62351 -0.35098,-0.99514 -0.33859,-0.37163 -0.90016,-0.37163 -0.6359,0 -1.01991,0.35924 -0.37989,0.35924 -0.4377,1.01166 z" />
          <path
             id="path1521"
             style="font-size:8.45658px;stroke-width:0.775698"
             d="m 189.56761,123.07677 h 0.75977 l 0.94971,3.60891 0.94558,-3.60891 h 0.89604 l 0.94971,3.60891 0.94559,-3.60891 h 0.75977 l -1.20986,4.62469 h -0.89603 l -0.99513,-3.79059 -0.99927,3.79059 h -0.89603 z" />
          <path
             id="path1523"
             style="font-size:8.45658px;stroke-width:0.775698"
             d="m 202.57042,123.21303 v 0.71848 q -0.32207,-0.16517 -0.66893,-0.24775 -0.34685,-0.0826 -0.71847,-0.0826 -0.5657,0 -0.85062,0.17342 -0.28078,0.17343 -0.28078,0.52028 0,0.26427 0.20233,0.41705 0.20233,0.14865 0.81345,0.28491 l 0.26014,0.0578 q 0.80932,0.17343 1.14791,0.49137 0.34272,0.31382 0.34272,0.87952 0,0.64416 -0.51201,1.01991 -0.50789,0.37576 -1.3998,0.37576 -0.37163,0 -0.77629,-0.0743 -0.40053,-0.0702 -0.84648,-0.21471 v -0.78455 q 0.42118,0.21885 0.82997,0.33033 0.40879,0.10736 0.80932,0.10736 0.53679,0 0.82583,-0.18168 0.28905,-0.18581 0.28905,-0.52028 0,-0.30969 -0.21059,-0.47486 -0.20646,-0.16516 -0.91255,-0.31794 l -0.26427,-0.0619 q -0.70609,-0.14865 -1.01991,-0.45421 -0.31382,-0.30969 -0.31382,-0.84649 0,-0.65241 0.46247,-1.00752 0.46247,-0.35511 1.31308,-0.35511 0.42118,0 0.79281,0.0619 0.37163,0.0619 0.68544,0.18581 z" />
          <path
             id="path1525"
             style="font-size:8.45658px;stroke-width:0.775698"
             d="m 207.36028,123.25432 v 0.71023 q -0.32207,-0.17756 -0.64828,-0.26427 -0.32208,-0.0909 -0.65241,-0.0909 -0.73913,0 -1.14792,0.47073 -0.40879,0.4666 -0.40879,1.31308 0,0.84649 0.40879,1.31722 0.40879,0.46659 1.14792,0.46659 0.33033,0 0.65241,-0.0867 0.32621,-0.0908 0.64828,-0.2684 v 0.70197 q -0.31795,0.14865 -0.66067,0.22297 -0.33859,0.0743 -0.72261,0.0743 -1.04468,0 -1.65993,-0.65654 -0.61525,-0.65654 -0.61525,-1.77143 0,-1.13139 0.61938,-1.77968 0.62351,-0.64828 1.70535,-0.64828 0.35099,0 0.68545,0.0743 0.33446,0.0702 0.64828,0.21471 z" />
          <path
             id="path1527"
             style="font-size:8.45658px;stroke-width:0.775698"
             d="m 210.48195,123.60943 q -0.61112,0 -0.96623,0.47899 -0.35511,0.47486 -0.35511,1.30482 0,0.82997 0.35098,1.30896 0.35511,0.47485 0.97036,0.47485 0.60699,0 0.9621,-0.47898 0.35511,-0.47899 0.35511,-1.30483 0,-0.8217 -0.35511,-1.30069 -0.35511,-0.48312 -0.9621,-0.48312 z m 0,-0.64415 q 0.99101,0 1.5567,0.64415 0.5657,0.64416 0.5657,1.78381 0,1.13553 -0.5657,1.78381 -0.56569,0.64416 -1.5567,0.64416 -0.99513,0 -1.56083,-0.64416 -0.56157,-0.64828 -0.56157,-1.78381 0,-1.13965 0.56157,-1.78381 0.5657,-0.64415 1.56083,-0.64415 z" />
          <path
             id="path1529"
             style="font-size:8.45658px;stroke-width:0.775698"
             d="m 214.59462,127.00776 v 2.45274 h -0.7639 v -6.38373 h 0.7639 v 0.70196 q 0.2395,-0.41292 0.60287,-0.61112 0.36749,-0.20233 0.87538,-0.20233 0.84236,0 1.36677,0.66893 0.52853,0.66893 0.52853,1.75903 0,1.09011 -0.52853,1.75904 -0.52441,0.66893 -1.36677,0.66893 -0.50789,0 -0.87538,-0.1982 -0.36337,-0.20233 -0.60287,-0.61525 z m 2.58488,-1.61452 q 0,-0.83822 -0.34686,-1.31308 -0.34272,-0.47898 -0.94558,-0.47898 -0.60286,0 -0.94971,0.47898 -0.34273,0.47486 -0.34273,1.31308 0,0.83823 0.34273,1.31722 0.34685,0.47485 0.94971,0.47485 0.60286,0 0.94558,-0.47485 0.34686,-0.47899 0.34686,-1.31722 z" />
          <path
             id="path1531"
             style="font-size:8.45658px;stroke-width:0.775698"
             d="m 223.18334,125.19917 v 0.37163 h -3.4933 q 0.0495,0.78455 0.47073,1.19746 0.42531,0.40879 1.18095,0.40879 0.43769,0 0.84648,-0.10735 0.41292,-0.10736 0.81758,-0.32208 v 0.71848 q -0.40879,0.17342 -0.83822,0.26427 -0.42944,0.0908 -0.87126,0.0908 -1.10662,0 -1.75491,-0.64416 -0.64415,-0.64415 -0.64415,-1.74251 0,-1.13553 0.61112,-1.80033 0.61525,-0.66893 1.6558,-0.66893 0.9332,0 1.47413,0.60286 0.54505,0.59874 0.54505,1.63103 z m -0.75977,-0.22297 q -0.008,-0.62351 -0.35098,-0.99514 -0.3386,-0.37163 -0.90017,-0.37163 -0.63589,0 -1.01991,0.35924 -0.37988,0.35924 -0.43769,1.01166 z" />
        </g>
      </g>
      <g
         id="g2253"
         transform="translate(1.8624841,7.7148295)">
        <path
           id="path2141"
           style="fill:url(#linearGradient1254);stroke:url(#linearGradient1260);stroke-width:0.453029;stroke-miterlimit:4;stroke-dasharray:none;stroke-dashoffset:0;stop-color:#000000"
           d="m 162.53857,267.4791 v 36.24145 h -5.43653 l 13.59132,13.59055 13.59132,-13.59055 h -5.43653 V 267.4791 Z" />
        <g
           style="font-size:8.45658px;line-height:1.25;font-family:Ree;-inkscape-font-specification:Ree;stroke-width:0.775698"
           id="text2145"
           transform="scale(1.0000285,0.99997151)"
           aria-label="return from scope">
          <path
             id="path1534"
             style="font-size:8.45658px;stroke-width:0.775698"
             d="m 184.83673,286.87819 q -0.128,-0.0743 -0.28078,-0.10736 -0.14865,-0.0372 -0.33034,-0.0372 -0.64415,0 -0.991,0.42118 -0.34273,0.41705 -0.34273,1.20159 v 2.43622 h -0.7639 v -4.62469 h 0.7639 v 0.71848 q 0.2395,-0.42118 0.62351,-0.62351 0.38402,-0.20646 0.9332,-0.20646 0.0785,0 0.17342,0.0124 0.095,0.008 0.21059,0.0289 z" />
          <path
             id="path1536"
             style="font-size:8.45658px;stroke-width:0.775698"
             d="m 189.416,288.29037 v 0.37163 h -3.49329 q 0.0496,0.78455 0.47073,1.19747 0.4253,0.40879 1.18095,0.40879 0.43769,0 0.84648,-0.10736 0.41292,-0.10736 0.81758,-0.32208 v 0.71848 q -0.40879,0.17343 -0.83823,0.26427 -0.42943,0.0908 -0.87126,0.0908 -1.10662,0 -1.7549,-0.64415 -0.64416,-0.64416 -0.64416,-1.74252 0,-1.13553 0.61112,-1.80033 0.61525,-0.66893 1.65581,-0.66893 0.9332,0 1.47412,0.60286 0.54505,0.59874 0.54505,1.63103 z m -0.75977,-0.22297 q -0.008,-0.62351 -0.35098,-0.99514 -0.33859,-0.37162 -0.90016,-0.37162 -0.6359,0 -1.01991,0.35924 -0.37989,0.35924 -0.4377,1.01165 z" />
          <path
             id="path1538"
             style="font-size:8.45658px;stroke-width:0.775698"
             d="m 191.41453,284.85489 v 1.31308 h 1.56496 v 0.59048 h -1.56496 v 2.51054 q 0,0.5657 0.15278,0.72674 0.15691,0.16104 0.63177,0.16104 h 0.78041 v 0.63589 h -0.78041 q -0.87952,0 -1.21398,-0.3262 -0.33447,-0.33034 -0.33447,-1.19747 v -2.51054 h -0.55744 v -0.59048 h 0.55744 v -1.31308 z" />
          <path
             id="path1540"
             style="font-size:8.45658px;stroke-width:0.775698"
             d="m 193.90443,288.96756 v -2.79959 h 0.75977 v 2.77069 q 0,0.65654 0.25601,0.98687 0.25601,0.32621 0.76803,0.32621 0.61525,0 0.97036,-0.39227 0.35924,-0.39228 0.35924,-1.06946 v -2.62204 h 0.75977 v 4.62469 h -0.75977 v -0.71022 q -0.27665,0.42118 -0.64415,0.62764 -0.36337,0.20233 -0.84649,0.20233 -0.79693,0 -1.20985,-0.4955 -0.41292,-0.49551 -0.41292,-1.44935 z m 1.91182,-2.91108 z" />
          <path
             id="path1542"
             style="font-size:8.45658px;stroke-width:0.775698"
             d="m 202.03068,286.87819 q -0.12801,-0.0743 -0.28079,-0.10736 -0.14865,-0.0372 -0.33033,-0.0372 -0.64416,0 -0.99101,0.42118 -0.34272,0.41705 -0.34272,1.20159 v 2.43622 h -0.7639 v -4.62469 h 0.7639 v 0.71848 q 0.23949,-0.42118 0.62351,-0.62351 0.38401,-0.20646 0.93319,-0.20646 0.0785,0 0.17343,0.0124 0.095,0.008 0.21059,0.0289 z" />
          <path
             id="path1544"
             style="font-size:8.45658px;stroke-width:0.775698"
             d="m 206.53149,288.00133 v 2.79133 h -0.75977 v -2.76655 q 0,-0.65654 -0.25601,-0.98275 -0.25601,-0.32621 -0.76803,-0.32621 -0.61524,0 -0.97035,0.39228 -0.35512,0.39227 -0.35512,1.06946 v 2.61377 h -0.7639 v -4.62469 h 0.7639 v 0.71848 q 0.27253,-0.41705 0.64003,-0.62351 0.37163,-0.20646 0.85474,-0.20646 0.79693,0 1.20572,0.49551 0.40879,0.49137 0.40879,1.44934 z" />
          <path
             id="path1546"
             style="font-size:8.45658px;stroke-width:0.775698"
             d="m 213.08865,284.36764 v 0.63177 h -0.72674 q -0.40879,0 -0.56983,0.16517 -0.15691,0.16517 -0.15691,0.5946 v 0.40879 h 1.25115 v 0.59048 h -1.25115 v 4.03421 h -0.7639 v -4.03421 h -0.72673 v -0.59048 h 0.72673 v -0.32208 q 0,-0.77215 0.35924,-1.12314 0.35924,-0.35511 1.13966,-0.35511 z" />
          <path
             id="path1548"
             style="font-size:8.45658px;stroke-width:0.775698"
             d="m 216.40026,286.87819 q -0.12801,-0.0743 -0.28079,-0.10736 -0.14865,-0.0372 -0.33033,-0.0372 -0.64416,0 -0.99101,0.42118 -0.34272,0.41705 -0.34272,1.20159 v 2.43622 h -0.7639 v -4.62469 h 0.7639 v 0.71848 q 0.23949,-0.42118 0.62351,-0.62351 0.38401,-0.20646 0.93319,-0.20646 0.0785,0 0.17343,0.0124 0.095,0.008 0.21059,0.0289 z" />
          <path
             id="path1550"
             style="font-size:8.45658px;stroke-width:0.775698"
             d="m 218.81584,286.70064 q -0.61112,0 -0.96624,0.47898 -0.35511,0.47486 -0.35511,1.30483 0,0.82996 0.35099,1.30895 0.35511,0.47486 0.97036,0.47486 0.60699,0 0.9621,-0.47899 0.35511,-0.47899 0.35511,-1.30482 0,-0.82171 -0.35511,-1.3007 -0.35511,-0.48311 -0.9621,-0.48311 z m 0,-0.64416 q 0.991,0 1.5567,0.64416 0.5657,0.64415 0.5657,1.78381 0,1.13552 -0.5657,1.78381 -0.5657,0.64415 -1.5567,0.64415 -0.99514,0 -1.56084,-0.64415 -0.56157,-0.64829 -0.56157,-1.78381 0,-1.13966 0.56157,-1.78381 0.5657,-0.64416 1.56084,-0.64416 z" />
          <path
             id="path1552"
             style="font-size:8.45658px;stroke-width:0.775698"
             d="m 225.79416,287.05575 q 0.28492,-0.51202 0.68132,-0.75564 0.3964,-0.24363 0.9332,-0.24363 0.7226,0 1.11488,0.50789 0.39227,0.50376 0.39227,1.43696 v 2.79133 h -0.7639 v -2.76655 q 0,-0.6648 -0.23536,-0.98688 -0.23537,-0.32208 -0.71848,-0.32208 -0.59048,0 -0.9332,0.39228 -0.34272,0.39227 -0.34272,1.06946 v 2.61377 h -0.7639 v -2.76655 q 0,-0.66893 -0.23537,-0.98688 -0.23536,-0.32208 -0.72673,-0.32208 -0.58222,0 -0.92494,0.39641 -0.34272,0.39227 -0.34272,1.06533 v 2.61377 h -0.7639 v -4.62469 h 0.7639 v 0.71848 q 0.26013,-0.42531 0.6235,-0.62764 0.36337,-0.20233 0.863,-0.20233 0.50376,0 0.85475,0.25601 0.35511,0.25601 0.5244,0.74326 z" />
          <path
             id="path1554"
             style="font-size:8.45658px;stroke-width:0.775698"
             d="m 236.07585,286.30423 v 0.71848 q -0.32208,-0.16516 -0.66893,-0.24775 -0.34685,-0.0826 -0.71848,-0.0826 -0.5657,0 -0.85061,0.17342 -0.28079,0.17343 -0.28079,0.52028 0,0.26427 0.20233,0.41705 0.20233,0.14865 0.81345,0.28491 l 0.26014,0.0578 q 0.80932,0.17343 1.14792,0.49138 0.34272,0.31382 0.34272,0.87951 0,0.64416 -0.51202,1.01991 -0.50789,0.37576 -1.3998,0.37576 -0.37162,0 -0.77628,-0.0743 -0.40053,-0.0702 -0.84649,-0.21471 v -0.78455 q 0.42118,0.21885 0.82997,0.33034 0.40879,0.10735 0.80932,0.10735 0.5368,0 0.82584,-0.18168 0.28904,-0.18581 0.28904,-0.52028 0,-0.30969 -0.21059,-0.47485 -0.20646,-0.16517 -0.91255,-0.31795 l -0.26427,-0.0619 q -0.70609,-0.14865 -1.0199,-0.45421 -0.31382,-0.30969 -0.31382,-0.84648 0,-0.65242 0.46247,-1.00753 0.46247,-0.35511 1.31308,-0.35511 0.42118,0 0.7928,0.0619 0.37163,0.0619 0.68545,0.18581 z" />
          <path
             id="path1556"
             style="font-size:8.45658px;stroke-width:0.775698"
             d="m 240.86571,286.34553 v 0.71022 q -0.32208,-0.17756 -0.64829,-0.26427 -0.32207,-0.0908 -0.65241,-0.0908 -0.73912,0 -1.14791,0.47072 -0.40879,0.4666 -0.40879,1.31309 0,0.84648 0.40879,1.31721 0.40879,0.4666 1.14791,0.4666 0.33034,0 0.65241,-0.0867 0.32621,-0.0908 0.64829,-0.26839 v 0.70196 q -0.31795,0.14865 -0.66067,0.22297 -0.3386,0.0743 -0.72261,0.0743 -1.04469,0 -1.65994,-0.65654 -0.61525,-0.65654 -0.61525,-1.77142 0,-1.1314 0.61938,-1.77968 0.62351,-0.64829 1.70536,-0.64829 0.35098,0 0.68544,0.0743 0.33447,0.0702 0.64829,0.21472 z" />
          <path
             id="path1558"
             style="font-size:8.45658px;stroke-width:0.775698"
             d="m 243.98737,286.70064 q -0.61112,0 -0.96623,0.47898 -0.35511,0.47486 -0.35511,1.30483 0,0.82996 0.35098,1.30895 0.35512,0.47486 0.97036,0.47486 0.607,0 0.96211,-0.47899 0.35511,-0.47899 0.35511,-1.30482 0,-0.82171 -0.35511,-1.3007 -0.35511,-0.48311 -0.96211,-0.48311 z m 0,-0.64416 q 0.99101,0 1.55671,0.64416 0.5657,0.64415 0.5657,1.78381 0,1.13552 -0.5657,1.78381 -0.5657,0.64415 -1.55671,0.64415 -0.99513,0 -1.56083,-0.64415 -0.56157,-0.64829 -0.56157,-1.78381 0,-1.13966 0.56157,-1.78381 0.5657,-0.64416 1.56083,-0.64416 z" />
          <path
             id="path1560"
             style="font-size:8.45658px;stroke-width:0.775698"
             d="m 248.10004,290.09896 v 2.45274 h -0.7639 v -6.38373 h 0.7639 v 0.70196 q 0.2395,-0.41292 0.60287,-0.61112 0.36749,-0.20233 0.87538,-0.20233 0.84236,0 1.36677,0.66893 0.52853,0.66893 0.52853,1.75904 0,1.0901 -0.52853,1.75903 -0.52441,0.66893 -1.36677,0.66893 -0.50789,0 -0.87538,-0.1982 -0.36337,-0.20233 -0.60287,-0.61525 z m 2.58488,-1.61451 q 0,-0.83823 -0.34685,-1.31309 -0.34273,-0.47898 -0.94559,-0.47898 -0.60286,0 -0.94971,0.47898 -0.34273,0.47486 -0.34273,1.31309 0,0.83822 0.34273,1.31721 0.34685,0.47485 0.94971,0.47485 0.60286,0 0.94559,-0.47485 0.34685,-0.47899 0.34685,-1.31721 z" />
          <path
             id="path1562"
             style="font-size:8.45658px;stroke-width:0.775698"
             d="m 256.68876,288.29037 v 0.37163 h -3.49329 q 0.0496,0.78455 0.47073,1.19747 0.4253,0.40879 1.18094,0.40879 0.4377,0 0.84649,-0.10736 0.41292,-0.10736 0.81758,-0.32208 v 0.71848 q -0.40879,0.17343 -0.83823,0.26427 -0.42943,0.0908 -0.87126,0.0908 -1.10662,0 -1.7549,-0.64415 -0.64416,-0.64416 -0.64416,-1.74252 0,-1.13553 0.61112,-1.80033 0.61525,-0.66893 1.65581,-0.66893 0.9332,0 1.47412,0.60286 0.54505,0.59874 0.54505,1.63103 z m -0.75977,-0.22297 q -0.008,-0.62351 -0.35098,-0.99514 -0.33859,-0.37162 -0.90016,-0.37162 -0.6359,0 -1.01991,0.35924 -0.37989,0.35924 -0.4377,1.01165 z" />
        </g>
      </g>
      <rect
         y="328.63651"
         x="145.28964"
         height="47.56691"
         width="53.492443"
         id="rect2153"
         style="fill:url(#linearGradient1236);stroke:url(#linearGradient1260);stroke-width:0.684897;stroke-miterlimit:4;stroke-dasharray:none;stroke-dashoffset:0;stop-color:#000000" />
      <g
         transform="translate(0,283.13632)"
         id="g2161">
        <path
           style="fill:none;stroke:#000000;stroke-width:0.453031;stroke-linecap:butt;stroke-linejoin:miter;stroke-miterlimit:4;stroke-dasharray:0.906062, 0.453031;stroke-dashoffset:0;stroke-opacity:1;marker-start:url(#marker2179)"
           d="m 92.316762,93.067108 c 0,24.916002 0,24.916002 0,24.916002"
           id="path2155" />
        <g
           style="font-size:9.66466px;line-height:1.25;font-family:Ree;-inkscape-font-specification:Ree;stroke-width:0.775698"
           id="text2159"
           transform="scale(1.0000285,0.99997151)"
           aria-label="stack pointer">
          <path
             id="path1565"
             style="font-size:9.66466px;stroke-width:0.775698"
             d="m 64.050703,123.31521 v 0.82112 q -0.368088,-0.18877 -0.76449,-0.28315 -0.396402,-0.0944 -0.821119,-0.0944 -0.646513,0 -0.972129,0.1982 -0.320896,0.1982 -0.320896,0.5946 0,0.30203 0.231234,0.47663 0.231235,0.16989 0.929657,0.32562 l 0.297302,0.0661 q 0.924938,0.19821 1.311902,0.56157 0.391683,0.35865 0.391683,1.00517 0,0.73617 -0.585165,1.16561 -0.580446,0.42943 -1.599765,0.42943 -0.424717,0 -0.887186,-0.0849 -0.45775,-0.0802 -0.96741,-0.24539 v -0.89663 q 0.481345,0.25011 0.948534,0.37753 0.467188,0.1227 0.924938,0.1227 0.613479,0 0.943814,-0.20764 0.330335,-0.21236 0.330335,-0.59461 0,-0.35393 -0.240672,-0.54269 -0.235954,-0.18876 -1.042915,-0.36337 l -0.302021,-0.0708 q -0.806961,-0.16989 -1.165611,-0.5191 -0.358649,-0.35393 -0.358649,-0.96741 0,-0.74562 0.528536,-1.15146 0.528536,-0.40584 1.500665,-0.40584 0.481345,0 0.906062,0.0708 0.424716,0.0708 0.783366,0.21236 z" />
          <path
             id="path1567"
             style="font-size:9.66466px;stroke-width:0.775698"
             d="m 66.580126,121.65881 v 1.50067 h 1.788528 v 0.67483 h -1.788528 v 2.86919 q 0,0.64651 0.174605,0.83056 0.179325,0.18404 0.722018,0.18404 h 0.891905 v 0.72674 h -0.891905 q -1.005162,0 -1.387407,-0.37281 -0.382245,-0.37752 -0.382245,-1.36853 v -2.86919 h -0.637075 v -0.67483 h 0.637075 v -1.50067 z" />
          <path
             id="path1569"
             style="font-size:9.66466px;stroke-width:0.775698"
             d="m 71.917396,125.788 q -1.052353,0 -1.458193,0.24067 -0.40584,0.24068 -0.40584,0.82112 0,0.46247 0.30202,0.73618 0.30674,0.26899 0.830557,0.26899 0.722018,0 1.156173,-0.50966 0.438874,-0.51438 0.438874,-1.36382 V 125.788 Z m 1.7319,-0.35865 v 3.01549 h -0.868309 v -0.80224 q -0.297302,0.48134 -0.740895,0.71258 -0.443592,0.22651 -1.085386,0.22651 -0.811681,0 -1.293026,-0.45303 -0.476627,-0.45775 -0.476627,-1.22224 0,-0.8919 0.594604,-1.34493 0.599322,-0.45303 1.783809,-0.45303 h 1.217521 v -0.0849 q 0,-0.59932 -0.396402,-0.92494 -0.391683,-0.33033 -1.104263,-0.33033 -0.453031,0 -0.882467,0.10854 -0.429435,0.10854 -0.825838,0.32561 v -0.80224 q 0.476627,-0.18404 0.924939,-0.27371 0.448312,-0.0944 0.873028,-0.0944 1.146735,0 1.713023,0.59461 0.566289,0.5946 0.566289,1.80268 z" />
          <path
             id="path1571"
             style="font-size:9.66466px;stroke-width:0.775698"
             d="m 79.246116,123.3624 v 0.81168 q -0.368087,-0.20292 -0.740894,-0.30202 -0.368088,-0.10382 -0.745613,-0.10382 -0.844714,0 -1.311902,0.53797 -0.467189,0.53326 -0.467189,1.50067 0,0.96741 0.467189,1.50538 0.467188,0.53326 1.311902,0.53326 0.377525,0 0.745613,-0.0991 0.372807,-0.10382 0.740894,-0.30674 v 0.80224 q -0.363368,0.16989 -0.755051,0.25483 -0.386964,0.0849 -0.825838,0.0849 -1.193925,0 -1.897067,-0.75033 -0.703142,-0.75033 -0.703142,-2.02448 0,-1.29303 0.707861,-2.03392 0.71258,-0.7409 1.948977,-0.7409 0.401121,0 0.783366,0.0849 0.382245,0.0802 0.740894,0.24539 z" />
          <path
             id="path1573"
             style="font-size:9.66466px;stroke-width:0.775698"
             d="m 80.732625,121.10196 h 0.873028 v 4.33683 l 2.590771,-2.27931 h 1.108982 l -2.803129,2.47279 2.921106,2.81257 h -1.132577 l -2.685153,-2.58133 v 2.58133 h -0.873028 z" />
          <path
             id="path1575"
             style="font-size:9.66466px;stroke-width:0.775698"
             d="m 90.288745,127.65204 v 2.80312 h -0.873028 v -7.29568 h 0.873028 v 0.80224 q 0.273707,-0.47191 0.688985,-0.69842 0.419998,-0.23124 1.000443,-0.23124 0.962691,0 1.562013,0.76449 0.604042,0.76449 0.604042,2.01033 0,1.24583 -0.604042,2.01032 -0.599322,0.76449 -1.562013,0.76449 -0.580445,0 -1.000443,-0.22651 -0.415278,-0.23124 -0.688985,-0.70314 z m 2.95414,-1.84516 q 0,-0.95797 -0.396402,-1.50067 -0.391683,-0.54741 -1.080668,-0.54741 -0.688984,0 -1.085387,0.54741 -0.391683,0.5427 -0.391683,1.50067 0,0.95797 0.391683,1.50538 0.396403,0.5427 1.085387,0.5427 0.688985,0 1.080668,-0.5427 0.396402,-0.54741 0.396402,-1.50538 z" />
          <path
             id="path1577"
             style="font-size:9.66466px;stroke-width:0.775698"
             d="m 97.631622,123.76824 q -0.698422,0 -1.104263,0.54741 -0.40584,0.54269 -0.40584,1.49123 0,0.94853 0.401121,1.49594 0.40584,0.5427 1.108982,0.5427 0.693704,0 1.099544,-0.54742 0.40584,-0.54741 0.40584,-1.49122 0,-0.9391 -0.40584,-1.48651 -0.40584,-0.55213 -1.099544,-0.55213 z m 0,-0.73618 q 1.132578,0 1.779091,0.73618 0.646517,0.73617 0.646517,2.03864 0,1.29774 -0.646517,2.03864 -0.646513,0.73617 -1.779091,0.73617 -1.137296,0 -1.783809,-0.73617 -0.641794,-0.7409 -0.641794,-2.03864 0,-1.30247 0.641794,-2.03864 0.646513,-0.73618 1.783809,-0.73618 z" />
          <path
             id="path1579"
             style="font-size:9.66466px;stroke-width:0.775698"
             d="m 101.49182,123.15948 h 0.86831 v 5.28536 h -0.86831 z m 0,-2.05752 h 0.86831 v 1.09955 h -0.86831 z" />
          <path
             id="path1581"
             style="font-size:9.66466px;stroke-width:0.775698"
             d="m 108.56571,125.25475 v 3.19009 h -0.86831 v -3.16178 q 0,-0.75033 -0.29258,-1.12314 -0.29258,-0.37281 -0.87775,-0.37281 -0.70314,0 -1.10898,0.44832 -0.40584,0.44831 -0.40584,1.22224 v 2.98717 h -0.87303 v -5.28536 h 0.87303 v 0.82112 q 0.31146,-0.47663 0.73146,-0.71258 0.42471,-0.23596 0.97684,-0.23596 0.91079,0 1.37797,0.56629 0.46719,0.56157 0.46719,1.6564 z" />
          <path
             id="path1583"
             style="font-size:9.66466px;stroke-width:0.775698"
             d="m 111.16592,121.65881 v 1.50067 h 1.78853 v 0.67483 h -1.78853 v 2.86919 q 0,0.64651 0.17461,0.83056 0.17932,0.18404 0.72202,0.18404 h 0.8919 v 0.72674 h -0.8919 q -1.00517,0 -1.38741,-0.37281 -0.38225,-0.37752 -0.38225,-1.36853 v -2.86919 h -0.63707 v -0.67483 h 0.63707 v -1.50067 z" />
          <path
             id="path1585"
             style="font-size:9.66466px;stroke-width:0.775698"
             d="m 118.62206,125.58508 v 0.42472 h -3.99234 q 0.0566,0.89662 0.53797,1.36853 0.48607,0.46719 1.34966,0.46719 0.50022,0 0.96741,-0.1227 0.47191,-0.12269 0.93438,-0.36809 v 0.82112 q -0.46719,0.1982 -0.95798,0.30202 -0.49078,0.10382 -0.99572,0.10382 -1.26471,0 -2.00561,-0.73617 -0.73617,-0.73618 -0.73617,-1.99145 0,-1.29775 0.69842,-2.05752 0.70314,-0.76449 1.89235,-0.76449 1.06651,0 1.68471,0.68899 0.62292,0.68426 0.62292,1.86403 z m -0.86831,-0.25483 q -0.009,-0.71258 -0.40113,-1.13729 -0.38696,-0.42472 -1.02875,-0.42472 -0.72674,0 -1.16561,0.41056 -0.43416,0.41056 -0.50023,1.15617 z" />
          <path
             id="path1587"
             style="font-size:9.66466px;stroke-width:0.775698"
             d="m 123.1099,123.97116 q -0.1463,-0.0849 -0.3209,-0.1227 -0.16989,-0.0425 -0.37753,-0.0425 -0.73617,0 -1.13257,0.48135 -0.39169,0.47662 -0.39169,1.37325 v 2.78425 h -0.87303 v -5.28536 h 0.87303 v 0.82112 q 0.27371,-0.48135 0.71258,-0.71258 0.43888,-0.23596 1.06651,-0.23596 0.0897,0 0.1982,0.0142 0.10854,0.009 0.24068,0.033 z" />
        </g>
      </g>
      <g
         transform="translate(0,283.13632)"
         id="g2169">
        <rect
           style="fill:url(#linearGradient1242);stroke:url(#linearGradient1260);stroke-width:0.684897;stroke-miterlimit:4;stroke-dasharray:none;stroke-dashoffset:0;stop-color:#000000"
           id="rect2163"
           width="67.956589"
           height="47.566906"
           x="24.36017"
           y="45.500202" />
        <g
           style="font-size:8.45658px;line-height:1.25;font-family:Ree;-inkscape-font-specification:Ree;stroke-width:0.775698"
           id="text2167"
           transform="scale(1.0000285,0.99997151)"
           aria-label="used">
          <path
             id="path1590"
             style="font-size:8.45658px;stroke-width:0.775698"
             d="m 48.905735,70.613161 v -2.79959 h 0.759771 v 2.770686 q 0,0.656541 0.256009,0.986876 0.25601,0.326206 0.76803,0.326206 0.615249,0 0.970359,-0.392273 0.35924,-0.392273 0.35924,-1.06946 v -2.622035 h 0.759771 v 4.624692 h -0.759771 v -0.710221 q -0.276656,0.421178 -0.644154,0.627637 -0.363369,0.20233 -0.846484,0.20233 -0.796933,0 -1.209852,-0.495502 -0.412919,-0.495503 -0.412919,-1.449346 z m 1.911815,-2.911078 z" />
          <path
             id="path1592"
             style="font-size:8.45658px;stroke-width:0.775698"
             d="m 57.300377,67.949834 v 0.718479 q -0.322076,-0.165168 -0.668928,-0.247751 -0.346852,-0.08258 -0.718479,-0.08258 -0.565699,0 -0.850613,0.173426 -0.280785,0.173426 -0.280785,0.520278 0,0.264268 0.20233,0.417048 0.20233,0.148651 0.81345,0.284914 l 0.260139,0.05781 q 0.809321,0.173426 1.147915,0.491374 0.342723,0.313818 0.342723,0.879517 0,0.644154 -0.51202,1.01991 -0.50789,0.375756 -1.399795,0.375756 -0.371627,0 -0.776288,-0.07433 -0.400531,-0.0702 -0.846483,-0.214718 V 71.48442 q 0.421177,0.218847 0.829967,0.330335 0.408789,0.107359 0.809321,0.107359 0.536794,0 0.825838,-0.181684 0.289043,-0.185814 0.289043,-0.520278 0,-0.309689 -0.210589,-0.474857 -0.206459,-0.165167 -0.912551,-0.317947 l -0.264268,-0.06194 q -0.706091,-0.148651 -1.01991,-0.454211 -0.313818,-0.309689 -0.313818,-0.846484 0,-0.652412 0.462469,-1.007522 0.462469,-0.35511 1.313083,-0.35511 0.421177,0 0.792804,0.06194 0.371627,0.06194 0.685445,0.185813 z" />
          <path
             id="path1594"
             style="font-size:8.45658px;stroke-width:0.775698"
             d="m 62.717875,69.935974 v 0.371627 H 59.22458 q 0.04955,0.784546 0.470728,1.197465 0.425306,0.40879 1.180948,0.40879 0.437694,0 0.846484,-0.107359 0.412919,-0.107359 0.81758,-0.322077 v 0.718479 q -0.40879,0.173426 -0.838226,0.264268 -0.429436,0.09084 -0.871259,0.09084 -1.106623,0 -1.754905,-0.644153 -0.644154,-0.644154 -0.644154,-1.742518 0,-1.135527 0.61112,-1.800327 0.615249,-0.668928 1.655805,-0.668928 0.933197,0 1.474121,0.602861 0.545053,0.598733 0.545053,1.63103 z m -0.759771,-0.222976 q -0.0083,-0.623508 -0.350981,-0.995135 -0.338594,-0.371627 -0.900164,-0.371627 -0.635895,0 -1.019909,0.35924 -0.379886,0.359239 -0.437695,1.011651 z" />
          <path
             id="path1596"
             style="font-size:8.45658px;stroke-width:0.775698"
             d="m 67.008102,68.515533 v -2.502289 h 0.759771 v 6.425019 h -0.759771 v -0.693704 q -0.239493,0.412919 -0.606991,0.615249 -0.363369,0.198201 -0.875388,0.198201 -0.838226,0 -1.366762,-0.668928 -0.524407,-0.668929 -0.524407,-1.759035 0,-1.090106 0.524407,-1.759035 0.528536,-0.668928 1.366762,-0.668928 0.512019,0 0.875388,0.20233 0.367498,0.198201 0.606991,0.61112 z M 64.4191,70.130046 q 0,0.838225 0.342723,1.317211 0.346851,0.474857 0.949713,0.474857 0.602862,0 0.949714,-0.474857 0.346852,-0.478986 0.346852,-1.317211 0,-0.838225 -0.346852,-1.313082 -0.346852,-0.478986 -0.949714,-0.478986 -0.602862,0 -0.949713,0.478986 -0.342723,0.474857 -0.342723,1.313082 z" />
        </g>
      </g>
      <g
         style="font-size:8.45658px;line-height:1.25;font-family:Ree;-inkscape-font-specification:Ree;stroke-width:0.775698"
         id="text2173"
         transform="scale(1.0000285,0.99997151)"
         aria-label="free">
        <path
           id="path1599"
           style="font-size:8.45658px;stroke-width:0.775698"
           d="m 166.95619,349.15762 v 0.63177 h -0.72673 q -0.40879,0 -0.56983,0.16517 -0.15691,0.16516 -0.15691,0.5946 v 0.40879 h 1.25114 v 0.59047 h -1.25114 v 4.03422 h -0.7639 v -4.03422 h -0.72674 v -0.59047 h 0.72674 v -0.32208 q 0,-0.77216 0.35924,-1.12314 0.35924,-0.35511 1.13965,-0.35511 z" />
        <path
           id="path1601"
           style="font-size:8.45658px;stroke-width:0.775698"
           d="m 170.2678,351.66817 q -0.128,-0.0743 -0.28078,-0.10736 -0.14865,-0.0372 -0.33034,-0.0372 -0.64415,0 -0.991,0.42118 -0.34273,0.41704 -0.34273,1.20159 v 2.43622 h -0.7639 v -4.62469 h 0.7639 v 0.71848 q 0.2395,-0.42118 0.62351,-0.62351 0.38402,-0.20646 0.9332,-0.20646 0.0785,0 0.17342,0.0124 0.095,0.008 0.21059,0.0289 z" />
        <path
           id="path1603"
           style="font-size:8.45658px;stroke-width:0.775698"
           d="m 174.84707,353.08035 v 0.37163 h -3.49329 q 0.0496,0.78455 0.47073,1.19746 0.4253,0.40879 1.18095,0.40879 0.43769,0 0.84648,-0.10735 0.41292,-0.10736 0.81758,-0.32208 v 0.71848 q -0.40879,0.17342 -0.83823,0.26427 -0.42943,0.0908 -0.87126,0.0908 -1.10662,0 -1.7549,-0.64416 -0.64416,-0.64415 -0.64416,-1.74251 0,-1.13553 0.61113,-1.80033 0.61524,-0.66893 1.6558,-0.66893 0.9332,0 1.47412,0.60286 0.54505,0.59874 0.54505,1.63103 z m -0.75977,-0.22297 q -0.008,-0.62351 -0.35098,-0.99514 -0.33859,-0.37163 -0.90016,-0.37163 -0.6359,0 -1.01991,0.35924 -0.37989,0.35924 -0.4377,1.01166 z" />
        <path
           id="path1605"
           style="font-size:8.45658px;stroke-width:0.775698"
           d="m 180.04985,353.08035 v 0.37163 h -3.49329 q 0.0496,0.78455 0.47073,1.19746 0.4253,0.40879 1.18094,0.40879 0.4377,0 0.84649,-0.10735 0.41292,-0.10736 0.81758,-0.32208 v 0.71848 q -0.40879,0.17342 -0.83823,0.26427 -0.42943,0.0908 -0.87126,0.0908 -1.10662,0 -1.7549,-0.64416 -0.64416,-0.64415 -0.64416,-1.74251 0,-1.13553 0.61112,-1.80033 0.61525,-0.66893 1.65581,-0.66893 0.9332,0 1.47412,0.60286 0.54505,0.59874 0.54505,1.63103 z m -0.75977,-0.22297 q -0.008,-0.62351 -0.35098,-0.99514 -0.33859,-0.37163 -0.90016,-0.37163 -0.6359,0 -1.01991,0.35924 -0.37989,0.35924 -0.4377,1.01166 z" />
      </g>
      <rect
         y="328.63651"
         x="92.316757"
         height="47.566906"
         width="52.972893"
         id="rect1362"
         style="fill:none;stroke:url(#linearGradient1260);stroke-width:0.684897;stroke-miterlimit:4;stroke-dasharray:none;stroke-dashoffset:0;stop-color:#000000" />
      <g
         style="font-size:8.45658px;line-height:1.25;font-family:Ree;-inkscape-font-specification:Ree;white-space:pre;inline-size:46.4667;stroke-width:0.775698"
         id="text1372"
         transform="matrix(1.0000285,0,0,0.99997154,-18.275873,170.21667)"
         aria-label="reclaimed">
        <path
           id="path1608"
           style="font-size:8.45658px;stroke-width:0.775698"
           d="m 119.62522,181.44664 q -0.12801,-0.0743 -0.28079,-0.10736 -0.14865,-0.0372 -0.33033,-0.0372 -0.64416,0 -0.99101,0.42118 -0.34272,0.41705 -0.34272,1.20159 v 2.43622 h -0.7639 v -4.62469 h 0.7639 v 0.71848 q 0.23949,-0.42118 0.6235,-0.62351 0.38402,-0.20646 0.9332,-0.20646 0.0785,0 0.17343,0.0124 0.095,0.008 0.21059,0.0289 z" />
        <path
           id="path1610"
           style="font-size:8.45658px;stroke-width:0.775698"
           d="m 124.20449,182.85883 v 0.37162 h -3.4933 q 0.0495,0.78455 0.47073,1.19747 0.42531,0.40879 1.18095,0.40879 0.43769,0 0.84648,-0.10736 0.41292,-0.10736 0.81758,-0.32208 v 0.71848 q -0.40879,0.17343 -0.83822,0.26427 -0.42944,0.0908 -0.87126,0.0908 -1.10663,0 -1.75491,-0.64415 -0.64415,-0.64416 -0.64415,-1.74252 0,-1.13553 0.61112,-1.80033 0.61525,-0.66893 1.6558,-0.66893 0.9332,0 1.47412,0.60287 0.54506,0.59873 0.54506,1.63103 z m -0.75977,-0.22298 q -0.008,-0.62351 -0.35099,-0.99514 -0.33859,-0.37162 -0.90016,-0.37162 -0.63589,0 -1.01991,0.35924 -0.37988,0.35924 -0.43769,1.01165 z" />
        <path
           id="path1612"
           style="font-size:8.45658px;stroke-width:0.775698"
           d="m 128.77963,180.91398 v 0.71022 q -0.32208,-0.17756 -0.64828,-0.26427 -0.32208,-0.0908 -0.65242,-0.0908 -0.73912,0 -1.14791,0.47073 -0.40879,0.46659 -0.40879,1.31308 0,0.84648 0.40879,1.31721 0.40879,0.4666 1.14791,0.4666 0.33034,0 0.65242,-0.0867 0.3262,-0.0908 0.64828,-0.26839 v 0.70196 q -0.31795,0.14865 -0.66067,0.22298 -0.3386,0.0743 -0.72261,0.0743 -1.04469,0 -1.65993,-0.65654 -0.61525,-0.65654 -0.61525,-1.77142 0,-1.1314 0.61937,-1.77968 0.62351,-0.64829 1.70536,-0.64829 0.35098,0 0.68545,0.0743 0.33446,0.0702 0.64828,0.21472 z" />
        <path
           id="path1614"
           style="font-size:8.45658px;stroke-width:0.775698"
           d="m 130.10923,178.9361 h 0.75977 v 6.42501 h -0.75977 z" />
        <path
           id="path1616"
           style="font-size:8.45658px;stroke-width:0.775698"
           d="m 134.55636,183.03638 q -0.92081,0 -1.27592,0.21059 -0.35511,0.21059 -0.35511,0.71848 0,0.40466 0.26427,0.64415 0.2684,0.23537 0.72674,0.23537 0.63177,0 1.01165,-0.44596 0.38402,-0.45008 0.38402,-1.19333 v -0.1693 z m 1.51542,-0.31382 v 2.63855 h -0.75977 v -0.70196 q -0.26014,0.42118 -0.64829,0.62351 -0.38814,0.1982 -0.94971,0.1982 -0.71022,0 -1.1314,-0.3964 -0.41705,-0.40053 -0.41705,-1.06946 0,-0.78042 0.52028,-1.17682 0.52441,-0.3964 1.56083,-0.3964 h 1.06534 v -0.0743 q 0,-0.5244 -0.34686,-0.80932 -0.34272,-0.28904 -0.96623,-0.28904 -0.3964,0 -0.77216,0.095 -0.37575,0.095 -0.7226,0.28491 v -0.70196 q 0.41704,-0.16104 0.80932,-0.23949 0.39227,-0.0826 0.7639,-0.0826 1.00339,0 1.49889,0.52028 0.49551,0.52028 0.49551,1.57735 z" />
        <path
           id="path1618"
           style="font-size:8.45658px;stroke-width:0.775698"
           d="m 137.64087,180.73642 h 0.75977 v 4.62469 h -0.75977 z m 0,-1.80032 h 0.75977 v 0.9621 h -0.75977 z" />
        <path
           id="path1620"
           style="font-size:8.45658px;stroke-width:0.775698"
           d="m 143.5869,181.6242 q 0.28492,-0.51202 0.68132,-0.75564 0.3964,-0.24363 0.9332,-0.24363 0.7226,0 1.11488,0.50789 0.39227,0.50377 0.39227,1.43696 v 2.79133 h -0.7639 v -2.76655 q 0,-0.6648 -0.23536,-0.98688 -0.23537,-0.32208 -0.71848,-0.32208 -0.59048,0 -0.9332,0.39228 -0.34272,0.39227 -0.34272,1.06946 v 2.61377 h -0.7639 v -2.76655 q 0,-0.66893 -0.23537,-0.98688 -0.23536,-0.32208 -0.72673,-0.32208 -0.58222,0 -0.92494,0.39641 -0.34272,0.39227 -0.34272,1.06533 v 2.61377 h -0.7639 v -4.62469 h 0.7639 v 0.71848 q 0.26013,-0.42531 0.6235,-0.62764 0.36337,-0.20233 0.863,-0.20233 0.50376,0 0.85475,0.25601 0.35511,0.25601 0.5244,0.74326 z" />
        <path
           id="path1622"
           style="font-size:8.45658px;stroke-width:0.775698"
           d="m 152.18387,182.85883 v 0.37162 h -3.49329 q 0.0495,0.78455 0.47073,1.19747 0.4253,0.40879 1.18095,0.40879 0.43769,0 0.84648,-0.10736 0.41292,-0.10736 0.81758,-0.32208 v 0.71848 q -0.40879,0.17343 -0.83823,0.26427 -0.42943,0.0908 -0.87126,0.0908 -1.10662,0 -1.7549,-0.64415 -0.64415,-0.64416 -0.64415,-1.74252 0,-1.13553 0.61112,-1.80033 0.61524,-0.66893 1.6558,-0.66893 0.9332,0 1.47412,0.60287 0.54505,0.59873 0.54505,1.63103 z m -0.75977,-0.22298 q -0.008,-0.62351 -0.35098,-0.99514 -0.33859,-0.37162 -0.90016,-0.37162 -0.6359,0 -1.01991,0.35924 -0.37989,0.35924 -0.43769,1.01165 z" />
        <path
           id="path1624"
           style="font-size:8.45658px;stroke-width:0.775698"
           d="m 156.4741,181.43838 v -2.50228 h 0.75977 v 6.42501 h -0.75977 v -0.6937 q -0.23949,0.41292 -0.60699,0.61525 -0.36337,0.1982 -0.87539,0.1982 -0.83822,0 -1.36676,-0.66893 -0.5244,-0.66893 -0.5244,-1.75903 0,-1.09011 0.5244,-1.75904 0.52854,-0.66893 1.36676,-0.66893 0.51202,0 0.87539,0.20233 0.3675,0.19821 0.60699,0.61112 z m -2.589,1.61452 q 0,0.83822 0.34272,1.31721 0.34686,0.47486 0.94972,0.47486 0.60286,0 0.94971,-0.47486 0.34685,-0.47899 0.34685,-1.31721 0,-0.83823 -0.34685,-1.31308 -0.34685,-0.47899 -0.94971,-0.47899 -0.60286,0 -0.94972,0.47899 -0.34272,0.47485 -0.34272,1.31308 z" />
      </g>
    </g>
  </g>
</svg>
