<?xml version="1.0" encoding="UTF-8"?>
<svg width="4.6848in" height="3.1122in" version="1.1" viewBox="0 0 118.99 79.05" xmlns="http://www.w3.org/2000/svg" xmlns:cc="http://creativecommons.org/ns#" xmlns:dc="http://purl.org/dc/elements/1.1/" xmlns:osb="http://www.openswatchbook.org/uri/2009/osb" xmlns:rdf="http://www.w3.org/1999/02/22-rdf-syntax-ns#">
 <defs>
  <marker id="marker2179" overflow="visible" orient="auto">
   <path transform="matrix(1.1,0,0,1.1,1.1,0)" d="m8.7186 4.0337-10.926-4.0177 10.926-4.0177c-1.7455 2.3721-1.7354 5.6175-6e-7 8.0354z" fill-rule="evenodd" stroke="#000" stroke-linejoin="round" stroke-width=".625"/>
  </marker>
  <marker id="marker1956" overflow="visible" orient="auto">
   <path transform="matrix(1.1,0,0,1.1,1.1,0)" d="m8.7186 4.0337-10.926-4.0177 10.926-4.0177c-1.7455 2.3721-1.7354 5.6175-6e-7 8.0354z" fill-rule="evenodd" stroke="#000" stroke-linejoin="round" stroke-width=".625"/>
  </marker>
  <marker id="Arrow2Lstart" overflow="visible" orient="auto">
   <path transform="matrix(1.1,0,0,1.1,1.1,0)" d="m8.7186 4.0337-10.926-4.0177 10.926-4.0177c-1.7455 2.3721-1.7354 5.6175-6e-7 8.0354z" fill-rule="evenodd" stroke="#000" stroke-linejoin="round" stroke-width=".625"/>
  </marker>
  <linearGradient id="linearGradient1260" gradientTransform="matrix(.03344 0 0 .51971 160.03 773.75)" osb:paint="solid">
   <stop offset="0"/>
  </linearGradient>
  <linearGradient id="linearGradient1254" gradientTransform="matrix(.27183 0 0 .45302 75.554 199.53)" osb:paint="solid">
   <stop stop-color="#513c2c" offset="0"/>
  </linearGradient>
  <linearGradient id="linearGradient1242" gradientTransform="matrix(.22418 0 0 .45302 84.878 149.53)" osb:paint="solid">
   <stop stop-color="#15b097" offset="0"/>
  </linearGradient>
  <linearGradient id="linearGradient1236" gradientTransform="matrix(.032391 0 0 .23544 169.93 468.83)" osb:paint="solid">
   <stop stop-color="#fff" offset="0"/>
  </linearGradient>
  <linearGradient id="linearGradient1212" gradientTransform="matrix(1.5753 0 0 1 -53.755 165.52)" osb:paint="solid">
   <stop stop-color="#3dd6d0" offset="0"/>
  </linearGradient>
 </defs>
 <metadata>
  <rdf:RDF>
   <cc:Work rdf:about="">
    <dc:format>image/svg+xml</dc:format>
    <dc:type rdf:resource="http://purl.org/dc/dcmitype/StillImage"/>
    <dc:title/>
   </cc:Work>
  </rdf:RDF>
 </metadata>
 <g transform="translate(-61.512 -84.872)">
  <g transform="matrix(.58401 0 0 .58405 47.486 58.497)" stroke-width="1.7122">
   <rect x="92.317" y="45.5" width="106.47" height="47.567" fill="url(#linearGradient1236)" stop-color="#000000" stroke="url(#linearGradient1260)" stroke-width=".6849"/>
   <path d="m92.317 93.067v24.916" fill="none" marker-start="url(#Arrow2Lstart)" stroke="#000" stroke-dasharray="0.906062, 0.453031" stroke-width=".45303"/>
   <g transform="scale(1 .99997)" stroke-width=".7757" aria-label="stack pointer">
    <path d="m64.051 123.32v0.82112q-0.36809-0.18877-0.76449-0.28315-0.3964-0.0944-0.82112-0.0944-0.64651 0-0.97213 0.1982-0.3209 0.1982-0.3209 0.5946 0 0.30203 0.23123 0.47663 0.23124 0.16989 0.92966 0.32562l0.2973 0.0661q0.92494 0.19821 1.3119 0.56157 0.39168 0.35865 0.39168 1.0052 0 0.73617-0.58516 1.1656-0.58045 0.42943-1.5998 0.42943-0.42472 0-0.88719-0.0849-0.45775-0.0802-0.96741-0.24539v-0.89663q0.48134 0.25011 0.94853 0.37753 0.46719 0.1227 0.92494 0.1227 0.61348 0 0.94381-0.20764 0.33034-0.21236 0.33034-0.59461 0-0.35393-0.24067-0.54269-0.23595-0.18876-1.0429-0.36337l-0.30202-0.0708q-0.80696-0.16989-1.1656-0.5191-0.35865-0.35393-0.35865-0.96741 0-0.74562 0.52854-1.1515t1.5007-0.40584q0.48134 0 0.90606 0.0708 0.42472 0.0708 0.78337 0.21236z"/>
    <path d="m66.58 121.66v1.5007h1.7885v0.67483h-1.7885v2.8692q0 0.64651 0.1746 0.83056 0.17932 0.18404 0.72202 0.18404h0.8919v0.72674h-0.8919q-1.0052 0-1.3874-0.37281-0.38224-0.37752-0.38224-1.3685v-2.8692h-0.63708v-0.67483h0.63708v-1.5007z"/>
    <path d="m71.917 125.79q-1.0524 0-1.4582 0.24067-0.40584 0.24068-0.40584 0.82112 0 0.46247 0.30202 0.73618 0.30674 0.26899 0.83056 0.26899 0.72202 0 1.1562-0.50966 0.43887-0.51438 0.43887-1.3638v-0.19348zm1.7319-0.35865v3.0155h-0.86831v-0.80224q-0.2973 0.48134-0.7409 0.71258-0.44359 0.22651-1.0854 0.22651-0.81168 0-1.293-0.45303-0.47663-0.45775-0.47663-1.2222 0-0.8919 0.5946-1.3449 0.59932-0.45303 1.7838-0.45303h1.2175v-0.0849q0-0.59932-0.3964-0.92494-0.39168-0.33033-1.1043-0.33033-0.45303 0-0.88247 0.10854-0.42944 0.10854-0.82584 0.32561v-0.80224q0.47663-0.18404 0.92494-0.27371 0.44831-0.0944 0.87303-0.0944 1.1467 0 1.713 0.59461 0.56629 0.5946 0.56629 1.8027z"/>
    <path d="m79.246 123.36v0.81168q-0.36809-0.20292-0.74089-0.30202-0.36809-0.10382-0.74561-0.10382-0.84471 0-1.3119 0.53797-0.46719 0.53326-0.46719 1.5007t0.46719 1.5054q0.46719 0.53326 1.3119 0.53326 0.37752 0 0.74561-0.0991 0.37281-0.10382 0.74089-0.30674v0.80224q-0.36337 0.16989-0.75505 0.25483-0.38696 0.0849-0.82584 0.0849-1.1939 0-1.8971-0.75033t-0.70314-2.0245q0-1.293 0.70786-2.0339 0.71258-0.7409 1.949-0.7409 0.40112 0 0.78337 0.0849 0.38224 0.0802 0.74089 0.24539z"/>
    <path d="m80.733 121.1h0.87303v4.3368l2.5908-2.2793h1.109l-2.8031 2.4728 2.9211 2.8126h-1.1326l-2.6852-2.5813v2.5813h-0.87303z"/>
    <path d="m90.289 127.65v2.8031h-0.87303v-7.2957h0.87303v0.80224q0.27371-0.47191 0.68898-0.69842 0.42-0.23124 1.0004-0.23124 0.96269 0 1.562 0.76449 0.60404 0.76449 0.60404 2.0103 0 1.2458-0.60404 2.0103-0.59932 0.76449-1.562 0.76449-0.58044 0-1.0004-0.22651-0.41528-0.23124-0.68898-0.70314zm2.9541-1.8452q0-0.95797-0.3964-1.5007-0.39168-0.54741-1.0807-0.54741-0.68898 0-1.0854 0.54741-0.39168 0.5427-0.39168 1.5007t0.39168 1.5054q0.3964 0.5427 1.0854 0.5427 0.68898 0 1.0807-0.5427 0.3964-0.54741 0.3964-1.5054z"/>
    <path d="m97.632 123.77q-0.69842 0-1.1043 0.54741-0.40584 0.54269-0.40584 1.4912 0 0.94853 0.40112 1.4959 0.40584 0.5427 1.109 0.5427 0.6937 0 1.0995-0.54742 0.40584-0.54741 0.40584-1.4912 0-0.9391-0.40584-1.4865-0.40584-0.55213-1.0995-0.55213zm0-0.73618q1.1326 0 1.7791 0.73618 0.64652 0.73617 0.64652 2.0386 0 1.2977-0.64652 2.0386-0.64651 0.73617-1.7791 0.73617-1.1373 0-1.7838-0.73617-0.64179-0.7409-0.64179-2.0386 0-1.3025 0.64179-2.0386 0.64651-0.73618 1.7838-0.73618z"/>
    <path d="m101.49 123.16h0.86831v5.2854h-0.86831zm0-2.0575h0.86831v1.0996h-0.86831z"/>
    <path d="m108.57 125.25v3.1901h-0.86831v-3.1618q0-0.75033-0.29258-1.1231t-0.87775-0.37281q-0.70314 0-1.109 0.44832-0.40584 0.44831-0.40584 1.2222v2.9872h-0.87303v-5.2854h0.87303v0.82112q0.31146-0.47663 0.73146-0.71258 0.42471-0.23596 0.97684-0.23596 0.91079 0 1.378 0.56629 0.46719 0.56157 0.46719 1.6564z"/>
    <path d="m111.17 121.66v1.5007h1.7885v0.67483h-1.7885v2.8692q0 0.64651 0.17461 0.83056 0.17932 0.18404 0.72202 0.18404h0.8919v0.72674h-0.8919q-1.0052 0-1.3874-0.37281-0.38225-0.37752-0.38225-1.3685v-2.8692h-0.63707v-0.67483h0.63707v-1.5007z"/>
    <path d="m118.62 125.59v0.42472h-3.9923q0.0566 0.89662 0.53797 1.3685 0.48607 0.46719 1.3497 0.46719 0.50022 0 0.96741-0.1227 0.47191-0.12269 0.93438-0.36809v0.82112q-0.46719 0.1982-0.95798 0.30202-0.49078 0.10382-0.99572 0.10382-1.2647 0-2.0056-0.73617-0.73617-0.73618-0.73617-1.9914 0-1.2978 0.69842-2.0575 0.70314-0.76449 1.8924-0.76449 1.0665 0 1.6847 0.68899 0.62292 0.68426 0.62292 1.864zm-0.86831-0.25483q-9e-3 -0.71258-0.40113-1.1373-0.38696-0.42472-1.0288-0.42472-0.72674 0-1.1656 0.41056-0.43416 0.41056-0.50023 1.1562z"/>
    <path d="m123.11 123.97q-0.1463-0.0849-0.3209-0.1227-0.16989-0.0425-0.37753-0.0425-0.73617 0-1.1326 0.48135-0.39169 0.47662-0.39169 1.3732v2.7842h-0.87303v-5.2854h0.87303v0.82112q0.27371-0.48135 0.71258-0.71258 0.43888-0.23596 1.0665-0.23596 0.0897 0 0.1982 0.0142 0.10854 9e-3 0.24068 0.033z"/>
   </g>
   <rect x="24.36" y="45.5" width="67.957" height="47.567" fill="url(#linearGradient1242)" stop-color="#000000" stroke="url(#linearGradient1260)" stroke-width=".6849"/>
   <g transform="scale(1 .99997)" stroke-width=".7757" aria-label="used">
    <path d="m48.906 70.613v-2.7996h0.75977v2.7707q0 0.65654 0.25601 0.98688 0.25601 0.32621 0.76803 0.32621 0.61525 0 0.97036-0.39227 0.35924-0.39227 0.35924-1.0695v-2.622h0.75977v4.6247h-0.75977v-0.71022q-0.27666 0.42118-0.64415 0.62764-0.36337 0.20233-0.84648 0.20233-0.79693 0-1.2099-0.4955-0.41292-0.4955-0.41292-1.4493z"/>
    <path d="m57.3 67.95v0.71848q-0.32208-0.16517-0.66893-0.24775-0.34685-0.08258-0.71848-0.08258-0.5657 0-0.85061 0.17343-0.28078 0.17343-0.28078 0.52028 0 0.26427 0.20233 0.41705 0.20233 0.14865 0.81345 0.28491l0.26014 0.05781q0.80932 0.17343 1.1479 0.49137 0.34272 0.31382 0.34272 0.87952 0 0.64415-0.51202 1.0199-0.50789 0.37576-1.3998 0.37576-0.37163 0-0.77629-0.07433-0.40053-0.0702-0.84648-0.21472v-0.78455q0.42118 0.21885 0.82997 0.33034 0.40879 0.10736 0.80932 0.10736 0.53679 0 0.82584-0.18168 0.28904-0.18581 0.28904-0.52028 0-0.30969-0.21059-0.47486-0.20646-0.16517-0.91255-0.31795l-0.26427-0.06194q-0.70609-0.14865-1.0199-0.45421-0.31382-0.30969-0.31382-0.84648 0-0.65241 0.46247-1.0075t1.3131-0.35511q0.42118 0 0.7928 0.06194t0.68544 0.18581z"/>
    <path d="m62.718 69.936v0.37163h-3.4933q0.04955 0.78455 0.47073 1.1975 0.42531 0.40879 1.1809 0.40879 0.43769 0 0.84648-0.10736 0.41292-0.10736 0.81758-0.32208v0.71848q-0.40879 0.17343-0.83823 0.26427-0.42944 0.09084-0.87126 0.09084-1.1066 0-1.7549-0.64415-0.64415-0.64415-0.64415-1.7425 0-1.1355 0.61112-1.8003 0.61525-0.66893 1.6558-0.66893 0.9332 0 1.4741 0.60286 0.54505 0.59873 0.54505 1.631zm-0.75977-0.22298q-0.0083-0.62351-0.35098-0.99514-0.33859-0.37163-0.90016-0.37163-0.6359 0-1.0199 0.35924-0.37989 0.35924-0.4377 1.0117z"/>
    <path d="m67.008 68.516v-2.5023h0.75977v6.425h-0.75977v-0.6937q-0.23949 0.41292-0.60699 0.61525-0.36337 0.1982-0.87539 0.1982-0.83823 0-1.3668-0.66893-0.52441-0.66893-0.52441-1.759t0.52441-1.759q0.52854-0.66893 1.3668-0.66893 0.51202 0 0.87539 0.20233 0.3675 0.1982 0.60699 0.61112zm-2.589 1.6145q0 0.83822 0.34272 1.3172 0.34685 0.47486 0.94971 0.47486t0.94971-0.47486q0.34685-0.47899 0.34685-1.3172t-0.34685-1.3131q-0.34685-0.47899-0.94971-0.47899t-0.94971 0.47899q-0.34272 0.47486-0.34272 1.3131z"/>
   </g>
   <g transform="scale(1 .99997)" stroke-width=".7757" aria-label="free">
    <path d="m140.47 66.013v0.63177h-0.72674q-0.40879 0-0.56983 0.16517-0.15691 0.16517-0.15691 0.5946v0.40879h1.2511v0.59047h-1.2511v4.0342h-0.7639v-4.0342h-0.72674v-0.59047h0.72674v-0.32208q0-0.77216 0.35924-1.1231 0.35924-0.35511 1.1397-0.35511z"/>
    <path d="m143.78 68.524q-0.12801-0.07433-0.28079-0.10736-0.14865-0.03716-0.33033-0.03716-0.64416 0-0.99101 0.42118-0.34272 0.41705-0.34272 1.2016v2.4362h-0.7639v-4.6247h0.7639v0.71848q0.23949-0.42118 0.6235-0.62351 0.38402-0.20646 0.9332-0.20646 0.0785 0 0.17343 0.01239 0.095 0.0083 0.21059 0.0289z"/>
    <path d="m148.36 69.936v0.37163h-3.4933q0.0496 0.78455 0.47073 1.1975 0.42531 0.40879 1.181 0.40879 0.43769 0 0.84648-0.10736 0.41292-0.10736 0.81758-0.32208v0.71848q-0.40879 0.17343-0.83822 0.26427-0.42944 0.09084-0.87126 0.09084-1.1066 0-1.7549-0.64415-0.64415-0.64415-0.64415-1.7425 0-1.1355 0.61112-1.8003 0.61525-0.66893 1.6558-0.66893 0.9332 0 1.4741 0.60286 0.54506 0.59873 0.54506 1.631zm-0.75977-0.22298q-8e-3 -0.62351-0.35099-0.99514-0.33859-0.37163-0.90016-0.37163-0.63589 0-1.0199 0.35924-0.37988 0.35924-0.43769 1.0117z"/>
    <path d="m153.56 69.936v0.37163h-3.4933q0.0495 0.78455 0.47073 1.1975 0.42531 0.40879 1.181 0.40879 0.43769 0 0.84648-0.10736 0.41292-0.10736 0.81758-0.32208v0.71848q-0.40879 0.17343-0.83823 0.26427-0.42943 0.09084-0.87125 0.09084-1.1066 0-1.7549-0.64415-0.64415-0.64415-0.64415-1.7425 0-1.1355 0.61112-1.8003 0.61525-0.66893 1.6558-0.66893 0.9332 0 1.4741 0.60286 0.54506 0.59873 0.54506 1.631zm-0.75978-0.22298q-8e-3 -0.62351-0.35098-0.99514-0.33859-0.37163-0.90016-0.37163-0.6359 0-1.0199 0.35924-0.37989 0.35924-0.43769 1.0117z"/>
   </g>
   <rect x="145.29" y="187.07" width="53.492" height="47.567" fill="url(#linearGradient1236)" stop-color="#000000" stroke="url(#linearGradient1260)" stroke-width=".6849"/>
   <g transform="translate(52.973 141.57)">
    <path d="m92.317 93.067v24.916" fill="none" marker-start="url(#marker1956)" stroke="#000" stroke-dasharray="0.906062, 0.453031" stroke-width=".45303"/>
    <g transform="scale(1 .99997)" stroke-width=".7757" aria-label="stack pointer">
     <path d="m64.051 123.32v0.82112q-0.36809-0.18877-0.76449-0.28315-0.3964-0.0944-0.82112-0.0944-0.64651 0-0.97213 0.1982-0.3209 0.1982-0.3209 0.5946 0 0.30203 0.23123 0.47663 0.23124 0.16989 0.92966 0.32562l0.2973 0.0661q0.92494 0.19821 1.3119 0.56157 0.39168 0.35865 0.39168 1.0052 0 0.73617-0.58516 1.1656-0.58045 0.42943-1.5998 0.42943-0.42472 0-0.88719-0.0849-0.45775-0.0802-0.96741-0.24539v-0.89663q0.48134 0.25011 0.94853 0.37753 0.46719 0.1227 0.92494 0.1227 0.61348 0 0.94381-0.20764 0.33034-0.21236 0.33034-0.59461 0-0.35393-0.24067-0.54269-0.23595-0.18876-1.0429-0.36337l-0.30202-0.0708q-0.80696-0.16989-1.1656-0.5191-0.35865-0.35393-0.35865-0.96741 0-0.74562 0.52854-1.1515t1.5007-0.40584q0.48134 0 0.90606 0.0708 0.42472 0.0708 0.78337 0.21236z"/>
     <path d="m66.58 121.66v1.5007h1.7885v0.67483h-1.7885v2.8692q0 0.64651 0.1746 0.83056 0.17932 0.18404 0.72202 0.18404h0.8919v0.72674h-0.8919q-1.0052 0-1.3874-0.37281-0.38224-0.37752-0.38224-1.3685v-2.8692h-0.63708v-0.67483h0.63708v-1.5007z"/>
     <path d="m71.917 125.79q-1.0524 0-1.4582 0.24067-0.40584 0.24068-0.40584 0.82112 0 0.46247 0.30202 0.73618 0.30674 0.26899 0.83056 0.26899 0.72202 0 1.1562-0.50966 0.43887-0.51438 0.43887-1.3638v-0.19348zm1.7319-0.35865v3.0155h-0.86831v-0.80224q-0.2973 0.48134-0.7409 0.71258-0.44359 0.22651-1.0854 0.22651-0.81168 0-1.293-0.45303-0.47663-0.45775-0.47663-1.2222 0-0.8919 0.5946-1.3449 0.59932-0.45303 1.7838-0.45303h1.2175v-0.0849q0-0.59932-0.3964-0.92494-0.39168-0.33033-1.1043-0.33033-0.45303 0-0.88247 0.10854-0.42944 0.10854-0.82584 0.32561v-0.80224q0.47663-0.18404 0.92494-0.27371 0.44831-0.0944 0.87303-0.0944 1.1467 0 1.713 0.59461 0.56629 0.5946 0.56629 1.8027z"/>
     <path d="m79.246 123.36v0.81168q-0.36809-0.20292-0.74089-0.30202-0.36809-0.10382-0.74561-0.10382-0.84471 0-1.3119 0.53797-0.46719 0.53326-0.46719 1.5007t0.46719 1.5054q0.46719 0.53326 1.3119 0.53326 0.37752 0 0.74561-0.0991 0.37281-0.10382 0.74089-0.30674v0.80224q-0.36337 0.16989-0.75505 0.25483-0.38696 0.0849-0.82584 0.0849-1.1939 0-1.8971-0.75033t-0.70314-2.0245q0-1.293 0.70786-2.0339 0.71258-0.7409 1.949-0.7409 0.40112 0 0.78337 0.0849 0.38224 0.0802 0.74089 0.24539z"/>
     <path d="m80.733 121.1h0.87303v4.3368l2.5908-2.2793h1.109l-2.8031 2.4728 2.9211 2.8126h-1.1326l-2.6852-2.5813v2.5813h-0.87303z"/>
     <path d="m90.289 127.65v2.8031h-0.87303v-7.2957h0.87303v0.80224q0.27371-0.47191 0.68898-0.69842 0.42-0.23124 1.0004-0.23124 0.96269 0 1.562 0.76449 0.60404 0.76449 0.60404 2.0103 0 1.2458-0.60404 2.0103-0.59932 0.76449-1.562 0.76449-0.58044 0-1.0004-0.22651-0.41528-0.23124-0.68898-0.70314zm2.9541-1.8452q0-0.95797-0.3964-1.5007-0.39168-0.54741-1.0807-0.54741-0.68898 0-1.0854 0.54741-0.39168 0.5427-0.39168 1.5007t0.39168 1.5054q0.3964 0.5427 1.0854 0.5427 0.68898 0 1.0807-0.5427 0.3964-0.54741 0.3964-1.5054z"/>
     <path d="m97.632 123.77q-0.69842 0-1.1043 0.54741-0.40584 0.54269-0.40584 1.4912 0 0.94853 0.40112 1.4959 0.40584 0.5427 1.109 0.5427 0.6937 0 1.0995-0.54742 0.40584-0.54741 0.40584-1.4912 0-0.9391-0.40584-1.4865-0.40584-0.55213-1.0995-0.55213zm0-0.73618q1.1326 0 1.7791 0.73618 0.64652 0.73617 0.64652 2.0386 0 1.2977-0.64652 2.0386-0.64651 0.73617-1.7791 0.73617-1.1373 0-1.7838-0.73617-0.64179-0.7409-0.64179-2.0386 0-1.3025 0.64179-2.0386 0.64651-0.73618 1.7838-0.73618z"/>
     <path d="m101.49 123.16h0.86831v5.2854h-0.86831zm0-2.0575h0.86831v1.0996h-0.86831z"/>
     <path d="m108.57 125.25v3.1901h-0.86831v-3.1618q0-0.75033-0.29258-1.1231t-0.87775-0.37281q-0.70314 0-1.109 0.44832-0.40584 0.44831-0.40584 1.2222v2.9872h-0.87303v-5.2854h0.87303v0.82112q0.31146-0.47663 0.73146-0.71258 0.42471-0.23596 0.97684-0.23596 0.91079 0 1.378 0.56629 0.46719 0.56157 0.46719 1.6564z"/>
     <path d="m111.17 121.66v1.5007h1.7885v0.67483h-1.7885v2.8692q0 0.64651 0.17461 0.83056 0.17932 0.18404 0.72202 0.18404h0.8919v0.72674h-0.8919q-1.0052 0-1.3874-0.37281-0.38225-0.37752-0.38225-1.3685v-2.8692h-0.63707v-0.67483h0.63707v-1.5007z"/>
     <path d="m118.62 125.59v0.42472h-3.9923q0.0566 0.89662 0.53797 1.3685 0.48607 0.46719 1.3497 0.46719 0.50022 0 0.96741-0.1227 0.47191-0.12269 0.93438-0.36809v0.82112q-0.46719 0.1982-0.95798 0.30202-0.49078 0.10382-0.99572 0.10382-1.2647 0-2.0056-0.73617-0.73617-0.73618-0.73617-1.9914 0-1.2978 0.69842-2.0575 0.70314-0.76449 1.8924-0.76449 1.0665 0 1.6847 0.68899 0.62292 0.68426 0.62292 1.864zm-0.86831-0.25483q-9e-3 -0.71258-0.40113-1.1373-0.38696-0.42472-1.0288-0.42472-0.72674 0-1.1656 0.41056-0.43416 0.41056-0.50023 1.1562z"/>
     <path d="m123.11 123.97q-0.1463-0.0849-0.3209-0.1227-0.16989-0.0425-0.37753-0.0425-0.73617 0-1.1326 0.48135-0.39169 0.47662-0.39169 1.3732v2.7842h-0.87303v-5.2854h0.87303v0.82112q0.27371-0.48135 0.71258-0.71258 0.43888-0.23596 1.0665-0.23596 0.0897 0 0.1982 0.0142 0.10854 9e-3 0.24068 0.033z"/>
    </g>
   </g>
   <g transform="translate(1.66e-6 141.57)">
    <rect x="24.36" y="45.5" width="67.957" height="47.567" fill="url(#linearGradient1242)" stop-color="#000000" stroke="url(#linearGradient1260)" stroke-width=".6849"/>
    <g transform="scale(1 .99997)" stroke-width=".7757" aria-label="used">
     <path d="m48.906 70.613v-2.7996h0.75977v2.7707q0 0.65654 0.25601 0.98688 0.25601 0.32621 0.76803 0.32621 0.61525 0 0.97036-0.39227 0.35924-0.39227 0.35924-1.0695v-2.622h0.75977v4.6247h-0.75977v-0.71022q-0.27666 0.42118-0.64415 0.62764-0.36337 0.20233-0.84648 0.20233-0.79693 0-1.2099-0.4955-0.41292-0.4955-0.41292-1.4493z"/>
     <path d="m57.3 67.95v0.71848q-0.32208-0.16517-0.66893-0.24775-0.34685-0.08258-0.71848-0.08258-0.5657 0-0.85061 0.17343-0.28078 0.17343-0.28078 0.52028 0 0.26427 0.20233 0.41705 0.20233 0.14865 0.81345 0.28491l0.26014 0.05781q0.80932 0.17343 1.1479 0.49137 0.34272 0.31382 0.34272 0.87952 0 0.64415-0.51202 1.0199-0.50789 0.37576-1.3998 0.37576-0.37163 0-0.77629-0.07433-0.40053-0.0702-0.84648-0.21472v-0.78455q0.42118 0.21885 0.82997 0.33034 0.40879 0.10736 0.80932 0.10736 0.53679 0 0.82584-0.18168 0.28904-0.18581 0.28904-0.52028 0-0.30969-0.21059-0.47486-0.20646-0.16517-0.91255-0.31795l-0.26427-0.06194q-0.70609-0.14865-1.0199-0.45421-0.31382-0.30969-0.31382-0.84648 0-0.65241 0.46247-1.0075t1.3131-0.35511q0.42118 0 0.7928 0.06194t0.68544 0.18581z"/>
     <path d="m62.718 69.936v0.37163h-3.4933q0.04955 0.78455 0.47073 1.1975 0.42531 0.40879 1.1809 0.40879 0.43769 0 0.84648-0.10736 0.41292-0.10736 0.81758-0.32208v0.71848q-0.40879 0.17343-0.83823 0.26427-0.42944 0.09084-0.87126 0.09084-1.1066 0-1.7549-0.64415-0.64415-0.64415-0.64415-1.7425 0-1.1355 0.61112-1.8003 0.61525-0.66893 1.6558-0.66893 0.9332 0 1.4741 0.60286 0.54505 0.59873 0.54505 1.631zm-0.75977-0.22298q-0.0083-0.62351-0.35098-0.99514-0.33859-0.37163-0.90016-0.37163-0.6359 0-1.0199 0.35924-0.37989 0.35924-0.4377 1.0117z"/>
     <path d="m67.008 68.516v-2.5023h0.75977v6.425h-0.75977v-0.6937q-0.23949 0.41292-0.60699 0.61525-0.36337 0.1982-0.87539 0.1982-0.83823 0-1.3668-0.66893-0.52441-0.66893-0.52441-1.759t0.52441-1.759q0.52854-0.66893 1.3668-0.66893 0.51202 0 0.87539 0.20233 0.3675 0.1982 0.60699 0.61112zm-2.589 1.6145q0 0.83822 0.34272 1.3172 0.34685 0.47486 0.94971 0.47486t0.94971-0.47486q0.34685-0.47899 0.34685-1.3172t-0.34685-1.3131q-0.34685-0.47899-0.94971-0.47899t-0.94971 0.47899q-0.34272 0.47486-0.34272 1.3131z"/>
    </g>
   </g>
   <g transform="scale(1 .99997)" stroke-width=".7757" aria-label="free">
    <path d="m166.96 207.59v0.63176h-0.72673q-0.40879 0-0.56983 0.16517-0.15691 0.16517-0.15691 0.59461v0.40879h1.2511v0.59047h-1.2511v4.0342h-0.7639v-4.0342h-0.72674v-0.59047h0.72674v-0.32208q0-0.77216 0.35924-1.1231 0.35924-0.35511 1.1396-0.35511z"/>
    <path d="m170.27 210.1q-0.128-0.0743-0.28078-0.10736-0.14865-0.0372-0.33034-0.0372-0.64415 0-0.991 0.42118-0.34273 0.41705-0.34273 1.2016v2.4362h-0.7639v-4.6247h0.7639v0.71847q0.2395-0.42117 0.62351-0.6235 0.38402-0.20646 0.9332-0.20646 0.0785 0 0.17342 0.0124 0.095 8e-3 0.21059 0.0289z"/>
    <path d="m174.85 211.51v0.37163h-3.4933q0.0496 0.78454 0.47073 1.1975 0.4253 0.40879 1.181 0.40879 0.43769 0 0.84648-0.10736 0.41292-0.10736 0.81758-0.32208v0.71848q-0.40879 0.17343-0.83823 0.26427-0.42943 0.0908-0.87126 0.0908-1.1066 0-1.7549-0.64415-0.64416-0.64415-0.64416-1.7425 0-1.1355 0.61113-1.8003 0.61524-0.66893 1.6558-0.66893 0.9332 0 1.4741 0.60286 0.54505 0.59873 0.54505 1.631zm-0.75977-0.22298q-8e-3 -0.62351-0.35098-0.99513-0.33859-0.37163-0.90016-0.37163-0.6359 0-1.0199 0.35924-0.37989 0.35924-0.4377 1.0116z"/>
    <path d="m180.05 211.51v0.37163h-3.4933q0.0496 0.78454 0.47073 1.1975 0.4253 0.40879 1.1809 0.40879 0.4377 0 0.84649-0.10736 0.41292-0.10736 0.81758-0.32208v0.71848q-0.40879 0.17343-0.83823 0.26427-0.42943 0.0908-0.87126 0.0908-1.1066 0-1.7549-0.64415-0.64416-0.64415-0.64416-1.7425 0-1.1355 0.61112-1.8003 0.61525-0.66893 1.6558-0.66893 0.9332 0 1.4741 0.60286 0.54505 0.59873 0.54505 1.631zm-0.75977-0.22298q-8e-3 -0.62351-0.35098-0.99513-0.33859-0.37163-0.90016-0.37163-0.6359 0-1.0199 0.35924-0.37989 0.35924-0.4377 1.0116z"/>
   </g>
   <rect x="92.317" y="187.07" width="52.973" height="47.567" fill="url(#linearGradient1212)" stop-color="#000000" stroke="url(#linearGradient1260)" stroke-width=".6849"/>
   <g transform="matrix(1 0 0 .99997 -7.327 23.363)" stroke-width=".7757" style="inline-size:28.7986;white-space:pre" aria-label="local vars">
    <path d="m116.95 178.94h0.75977v6.425h-0.75977z"/>
    <path d="m121.08 181.27q-0.61112 0-0.96623 0.47898-0.35511 0.47486-0.35511 1.3048 0 0.82996 0.35098 1.309 0.35511 0.47486 0.97036 0.47486 0.60699 0 0.9621-0.47899 0.35511-0.47898 0.35511-1.3048 0-0.82171-0.35511-1.3007-0.35511-0.48311-0.9621-0.48311zm0-0.64416q0.991 0 1.5567 0.64416 0.5657 0.64415 0.5657 1.7838 0 1.1355-0.5657 1.7838-0.5657 0.64415-1.5567 0.64415-0.99514 0-1.5608-0.64415-0.56157-0.64829-0.56157-1.7838 0-1.1397 0.56157-1.7838 0.56569-0.64416 1.5608-0.64416z"/>
    <path d="m127.79 180.91v0.71022q-0.32207-0.17756-0.64828-0.26427-0.32208-0.0908-0.65241-0.0908-0.73913 0-1.1479 0.47073-0.40879 0.46659-0.40879 1.3131 0 0.84648 0.40879 1.3172 0.40879 0.4666 1.1479 0.4666 0.33033 0 0.65241-0.0867 0.32621-0.0908 0.64828-0.26839v0.70196q-0.31794 0.14865-0.66067 0.22298-0.33859 0.0743-0.72261 0.0743-1.0447 0-1.6599-0.65654t-0.61525-1.7714q0-1.1314 0.61938-1.7797 0.62351-0.64829 1.7054-0.64829 0.35099 0 0.68545 0.0743 0.33446 0.0702 0.64828 0.21472z"/>
    <path d="m131.22 183.04q-0.92081 0-1.2759 0.21059t-0.35511 0.71848q0 0.40466 0.26427 0.64415 0.26839 0.23537 0.72673 0.23537 0.63177 0 1.0117-0.44596 0.38401-0.45008 0.38401-1.1933v-0.1693zm1.5154-0.31382v2.6386h-0.75977v-0.70196q-0.26014 0.42118-0.64828 0.62351-0.38815 0.1982-0.94972 0.1982-0.71022 0-1.1314-0.3964-0.41705-0.40053-0.41705-1.0695 0-0.78042 0.52028-1.1768 0.5244-0.3964 1.5608-0.3964h1.0653v-0.0743q0-0.5244-0.34685-0.80932-0.34272-0.28904-0.96623-0.28904-0.3964 0-0.77216 0.095t-0.72261 0.28491v-0.70196q0.41705-0.16104 0.80932-0.23949 0.39228-0.0826 0.7639-0.0826 1.0034 0 1.4989 0.52028t0.4955 1.5774z"/>
    <path d="m134.3 178.94h0.75978v6.425h-0.75978z"/>
    <path d="m116.4 191.31h0.80519l1.4452 3.8814 1.4452-3.8814h0.80519l-1.7342 4.6247h-1.0323z"/>
    <path d="m124.05 193.61q-0.92081 0-1.2759 0.21059t-0.35511 0.71848q0 0.40466 0.26426 0.64415 0.2684 0.23537 0.72674 0.23537 0.63177 0 1.0116-0.44596 0.38402-0.45008 0.38402-1.1933v-0.1693zm1.5154-0.31382v2.6386h-0.75977v-0.70196q-0.26014 0.42118-0.64828 0.62351-0.38815 0.1982-0.94972 0.1982-0.71022 0-1.1314-0.3964-0.41704-0.40053-0.41704-1.0695 0-0.78042 0.52027-1.1768 0.52441-0.3964 1.5608-0.3964h1.0653v-0.0743q0-0.52441-0.34685-0.80932-0.34273-0.28904-0.96623-0.28904-0.39641 0-0.77216 0.095-0.37576 0.095-0.72261 0.28491v-0.70196q0.41705-0.16104 0.80932-0.23949 0.39227-0.0826 0.7639-0.0826 1.0034 0 1.4989 0.52028 0.4955 0.52028 0.4955 1.5774z"/>
    <path d="m129.82 192.02q-0.128-0.0743-0.28078-0.10736-0.14865-0.0372-0.33034-0.0372-0.64415 0-0.991 0.42118-0.34272 0.41705-0.34272 1.2016v2.4362h-0.7639v-4.6247h0.7639v0.71848q0.23949-0.42118 0.6235-0.62351 0.38402-0.20646 0.9332-0.20646 0.0785 0 0.17343 0.0124 0.095 8e-3 0.21059 0.0289z"/>
    <path d="m133.57 191.44v0.71847q-0.32208-0.16516-0.66893-0.24775-0.34685-0.0826-0.71848-0.0826-0.5657 0-0.85061 0.17342-0.28079 0.17343-0.28079 0.52028 0 0.26427 0.20233 0.41705 0.20233 0.14865 0.81345 0.28492l0.26014 0.0578q0.80932 0.17343 1.1479 0.49138 0.34272 0.31382 0.34272 0.87951 0 0.64416-0.51202 1.0199-0.50789 0.37576-1.3998 0.37576-0.37162 0-0.77628-0.0743-0.40053-0.0702-0.84649-0.21472v-0.78455q0.42118 0.21885 0.82997 0.33034 0.40879 0.10736 0.80932 0.10736 0.5368 0 0.82584-0.18169 0.28904-0.18581 0.28904-0.52028 0-0.30969-0.21059-0.47485-0.20646-0.16517-0.91255-0.31795l-0.26427-0.0619q-0.70609-0.14865-1.0199-0.45421-0.31382-0.30969-0.31382-0.84648 0-0.65242 0.46247-1.0075t1.3131-0.35511q0.42118 0 0.7928 0.0619 0.37163 0.0619 0.68545 0.18582z"/>
   </g>
   <g transform="translate(4.5807 25.961)">
    <path d="m159.82 104.39v36.241h-5.4365l13.591 13.591 13.591-13.591h-5.4365v-36.241z" fill="url(#linearGradient1254)" stop-color="#000000" stroke="url(#linearGradient1260)" stroke-width=".45303"/>
    <g transform="scale(1 .99997)" stroke-width=".7757" aria-label="new scope">
     <path d="m183.28 124.91v2.7913h-0.75977v-2.7666q0-0.65654-0.25601-0.98274-0.25601-0.32621-0.76803-0.32621-0.61525 0-0.97036 0.39227-0.35511 0.39228-0.35511 1.0695v2.6138h-0.7639v-4.6247h0.7639v0.71848q0.27253-0.41705 0.64002-0.62351 0.37163-0.20646 0.85475-0.20646 0.79693 0 1.2057 0.4955 0.40879 0.49138 0.40879 1.4494z"/>
     <path d="m188.76 125.2v0.37163h-3.4933q0.0496 0.78455 0.47073 1.1975 0.4253 0.40879 1.1809 0.40879 0.4377 0 0.84649-0.10735 0.41292-0.10736 0.81758-0.32208v0.71848q-0.40879 0.17342-0.83823 0.26427-0.42943 0.0908-0.87126 0.0908-1.1066 0-1.7549-0.64416-0.64416-0.64415-0.64416-1.7425 0-1.1355 0.61112-1.8003 0.61525-0.66893 1.6558-0.66893 0.9332 0 1.4741 0.60286 0.54505 0.59874 0.54505 1.631zm-0.75977-0.22297q-8e-3 -0.62351-0.35098-0.99514-0.33859-0.37163-0.90016-0.37163-0.6359 0-1.0199 0.35924-0.37989 0.35924-0.4377 1.0117z"/>
     <path d="m189.57 123.08h0.75977l0.94971 3.6089 0.94558-3.6089h0.89604l0.94971 3.6089 0.94559-3.6089h0.75977l-1.2099 4.6247h-0.89603l-0.99513-3.7906-0.99927 3.7906h-0.89603z"/>
     <path d="m202.57 123.21v0.71848q-0.32207-0.16517-0.66893-0.24775-0.34685-0.0826-0.71847-0.0826-0.5657 0-0.85062 0.17342-0.28078 0.17343-0.28078 0.52028 0 0.26427 0.20233 0.41705 0.20233 0.14865 0.81345 0.28491l0.26014 0.0578q0.80932 0.17343 1.1479 0.49137 0.34272 0.31382 0.34272 0.87952 0 0.64416-0.51201 1.0199-0.50789 0.37576-1.3998 0.37576-0.37163 0-0.77629-0.0743-0.40053-0.0702-0.84648-0.21471v-0.78455q0.42118 0.21885 0.82997 0.33033 0.40879 0.10736 0.80932 0.10736 0.53679 0 0.82583-0.18168 0.28905-0.18581 0.28905-0.52028 0-0.30969-0.21059-0.47486-0.20646-0.16516-0.91255-0.31794l-0.26427-0.0619q-0.70609-0.14865-1.0199-0.45421-0.31382-0.30969-0.31382-0.84649 0-0.65241 0.46247-1.0075t1.3131-0.35511q0.42118 0 0.79281 0.0619t0.68544 0.18581z"/>
     <path d="m207.36 123.25v0.71023q-0.32207-0.17756-0.64828-0.26427-0.32208-0.0909-0.65241-0.0909-0.73913 0-1.1479 0.47073-0.40879 0.4666-0.40879 1.3131 0 0.84649 0.40879 1.3172 0.40879 0.46659 1.1479 0.46659 0.33033 0 0.65241-0.0867 0.32621-0.0908 0.64828-0.2684v0.70197q-0.31795 0.14865-0.66067 0.22297-0.33859 0.0743-0.72261 0.0743-1.0447 0-1.6599-0.65654t-0.61525-1.7714q0-1.1314 0.61938-1.7797 0.62351-0.64828 1.7054-0.64828 0.35099 0 0.68545 0.0743 0.33446 0.0702 0.64828 0.21471z"/>
     <path d="m210.48 123.61q-0.61112 0-0.96623 0.47899-0.35511 0.47486-0.35511 1.3048 0 0.82997 0.35098 1.309 0.35511 0.47485 0.97036 0.47485 0.60699 0 0.9621-0.47898 0.35511-0.47899 0.35511-1.3048 0-0.8217-0.35511-1.3007-0.35511-0.48312-0.9621-0.48312zm0-0.64415q0.99101 0 1.5567 0.64415 0.5657 0.64416 0.5657 1.7838 0 1.1355-0.5657 1.7838-0.56569 0.64416-1.5567 0.64416-0.99513 0-1.5608-0.64416-0.56157-0.64828-0.56157-1.7838 0-1.1396 0.56157-1.7838 0.5657-0.64415 1.5608-0.64415z"/>
     <path d="m214.59 127.01v2.4527h-0.7639v-6.3837h0.7639v0.70196q0.2395-0.41292 0.60287-0.61112 0.36749-0.20233 0.87538-0.20233 0.84236 0 1.3668 0.66893 0.52853 0.66893 0.52853 1.759 0 1.0901-0.52853 1.759-0.52441 0.66893-1.3668 0.66893-0.50789 0-0.87538-0.1982-0.36337-0.20233-0.60287-0.61525zm2.5849-1.6145q0-0.83822-0.34686-1.3131-0.34272-0.47898-0.94558-0.47898t-0.94971 0.47898q-0.34273 0.47486-0.34273 1.3131 0 0.83823 0.34273 1.3172 0.34685 0.47485 0.94971 0.47485t0.94558-0.47485q0.34686-0.47899 0.34686-1.3172z"/>
     <path d="m223.18 125.2v0.37163h-3.4933q0.0495 0.78455 0.47073 1.1975 0.42531 0.40879 1.181 0.40879 0.43769 0 0.84648-0.10735 0.41292-0.10736 0.81758-0.32208v0.71848q-0.40879 0.17342-0.83822 0.26427-0.42944 0.0908-0.87126 0.0908-1.1066 0-1.7549-0.64416-0.64415-0.64415-0.64415-1.7425 0-1.1355 0.61112-1.8003 0.61525-0.66893 1.6558-0.66893 0.9332 0 1.4741 0.60286 0.54505 0.59874 0.54505 1.631zm-0.75977-0.22297q-8e-3 -0.62351-0.35098-0.99514-0.3386-0.37163-0.90017-0.37163-0.63589 0-1.0199 0.35924-0.37988 0.35924-0.43769 1.0117z"/>
    </g>
   </g>
   <g transform="translate(1.8625 7.7148)">
    <path d="m162.54 267.48v36.241h-5.4365l13.591 13.591 13.591-13.591h-5.4365v-36.241z" fill="url(#linearGradient1254)" stop-color="#000000" stroke="url(#linearGradient1260)" stroke-width=".45303"/>
    <g transform="scale(1 .99997)" stroke-width=".7757" aria-label="return from scope">
     <path d="m184.84 286.88q-0.128-0.0743-0.28078-0.10736-0.14865-0.0372-0.33034-0.0372-0.64415 0-0.991 0.42118-0.34273 0.41705-0.34273 1.2016v2.4362h-0.7639v-4.6247h0.7639v0.71848q0.2395-0.42118 0.62351-0.62351 0.38402-0.20646 0.9332-0.20646 0.0785 0 0.17342 0.0124 0.095 8e-3 0.21059 0.0289z"/>
     <path d="m189.42 288.29v0.37163h-3.4933q0.0496 0.78455 0.47073 1.1975 0.4253 0.40879 1.181 0.40879 0.43769 0 0.84648-0.10736 0.41292-0.10736 0.81758-0.32208v0.71848q-0.40879 0.17343-0.83823 0.26427-0.42943 0.0908-0.87126 0.0908-1.1066 0-1.7549-0.64415-0.64416-0.64416-0.64416-1.7425 0-1.1355 0.61112-1.8003 0.61525-0.66893 1.6558-0.66893 0.9332 0 1.4741 0.60286 0.54505 0.59874 0.54505 1.631zm-0.75977-0.22297q-8e-3 -0.62351-0.35098-0.99514-0.33859-0.37162-0.90016-0.37162-0.6359 0-1.0199 0.35924-0.37989 0.35924-0.4377 1.0116z"/>
     <path d="m191.41 284.85v1.3131h1.565v0.59048h-1.565v2.5105q0 0.5657 0.15278 0.72674 0.15691 0.16104 0.63177 0.16104h0.78041v0.63589h-0.78041q-0.87952 0-1.214-0.3262-0.33447-0.33034-0.33447-1.1975v-2.5105h-0.55744v-0.59048h0.55744v-1.3131z"/>
     <path d="m193.9 288.97v-2.7996h0.75977v2.7707q0 0.65654 0.25601 0.98687 0.25601 0.32621 0.76803 0.32621 0.61525 0 0.97036-0.39227 0.35924-0.39228 0.35924-1.0695v-2.622h0.75977v4.6247h-0.75977v-0.71022q-0.27665 0.42118-0.64415 0.62764-0.36337 0.20233-0.84649 0.20233-0.79693 0-1.2098-0.4955-0.41292-0.49551-0.41292-1.4494z"/>
     <path d="m202.03 286.88q-0.12801-0.0743-0.28079-0.10736-0.14865-0.0372-0.33033-0.0372-0.64416 0-0.99101 0.42118-0.34272 0.41705-0.34272 1.2016v2.4362h-0.7639v-4.6247h0.7639v0.71848q0.23949-0.42118 0.62351-0.62351 0.38401-0.20646 0.93319-0.20646 0.0785 0 0.17343 0.0124 0.095 8e-3 0.21059 0.0289z"/>
     <path d="m206.53 288v2.7913h-0.75977v-2.7666q0-0.65654-0.25601-0.98275t-0.76803-0.32621q-0.61524 0-0.97035 0.39228-0.35512 0.39227-0.35512 1.0695v2.6138h-0.7639v-4.6247h0.7639v0.71848q0.27253-0.41705 0.64003-0.62351 0.37163-0.20646 0.85474-0.20646 0.79693 0 1.2057 0.49551 0.40879 0.49137 0.40879 1.4493z"/>
     <path d="m213.09 284.37v0.63177h-0.72674q-0.40879 0-0.56983 0.16517-0.15691 0.16517-0.15691 0.5946v0.40879h1.2512v0.59048h-1.2512v4.0342h-0.7639v-4.0342h-0.72673v-0.59048h0.72673v-0.32208q0-0.77215 0.35924-1.1231 0.35924-0.35511 1.1397-0.35511z"/>
     <path d="m216.4 286.88q-0.12801-0.0743-0.28079-0.10736-0.14865-0.0372-0.33033-0.0372-0.64416 0-0.99101 0.42118-0.34272 0.41705-0.34272 1.2016v2.4362h-0.7639v-4.6247h0.7639v0.71848q0.23949-0.42118 0.62351-0.62351 0.38401-0.20646 0.93319-0.20646 0.0785 0 0.17343 0.0124 0.095 8e-3 0.21059 0.0289z"/>
     <path d="m218.82 286.7q-0.61112 0-0.96624 0.47898-0.35511 0.47486-0.35511 1.3048 0 0.82996 0.35099 1.309 0.35511 0.47486 0.97036 0.47486 0.60699 0 0.9621-0.47899t0.35511-1.3048q0-0.82171-0.35511-1.3007-0.35511-0.48311-0.9621-0.48311zm0-0.64416q0.991 0 1.5567 0.64416 0.5657 0.64415 0.5657 1.7838 0 1.1355-0.5657 1.7838-0.5657 0.64415-1.5567 0.64415-0.99514 0-1.5608-0.64415-0.56157-0.64829-0.56157-1.7838 0-1.1397 0.56157-1.7838 0.5657-0.64416 1.5608-0.64416z"/>
     <path d="m225.79 287.06q0.28492-0.51202 0.68132-0.75564 0.3964-0.24363 0.9332-0.24363 0.7226 0 1.1149 0.50789 0.39227 0.50376 0.39227 1.437v2.7913h-0.7639v-2.7666q0-0.6648-0.23536-0.98688-0.23537-0.32208-0.71848-0.32208-0.59048 0-0.9332 0.39228-0.34272 0.39227-0.34272 1.0695v2.6138h-0.7639v-2.7666q0-0.66893-0.23537-0.98688-0.23536-0.32208-0.72673-0.32208-0.58222 0-0.92494 0.39641-0.34272 0.39227-0.34272 1.0653v2.6138h-0.7639v-4.6247h0.7639v0.71848q0.26013-0.42531 0.6235-0.62764t0.863-0.20233q0.50376 0 0.85475 0.25601 0.35511 0.25601 0.5244 0.74326z"/>
     <path d="m236.08 286.3v0.71848q-0.32208-0.16516-0.66893-0.24775-0.34685-0.0826-0.71848-0.0826-0.5657 0-0.85061 0.17342-0.28079 0.17343-0.28079 0.52028 0 0.26427 0.20233 0.41705 0.20233 0.14865 0.81345 0.28491l0.26014 0.0578q0.80932 0.17343 1.1479 0.49138 0.34272 0.31382 0.34272 0.87951 0 0.64416-0.51202 1.0199-0.50789 0.37576-1.3998 0.37576-0.37162 0-0.77628-0.0743-0.40053-0.0702-0.84649-0.21471v-0.78455q0.42118 0.21885 0.82997 0.33034 0.40879 0.10735 0.80932 0.10735 0.5368 0 0.82584-0.18168 0.28904-0.18581 0.28904-0.52028 0-0.30969-0.21059-0.47485-0.20646-0.16517-0.91255-0.31795l-0.26427-0.0619q-0.70609-0.14865-1.0199-0.45421-0.31382-0.30969-0.31382-0.84648 0-0.65242 0.46247-1.0075t1.3131-0.35511q0.42118 0 0.7928 0.0619 0.37163 0.0619 0.68545 0.18581z"/>
     <path d="m240.87 286.35v0.71022q-0.32208-0.17756-0.64829-0.26427-0.32207-0.0908-0.65241-0.0908-0.73912 0-1.1479 0.47072-0.40879 0.4666-0.40879 1.3131 0 0.84648 0.40879 1.3172 0.40879 0.4666 1.1479 0.4666 0.33034 0 0.65241-0.0867 0.32621-0.0908 0.64829-0.26839v0.70196q-0.31795 0.14865-0.66067 0.22297-0.3386 0.0743-0.72261 0.0743-1.0447 0-1.6599-0.65654t-0.61525-1.7714q0-1.1314 0.61938-1.7797 0.62351-0.64829 1.7054-0.64829 0.35098 0 0.68544 0.0743 0.33447 0.0702 0.64829 0.21472z"/>
     <path d="m243.99 286.7q-0.61112 0-0.96623 0.47898-0.35511 0.47486-0.35511 1.3048 0 0.82996 0.35098 1.309 0.35512 0.47486 0.97036 0.47486 0.607 0 0.96211-0.47899t0.35511-1.3048q0-0.82171-0.35511-1.3007-0.35511-0.48311-0.96211-0.48311zm0-0.64416q0.99101 0 1.5567 0.64416 0.5657 0.64415 0.5657 1.7838 0 1.1355-0.5657 1.7838-0.5657 0.64415-1.5567 0.64415-0.99513 0-1.5608-0.64415-0.56157-0.64829-0.56157-1.7838 0-1.1397 0.56157-1.7838 0.5657-0.64416 1.5608-0.64416z"/>
     <path d="m248.1 290.1v2.4527h-0.7639v-6.3837h0.7639v0.70196q0.2395-0.41292 0.60287-0.61112 0.36749-0.20233 0.87538-0.20233 0.84236 0 1.3668 0.66893 0.52853 0.66893 0.52853 1.759 0 1.0901-0.52853 1.759-0.52441 0.66893-1.3668 0.66893-0.50789 0-0.87538-0.1982-0.36337-0.20233-0.60287-0.61525zm2.5849-1.6145q0-0.83823-0.34685-1.3131-0.34273-0.47898-0.94559-0.47898t-0.94971 0.47898q-0.34273 0.47486-0.34273 1.3131 0 0.83822 0.34273 1.3172 0.34685 0.47485 0.94971 0.47485t0.94559-0.47485q0.34685-0.47899 0.34685-1.3172z"/>
     <path d="m256.69 288.29v0.37163h-3.4933q0.0496 0.78455 0.47073 1.1975 0.4253 0.40879 1.1809 0.40879 0.4377 0 0.84649-0.10736 0.41292-0.10736 0.81758-0.32208v0.71848q-0.40879 0.17343-0.83823 0.26427-0.42943 0.0908-0.87126 0.0908-1.1066 0-1.7549-0.64415-0.64416-0.64416-0.64416-1.7425 0-1.1355 0.61112-1.8003 0.61525-0.66893 1.6558-0.66893 0.9332 0 1.4741 0.60286 0.54505 0.59874 0.54505 1.631zm-0.75977-0.22297q-8e-3 -0.62351-0.35098-0.99514-0.33859-0.37162-0.90016-0.37162-0.6359 0-1.0199 0.35924-0.37989 0.35924-0.4377 1.0116z"/>
    </g>
   </g>
   <rect x="145.29" y="328.64" width="53.492" height="47.567" fill="url(#linearGradient1236)" stop-color="#000000" stroke="url(#linearGradient1260)" stroke-width=".6849"/>
   <g transform="translate(0 283.14)">
    <path d="m92.317 93.067v24.916" fill="none" marker-start="url(#marker2179)" stroke="#000" stroke-dasharray="0.906062, 0.453031" stroke-width=".45303"/>
    <g transform="scale(1 .99997)" stroke-width=".7757" aria-label="stack pointer">
     <path d="m64.051 123.32v0.82112q-0.36809-0.18877-0.76449-0.28315-0.3964-0.0944-0.82112-0.0944-0.64651 0-0.97213 0.1982-0.3209 0.1982-0.3209 0.5946 0 0.30203 0.23123 0.47663 0.23124 0.16989 0.92966 0.32562l0.2973 0.0661q0.92494 0.19821 1.3119 0.56157 0.39168 0.35865 0.39168 1.0052 0 0.73617-0.58516 1.1656-0.58045 0.42943-1.5998 0.42943-0.42472 0-0.88719-0.0849-0.45775-0.0802-0.96741-0.24539v-0.89663q0.48134 0.25011 0.94853 0.37753 0.46719 0.1227 0.92494 0.1227 0.61348 0 0.94381-0.20764 0.33034-0.21236 0.33034-0.59461 0-0.35393-0.24067-0.54269-0.23595-0.18876-1.0429-0.36337l-0.30202-0.0708q-0.80696-0.16989-1.1656-0.5191-0.35865-0.35393-0.35865-0.96741 0-0.74562 0.52854-1.1515t1.5007-0.40584q0.48134 0 0.90606 0.0708 0.42472 0.0708 0.78337 0.21236z"/>
     <path d="m66.58 121.66v1.5007h1.7885v0.67483h-1.7885v2.8692q0 0.64651 0.1746 0.83056 0.17932 0.18404 0.72202 0.18404h0.8919v0.72674h-0.8919q-1.0052 0-1.3874-0.37281-0.38224-0.37752-0.38224-1.3685v-2.8692h-0.63708v-0.67483h0.63708v-1.5007z"/>
     <path d="m71.917 125.79q-1.0524 0-1.4582 0.24067-0.40584 0.24068-0.40584 0.82112 0 0.46247 0.30202 0.73618 0.30674 0.26899 0.83056 0.26899 0.72202 0 1.1562-0.50966 0.43887-0.51438 0.43887-1.3638v-0.19348zm1.7319-0.35865v3.0155h-0.86831v-0.80224q-0.2973 0.48134-0.7409 0.71258-0.44359 0.22651-1.0854 0.22651-0.81168 0-1.293-0.45303-0.47663-0.45775-0.47663-1.2222 0-0.8919 0.5946-1.3449 0.59932-0.45303 1.7838-0.45303h1.2175v-0.0849q0-0.59932-0.3964-0.92494-0.39168-0.33033-1.1043-0.33033-0.45303 0-0.88247 0.10854-0.42944 0.10854-0.82584 0.32561v-0.80224q0.47663-0.18404 0.92494-0.27371 0.44831-0.0944 0.87303-0.0944 1.1467 0 1.713 0.59461 0.56629 0.5946 0.56629 1.8027z"/>
     <path d="m79.246 123.36v0.81168q-0.36809-0.20292-0.74089-0.30202-0.36809-0.10382-0.74561-0.10382-0.84471 0-1.3119 0.53797-0.46719 0.53326-0.46719 1.5007t0.46719 1.5054q0.46719 0.53326 1.3119 0.53326 0.37752 0 0.74561-0.0991 0.37281-0.10382 0.74089-0.30674v0.80224q-0.36337 0.16989-0.75505 0.25483-0.38696 0.0849-0.82584 0.0849-1.1939 0-1.8971-0.75033t-0.70314-2.0245q0-1.293 0.70786-2.0339 0.71258-0.7409 1.949-0.7409 0.40112 0 0.78337 0.0849 0.38224 0.0802 0.74089 0.24539z"/>
     <path d="m80.733 121.1h0.87303v4.3368l2.5908-2.2793h1.109l-2.8031 2.4728 2.9211 2.8126h-1.1326l-2.6852-2.5813v2.5813h-0.87303z"/>
     <path d="m90.289 127.65v2.8031h-0.87303v-7.2957h0.87303v0.80224q0.27371-0.47191 0.68898-0.69842 0.42-0.23124 1.0004-0.23124 0.96269 0 1.562 0.76449 0.60404 0.76449 0.60404 2.0103 0 1.2458-0.60404 2.0103-0.59932 0.76449-1.562 0.76449-0.58044 0-1.0004-0.22651-0.41528-0.23124-0.68898-0.70314zm2.9541-1.8452q0-0.95797-0.3964-1.5007-0.39168-0.54741-1.0807-0.54741-0.68898 0-1.0854 0.54741-0.39168 0.5427-0.39168 1.5007t0.39168 1.5054q0.3964 0.5427 1.0854 0.5427 0.68898 0 1.0807-0.5427 0.3964-0.54741 0.3964-1.5054z"/>
     <path d="m97.632 123.77q-0.69842 0-1.1043 0.54741-0.40584 0.54269-0.40584 1.4912 0 0.94853 0.40112 1.4959 0.40584 0.5427 1.109 0.5427 0.6937 0 1.0995-0.54742 0.40584-0.54741 0.40584-1.4912 0-0.9391-0.40584-1.4865-0.40584-0.55213-1.0995-0.55213zm0-0.73618q1.1326 0 1.7791 0.73618 0.64652 0.73617 0.64652 2.0386 0 1.2977-0.64652 2.0386-0.64651 0.73617-1.7791 0.73617-1.1373 0-1.7838-0.73617-0.64179-0.7409-0.64179-2.0386 0-1.3025 0.64179-2.0386 0.64651-0.73618 1.7838-0.73618z"/>
     <path d="m101.49 123.16h0.86831v5.2854h-0.86831zm0-2.0575h0.86831v1.0996h-0.86831z"/>
     <path d="m108.57 125.25v3.1901h-0.86831v-3.1618q0-0.75033-0.29258-1.1231t-0.87775-0.37281q-0.70314 0-1.109 0.44832-0.40584 0.44831-0.40584 1.2222v2.9872h-0.87303v-5.2854h0.87303v0.82112q0.31146-0.47663 0.73146-0.71258 0.42471-0.23596 0.97684-0.23596 0.91079 0 1.378 0.56629 0.46719 0.56157 0.46719 1.6564z"/>
     <path d="m111.17 121.66v1.5007h1.7885v0.67483h-1.7885v2.8692q0 0.64651 0.17461 0.83056 0.17932 0.18404 0.72202 0.18404h0.8919v0.72674h-0.8919q-1.0052 0-1.3874-0.37281-0.38225-0.37752-0.38225-1.3685v-2.8692h-0.63707v-0.67483h0.63707v-1.5007z"/>
     <path d="m118.62 125.59v0.42472h-3.9923q0.0566 0.89662 0.53797 1.3685 0.48607 0.46719 1.3497 0.46719 0.50022 0 0.96741-0.1227 0.47191-0.12269 0.93438-0.36809v0.82112q-0.46719 0.1982-0.95798 0.30202-0.49078 0.10382-0.99572 0.10382-1.2647 0-2.0056-0.73617-0.73617-0.73618-0.73617-1.9914 0-1.2978 0.69842-2.0575 0.70314-0.76449 1.8924-0.76449 1.0665 0 1.6847 0.68899 0.62292 0.68426 0.62292 1.864zm-0.86831-0.25483q-9e-3 -0.71258-0.40113-1.1373-0.38696-0.42472-1.0288-0.42472-0.72674 0-1.1656 0.41056-0.43416 0.41056-0.50023 1.1562z"/>
     <path d="m123.11 123.97q-0.1463-0.0849-0.3209-0.1227-0.16989-0.0425-0.37753-0.0425-0.73617 0-1.1326 0.48135-0.39169 0.47662-0.39169 1.3732v2.7842h-0.87303v-5.2854h0.87303v0.82112q0.27371-0.48135 0.71258-0.71258 0.43888-0.23596 1.0665-0.23596 0.0897 0 0.1982 0.0142 0.10854 9e-3 0.24068 0.033z"/>
    </g>
   </g>
   <g transform="translate(0 283.14)">
    <rect x="24.36" y="45.5" width="67.957" height="47.567" fill="url(#linearGradient1242)" stop-color="#000000" stroke="url(#linearGradient1260)" stroke-width=".6849"/>
    <g transform="scale(1 .99997)" stroke-width=".7757" aria-label="used">
     <path d="m48.906 70.613v-2.7996h0.75977v2.7707q0 0.65654 0.25601 0.98688 0.25601 0.32621 0.76803 0.32621 0.61525 0 0.97036-0.39227 0.35924-0.39227 0.35924-1.0695v-2.622h0.75977v4.6247h-0.75977v-0.71022q-0.27666 0.42118-0.64415 0.62764-0.36337 0.20233-0.84648 0.20233-0.79693 0-1.2099-0.4955-0.41292-0.4955-0.41292-1.4493z"/>
     <path d="m57.3 67.95v0.71848q-0.32208-0.16517-0.66893-0.24775-0.34685-0.08258-0.71848-0.08258-0.5657 0-0.85061 0.17343-0.28078 0.17343-0.28078 0.52028 0 0.26427 0.20233 0.41705 0.20233 0.14865 0.81345 0.28491l0.26014 0.05781q0.80932 0.17343 1.1479 0.49137 0.34272 0.31382 0.34272 0.87952 0 0.64415-0.51202 1.0199-0.50789 0.37576-1.3998 0.37576-0.37163 0-0.77629-0.07433-0.40053-0.0702-0.84648-0.21472v-0.78455q0.42118 0.21885 0.82997 0.33034 0.40879 0.10736 0.80932 0.10736 0.53679 0 0.82584-0.18168 0.28904-0.18581 0.28904-0.52028 0-0.30969-0.21059-0.47486-0.20646-0.16517-0.91255-0.31795l-0.26427-0.06194q-0.70609-0.14865-1.0199-0.45421-0.31382-0.30969-0.31382-0.84648 0-0.65241 0.46247-1.0075t1.3131-0.35511q0.42118 0 0.7928 0.06194t0.68544 0.18581z"/>
     <path d="m62.718 69.936v0.37163h-3.4933q0.04955 0.78455 0.47073 1.1975 0.42531 0.40879 1.1809 0.40879 0.43769 0 0.84648-0.10736 0.41292-0.10736 0.81758-0.32208v0.71848q-0.40879 0.17343-0.83823 0.26427-0.42944 0.09084-0.87126 0.09084-1.1066 0-1.7549-0.64415-0.64415-0.64415-0.64415-1.7425 0-1.1355 0.61112-1.8003 0.61525-0.66893 1.6558-0.66893 0.9332 0 1.4741 0.60286 0.54505 0.59873 0.54505 1.631zm-0.75977-0.22298q-0.0083-0.62351-0.35098-0.99514-0.33859-0.37163-0.90016-0.37163-0.6359 0-1.0199 0.35924-0.37989 0.35924-0.4377 1.0117z"/>
     <path d="m67.008 68.516v-2.5023h0.75977v6.425h-0.75977v-0.6937q-0.23949 0.41292-0.60699 0.61525-0.36337 0.1982-0.87539 0.1982-0.83823 0-1.3668-0.66893-0.52441-0.66893-0.52441-1.759t0.52441-1.759q0.52854-0.66893 1.3668-0.66893 0.51202 0 0.87539 0.20233 0.3675 0.1982 0.60699 0.61112zm-2.589 1.6145q0 0.83822 0.34272 1.3172 0.34685 0.47486 0.94971 0.47486t0.94971-0.47486q0.34685-0.47899 0.34685-1.3172t-0.34685-1.3131q-0.34685-0.47899-0.94971-0.47899t-0.94971 0.47899q-0.34272 0.47486-0.34272 1.3131z"/>
    </g>
   </g>
   <g transform="scale(1 .99997)" stroke-width=".7757" aria-label="free">
    <path d="m166.96 349.16v0.63177h-0.72673q-0.40879 0-0.56983 0.16517-0.15691 0.16516-0.15691 0.5946v0.40879h1.2511v0.59047h-1.2511v4.0342h-0.7639v-4.0342h-0.72674v-0.59047h0.72674v-0.32208q0-0.77216 0.35924-1.1231 0.35924-0.35511 1.1396-0.35511z"/>
    <path d="m170.27 351.67q-0.128-0.0743-0.28078-0.10736-0.14865-0.0372-0.33034-0.0372-0.64415 0-0.991 0.42118-0.34273 0.41704-0.34273 1.2016v2.4362h-0.7639v-4.6247h0.7639v0.71848q0.2395-0.42118 0.62351-0.62351 0.38402-0.20646 0.9332-0.20646 0.0785 0 0.17342 0.0124 0.095 8e-3 0.21059 0.0289z"/>
    <path d="m174.85 353.08v0.37163h-3.4933q0.0496 0.78455 0.47073 1.1975 0.4253 0.40879 1.181 0.40879 0.43769 0 0.84648-0.10735 0.41292-0.10736 0.81758-0.32208v0.71848q-0.40879 0.17342-0.83823 0.26427-0.42943 0.0908-0.87126 0.0908-1.1066 0-1.7549-0.64416-0.64416-0.64415-0.64416-1.7425 0-1.1355 0.61113-1.8003 0.61524-0.66893 1.6558-0.66893 0.9332 0 1.4741 0.60286 0.54505 0.59874 0.54505 1.631zm-0.75977-0.22297q-8e-3 -0.62351-0.35098-0.99514-0.33859-0.37163-0.90016-0.37163-0.6359 0-1.0199 0.35924-0.37989 0.35924-0.4377 1.0117z"/>
    <path d="m180.05 353.08v0.37163h-3.4933q0.0496 0.78455 0.47073 1.1975 0.4253 0.40879 1.1809 0.40879 0.4377 0 0.84649-0.10735 0.41292-0.10736 0.81758-0.32208v0.71848q-0.40879 0.17342-0.83823 0.26427-0.42943 0.0908-0.87126 0.0908-1.1066 0-1.7549-0.64416-0.64416-0.64415-0.64416-1.7425 0-1.1355 0.61112-1.8003 0.61525-0.66893 1.6558-0.66893 0.9332 0 1.4741 0.60286 0.54505 0.59874 0.54505 1.631zm-0.75977-0.22297q-8e-3 -0.62351-0.35098-0.99514-0.33859-0.37163-0.90016-0.37163-0.6359 0-1.0199 0.35924-0.37989 0.35924-0.4377 1.0117z"/>
   </g>
   <rect x="92.317" y="328.64" width="52.973" height="47.567" fill="none" stop-color="#000000" stroke="url(#linearGradient1260)" stroke-width=".6849"/>
   <g transform="matrix(1 0 0 .99997 -18.276 170.22)" stroke-width=".7757" style="inline-size:46.4667;white-space:pre" aria-label="reclaimed">
    <path d="m119.63 181.45q-0.12801-0.0743-0.28079-0.10736-0.14865-0.0372-0.33033-0.0372-0.64416 0-0.99101 0.42118-0.34272 0.41705-0.34272 1.2016v2.4362h-0.7639v-4.6247h0.7639v0.71848q0.23949-0.42118 0.6235-0.62351 0.38402-0.20646 0.9332-0.20646 0.0785 0 0.17343 0.0124 0.095 8e-3 0.21059 0.0289z"/>
    <path d="m124.2 182.86v0.37162h-3.4933q0.0495 0.78455 0.47073 1.1975 0.42531 0.40879 1.181 0.40879 0.43769 0 0.84648-0.10736 0.41292-0.10736 0.81758-0.32208v0.71848q-0.40879 0.17343-0.83822 0.26427-0.42944 0.0908-0.87126 0.0908-1.1066 0-1.7549-0.64415-0.64415-0.64416-0.64415-1.7425 0-1.1355 0.61112-1.8003 0.61525-0.66893 1.6558-0.66893 0.9332 0 1.4741 0.60287 0.54506 0.59873 0.54506 1.631zm-0.75977-0.22298q-8e-3 -0.62351-0.35099-0.99514-0.33859-0.37162-0.90016-0.37162-0.63589 0-1.0199 0.35924-0.37988 0.35924-0.43769 1.0116z"/>
    <path d="m128.78 180.91v0.71022q-0.32208-0.17756-0.64828-0.26427-0.32208-0.0908-0.65242-0.0908-0.73912 0-1.1479 0.47073-0.40879 0.46659-0.40879 1.3131 0 0.84648 0.40879 1.3172 0.40879 0.4666 1.1479 0.4666 0.33034 0 0.65242-0.0867 0.3262-0.0908 0.64828-0.26839v0.70196q-0.31795 0.14865-0.66067 0.22298-0.3386 0.0743-0.72261 0.0743-1.0447 0-1.6599-0.65654-0.61525-0.65654-0.61525-1.7714 0-1.1314 0.61937-1.7797 0.62351-0.64829 1.7054-0.64829 0.35098 0 0.68545 0.0743 0.33446 0.0702 0.64828 0.21472z"/>
    <path d="m130.11 178.94h0.75977v6.425h-0.75977z"/>
    <path d="m134.56 183.04q-0.92081 0-1.2759 0.21059t-0.35511 0.71848q0 0.40466 0.26427 0.64415 0.2684 0.23537 0.72674 0.23537 0.63177 0 1.0116-0.44596 0.38402-0.45008 0.38402-1.1933v-0.1693zm1.5154-0.31382v2.6386h-0.75977v-0.70196q-0.26014 0.42118-0.64829 0.62351-0.38814 0.1982-0.94971 0.1982-0.71022 0-1.1314-0.3964-0.41705-0.40053-0.41705-1.0695 0-0.78042 0.52028-1.1768 0.52441-0.3964 1.5608-0.3964h1.0653v-0.0743q0-0.5244-0.34686-0.80932-0.34272-0.28904-0.96623-0.28904-0.3964 0-0.77216 0.095-0.37575 0.095-0.7226 0.28491v-0.70196q0.41704-0.16104 0.80932-0.23949 0.39227-0.0826 0.7639-0.0826 1.0034 0 1.4989 0.52028 0.49551 0.52028 0.49551 1.5774z"/>
    <path d="m137.64 180.74h0.75977v4.6247h-0.75977zm0-1.8003h0.75977v0.9621h-0.75977z"/>
    <path d="m143.59 181.62q0.28492-0.51202 0.68132-0.75564 0.3964-0.24363 0.9332-0.24363 0.7226 0 1.1149 0.50789 0.39227 0.50377 0.39227 1.437v2.7913h-0.7639v-2.7666q0-0.6648-0.23536-0.98688-0.23537-0.32208-0.71848-0.32208-0.59048 0-0.9332 0.39228-0.34272 0.39227-0.34272 1.0695v2.6138h-0.7639v-2.7666q0-0.66893-0.23537-0.98688-0.23536-0.32208-0.72673-0.32208-0.58222 0-0.92494 0.39641-0.34272 0.39227-0.34272 1.0653v2.6138h-0.7639v-4.6247h0.7639v0.71848q0.26013-0.42531 0.6235-0.62764t0.863-0.20233q0.50376 0 0.85475 0.25601 0.35511 0.25601 0.5244 0.74326z"/>
    <path d="m152.18 182.86v0.37162h-3.4933q0.0495 0.78455 0.47073 1.1975 0.4253 0.40879 1.181 0.40879 0.43769 0 0.84648-0.10736 0.41292-0.10736 0.81758-0.32208v0.71848q-0.40879 0.17343-0.83823 0.26427-0.42943 0.0908-0.87126 0.0908-1.1066 0-1.7549-0.64415-0.64415-0.64416-0.64415-1.7425 0-1.1355 0.61112-1.8003 0.61524-0.66893 1.6558-0.66893 0.9332 0 1.4741 0.60287 0.54505 0.59873 0.54505 1.631zm-0.75977-0.22298q-8e-3 -0.62351-0.35098-0.99514-0.33859-0.37162-0.90016-0.37162-0.6359 0-1.0199 0.35924-0.37989 0.35924-0.43769 1.0116z"/>
    <path d="m156.47 181.44v-2.5023h0.75977v6.425h-0.75977v-0.6937q-0.23949 0.41292-0.60699 0.61525-0.36337 0.1982-0.87539 0.1982-0.83822 0-1.3668-0.66893-0.5244-0.66893-0.5244-1.759 0-1.0901 0.5244-1.759 0.52854-0.66893 1.3668-0.66893 0.51202 0 0.87539 0.20233 0.3675 0.19821 0.60699 0.61112zm-2.589 1.6145q0 0.83822 0.34272 1.3172 0.34686 0.47486 0.94972 0.47486t0.94971-0.47486q0.34685-0.47899 0.34685-1.3172 0-0.83823-0.34685-1.3131-0.34685-0.47899-0.94971-0.47899t-0.94972 0.47899q-0.34272 0.47485-0.34272 1.3131z"/>
   </g>
  </g>
 </g>
</svg>
