<?xml version="1.0" encoding="UTF-8"?>
<svg width="72.565mm" height="106.21mm" version="1.1" viewBox="0 0 72.565 106.21" xmlns="http://www.w3.org/2000/svg" xmlns:cc="http://creativecommons.org/ns#" xmlns:dc="http://purl.org/dc/elements/1.1/" xmlns:osb="http://www.openswatchbook.org/uri/2009/osb" xmlns:rdf="http://www.w3.org/1999/02/22-rdf-syntax-ns#" xmlns:xlink="http://www.w3.org/1999/xlink">
 <defs>
  <linearGradient id="linearGradient5165" osb:paint="solid">
   <stop stop-color="#71f79f" offset="0"/>
  </linearGradient>
  <linearGradient id="linearGradient889" gradientTransform="matrix(.002218 0 0 .046926 90.517 145.99)" osb:paint="solid">
   <stop stop-color="#513c2c" offset="0"/>
  </linearGradient>
  <linearGradient id="linearGradient935" x1="18.704" x2="190.91" y1="268.52" y2="268.52" gradientTransform="translate(.19287)" gradientUnits="userSpaceOnUse">
   <stop stop-color="#15b097" offset="0"/>
  </linearGradient>
  <linearGradient id="linearGradient6440" x1="94.356" x2="116.88" y1="137.68" y2="137.68" gradientTransform="matrix(.46993 0 0 .45464 55.368 40.953)" gradientUnits="userSpaceOnUse" xlink:href="#linearGradient889"/>
  <linearGradient id="linearGradient6472" x1="86.11" x2="110.63" y1="118.92" y2="118.92" gradientTransform="matrix(1 0 0 1.1581 6.6277 -13.686)" gradientUnits="userSpaceOnUse" xlink:href="#linearGradient889"/>
  <linearGradient id="linearGradient7092" x1="23.33" x2="195.33" y1="-11.453" y2="-11.453" gradientTransform="translate(-4.3322 76.486)" gradientUnits="userSpaceOnUse">
   <stop stop-color="#71f79f" offset="0"/>
  </linearGradient>
  <linearGradient id="linearGradient8814" gradientTransform="matrix(.0088719 0 0 .1877 47.067 -58.988)" gradientUnits="userSpaceOnUse">
   <stop offset="0"/>
  </linearGradient>
 </defs>
 <metadata>
  <rdf:RDF>
   <cc:Work rdf:about="">
    <dc:format>image/svg+xml</dc:format>
    <dc:type rdf:resource="http://purl.org/dc/dcmitype/StillImage"/>
    <dc:title/>
   </cc:Work>
  </rdf:RDF>
 </metadata>
 <g transform="translate(-36.289 56.912)">
  <g transform="matrix(.25 0 0 .25 46.321 3.1171)" style="mix-blend-mode:normal">
   <g transform="matrix(3 0 0 3 -210 -239.75)">
    <g transform="matrix(.5625 0 0 .5625 45.938 30.925)">
     <g transform="translate(1.3215e-7 -188.88)">
      <g transform="translate(1.4147e-6 70.067)" style="mix-blend-mode:normal">
       <rect x="18.997" y="246.67" width="172.01" height="43.693" rx="24.946" ry="31.75" fill="url(#linearGradient935)"/>
       <g fill="url(#linearGradient8814)" stroke-width=".26458" aria-label="OS / CPU">
        <path d="m85.692 264.95q-1.1369 0-1.8087 0.84749-0.66662 0.84749-0.66662 2.3099 0 1.4573 0.66662 2.3048 0.67179 0.84749 1.8087 0.84749t1.7983-0.84749q0.66662-0.84749 0.66662-2.3048 0-1.4624-0.66662-2.3099-0.66146-0.84749-1.7983-0.84749zm0-0.84749q1.6226 0 2.5941 1.0904 0.97151 1.0852 0.97151 2.9145 0 1.8242-0.97151 2.9145-0.97151 1.0852-2.5941 1.0852-1.6278 0-2.6045-1.0852-0.97151-1.0852-0.97151-2.9145t0.97151-2.9145q0.97668-1.0904 2.6045-1.0904z"/>
        <path d="m95.516 264.49v1.018q-0.59428-0.28422-1.1214-0.42374-0.5271-0.13953-1.018-0.13953-0.85266 0-1.3177 0.33073-0.45992 0.33073-0.45992 0.94051 0 0.51159 0.30489 0.77514 0.31006 0.25838 1.1679 0.41858l0.63045 0.12919q1.1679 0.22221 1.7208 0.78548 0.5581 0.5581 0.5581 1.4986 0 1.1214-0.75447 1.7002-0.74931 0.57877-2.2014 0.57877-0.54777 0-1.1679-0.12402-0.61495-0.12402-1.2764-0.3669v-1.0749q0.63562 0.35657 1.2454 0.53743 0.60978 0.18087 1.1989 0.18087 0.894 0 1.3798-0.3514 0.48576-0.3514 0.48576-1.0025 0-0.56844-0.3514-0.88883-0.34623-0.32039-1.142-0.48059l-0.63562-0.12402q-1.1679-0.23254-1.6898-0.72864-0.52193-0.49609-0.52193-1.3798 0-1.0232 0.7183-1.6123 0.72347-0.58911 1.9895-0.58911 0.5426 0 1.1059 0.0982 0.56327 0.0982 1.1524 0.29456z"/>
        <path d="m102.63 264.24h0.8785l-2.6872 8.6971h-0.87849z"/>
        <path d="m113.7 264.83v1.1007q-0.5271-0.49093-1.1266-0.73381-0.59427-0.24288-1.2661-0.24288-1.3229 0-2.0257 0.81132-0.7028 0.80615-0.7028 2.3358 0 1.5244 0.7028 2.3358 0.70279 0.80615 2.0257 0.80615 0.67179 0 1.2661-0.24288 0.59945-0.24288 1.1266-0.7338v1.0904q-0.54777 0.37207-1.1627 0.55811-0.60978 0.18603-1.2919 0.18603-1.7518 0-2.7595-1.0697-1.0077-1.0749-1.0077-2.93 0-1.8604 1.0077-2.93 1.0077-1.0749 2.7595-1.0749 0.69247 0 1.3022 0.18603 0.61494 0.18087 1.1524 0.54777z"/>
        <path d="m116.37 265.1v2.899h1.3126q0.72863 0 1.1265-0.37724 0.39791-0.37723 0.39791-1.0749 0-0.69247-0.39791-1.0697-0.39791-0.37724-1.1265-0.37724zm-1.0439-0.85783h2.3564q1.2971 0 1.9585 0.58911 0.66662 0.58395 0.66662 1.7157 0 1.142-0.66662 1.726-0.66146 0.58395-1.9585 0.58395h-1.3126v3.1006h-1.0439z"/>
        <path d="m121.59 264.24h1.049v4.687q0 1.2402 0.44958 1.788 0.44959 0.5426 1.4573 0.5426 1.0025 0 1.4521-0.5426 0.44958-0.54777 0.44958-1.788v-4.687h1.049v4.8162q0 1.509-0.74931 2.2789-0.74413 0.76997-2.2014 0.76997-1.4624 0-2.2118-0.76997-0.74414-0.76998-0.74414-2.2789z"/>
       </g>
      </g>
      <g transform="matrix(.52941 0 0 .52941 12.918 170.5)" style="mix-blend-mode:normal">
       <rect x="51.595" y="327.88" width="68.815" height="55.997" ry="27.998" fill="#fff" stop-color="#000000" style="font-variation-settings:normal"/>
       <g transform="matrix(.072941 0 0 .071644 62.752 334.85)">
        <g transform="matrix(.99456 0 0 .99456 -.00014495 -.00026617)" clip-rule="evenodd" fill="#007dc5" fill-rule="evenodd">
         <path d="m543.17 88.286 10.211-71.471s-85.691-31.725-213.32-8.021c-126.54 22.244-221.71 97.724-262.55 137.84-39.746 39.746-84.598 112.31-76.576 209.31 7.295 98.086 68.553 166.64 133.82 200.19 65.273 33.547 176.85 48.867 276.77 16.414 29.535-10.211 153.15-45.945 206.39-164.46 45.945-100.27 9.117-184.87 9.117-184.87s-39.746-123.62-191.08-140.02v58.344s88.973 1.822 138.93 65.27c48.133 61.26 52.145 120.7 18.598 187.79-13.492 23.703-82.773 149.14-285.15 158.62-14.221 0-153.15 5.836-233.74-87.883-66.366-78.758-52.145-142.21-48.134-164.45 2.188-7.293 8.021-24.795 12.396-33.91 16.045-37.561 59.074-103.93 134.55-142.94 112.68-57.248 189.98-78.762 294.27-64.176 11.302 1.822 55.06 10.21 75.481 28.441zm-98.82 29.537c0-10.211 9.117-19.326 19.328-19.326 11.301 0 20.418 9.115 20.418 19.326 0 11.303-9.117 20.42-20.418 20.42-10.211 0-19.328-9.118-19.328-20.42z"/>
         <path d="m463.68 254.93v-2.189c1.094-1.094 2.914-2.918 6.195-4.01 6.93-1.094 14.223-2.189 23.34 4.01h1.094s0 1.094 1.094 1.094c1.094 1.096 1.094 2.918 0 6.199 0 5.834-4.012 167.37-4.012 167.37v1.094c-1.094 1.094-2.188 1.094-4.375 1.828-2.918 1.086-12.035-0.734-14.223-1.828l-1.094-1.094c-0.727-1.094-1.824-2.188-1.824-2.914v-22.609-1.094-1.094c-1.094-0.734-3.281-0.734-5.102 2.188 0 0-2.188 4.008-5.105 8.023-3.281 5.102-6.199 10.211-8.387 12.398 0 0-8.023 7.289-16.043 2.914l-2.191-0.727c-1.094 0-2.188-2.188-4.008-4.375-3.285-4.016-7.293-10.945-8.387-23.336-2.918-24.438 1.094-60.172 15.313-73.664 0 0 1.094-0.727 2.188-1.82s2.918-3.281 6.199-5.109c4.012-4.008 11.305-8.383 20.422-9.477 0 0 1.094 0 1.094-0.734l-2.188-50.316v-0.729zm1.094 77.67c-1.094-1.094-2.188-1.094-4.012 1.82-1.094 0-14.586 13.492-15.316 48.133v6.203c0 2.914 0 6.922 0.73 8.023 1.094 0 4.375 0 9.48-5.109 0.73-2.188 2.918-2.914 4.012-4.008 1.094-2.188 1.824-3.289 2.918-5.109 2.188-3.281 3.281-7.289 3.281-12.398v-34.641-1.094c1e-3 0 1e-3 -1.093-1.093-1.82z"/>
         <path d="m532.23 339.53c-2.188 1.094-3.281 2.18-3.281 4.008v9.484c0 4.008 0 8.016 1.094 10.203v0.734l2.188 2.188c1.824 1.094 4.012 2.188 8.023 0l1.094-1.094c1.094-1.094 2.918-1.828 4.012-2.922 2.918-2.188 6.199-6.195 8.023-10.211 0-1.094 6.195-9.109 16.406-2.188l1.094 1.094c1.098 0 1.098 1.094 2.188 2.195 0.73 1.82 1.824 5.102 0 10.938-1.09 2.188-2.188 3.281-3.281 4.375-1.094 1.82-1.094 2.914-1.82 4.008-2.191 4.016-5.105 6.93-8.391 10.211-6.195 5.109-15.313 9.117-29.535 6.93-1.094 0-2.188 0-5.105-0.727-2.188-1.094-6.195-3.281-9.113-7.297-7.293-7.289-14.223-19.328-13.492-43.023 0 0 4.375-44.855 22.605-57.982 0-1.094 1.094-1.094 2.188-3.281 1.824-1.094 4.012-1.824 6.93-4.012 6.199-2.188 14.223-2.918 23.703 1.094 18.23 8.021 10.938 30.635 8.02 38.65-2.914 8.391-12.395 24.797-26.617 26.625h-5.105-1.094zm19.328-37.93c1.094-2.914 1.094-6.926-2.188-9.113 0 0-6.199-1.822-13.129 12.402-7.293 15.313-4.012 23.336-4.012 23.336h0.73s12.398-4.016 17.504-19.328c1e-3 0 1.095-2.922 1.095-7.297z"/>
         <path d="m411.53 331.51v1.094c1.094 0.727 1.094 0.727 1.094 1.82 0 2.188-2.188 96.992-2.188 96.992s0 6.203-2.918 7.297c-4.012 1.094-15.316 1.094-18.598-2.188-0.73 0-0.73-1.094-1.824-1.094 0-0.727-1.094-2.914-1.094-4.016l-2.918-105.02h16.047z"/>
         <path d="m371.79 336.61v0 1.828c0 2.188 0 3.273-2.188 5.102 0 0-1.824 2.188-4.012 5.102-2.188 2.188-4.012 5.109-6.199 9.484-5.105 5.836-10.211 12.031-13.129 15.313-1.094 0-1.094 0.734-1.094 0.734 0 1.094-1.094 2.188-1.094 4.375 0 1.82 1.094 4.008 3.281 5.102 5.105 1.828 19.328 12.031 26.254 25.523v1.828c1.098 1.094 1.098 3.281 2.191 6.195 0 4.016 0 11.305-4.012 17.508-3.281 5.828-9.117 14.219-14.223 21.148-4.375 6.195-8.387 11.305-8.387 11.305-1.094 1.094-10.211 8.383-17.137 3.281l-2.188-2.188c-1.098 0-2.918-2.188-4.012-2.922-2.189-3.281-4.012-7.289-1.096-11.305l22.607-32.813s0.73-1.094 1.824-2.922c1.094-2.188 1.094-5.102-1.824-8.383-5.102-4.016-27.713-27.352-27.713-29.539 0-1.094-1.092-1.094-1.092-1.82-1.096-1.094-1.096-2.188-1.824-4.375-1.094-4.016-2.188-8.023 0.729-13.133 5.105-6.195 10.213-14.219 15.314-21.508 6.199-6.93 13.492-14.227 20.422-16.414 0 0 1.094-0.727 3.281-0.727 1.824-1.094 5.105-1.094 6.199 0 4.016 0.729 6.934 8.026 9.122 14.221z"/>
         <path d="m264.58 386.57 0.73 1.094c1.092 1.094 2.188 0 3.281-1.094h1.094v-1.094-1.828c0-2.188 0.729-4.375 1.824-6.195 2.188-5.109 5.105-10.211 11.303-12.398 0 0 17.504-5.109 23.703 8.383 0 0 0.729 0.734 0.729 2.922 1.094 2.914 3.281 7.289 4.375 13.125 1.824 13.492 5.105 39.016 2.918 79.859 0 0 0 8.016-5.105 11.305h-1.094s-1.094 1.094-2.918 1.094c-2.188 0-5.104-1.094-9.115-3.281h-1.094c0-1.102-1.094-1.102-1.094-1.102-1.094-0.727-2.918-2.914-2.918-6.195 0 0-7.293-63.086-8.387-69.281 0-4.008-1.824-6.203-4.012-7.297-1.094-0.727-2.916-0.727-5.104 2.195 0 0-3.283 5.102-7.295 13.125-2.916 7.289-6.926 17.5-6.926 27.711 0.729 20.422 1.822 32.82 1.822 32.82v0.727 1.094c0 1.094-1.094 3.281-1.822 4.375-3.283 1.828-12.398 5.109-18.598 1.828 0-1.102 0-1.102-1.094-1.102 0 0-0.73 0-0.73-0.727-1.094-1.094-2.188-2.188-2.188-5.469l-4.01-111.22h31.723v26.625z"/>
         <path d="m210.25 379.27h-4.012c-2.916-1.82-14.221-10.938-14.221-10.938h-1.092s0-1.094-1.096-1.094c0-1.094-1.094-3.281 1.096-5.109 2.916-4.008 9.115-13.492 10.209-14.219 1.094-1.094 2.188-2.188 4.012 0 3.281 0.727 17.502 10.211 17.502 10.211s0 0.727 1.094 1.82v3.281c-2.188 2.922-12.398 15.32-12.398 15.32z"/>
         <path d="m218.63 391.67h0.73v2.188c0 1.82-0.73 95.898-0.73 95.898s0 6.203-4.375 7.297c-4.012 0.727-14.221 1.82-18.232-1.094v-1.094c-1.094 0-1.094-1.094-2.188-1.094-0.73-1.094-1.824-2.922-1.824-4.016l-2.188-103.19h16.408z"/>
         <path d="m465.86 120.01c2.914-1.094 5.832-2.188 5.832-6.199 0-5.104-4.008-6.199-8.02-6.199h-6.199v20.42h2.188v-8.021h4.012l5.102 8.021h4.012zm-6.199-2.187v-8.023h2.918c4.008 0 6.195 1.096 6.195 4.012 0 2.918-2.188 4.012-5.102 4.012h-4.011z"/>
         <path d="m302.14 233.42c-0.729 0-1.822 1.094-1.822 2.918 0 3.281-1.096 6.199-1.096 10.209 0 3.281 0 7.293 1.096 9.117 0 0 0 1.094 1.094 1.094 0 1.094 0.729 2.188 0.729 2.188 2.188 1.094 5.105 1.824 8.387 1.094 0 0 1.094-1.094 1.824-2.188 1.094 0 2.188-1.094 3.281-2.188 2.918-2.918 6.199-5.836 8.021-10.939 0 0 6.201-9.482 16.412-1.094h1.09c1.098 1.094 1.824 1.822 1.824 2.916 2.188 2.189 2.188 5.105 0 10.211-0.727 2.188-1.824 3.281-1.824 5.105-1.09 1.094-2.188 2.188-3.281 4.01-1.82 3.283-4.012 6.199-8.02 9.48-6.201 5.105-15.316 9.117-29.537 8.023 0 0-2.188-1.096-5.105-2.188-2.188-0.73-6.199-2.918-9.117-6.93-7.293-6.199-14.584-19.324-12.396-41.934 0 0 2.918-45.945 21.514-59.072 0 0 1.094-1.094 2.918-2.188 1.092-1.094 4.01-2.918 6.197-4.012 6.199-3.281 14.223-4.012 23.34 0 18.594 9.115 11.301 31.725 8.387 39.746-3.285 8.021-12.4 23.338-26.621 25.525l-5.105 1.094c-1.096-1.091-1.096-1.091-2.19 3e-3zm20.42-37.924c0-2.916 0-8.021-1.822-10.209-1.096 0-7.293-1.822-13.492 12.398-6.928 15.316-4.012 23.336-4.012 23.336s0 1.094 1.094 0c0 0 11.305-4.012 16.41-19.326 0 0 1.094-2.916 1.822-6.199z"/>
         <path d="m230.67 137.15v-1.824c1.094-1.094 2.189-2.188 5.105-1.094l21.514-1.094s6.199 0 6.199 7.293v16.408 1.096 0.729c1.094 1.094 1.824 1.094 4.012 0 2.916-0.729 16.408-5.834 16.408-5.834h1.094c1.094 0 1.094-1.094 1.824-1.094 1.094 0 3.281 0 5.105 1.822 3.281 3.281 2.188 9.48 2.188 9.48s0 2.918-2.918 5.105c-2.188 0.729-27.713 10.939-27.713 10.939-1.092 0-1.092 0-1.092 1.094l-2.189 129.81v1.094 1.094c0 0.727 0 1.82-1.822 1.82 0 0-1.096 1.094-2.189 1.094-1.094 1.094-2.916 2.188-5.105 2.922-4.01 1.094-9.117 1.094-13.127-2.922 0 0-4.01-2.914-4.01-7.289l-2.189-113.4c0-0.73-1.094-0.73-1.094-0.73l-26.619 10.939c-1.822-1.824-17.137-10.939-17.137-19.326v-1.823s0-1.096 1.094-1.096c0.729 0 12.033-3.281 22.242-6.199 10.211-4.01 20.42-7.293 20.42-7.293s1.094 0 1.094-0.729z"/>
         <path d="m168.31 238.52v1.094c1.094 0 1.094 0 3.281-1.094v-3.283c1.096-1.822 1.822-4.01 2.918-5.834 2.188-5.104 5.104-10.209 12.398-12.398 0 0 1.094 0 1.822-1.092h7.293c5.105 0 9.117 2.188 12.398 7.293 0.729 0 1.822 4.012 4.01 6.928 2.918 9.48 8.023 32.818 6.199 88.975 0 0 0 2.188-1.094 5.102-1.094 3.281-2.188 5.109-5.105 7.297 1.094 0 0 0 0 0h-1.094s-1.094 1.094-2.916 1.094c-2.189 0-6.199 0-10.211-3.281 0 0-4.375-1.828-5.105-6.93 0 0-6.197-62.355-8.385-68.555-1.096-6.197-5.107-9.115-6.93-5.104 0 0-4.377 5.104-7.293 13.127-4.01 7.293-8.021 17.502-7.293 27.711 1.094 20.422 1.094 31.727 1.094 31.727s1.094 1.094 0 1.82c0 1.094 0 3.281-1.822 4.375-3.283 1.828-12.398 5.109-19.691 1.828 0 0 0-1.094-0.73-1.094 0 0-1.094 0-1.094-0.734-1.092-1.094-3.281-3.281-2.188-5.102l-2.916-110.49 31.723-1.096z"/>
         <path d="m123.46 262.95v1.094c1.094 0 1.094 1.094 1.094 1.094 0 1.824-2.188 92.984-2.188 92.984s0 0.727-0.729 2.914c0 1.094-1.096 2.922-2.188 2.922-4.012 1.094-15.316 2.188-18.598-0.734l-0.729-1.094h-1.096c0-1.094-1.092-2.188-1.092-4.008l-2.915-99.184 16.043-1.094z"/>
         <path d="m109.24 246.54c0 1.096 0 1.096-1.094 1.096s-2.189 0-2.918-1.096c-2.188-1.822-13.492-14.221-15.314-16.408v-0.73c0-1.094 0-2.186 0.729-2.186 1.094-1.096 13.492-12.4 13.492-12.4h1.094s0-0.729 0.729-0.729c1.096 0 2.189 0 4.377 0.729 0.729 2.188 2.918 4.377 5.834 6.199 2.188 2.189 5.471 5.105 7.293 8.387 0 0.73 0 0.73 1.094 1.824 0 0 0 1.094-1.094 2.188-1.094 0-4.01 4.012-7.293 6.928-4.011 3.281-6.929 6.198-6.929 6.198z"/>
         <path d="m394.03 287.38h1.094 1.094c1.094-1.096 2.188-1.096 4.012 1.092 1.094 0 2.188 1.094 3.281 2.189 0.73 0.729 2.918 1.822 4.012 2.916 2.918 2.189 6.199 4.012 8.02 7.293v0.727s1.098 0 1.098 1.094c0 0 0 1.094-1.098 2.195-1.09 0-4.008 4.008-6.926 8.016-2.188 3.281-5.105 6.203-5.105 6.203 0 1.094-3.281 2.188-5.105 0-2.188-1.828-14.586-11.305-15.316-12.398-1.09 0-1.09-0.734-1.09-1.82 0 0 0-1.102 1.09-2.195 0.73 0 4.012-4.008 5.836-8.02 3.279-3.282 5.103-6.2 5.103-7.292z"/>
         <path d="m344.07 97.403c0-4.012 0-6.199 5.105-6.928 4.012-2.189 18.598-2.189 28.809 0.729 0 0 2.914 2.188 2.914 8.387 0 6.928-1.094 168.46-1.094 168.46s-1.82 7.293-5.102 8.023c-1.824 2.188-11.305 3.281-14.223 1.094 0 0-5.105-1.094-5.105-8.021 0-6.2-11.304-171.75-11.304-171.75z"/>
        </g>
       </g>
      </g>
      <g transform="matrix(.73118 0 0 .73118 43.54 71.505)" style="mix-blend-mode:normal">
       <rect x="120.48" y="377.57" width="62.743" height="30.995" ry="15.497" fill="#fff" stop-color="#000000" style="font-variation-settings:normal;mix-blend-mode:normal"/>
       <path d="m140.42 387.05h2.8014v11.998h-2.8014v-1.2509c-1.2333 1.4271-2.7309 1.6209-3.5942 1.6209-3.6999 0-5.8142-3.0833-5.8142-6.378 0-3.9114 2.678-6.3075 5.8494-6.3075 0.88094 0 2.4314 0.22904 3.559 1.709zm-6.5366 6.0608c0 2.0614 1.3038 3.8233 3.3299 3.8233 1.7619 0 3.4004-1.2862 3.4004-3.788 0-2.6252-1.6209-3.8761-3.4004-3.8761-2.0262-0.0177-3.3299 1.709-3.3299 3.8409zm12.668-6.0608h2.8014v1.0747c0.31713-0.36999 0.77522-0.77523 1.1628-1.0043 0.54618-0.31714 1.0748-0.40524 1.709-0.40524 0.68714 0 1.4271 0.10571 2.2023 0.5638l-1.1452 2.5371c-0.63428-0.40523-1.1452-0.42285-1.4271-0.42285-0.59904 0-1.1981 0.0881-1.7443 0.6519-0.77522 0.82807-0.77522 1.9733-0.77522 2.7661v6.237h-2.8014zm9.6727 0h2.8014v1.11c0.93379-1.1452 2.0438-1.4271 2.96-1.4271 1.2509 0 2.4314 0.59904 3.1009 1.7619 1.0043-1.4271 2.5019-1.7619 3.559-1.7619 1.4624 0 2.7309 0.68713 3.418 1.8852 0.22905 0.40524 0.63428 1.2862 0.63428 3.0304v7.4175h-2.8014v-6.5894c0-1.339-0.14095-1.8852-0.26429-2.1319-0.17618-0.45809-0.59903-1.0571-1.6033-1.0571-0.68713 0-1.2862 0.37-1.6562 0.88094-0.49332 0.68713-0.54618 1.709-0.54618 2.7309v6.1842h-2.8014v-6.607c0-1.339-0.14095-1.8852-0.26428-2.1319-0.17619-0.45809-0.59904-1.0571-1.6033-1.0571-0.68714 0-1.2862 0.37-1.6562 0.88094-0.49332 0.68713-0.54618 1.709-0.54618 2.7309v6.1842h-2.7309z" fill="#0091bd" stroke-width=".17619"/>
      </g>
      <g transform="matrix(.61866 0 0 .61866 27.574 134.01)">
       <rect x="109.01" y="354.94" width="37.153" height="51.486" ry="18.576" fill="#fff" stop-color="#000000" style="font-variation-settings:normal"/>
       <g transform="matrix(.26458 0 0 .26458 113.2 361.62)" style="mix-blend-mode:normal">
        <g fill="#d70751">
         <path d="m60.969 47.645c-1.494 0.02 0.281 0.768 2.232 1.069 0.541-0.422 1.027-0.846 1.463-1.26-1.213 0.297-2.449 0.304-3.695 0.191"/>
         <path d="m68.986 45.646c0.893-1.229 1.541-2.573 1.77-3.963-0.201 0.99-0.736 1.845-1.244 2.749-2.793 1.759-0.264-1.044-2e-3 -2.111-3.002 3.783-0.414 2.268-0.524 3.325"/>
         <path d="m71.949 37.942c0.182-2.691-0.529-1.839-0.768-0.814 0.278 0.146 0.499 1.898 0.768 0.814"/>
         <path d="m55.301 1.163c0.798 0.142 1.724 0.252 1.591 0.443 0.876-0.193 1.073-0.367-1.591-0.443"/>
         <path d="m56.893 1.606-0.561 0.117 0.523-0.048 0.038-0.069"/>
         <path d="m81.762 38.962c0.09 2.416-0.705 3.59-1.424 5.666l-1.293 0.643c-1.057 2.054 0.105 1.304-0.652 2.937-1.652 1.467-5.006 4.589-6.08 4.875-0.785-0.017 0.531-0.926 0.703-1.281-2.209 1.516-1.773 2.276-5.152 3.199l-0.098-0.221c-8.33 3.92-19.902-3.847-19.75-14.443-0.088 0.672-0.253 0.504-0.437 0.774-0.43-5.451 2.518-10.926 7.49-13.165 4.863-2.406 10.564-1.42 14.045 1.829-1.912-2.506-5.721-5.163-10.232-4.917-4.421 0.072-8.558 2.881-9.938 5.932-2.264 1.425-2.528 5.496-3.514 6.242-1.329 9.76 2.497 13.975 8.97 18.936 1.016 0.686 0.286 0.791 0.422 1.313-2.15-1.006-4.118-2.526-5.738-4.387 0.86 1.257 1.787 2.479 2.986 3.439-2.029-0.685-4.738-4.913-5.527-5.085 3.495 6.258 14.178 10.975 19.775 8.634-2.59 0.096-5.879 0.053-8.787-1.022-1.225-0.629-2.884-1.93-2.587-2.173 7.636 2.851 15.522 2.158 22.128-3.137 1.682-1.31 3.518-3.537 4.049-3.567-0.799 1.202 0.137 0.578-0.477 1.639 1.672-2.701-0.729-1.1 1.73-4.664l0.908 1.25c-0.34-2.244 2.785-4.966 2.467-8.512 0.717-1.084 0.799 1.168 0.039 3.662 1.055-2.767 0.279-3.212 0.549-5.496 0.291 0.768 0.678 1.583 0.875 2.394-0.688-2.675 0.703-4.503 1.049-6.058-0.342-0.15-1.061 1.182-1.227-1.976 0.025-1.372 0.383-0.719 0.52-1.057-0.268-0.155-0.975-1.207-1.404-3.224 0.309-0.475 0.832 1.229 1.256 1.298-0.273-1.603-0.742-2.826-0.762-4.057-1.24-2.59-0.439 0.346-1.443-1.112-1.32-4.114 1.094-0.955 1.258-2.823 1.998 2.895 3.137 7.385 3.662 9.244-0.4-2.267-1.045-4.464-1.834-6.589 0.609 0.257-0.979-4.663 0.791-1.405-1.889-6.945-8.078-13.435-13.773-16.479 0.695 0.637 1.574 1.437 1.26 1.563-2.834-1.685-2.336-1.818-2.742-2.53-2.305-0.939-2.459 0.077-3.984 2e-3 -4.35-2.308-5.188-2.063-9.191-3.507l0.182 0.852c-2.881-0.96-3.357 0.362-6.47 2e-3 -0.189-0.147 0.998-0.536 1.976-0.677-2.786 0.368-2.656-0.55-5.382 0.101 0.671-0.471 1.383-0.784 2.099-1.184-2.271 0.138-5.424 1.322-4.451 0.244-3.705 1.654-10.286 3.975-13.979 7.438l-0.116-0.776c-1.692 2.031-7.379 6.066-7.832 8.699l-0.453 0.105c-0.879 1.491-1.45 3.18-2.148 4.713-1.151 1.963-1.688 0.756-1.524 1.064-2.265 4.592-3.392 8.45-4.363 11.616 0.692 1.035 0.017 6.232 0.278 10.391-1.136 20.544 14.418 40.489 31.42 45.093 2.492 0.893 6.197 0.861 9.349 0.949-3.718-1.064-4.198-0.563-7.822-1.826-2.613-1.232-3.185-2.637-5.037-4.244l0.733 1.295c-3.63-1.285-2.111-1.59-5.065-2.525l0.783-1.021c-1.177-0.09-3.117-1.982-3.647-3.033l-1.288 0.051c-1.546-1.906-2.371-3.283-2.31-4.35l-0.416 0.742c-0.471-0.809-5.691-7.158-2.983-5.68-0.503-0.458-1.172-0.747-1.897-2.066l0.551-0.629c-1.301-1.677-2.398-3.826-2.314-4.542 0.695 0.938 1.177 1.114 1.655 1.275-3.291-8.164-3.476-0.449-5.967-8.31l0.526-0.042c-0.403-0.611-0.65-1.27-0.974-1.919l0.23-2.285c-2.368-2.736-0.662-11.645-0.319-16.53 0.235-1.986 1.977-4.101 3.3-7.418l-0.806-0.138c1.542-2.688 8.802-10.799 12.166-10.383 1.629-2.046-0.324-8e-3 -0.643-0.522 3.579-3.703 4.704-2.616 7.119-3.283 2.603-1.545-2.235 0.604-1.001-0.589 4.503-1.149 3.19-2.614 9.063-3.197 0.62 0.352-1.437 0.544-1.953 1.001 3.75-1.836 11.869-1.417 17.145 1.018 6.117 2.861 12.994 11.314 13.266 19.267l0.309 0.083c-0.156 3.162 0.484 6.819-0.627 10.177l0.751-1.591"/>
         <path d="m44.658 49.695-0.211 1.047c0.983 1.335 1.763 2.781 3.016 3.821-0.902-1.759-1.571-2.486-2.805-4.868"/>
         <path d="m46.979 49.605c-0.52-0.576-0.826-1.268-1.172-1.956 0.33 1.211 1.006 2.252 1.633 3.312l-0.461-1.356"/>
         <path d="m88.063 40.675-0.219 0.552c-0.402 2.858-1.273 5.686-2.605 8.309 1.472-2.767 2.421-5.794 2.824-8.861"/>
         <path d="m55.598 0.446c1.009-0.369 2.482-0.203 3.556-0.446-1.398 0.117-2.789 0.187-4.162 0.362l0.606 0.084"/>
         <path d="m20.127 19.308c0.233 2.154-1.62 2.991 0.41 1.569 1.09-2.454-0.424-0.677-0.41-1.569"/>
         <path d="m17.739 29.282c0.469-1.437 0.553-2.299 0.732-3.132-1.293 1.654-0.596 2.007-0.732 3.132"/>
        </g>
        <path d="m13.437 125.51c-0.045 0.047-0.045 7.506-0.138 9.453-0.092 1.574-0.232 4.957-3.568 4.957-3.429 0-4.263-3.939-4.541-5.652-0.324-1.9-0.324-3.477-0.324-4.17 0-2.225 0.139-8.436 5.375-8.436 1.576 0 2.456 0.465 3.151 0.834l0.045 3.02zm-13.437 5.47c0 13.066 6.951 13.066 7.97 13.066 2.873 0 4.727-1.576 5.514-4.309l0.093 4.123c0.881-0.047 1.761-0.139 3.197-0.139 0.51 0 0.926 0 1.298 0.047 0.371 0 0.741 0.045 1.158 0.092-0.741-1.482-1.297-4.818-1.297-12.049 0-7.043 0-18.951 0.602-22.566-1.667 0.789-3.105 1.299-6.256 1.576 1.251 1.344 1.251 2.039 1.251 8.154-0.879-0.277-1.992-0.602-3.892-0.602-8.294 0-9.638 7.23-9.638 12.61"/>
        <path d="m25.13 128.61c0.047-3.846 0.835-7.275 4.124-7.275 3.615 0 3.891 3.984 3.799 7.275zm12.51 0.46c0-5.422-1.065-10.752-7.923-10.752-9.452 0-9.452 10.475-9.452 12.697 0 9.406 4.216 13.113 11.306 13.113 3.149 0 4.68-0.461 5.514-0.695-0.046-1.668 0.185-2.734 0.465-4.17-0.975 0.604-2.226 1.391-5.006 1.391-7.229 0-7.322-6.582-7.322-8.852h12.328l0.09-2.74"/>
        <path d="m52.715 131.07c0 4.309-0.787 10.102-6.162 10.102-0.742 0-1.668-0.141-2.27-0.279-0.093-1.668-0.093-4.541-0.093-7.877 0-3.986 0.416-6.068 0.742-7.09 0.972-3.289 3.15-3.334 3.566-3.334 3.522 0 4.217 4.86 4.217 8.48zm-13.298 5.05c0 3.43 0 5.375-0.556 6.857 1.9 0.742 4.262 1.158 7.09 1.158 1.807 0 7.043 0 9.869-5.791 1.344-2.688 1.807-6.303 1.807-9.037 0-1.668-0.186-5.328-1.529-7.646-1.296-2.176-3.382-3.289-5.605-3.289-4.449 0-5.746 3.707-6.44 5.607 0-2.363 0.045-10.611 0.415-14.828-3.011 1.391-4.866 1.621-6.857 1.807 1.807 0.74 1.807 3.801 1.807 13.764v11.397"/>
        <path d="m66.535 143.86c-0.928-0.139-1.578-0.232-2.922-0.232-1.48 0-2.502 0.094-3.566 0.232 0.463-0.881 0.648-1.299 0.787-4.309 0.186-4.125 0.232-15.154-0.092-17.471-0.232-1.762-0.648-2.039-1.297-2.502 3.799-0.371 4.865-0.648 6.625-1.482-0.369 2.037-0.418 3.059-0.418 6.162-0.091 15.98-0.138 17.7 0.883 19.6"/>
        <path d="m81.373 130.74c-0.092 2.92-0.139 4.959-0.928 6.58-0.973 2.086-2.594 2.688-3.799 2.688-2.783 0-3.383-2.316-3.383-4.586 0-4.355 3.893-4.682 5.652-4.682zm-12.744 5.7c0 2.92 0.881 5.838 3.477 7.09 1.158 0.51 2.316 0.51 2.688 0.51 4.264 0 5.699-3.152 6.58-5.098-0.047 2.039 0 3.289 0.139 4.912 0.834-0.047 1.668-0.139 3.059-0.139 0.787 0 1.529 0.092 2.316 0.139-0.51-0.787-0.787-1.252-0.928-3.059-0.092-1.76-0.092-3.521-0.092-5.977l0.047-9.453c0-3.523-0.928-6.998-7.879-6.998-4.586 0-7.273 1.391-8.617 2.086 0.557 1.02 1.02 1.898 1.436 3.893 1.809-1.576 4.172-2.41 6.58-2.41 3.848 0 3.848 2.549 3.848 6.162-0.881-0.045-1.623-0.137-2.875-0.137-5.887 0.01-9.779 2.28-9.779 8.49"/>
        <path d="m108.06 139.27c0.047 1.576 0.047 3.244 0.695 4.588-1.021-0.092-1.623-0.232-3.521-0.232-1.113 0-1.715 0.094-2.596 0.232 0.184-0.602 0.279-0.834 0.371-1.623 0.139-1.064 0.232-4.633 0.232-5.885v-5.004c0-2.178 0-5.33-0.141-6.441-0.092-0.787-0.322-2.918-3.012-2.918-2.641 0-3.521 1.945-3.846 3.521-0.369 1.621-0.369 3.383-0.369 10.24 0.045 5.932 0.045 6.486 0.508 8.109-0.787-0.092-1.76-0.184-3.15-0.184-1.113 0-1.854 0.045-2.779 0.184 0.324-0.742 0.51-1.113 0.602-3.707 0.094-2.549 0.279-15.061-0.141-18.025-0.23-1.809-0.695-2.225-1.203-2.688 3.754-0.186 4.957-0.789 6.117-1.389v4.91c0.555-1.438 1.713-4.635 6.348-4.635 5.793 0 5.838 4.217 5.885 6.996v13.928"/>
        <path d="m66.926 111.53-3.838 3.836-3.836-3.836 3.836-3.836 3.838 3.84" fill="#d70751"/>
       </g>
      </g>
     </g>
     <g transform="translate(-1.4531e-6 -83.988)">
      <rect x="99.708" y="86.578" width="10.583" height="33.938" fill="url(#linearGradient6440)" stop-color="#000000"/>
      <path d="m94.417 119.67h21.167l-10.583 8.5794z" fill="url(#linearGradient6472)"/>
     </g>
     <g transform="translate(134.36 59.271)" fill="url(#linearGradient5165)">
      <rect x="-76.321" y="-114.46" width="93.917" height="63.5"/>
      <g stroke="#000" stroke-width=".53333">
       <circle cx="-70.746" cy="-109.33" r="3.5549"/>
       <circle cx="-70.746" cy="-96.161" r="3.5549"/>
       <circle cx="-70.746" cy="-82.993" r="3.5549"/>
       <circle cx="-70.746" cy="-56.657" r="3.5549"/>
       <circle cx="-70.746" cy="-69.825" r="3.5549"/>
      </g>
      <g transform="translate(82.754)" stroke="#000" stroke-width=".53333">
       <circle cx="-70.746" cy="-109.33" r="3.5549"/>
       <circle cx="-70.746" cy="-96.161" r="3.5549"/>
       <circle cx="-70.746" cy="-82.993" r="3.5549"/>
       <circle cx="-70.746" cy="-56.657" r="3.5549"/>
       <circle cx="-70.746" cy="-69.825" r="3.5549"/>
      </g>
     </g>
     <g transform="matrix(.80665 0 0 .80665 20.302 -4.533)" aria-label="source">
      <path d="m87.812-27.082v1.1989q-0.53743-0.27561-1.1162-0.41341-0.57878-0.1378-1.1989-0.1378-0.94396 0-1.4194 0.28939-0.46853 0.28939-0.46853 0.86816 0 0.44097 0.33762 0.69591 0.33762 0.24805 1.3574 0.47542l0.43408 0.09646q1.3505 0.28939 1.9155 0.81993 0.57189 0.52365 0.57189 1.4676 0 1.0749-0.85438 1.7019-0.84749 0.62701-2.3358 0.62701-0.62012 0-1.2954-0.12402-0.66835-0.11713-1.4125-0.35829v-1.3091q0.7028 0.36518 1.3849 0.55122 0.68213 0.17914 1.3505 0.17914 0.89572 0 1.378-0.30317 0.48231-0.31006 0.48231-0.86816 0-0.51676-0.3514-0.79237-0.34451-0.27561-1.5227-0.53054l-0.44097-0.10335q-1.1782-0.24805-1.7019-0.75792-0.52365-0.51676-0.52365-1.4125 0-1.0886 0.7717-1.6812t2.1911-0.59256q0.7028 0 1.3229 0.10335 0.62012 0.10335 1.1438 0.31006z"/>
      <path d="m93.235-26.421q-1.0197 0-1.6123 0.79926-0.59256 0.79237-0.59256 2.1773 0 1.3849 0.58567 2.1842 0.59256 0.79237 1.6192 0.79237 1.0129 0 1.6054-0.79926 0.59256-0.79926 0.59256-2.1773 0-1.3711-0.59256-2.1704-0.59256-0.80615-1.6054-0.80615zm0-1.0749q1.6536 0 2.5976 1.0749 0.94396 1.0749 0.94396 2.9766 0 1.8948-0.94396 2.9766-0.94396 1.0749-2.5976 1.0749-1.6605 0-2.6045-1.0749-0.93706-1.0818-0.93706-2.9766 0-1.9017 0.93706-2.9766 0.94396-1.0749 2.6045-1.0749z"/>
      <path d="m98.747-22.638v-4.6715h1.2678v4.6233q0 1.0955 0.42719 1.6468 0.42719 0.54432 1.2816 0.54432 1.0266 0 1.6192-0.65457 0.59945-0.65457 0.59945-1.7846v-4.3753h1.2678v7.717h-1.2678v-1.1851q-0.46164 0.7028-1.0749 1.0473-0.60634 0.33762-1.4125 0.33762-1.3298 0-2.0188-0.82682-0.68902-0.82682-0.68902-2.4185z"/>
      <path d="m112.29-26.124q-0.21359-0.12402-0.46853-0.17914-0.24805-0.06201-0.55122-0.06201-1.0749 0-1.6536 0.7028-0.57189 0.69591-0.57189 2.005v4.0652h-1.2747v-7.717h1.2747v1.1989q0.39964-0.7028 1.0404-1.0404 0.64079-0.34451 1.5572-0.34451 0.13092 0 0.28939 0.02067 0.15848 0.01378 0.3514 0.04823z"/>
      <path d="m118.87-27.013v1.1851q-0.53744-0.29628-1.0818-0.44097-0.53743-0.15158-1.0886-0.15158-1.2333 0-1.9155 0.78548-0.68213 0.77859-0.68213 2.1911t0.68213 2.198q0.68213 0.77859 1.9155 0.77859 0.55122 0 1.0886-0.14469 0.54432-0.15158 1.0818-0.44786v1.1713q-0.53054 0.24805-1.1024 0.37207-0.565 0.12402-1.2058 0.12402-1.7432 0-2.7699-1.0955-1.0266-1.0955-1.0266-2.9559 0-1.8879 1.0335-2.9697 1.0404-1.0818 2.8456-1.0818 0.58567 0 1.1438 0.12402 0.55811 0.11713 1.0818 0.35829z"/>
      <path d="m127.67-23.768v0.62012h-5.8291q0.0827 1.3091 0.78548 1.9982 0.70969 0.68213 1.9706 0.68213 0.73035 0 1.4125-0.17914 0.68902-0.17914 1.3643-0.53744v1.1989q-0.68213 0.28939-1.3987 0.44097t-1.4538 0.15158q-1.8466 0-2.9283-1.0749-1.0749-1.0749-1.0749-2.9077 0-1.8948 1.0197-3.0041 1.0266-1.1162 2.763-1.1162 1.5572 0 2.4598 1.006 0.90951 0.99908 0.90951 2.7216zm-1.2678-0.37207q-0.0138-1.0404-0.58566-1.6605-0.565-0.62012-1.5021-0.62012-1.0611 0-1.7019 0.59945-0.6339 0.59945-0.73036 1.6881z"/>
     </g>
     <g>
      <rect x="18.997" y="43.187" width="172.01" height="43.693" rx="24.946" ry="31.75" fill="url(#linearGradient7092)"/>
      <g aria-label="compiler">
       <path d="m86.838 62.387v0.88883q-0.40308-0.22221-0.81132-0.33073-0.40308-0.11369-0.81648-0.11369-0.925 0-1.4366 0.58911-0.5116 0.58394-0.5116 1.6433 0 1.0594 0.5116 1.6485 0.5116 0.58394 1.4366 0.58394 0.41341 0 0.81648-0.10852 0.40824-0.11369 0.81132-0.3359v0.8785q-0.39791 0.18603-0.82682 0.27905-0.42374 0.09302-0.90433 0.09302-1.3074 0-2.0774-0.82165-0.76998-0.82165-0.76998-2.2169 0-1.4159 0.77514-2.2272 0.78031-0.81132 2.1342-0.81132 0.43925 0 0.85783 0.09302 0.41858 0.08785 0.81132 0.26872z"/>
       <path d="m90.745 62.832q-0.76481 0-1.2092 0.59944-0.44442 0.59428-0.44442 1.633t0.43925 1.6381q0.44442 0.59428 1.2144 0.59428 0.75964 0 1.2041-0.59944 0.44442-0.59944 0.44442-1.633 0-1.0284-0.44442-1.6278-0.44442-0.60461-1.2041-0.60461zm0-0.80615q1.2402 0 1.9482 0.80615 0.70796 0.80615 0.70796 2.2324 0 1.4211-0.70796 2.2324-0.70796 0.80615-1.9482 0.80615-1.2454 0-1.9534-0.80615-0.7028-0.81132-0.7028-2.2324 0-1.4263 0.7028-2.2324 0.70796-0.80615 1.9534-0.80615z"/>
       <path d="m99.478 63.276q0.35657-0.64078 0.85266-0.94568 0.49609-0.30489 1.1679-0.30489 0.90433 0 1.3952 0.63562 0.49093 0.63045 0.49093 1.7983v3.4933h-0.95601v-3.4623q0-0.83199-0.29456-1.2351-0.29455-0.40308-0.89916-0.40308-0.73897 0-1.1679 0.49092-0.42891 0.49092-0.42891 1.3384v3.2711h-0.95601v-3.4623q0-0.83716-0.29456-1.2351-0.29456-0.40308-0.9095-0.40308-0.72864 0-1.1575 0.49609-0.42891 0.49092-0.42891 1.3332v3.2711h-0.95601v-5.7877h0.95601v0.89917q0.32556-0.53227 0.78031-0.78548 0.45475-0.25321 1.08-0.25321 0.63045 0 1.0697 0.32039 0.44442 0.32039 0.65629 0.93017z"/>
       <path d="m106.21 67.085v3.0696h-0.95601v-7.9892h0.95601v0.8785q0.29973-0.51676 0.75448-0.76481 0.45992-0.25321 1.0955-0.25321 1.0542 0 1.7105 0.83716 0.66145 0.83716 0.66145 2.2014 0 1.3643-0.66145 2.2014-0.65629 0.83716-1.7105 0.83716-0.63561 0-1.0955-0.24805-0.45475-0.25321-0.75448-0.76998zm3.2349-2.0205q0-1.049-0.43408-1.6433-0.42892-0.59944-1.1834-0.59944t-1.1886 0.59944q-0.42892 0.59428-0.42892 1.6433t0.42892 1.6485q0.43408 0.59428 1.1886 0.59428t1.1834-0.59428q0.43408-0.59944 0.43408-1.6485z"/>
       <path d="m112 62.165h0.95084v5.7877h-0.95084zm0-2.2531h0.95084v1.2041h-0.95084z"/>
       <path d="m114.94 59.912h0.95085v8.0408h-0.95085z"/>
       <path d="m122.83 64.821v0.46509h-4.3718q0.062 0.98185 0.58911 1.4986 0.53226 0.5116 1.4779 0.5116 0.54777 0 1.0594-0.13436 0.51677-0.13436 1.0232-0.40308v0.89917q-0.51159 0.21704-1.049 0.33073-0.53743 0.11369-1.0904 0.11369-1.3849 0-2.1962-0.80615-0.80615-0.80615-0.80615-2.1807 0-1.4211 0.76481-2.2531 0.76998-0.83716 2.0722-0.83716 1.1679 0 1.8448 0.75447 0.68213 0.74931 0.68213 2.0412zm-0.95084-0.27905q-0.0103-0.78031-0.43925-1.2454-0.42375-0.46509-1.1265-0.46509-0.79582 0-1.2764 0.44958-0.47542 0.44958-0.54777 1.2661z"/>
       <path d="m127.74 63.054q-0.16019-0.09302-0.3514-0.13436-0.18603-0.04651-0.41341-0.04651-0.80615 0-1.2402 0.5271-0.42891 0.52193-0.42891 1.5038v3.0489h-0.95601v-5.7877h0.95601v0.89917q0.29972-0.5271 0.78031-0.78031 0.48059-0.25838 1.1679-0.25838 0.0982 0 0.21705 0.0155 0.11885 0.01033 0.26354 0.03617z"/>
      </g>
     </g>
     <rect x="99.708" y="86.578" width="10.583" height="33.938" fill="url(#linearGradient6440)" stop-color="#000000"/>
     <path d="m94.417 119.67h21.167l-10.583 8.5794z" fill="url(#linearGradient6472)"/>
    </g>
   </g>
  </g>
 </g>
</svg>
